{
  "accessors": [
    {
      "bufferView": 0,
      "componentType": 5126,
      "count": 5746,
      "max": [
        0.004360725171864033,
        0.009205606766045094,
        0.005398288834840059
      ],
      "min": [
        -0.004279888700693846,
        -6.501669758129935e-10,
        -0.005398288834840059
      ],
      "name": "Mesh.059/POSITION",
      "type": "VEC3"
    },
    {
      "bufferView": 0,
      "byteOffset": 12,
      "componentType": 5126,
      "count": 5746,
      "name": "Mesh.059/NORMAL",
      "type": "VEC3"
    },
    {
      "bufferView": 0,
      "byteOffset": 24,
      "componentType": 5126,
      "count": 5746,
      "name": "Mesh.059/TEXCOORD_0",
      "type": "VEC2"
    },
    {
      "bufferView": 1,
      "componentType": 5125,
      "count": 14304,
      "name": "Mesh.059/INDICES",
      "type": "SCALAR"
    }
  ],
  "asset": {
    "copyright": "Copyright (c) 2018-2020 Chukong Technologies Inc.",
    "generator": "FBX-glTF-conv",
    "version": "2.0"
  },
  "bufferViews": [
    {
      "buffer": 0,
      "byteLength": 183872,
      "byteStride": 32,
      "name": "Mesh.059",
      "target": 34962
    },
    {
      "buffer": 0,
      "byteLength": 57216,
      "byteOffset": 183872
    }
  ],
  "buffers": [
    {
      "byteLength": 241088,
      "uri": "out.bin"
    }
  ],
  "extras": {
    "FBX-glTF-conv": {
      "animationFrameRate": 25.0
    }
  },
  "images": [
    {
      "extras": {
        "FBX-glTF-conv": {
          "fileName": "C:\\Users\\Admin\\Desktop\\Cat Escape\\Texture.jpg",
          "relativeFileName": "C:\\Users\\Admin\\Desktop\\Cat Escape\\Texture.jpg"
        }
      },
      "name": "base_color_texture",
      "uri": "data:image/png;base64,"
    }
  ],
  "materials": [
    {
      "name": "Mat_Environment",
      "pbrMetallicRoughness": {
        "baseColorTexture": {
          "index": 0
        },
        "metallicFactor": 0.4000000059604645
      }
    }
  ],
  "meshes": [
    {
      "name": "Mesh.059",
      "primitives": [
        {
          "attributes": {
            "NORMAL": 1,
            "POSITION": 0,
            "TEXCOORD_0": 2
          },
          "indices": 3,
          "material": 0
        }
      ]
    }
  ],
  "nodes": [
    {
      "mesh": 0,
      "name": "Military_base_box_1"
    }
  ],
  "samplers": [
    {}
  ],
  "scenes": [
    {
      "name": "Scene",
      "nodes": [
        0
      ]
    }
  ],
  "textures": [
    {
      "name": "base_color_texture",
      "sampler": 0,
      "source": 0
    }
  ]
}