{
  "accessors": [
    {
      "bufferView": 0,
      "componentType": 5126,
      "count": 100,
      "max": [
        0.007604443468153477,
        0.016493333503603935,
        0.00834012869745493
      ],
      "min": [
        -0.0026142860297113657,
        -3.4425554074069e-10,
        -0.008340129628777504
      ],
      "name": "Mesh.060/POSITION",
      "type": "VEC3"
    },
    {
      "bufferView": 0,
      "byteOffset": 12,
      "componentType": 5126,
      "count": 100,
      "name": "Mesh.060/NORMAL",
      "type": "VEC3"
    },
    {
      "bufferView": 0,
      "byteOffset": 24,
      "componentType": 5126,
      "count": 100,
      "name": "Mesh.060/TEXCOORD_0",
      "type": "VEC2"
    },
    {
      "bufferView": 1,
      "componentType": 5125,
      "count": 192,
      "name": "Mesh.060/INDICES",
      "type": "SCALAR"
    },
    {
      "bufferView": 2,
      "componentType": 5126,
      "count": 104,
      "max": [
        0.002455175155773759,
        0.008013256825506687,
        0.008126246742904186
      ],
      "min": [
        -4.292614708134579e-09,
        -0.008013256825506687,
        -5.827964136166707e-16
      ],
      "name": "Mesh.004/POSITION",
      "type": "VEC3"
    },
    {
      "bufferView": 2,
      "byteOffset": 12,
      "componentType": 5126,
      "count": 104,
      "name": "Mesh.004/NORMAL",
      "type": "VEC3"
    },
    {
      "bufferView": 2,
      "byteOffset": 24,
      "componentType": 5126,
      "count": 104,
      "name": "Mesh.004/TEXCOORD_0",
      "type": "VEC2"
    },
    {
      "bufferView": 3,
      "componentType": 5125,
      "count": 144,
      "name": "Mesh.004/INDICES",
      "type": "SCALAR"
    },
    {
      "bufferView": 4,
      "componentType": 5126,
      "count": 104,
      "max": [
        0.0024551725946366787,
        0.008013256825506687,
        6.993557175158285e-16
      ],
      "min": [
        -5.6165485595727205e-09,
        -0.008013256825506687,
        -0.008126246742904186
      ],
      "name": "Mesh.005/POSITION",
      "type": "VEC3"
    },
    {
      "bufferView": 4,
      "byteOffset": 12,
      "componentType": 5126,
      "count": 104,
      "name": "Mesh.005/NORMAL",
      "type": "VEC3"
    },
    {
      "bufferView": 4,
      "byteOffset": 24,
      "componentType": 5126,
      "count": 104,
      "name": "Mesh.005/TEXCOORD_0",
      "type": "VEC2"
    },
    {
      "bufferView": 5,
      "componentType": 5125,
      "count": 144,
      "name": "Mesh.005/INDICES",
      "type": "SCALAR"
    }
  ],
  "asset": {
    "copyright": "Copyright (c) 2018-2020 Chukong Technologies Inc.",
    "generator": "FBX-glTF-conv",
    "version": "2.0"
  },
  "bufferViews": [
    {
      "buffer": 0,
      "byteLength": 3200,
      "byteStride": 32,
      "name": "Mesh.060",
      "target": 34962
    },
    {
      "buffer": 0,
      "byteLength": 768,
      "byteOffset": 3200
    },
    {
      "buffer": 0,
      "byteLength": 3328,
      "byteOffset": 3968,
      "byteStride": 32,
      "name": "Mesh.004",
      "target": 34962
    },
    {
      "buffer": 0,
      "byteLength": 576,
      "byteOffset": 7296
    },
    {
      "buffer": 0,
      "byteLength": 3328,
      "byteOffset": 7872,
      "byteStride": 32,
      "name": "Mesh.005",
      "target": 34962
    },
    {
      "buffer": 0,
      "byteLength": 576,
      "byteOffset": 11200
    }
  ],
  "buffers": [
    {
      "byteLength": 11776,
      "uri": "out.bin"
    }
  ],
  "extras": {
    "FBX-glTF-conv": {
      "animationFrameRate": 25.0
    }
  },
  "images": [
    {
      "extras": {
        "FBX-glTF-conv": {
          "fileName": "C:\\Users\\Admin\\Desktop\\Cat Escape\\Texture.jpg",
          "relativeFileName": "C:\\Users\\Admin\\Desktop\\Cat Escape\\Texture.jpg"
        }
      },
      "name": "base_color_texture",
      "uri": "data:image/png;base64,"
    }
  ],
  "materials": [
    {
      "name": "Mat_Environment",
      "pbrMetallicRoughness": {
        "baseColorTexture": {
          "index": 0
        },
        "metallicFactor": 0.4000000059604645
      }
    }
  ],
  "meshes": [
    {
      "name": "Mesh.060",
      "primitives": [
        {
          "attributes": {
            "NORMAL": 1,
            "POSITION": 0,
            "TEXCOORD_0": 2
          },
          "indices": 3,
          "material": 0
        }
      ]
    },
    {
      "name": "Mesh.004",
      "primitives": [
        {
          "attributes": {
            "NORMAL": 5,
            "POSITION": 4,
            "TEXCOORD_0": 6
          },
          "indices": 7,
          "material": 0
        }
      ]
    },
    {
      "name": "Mesh.005",
      "primitives": [
        {
          "attributes": {
            "NORMAL": 9,
            "POSITION": 8,
            "TEXCOORD_0": 10
          },
          "indices": 11,
          "material": 0
        }
      ]
    }
  ],
  "nodes": [
    {
      "children": [
        1,
        2,
        3
      ],
      "name": "cabinet"
    },
    {
      "mesh": 0,
      "name": "cabinet_",
      "translation": [
        0.0026142820715904236,
        -4.506603701326384e-10,
        3.725290298461914e-09
      ]
    },
    {
      "mesh": 1,
      "name": "door_L",
      "translation": [
        0.010218720883131027,
        0.008480075746774673,
        -0.008182033896446228
      ]
    },
    {
      "mesh": 2,
      "name": "door_R",
      "translation": [
        0.010218720883131027,
        0.008480075746774673,
        0.008182041347026825
      ]
    }
  ],
  "samplers": [
    {}
  ],
  "scenes": [
    {
      "name": "Scene",
      "nodes": [
        0
      ]
    }
  ],
  "textures": [
    {
      "name": "base_color_texture",
      "sampler": 0,
      "source": 0
    }
  ]
}