{
  "accessors": [
    {
      "bufferView": 0,
      "componentType": 5126,
      "count": 289,
      "max": [
        0.026871800422668457,
        0.07213050127029419,
        0.024106288328766823
      ],
      "min": [
        -0.025726718828082085,
        -0.00019989490101579577,
        -0.02064063586294651
      ],
      "name": "Patita/POSITION",
      "type": "VEC3"
    },
    {
      "bufferView": 0,
      "byteOffset": 12,
      "componentType": 5126,
      "count": 289,
      "name": "Patita/NORMAL",
      "type": "VEC3"
    },
    {
      "bufferView": 0,
      "byteOffset": 24,
      "componentType": 5126,
      "count": 289,
      "name": "Patita/TEXCOORD_0",
      "type": "VEC2"
    },
    {
      "bufferView": 1,
      "componentType": 5125,
      "count": 1368,
      "name": "Patita/INDICES",
      "type": "SCALAR"
    }
  ],
  "asset": {
    "copyright": "Copyright (c) 2018-2020 Chukong Technologies Inc.",
    "generator": "FBX-glTF-conv",
    "version": "2.0"
  },
  "bufferViews": [
    {
      "buffer": 0,
      "byteLength": 9248,
      "byteStride": 32,
      "name": "Patita",
      "target": 34962
    },
    {
      "buffer": 0,
      "byteLength": 5472,
      "byteOffset": 9248
    }
  ],
  "buffers": [
    {
      "byteLength": 14720,
      "uri": "out.bin"
    }
  ],
  "extras": {
    "FBX-glTF-conv": {
      "animationFrameRate": 30.0
    }
  },
  "images": [
    {
      "extras": {
        "FBX-glTF-conv": {
          "fileName": "E:/danie/OneDrive/Documents/maya/projects/Gluttony/sourceimages/PatitaPollo_color_1K.png",
          "relativeFileName": "E:\\danie\\OneDrive\\Documents\\maya\\projects\\Gluttony\\sourceimages\\PatitaPollo_color_1K.png"
        }
      },
      "name": "file3",
      "uri": "data:image/png;base64,"
    }
  ],
  "materials": [
    {
      "name": "mtl_Patita",
      "pbrMetallicRoughness": {
        "baseColorFactor": [
          0.800000011920929,
          0.800000011920929,
          0.800000011920929,
          1.0
        ],
        "baseColorTexture": {
          "index": 0
        }
      }
    }
  ],
  "meshes": [
    {
      "name": "Patita",
      "primitives": [
        {
          "attributes": {
            "NORMAL": 1,
            "POSITION": 0,
            "TEXCOORD_0": 2
          },
          "indices": 3,
          "material": 0
        }
      ]
    }
  ],
  "nodes": [
    {
      "mesh": 0,
      "name": "Patita"
    }
  ],
  "samplers": [
    {}
  ],
  "scenes": [
    {
      "nodes": [
        0
      ]
    }
  ],
  "textures": [
    {
      "name": "file3",
      "sampler": 0,
      "source": 0
    }
  ]
}