{
    "asset": {
        "generator": "FBX2glTF v0.9.7",
        "version": "2.0"
    },
    "scene": 0,
    "buffers": [
        {
            "byteLength": 720,
            "uri": "buffer.bin"
        }
    ],
    "bufferViews": [
        {
            "buffer": 0,
            "byteLength": 36,
            "byteOffset": 0
        },
        {
            "buffer": 0,
            "byteLength": 108,
            "byteOffset": 36
        },
        {
            "buffer": 0,
            "byteLength": 144,
            "byteOffset": 144
        },
        {
            "buffer": 0,
            "byteLength": 144,
            "byteOffset": 288
        },
        {
            "buffer": 0,
            "byteLength": 144,
            "byteOffset": 432
        },
        {
            "buffer": 0,
            "byteLength": 144,
            "byteOffset": 576
        }
    ],
    "scenes": [
        {
            "name": "Root Scene",
            "nodes": [
                0
            ]
        }
    ],
    "accessors": [
        {
            "componentType": 5126,
            "type": "SCALAR",
            "count": 9,
            "bufferView": 0,
            "byteOffset": 0,
            "min": [
                0.0
            ],
            "max": [
                0.333333343267441
            ]
        },
        {
            "componentType": 5126,
            "type": "VEC3",
            "count": 9,
            "bufferView": 1,
            "byteOffset": 0
        },
        {
            "componentType": 5126,
            "type": "VEC4",
            "count": 9,
            "bufferView": 2,
            "byteOffset": 0
        },
        {
            "componentType": 5126,
            "type": "VEC4",
            "count": 9,
            "bufferView": 3,
            "byteOffset": 0
        },
        {
            "componentType": 5126,
            "type": "VEC4",
            "count": 9,
            "bufferView": 4,
            "byteOffset": 0
        },
        {
            "componentType": 5126,
            "type": "VEC4",
            "count": 9,
            "bufferView": 5,
            "byteOffset": 0
        }
    ],
    "samplers": [
        {}
    ],
    "animations": [
        {
            "name": "SpaceShip_move",
            "channels": [
                {
                    "sampler": 0,
                    "target": {
                        "node": 1,
                        "path": "translation"
                    }
                },
                {
                    "sampler": 1,
                    "target": {
                        "node": 6,
                        "path": "rotation"
                    }
                },
                {
                    "sampler": 2,
                    "target": {
                        "node": 10,
                        "path": "rotation"
                    }
                },
                {
                    "sampler": 3,
                    "target": {
                        "node": 13,
                        "path": "rotation"
                    }
                },
                {
                    "sampler": 4,
                    "target": {
                        "node": 15,
                        "path": "rotation"
                    }
                }
            ],
            "samplers": [
                {
                    "input": 0,
                    "interpolation": "LINEAR",
                    "output": 1
                },
                {
                    "input": 0,
                    "interpolation": "LINEAR",
                    "output": 2
                },
                {
                    "input": 0,
                    "interpolation": "LINEAR",
                    "output": 3
                },
                {
                    "input": 0,
                    "interpolation": "LINEAR",
                    "output": 4
                },
                {
                    "input": 0,
                    "interpolation": "LINEAR",
                    "output": 5
                }
            ]
        }
    ],
    "nodes": [
        {
            "name": "RootNode",
            "translation": [
                0.0,
                0.0,
                0.0
            ],
            "rotation": [
                0.0,
                0.0,
                0.0,
                1.0
            ],
            "scale": [
                1.0,
                1.0,
                1.0
            ],
            "children": [
                1
            ]
        },
        {
            "name": "Root_M",
            "translation": [
                0.0,
                0.103573255240917,
                0.0
            ],
            "rotation": [
                0.500048220157623,
                0.499951809644699,
                0.500013947486877,
                0.4999860227108
            ],
            "scale": [
                1.0,
                1.0,
                1.0
            ],
            "children": [
                2,
                12,
                14
            ]
        },
        {
            "name": "Body_M",
            "translation": [
                0.0255978815257549,
                -5.80677018068632e-17,
                -2.46872818958518e-18
            ],
            "rotation": [
                -8.6846880347139e-26,
                -4.73571321223622e-21,
                -0.0,
                1.0
            ],
            "scale": [
                1.0,
                1.0,
                1.0
            ],
            "children": [
                3,
                4,
                8
            ]
        },
        {
            "name": "BodyEnd_M",
            "translation": [
                0.0314607843756676,
                -2.16840429650339e-21,
                -9.93020730074804e-18
            ],
            "rotation": [
                -9.14027492900167e-25,
                -4.73571321223622e-21,
                -1.35525271560688e-20,
                1.0
            ],
            "scale": [
                1.0,
                1.0,
                1.0
            ]
        },
        {
            "name": "wing1_R",
            "translation": [
                0.01981520652771,
                -0.00586253451183438,
                -0.0263877622783184
            ],
            "rotation": [
                0.588311553001404,
                0.321552336215973,
                -0.35584419965744,
                0.651051878929138
            ],
            "scale": [
                1.0,
                1.0,
                1.0
            ],
            "children": [
                5
            ]
        },
        {
            "name": "wing2_R",
            "translation": [
                0.0429245233535767,
                5.32907039908674e-17,
                3.21964667876873e-17
            ],
            "rotation": [
                0.015495209954679,
                0.0368847995996475,
                -0.171682015061378,
                0.984339714050293
            ],
            "scale": [
                1.0,
                1.0,
                1.0
            ],
            "children": [
                6
            ]
        },
        {
            "name": "wing3_R",
            "translation": [
                0.0279112923890352,
                7.10542719878232e-17,
                9.99200679149249e-18
            ],
            "rotation": [
                0.00480295391753316,
                0.0221392922103405,
                -0.0113991070538759,
                0.999678373336792
            ],
            "scale": [
                1.0,
                1.0,
                1.0
            ],
            "children": [
                7
            ]
        },
        {
            "name": "wing4_R",
            "translation": [
                0.0242546387016773,
                -5.32907039908674e-17,
                -4.44089183380283e-17
            ],
            "rotation": [
                -4.33680868994202e-19,
                3.73219456386076e-36,
                -8.60585474410369e-18,
                1.0
            ],
            "scale": [
                1.0,
                1.0,
                1.0
            ]
        },
        {
            "name": "wing1_L",
            "translation": [
                0.01981520652771,
                -0.00586253451183438,
                0.0263877622783184
            ],
            "rotation": [
                -0.321552336215973,
                0.588311553001404,
                0.651051878929138,
                0.35584419965744
            ],
            "scale": [
                1.0,
                1.0,
                1.0
            ],
            "children": [
                9
            ]
        },
        {
            "name": "wing2_L",
            "translation": [
                -0.0429245233535767,
                -8.88178366760566e-17,
                -5.44009259567014e-17
            ],
            "rotation": [
                0.015495209954679,
                0.0368847995996475,
                -0.171682015061378,
                0.984339714050293
            ],
            "scale": [
                1.0,
                1.0,
                1.0
            ],
            "children": [
                10
            ]
        },
        {
            "name": "wing3_L",
            "translation": [
                -0.0279112923890352,
                1.06581407981735e-16,
                -7.77156120546332e-18
            ],
            "rotation": [
                0.00480295391753316,
                0.0221392922103405,
                -0.0113991070538759,
                0.999678373336792
            ],
            "scale": [
                1.0,
                1.0,
                1.0
            ],
            "children": [
                11
            ]
        },
        {
            "name": "wing4_L",
            "translation": [
                -0.0242546387016773,
                -3.55271359939116e-17,
                3.33066887535212e-17
            ],
            "rotation": [
                0.0,
                -0.0,
                -1.40065368157971e-17,
                1.0
            ],
            "scale": [
                1.0,
                1.0,
                1.0
            ]
        },
        {
            "name": "hehe1_R",
            "translation": [
                -0.0204705689102411,
                -0.01182303391397,
                -0.0715868920087814
            ],
            "rotation": [
                0.105346813797951,
                0.108024515211582,
                -0.707727551460266,
                0.690184354782104
            ],
            "scale": [
                1.0,
                1.0,
                1.0
            ],
            "children": [
                13
            ]
        },
        {
            "name": "hehe2_R",
            "translation": [
                0.0753801167011261,
                0.0,
                -1.77635679969558e-17
            ],
            "rotation": [
                0.0101104341447353,
                -0.805641651153564,
                0.00743273226544261,
                0.592270314693451
            ],
            "scale": [
                1.0,
                1.0,
                1.0
            ]
        },
        {
            "name": "hehe1_L",
            "translation": [
                -0.0204705689102411,
                -0.01182303391397,
                0.0715868920087814
            ],
            "rotation": [
                -0.108024522662163,
                0.10534680634737,
                0.690184354782104,
                0.707727551460266
            ],
            "scale": [
                1.0,
                1.0,
                1.0
            ],
            "children": [
                15
            ]
        },
        {
            "name": "hehe2_L",
            "translation": [
                -0.0753801167011261,
                1.5987210866388e-16,
                4.44089183380283e-17
            ],
            "rotation": [
                0.0101104397326708,
                -0.805641651153564,
                0.0074327252805233,
                0.592270314693451
            ],
            "scale": [
                1.0,
                1.0,
                1.0
            ]
        }
    ]
}