{
  "accessors": [
    {
      "bufferView": 0,
      "componentType": 5126,
      "count": 453,
      "max": [
        0.0034968776162713766,
        0.013760877773165703,
        0.0032006935216486454
      ],
      "min": [
        -0.003498448058962822,
        9.37602817430161e-06,
        -0.003236188320443034
      ],
      "name": "polySurface19/POSITION",
      "type": "VEC3"
    },
    {
      "bufferView": 0,
      "byteOffset": 12,
      "componentType": 5126,
      "count": 453,
      "name": "polySurface19/NORMAL",
      "type": "VEC3"
    },
    {
      "bufferView": 0,
      "byteOffset": 24,
      "componentType": 5126,
      "count": 453,
      "name": "polySurface19/TEXCOORD_0",
      "type": "VEC2"
    },
    {
      "bufferView": 1,
      "componentType": 5125,
      "count": 1476,
      "name": "polySurface19/INDICES",
      "type": "SCALAR"
    }
  ],
  "asset": {
    "copyright": "Copyright (c) 2018-2020 Chukong Technologies Inc.",
    "generator": "FBX-glTF-conv",
    "version": "2.0"
  },
  "bufferViews": [
    {
      "buffer": 0,
      "byteLength": 14496,
      "byteStride": 32,
      "name": "polySurface19",
      "target": 34962
    },
    {
      "buffer": 0,
      "byteLength": 5904,
      "byteOffset": 14496
    }
  ],
  "buffers": [
    {
      "byteLength": 20400,
      "uri": "out.bin"
    }
  ],
  "extras": {
    "FBX-glTF-conv": {
      "animationFrameRate": 24.0
    }
  },
  "images": [
    {
      "extras": {
        "FBX-glTF-conv": {
          "fileName": "F:/Git/cat-escape/cat-escape/Assets/Cat Escape Prop/Texture/Texture.jpg",
          "relativeFileName": "..\\..\\Texture\\Texture.jpg"
        }
      },
      "name": "file1",
      "uri": "data:image/png;base64,"
    }
  ],
  "materials": [
    {
      "name": "Megatexture",
      "pbrMetallicRoughness": {
        "baseColorFactor": [
          0.800000011920929,
          0.800000011920929,
          0.800000011920929,
          1.0
        ],
        "baseColorTexture": {
          "index": 0
        },
        "metallicFactor": 0.4000000059604645,
        "roughnessFactor": 0.49053239822387695
      }
    }
  ],
  "meshes": [
    {
      "name": "polySurface19",
      "primitives": [
        {
          "attributes": {
            "NORMAL": 1,
            "POSITION": 0,
            "TEXCOORD_0": 2
          },
          "indices": 3,
          "material": 0
        }
      ]
    }
  ],
  "nodes": [
    {
      "children": [
        1,
        3,
        5,
        7,
        9,
        11,
        13,
        15,
        17,
        19,
        21
      ],
      "name": "bedsidetable"
    },
    {
      "children": [
        2
      ],
      "name": "polySurface6",
      "translation": [
        0.0015795144718140364,
        0.0,
        0.0
      ]
    },
    {
      "name": "transform11"
    },
    {
      "children": [
        4
      ],
      "name": "polySurface7",
      "translation": [
        0.0015795144718140364,
        0.0,
        0.0
      ]
    },
    {
      "name": "transform6"
    },
    {
      "children": [
        6
      ],
      "name": "polySurface8"
    },
    {
      "name": "transform5"
    },
    {
      "children": [
        8
      ],
      "name": "polySurface9"
    },
    {
      "name": "transform8"
    },
    {
      "children": [
        10
      ],
      "name": "polySurface10"
    },
    {
      "name": "transform4"
    },
    {
      "children": [
        12
      ],
      "name": "polySurface11"
    },
    {
      "name": "transform10"
    },
    {
      "children": [
        14
      ],
      "name": "polySurface15",
      "translation": [
        0.0015795144718140364,
        0.0,
        0.0
      ]
    },
    {
      "name": "transform2"
    },
    {
      "children": [
        16
      ],
      "name": "polySurface16"
    },
    {
      "name": "transform3"
    },
    {
      "children": [
        18
      ],
      "name": "polySurface17"
    },
    {
      "name": "transform9"
    },
    {
      "children": [
        20
      ],
      "name": "polySurface18",
      "translation": [
        0.0015795144718140364,
        0.0,
        0.0
      ]
    },
    {
      "name": "transform7"
    },
    {
      "name": "transform1"
    },
    {
      "children": [
        23,
        25,
        27,
        29,
        31,
        33,
        35,
        37,
        39,
        41,
        43
      ],
      "name": "polySurface6"
    },
    {
      "children": [
        24
      ],
      "name": "polySurface19"
    },
    {
      "name": "transform22"
    },
    {
      "children": [
        26
      ],
      "name": "polySurface20"
    },
    {
      "name": "transform20"
    },
    {
      "children": [
        28
      ],
      "name": "polySurface21"
    },
    {
      "name": "transform16"
    },
    {
      "children": [
        30
      ],
      "name": "polySurface22"
    },
    {
      "name": "transform17"
    },
    {
      "children": [
        32
      ],
      "name": "polySurface23"
    },
    {
      "name": "transform19"
    },
    {
      "children": [
        34
      ],
      "name": "polySurface24"
    },
    {
      "name": "transform13"
    },
    {
      "children": [
        36
      ],
      "name": "polySurface25"
    },
    {
      "name": "transform18"
    },
    {
      "children": [
        38
      ],
      "name": "polySurface26"
    },
    {
      "name": "transform15"
    },
    {
      "children": [
        40
      ],
      "name": "polySurface27"
    },
    {
      "name": "transform14"
    },
    {
      "children": [
        42
      ],
      "name": "polySurface28"
    },
    {
      "name": "transform21"
    },
    {
      "name": "transform12"
    },
    {
      "mesh": 0,
      "name": "polySurface19"
    }
  ],
  "samplers": [
    {}
  ],
  "scenes": [
    {
      "nodes": [
        0,
        22,
        44
      ]
    }
  ],
  "textures": [
    {
      "name": "file1",
      "sampler": 0,
      "source": 0
    }
  ]
}