{
  "accessors": [
    {
      "bufferView": 0,
      "componentType": 5126,
      "count": 793,
      "max": [
        0.007291360292583704,
        0.11807272583246231,
        0.007291361223906279
      ],
      "min": [
        -0.007291361223906279,
        -0.002252094680443406,
        -0.007291361223906279
      ],
      "name": "Carrot1/POSITION",
      "type": "VEC3"
    },
    {
      "bufferView": 0,
      "byteOffset": 12,
      "componentType": 5126,
      "count": 793,
      "name": "Carrot1/NORMAL",
      "type": "VEC3"
    },
    {
      "bufferView": 0,
      "byteOffset": 24,
      "componentType": 5126,
      "count": 793,
      "name": "Carrot1/TEXCOORD_0",
      "type": "VEC2"
    },
    {
      "bufferView": 1,
      "componentType": 5125,
      "count": 2868,
      "name": "Carrot1/INDICES",
      "type": "SCALAR"
    }
  ],
  "asset": {
    "copyright": "Copyright (c) 2018-2020 Chukong Technologies Inc.",
    "generator": "FBX-glTF-conv",
    "version": "2.0"
  },
  "bufferViews": [
    {
      "buffer": 0,
      "byteLength": 25376,
      "byteStride": 32,
      "name": "Carrot1",
      "target": 34962
    },
    {
      "buffer": 0,
      "byteLength": 11472,
      "byteOffset": 25376
    }
  ],
  "buffers": [
    {
      "byteLength": 36848,
      "uri": "out.bin"
    }
  ],
  "extras": {
    "FBX-glTF-conv": {
      "animationFrameRate": 30.0
    }
  },
  "images": [
    {
      "extras": {
        "FBX-glTF-conv": {
          "fileName": "D:/Farts Ville/Texture.png",
          "relativeFileName": "..\\Texture.png"
        }
      },
      "name": "file1",
      "uri": "data:image/png;base64,"
    }
  ],
  "materials": [
    {
      "name": "Texture",
      "pbrMetallicRoughness": {
        "baseColorFactor": [
          0.800000011920929,
          0.800000011920929,
          0.800000011920929,
          1.0
        ],
        "baseColorTexture": {
          "index": 0
        }
      }
    }
  ],
  "meshes": [
    {
      "name": "Carrot1",
      "primitives": [
        {
          "attributes": {
            "NORMAL": 1,
            "POSITION": 0,
            "TEXCOORD_0": 2
          },
          "indices": 3,
          "material": 0
        }
      ]
    }
  ],
  "nodes": [
    {
      "mesh": 0,
      "name": "Carrot1"
    }
  ],
  "samplers": [
    {}
  ],
  "scenes": [
    {
      "nodes": [
        0
      ]
    }
  ],
  "textures": [
    {
      "name": "file1",
      "sampler": 0,
      "source": 0
    }
  ]
}