{
    "asset": {
        "generator": "FBX2glTF v0.9.7",
        "version": "2.0"
    },
    "scene": 0,
    "buffers": [
        {
            "byteLength": 175744,
            "uri": "buffer.bin"
        }
    ],
    "bufferViews": [
        {
            "buffer": 0,
            "byteLength": 2688,
            "byteOffset": 0,
            "target": 34963
        },
        {
            "buffer": 0,
            "byteLength": 4104,
            "byteOffset": 2688,
            "target": 34962
        },
        {
            "buffer": 0,
            "byteLength": 4104,
            "byteOffset": 6792,
            "target": 34962
        },
        {
            "buffer": 0,
            "byteLength": 5472,
            "byteOffset": 10896,
            "target": 34962
        },
        {
            "buffer": 0,
            "byteLength": 2736,
            "byteOffset": 16368,
            "target": 34962
        },
        {
            "buffer": 0,
            "byteLength": 2736,
            "byteOffset": 19104,
            "target": 34962
        },
        {
            "buffer": 0,
            "byteLength": 5472,
            "byteOffset": 21840,
            "target": 34962
        },
        {
            "buffer": 0,
            "byteLength": 4320,
            "byteOffset": 27312,
            "target": 34963
        },
        {
            "buffer": 0,
            "byteLength": 5712,
            "byteOffset": 31632,
            "target": 34962
        },
        {
            "buffer": 0,
            "byteLength": 5712,
            "byteOffset": 37344,
            "target": 34962
        },
        {
            "buffer": 0,
            "byteLength": 7616,
            "byteOffset": 43056,
            "target": 34962
        },
        {
            "buffer": 0,
            "byteLength": 3808,
            "byteOffset": 50672,
            "target": 34962
        },
        {
            "buffer": 0,
            "byteLength": 3808,
            "byteOffset": 54480,
            "target": 34962
        },
        {
            "buffer": 0,
            "byteLength": 7616,
            "byteOffset": 58288,
            "target": 34962
        },
        {
            "buffer": 0,
            "byteLength": 9528,
            "byteOffset": 65904,
            "target": 34963
        },
        {
            "buffer": 0,
            "byteLength": 16644,
            "byteOffset": 75432,
            "target": 34962
        },
        {
            "buffer": 0,
            "byteLength": 16644,
            "byteOffset": 92076,
            "target": 34962
        },
        {
            "buffer": 0,
            "byteLength": 22192,
            "byteOffset": 108720,
            "target": 34962
        },
        {
            "buffer": 0,
            "byteLength": 11096,
            "byteOffset": 130912,
            "target": 34962
        },
        {
            "buffer": 0,
            "byteLength": 11096,
            "byteOffset": 142008,
            "target": 34962
        },
        {
            "buffer": 0,
            "byteLength": 22192,
            "byteOffset": 153104,
            "target": 34962
        },
        {
            "buffer": 0,
            "byteLength": 64,
            "byteOffset": 175296
        },
        {
            "buffer": 0,
            "byteLength": 64,
            "byteOffset": 175360
        },
        {
            "buffer": 0,
            "byteLength": 320,
            "byteOffset": 175424
        }
    ],
    "scenes": [
        {
            "name": "Root Scene",
            "nodes": [
                0
            ]
        }
    ],
    "accessors": [
        {
            "componentType": 5123,
            "type": "SCALAR",
            "count": 1344,
            "bufferView": 0,
            "byteOffset": 0
        },
        {
            "componentType": 5126,
            "type": "VEC3",
            "count": 342,
            "bufferView": 1,
            "byteOffset": 0,
            "min": [
                -0.0255563873797655,
                0.128638997673988,
                0.0283819455653429
            ],
            "max": [
                0.0247113276273012,
                0.142882004380226,
                0.0786490067839622
            ]
        },
        {
            "componentType": 5126,
            "type": "VEC3",
            "count": 342,
            "bufferView": 2,
            "byteOffset": 0
        },
        {
            "componentType": 5126,
            "type": "VEC4",
            "count": 342,
            "bufferView": 3,
            "byteOffset": 0
        },
        {
            "componentType": 5126,
            "type": "VEC2",
            "count": 342,
            "bufferView": 4,
            "byteOffset": 0
        },
        {
            "componentType": 5123,
            "type": "VEC4",
            "count": 342,
            "bufferView": 5,
            "byteOffset": 0
        },
        {
            "componentType": 5126,
            "type": "VEC4",
            "count": 342,
            "bufferView": 6,
            "byteOffset": 0
        },
        {
            "componentType": 5123,
            "type": "SCALAR",
            "count": 2160,
            "bufferView": 7,
            "byteOffset": 0
        },
        {
            "componentType": 5126,
            "type": "VEC3",
            "count": 476,
            "bufferView": 8,
            "byteOffset": 0,
            "min": [
                -0.0364019200205803,
                0.0220085047185421,
                -0.128302291035652
            ],
            "max": [
                0.036630067974329,
                0.0950403362512589,
                -0.0991658121347427
            ]
        },
        {
            "componentType": 5126,
            "type": "VEC3",
            "count": 476,
            "bufferView": 9,
            "byteOffset": 0
        },
        {
            "componentType": 5126,
            "type": "VEC4",
            "count": 476,
            "bufferView": 10,
            "byteOffset": 0
        },
        {
            "componentType": 5126,
            "type": "VEC2",
            "count": 476,
            "bufferView": 11,
            "byteOffset": 0
        },
        {
            "componentType": 5123,
            "type": "VEC4",
            "count": 476,
            "bufferView": 12,
            "byteOffset": 0
        },
        {
            "componentType": 5126,
            "type": "VEC4",
            "count": 476,
            "bufferView": 13,
            "byteOffset": 0
        },
        {
            "componentType": 5123,
            "type": "SCALAR",
            "count": 4764,
            "bufferView": 14,
            "byteOffset": 0
        },
        {
            "componentType": 5126,
            "type": "VEC3",
            "count": 1387,
            "bufferView": 15,
            "byteOffset": 0,
            "min": [
                -0.0625747665762901,
                1.72138209109107e-06,
                -0.11585309356451
            ],
            "max": [
                0.0630483999848366,
                0.182724192738533,
                0.181817770004272
            ]
        },
        {
            "componentType": 5126,
            "type": "VEC3",
            "count": 1387,
            "bufferView": 16,
            "byteOffset": 0
        },
        {
            "componentType": 5126,
            "type": "VEC4",
            "count": 1387,
            "bufferView": 17,
            "byteOffset": 0
        },
        {
            "componentType": 5126,
            "type": "VEC2",
            "count": 1387,
            "bufferView": 18,
            "byteOffset": 0
        },
        {
            "componentType": 5123,
            "type": "VEC4",
            "count": 1387,
            "bufferView": 19,
            "byteOffset": 0
        },
        {
            "componentType": 5126,
            "type": "VEC4",
            "count": 1387,
            "bufferView": 20,
            "byteOffset": 0
        },
        {
            "componentType": 5126,
            "type": "MAT4",
            "count": 1,
            "bufferView": 21,
            "byteOffset": 0
        },
        {
            "componentType": 5126,
            "type": "MAT4",
            "count": 1,
            "bufferView": 22,
            "byteOffset": 0
        },
        {
            "componentType": 5126,
            "type": "MAT4",
            "count": 5,
            "bufferView": 23,
            "byteOffset": 0
        }
    ],
    "images": [
        {
            "name": "Megatexture.png",
            "uri": "Megatexture.png"
        }
    ],
    "samplers": [
        {}
    ],
    "textures": [
        {
            "name": "file2",
            "sampler": 0,
            "source": 0
        }
    ],
    "materials": [
        {
            "name": "SubMarine_Mat",
            "alphaMode": "BLEND",
            "extras": {
                "fromFBX": {
                    "shadingModel": "Lambert",
                    "isTruePBR": false
                }
            },
            "pbrMetallicRoughness": {
                "baseColorTexture": {
                    "index": 0,
                    "texCoord": 0
                },
                "baseColorFactor": [
                    0.800000011920929,
                    0.800000011920929,
                    0.800000011920929,
                    1.0
                ],
                "metallicFactor": 0.200000002980232,
                "roughnessFactor": 0.800000011920929
            }
        }
    ],
    "meshes": [
        {
            "name": "pCylinder3",
            "primitives": [
                {
                    "material": 0,
                    "mode": 4,
                    "attributes": {
                        "JOINTS_0": 5,
                        "NORMAL": 2,
                        "POSITION": 1,
                        "TANGENT": 3,
                        "TEXCOORD_0": 4,
                        "WEIGHTS_0": 6
                    },
                    "indices": 0
                }
            ]
        },
        {
            "name": "Fan",
            "primitives": [
                {
                    "material": 0,
                    "mode": 4,
                    "attributes": {
                        "JOINTS_0": 12,
                        "NORMAL": 9,
                        "POSITION": 8,
                        "TANGENT": 10,
                        "TEXCOORD_0": 11,
                        "WEIGHTS_0": 13
                    },
                    "indices": 7
                }
            ]
        },
        {
            "name": "pCylinder5",
            "primitives": [
                {
                    "material": 0,
                    "mode": 4,
                    "attributes": {
                        "JOINTS_0": 19,
                        "NORMAL": 16,
                        "POSITION": 15,
                        "TANGENT": 17,
                        "TEXCOORD_0": 18,
                        "WEIGHTS_0": 20
                    },
                    "indices": 14
                }
            ]
        }
    ],
    "skins": [
        {
            "joints": [
                14
            ],
            "inverseBindMatrices": 21,
            "skeleton": 14
        },
        {
            "joints": [
                15
            ],
            "inverseBindMatrices": 22,
            "skeleton": 15
        },
        {
            "joints": [
                6,
                10,
                11,
                12,
                13
            ],
            "inverseBindMatrices": 23,
            "skeleton": 6
        }
    ],
    "nodes": [
        {
            "name": "RootNode",
            "translation": [
                0.0,
                0.0,
                0.0
            ],
            "rotation": [
                0.0,
                0.0,
                0.0,
                1.0
            ],
            "scale": [
                1.0,
                1.0,
                1.0
            ],
            "children": [
                1,
                5
            ]
        },
        {
            "name": "Submarine",
            "translation": [
                0.0,
                0.0,
                0.0
            ],
            "rotation": [
                0.0,
                0.0,
                0.0,
                1.0
            ],
            "scale": [
                1.0,
                1.0,
                1.0
            ],
            "children": [
                2,
                3,
                4
            ]
        },
        {
            "name": "pCylinder3",
            "translation": [
                0.0,
                0.0,
                0.0
            ],
            "rotation": [
                0.0,
                0.0,
                0.0,
                1.0
            ],
            "scale": [
                1.0,
                1.0,
                1.0
            ],
            "mesh": 0,
            "skin": 0
        },
        {
            "name": "Fan",
            "translation": [
                0.0,
                0.0,
                0.0
            ],
            "rotation": [
                0.0,
                0.0,
                0.0,
                1.0
            ],
            "scale": [
                1.0,
                1.0,
                1.0
            ],
            "mesh": 1,
            "skin": 1
        },
        {
            "name": "pCylinder5",
            "translation": [
                0.0,
                0.0,
                0.0
            ],
            "rotation": [
                0.0,
                0.0,
                0.0,
                1.0
            ],
            "scale": [
                1.0,
                1.0,
                1.0
            ],
            "mesh": 2,
            "skin": 2
        },
        {
            "name": "Root_M",
            "translation": [
                0.0,
                0.0568453520536423,
                -2.3474697156395e-18
            ],
            "rotation": [
                0.500044822692871,
                0.499955177307129,
                0.499955117702484,
                0.500044882297516
            ],
            "scale": [
                1.0,
                1.0,
                1.0
            ],
            "children": [
                6,
                15
            ]
        },
        {
            "name": "Body_M",
            "translation": [
                0.039122823625803,
                1.16083880187732e-17,
                5.16080217559488e-18
            ],
            "rotation": [
                -5.08913571006797e-12,
                8.96958663361147e-05,
                5.673741299006e-08,
                1.0
            ],
            "scale": [
                1.0,
                1.0,
                1.0
            ],
            "children": [
                7,
                8
            ]
        },
        {
            "name": "BodyEnd_M",
            "translation": [
                0.0199999995529652,
                4.59654009356122e-17,
                -6.40763467395321e-18
            ],
            "rotation": [
                -0.0,
                1.51076429804969e-29,
                6.16297582203915e-33,
                1.0
            ],
            "scale": [
                1.0,
                1.0,
                1.0
            ]
        },
        {
            "name": "joint1_M",
            "translation": [
                0.000749282131437212,
                0.0785065069794655,
                4.61252122299574e-17
            ],
            "rotation": [
                -7.61433716663802e-17,
                -2.9054481201499e-18,
                0.702039062976837,
                0.712138473987579
            ],
            "scale": [
                1.0,
                1.0,
                1.0
            ],
            "children": [
                9,
                14
            ]
        },
        {
            "name": "joint2_M",
            "translation": [
                0.0280023477971554,
                1.42108543975646e-16,
                1.2884658220771e-17
            ],
            "rotation": [
                4.00827868954331e-17,
                3.22670451462727e-17,
                -0.721303462982178,
                0.692619144916534
            ],
            "scale": [
                1.0,
                1.0,
                1.0
            ],
            "children": [
                10
            ]
        },
        {
            "name": "eyes4_M",
            "translation": [
                0.0185795035213232,
                5.32907039908674e-17,
                1.95102177630044e-17
            ],
            "rotation": [
                -3.77945968715971e-17,
                3.09799554218627e-17,
                0.028838099911809,
                0.999584078788757
            ],
            "scale": [
                1.0,
                1.0,
                1.0
            ],
            "children": [
                11
            ]
        },
        {
            "name": "eyes3_M",
            "translation": [
                0.0339693464338779,
                1.5987210866388e-16,
                -1.11521036123603e-17
            ],
            "rotation": [
                1.45795373992579e-16,
                -2.09911043244071e-17,
                0.147556409239769,
                0.989053666591644
            ],
            "scale": [
                1.0,
                1.0,
                1.0
            ],
            "children": [
                12
            ]
        },
        {
            "name": "eyes2_M",
            "translation": [
                0.0133929289877415,
                6.21724896437066e-17,
                2.63677965039752e-18
            ],
            "rotation": [
                3.6282987167883e-16,
                2.44769519518019e-16,
                0.489089071750641,
                0.872233867645264
            ],
            "scale": [
                1.0,
                1.0,
                1.0
            ],
            "children": [
                13
            ]
        },
        {
            "name": "eyes1_M",
            "translation": [
                0.0198618937283754,
                5.32907039908674e-17,
                -3.08997608818611e-19
            ],
            "rotation": [
                -4.48415508583941e-44,
                1.61558713389263e-27,
                2.77555756156289e-17,
                1.0
            ],
            "scale": [
                1.0,
                1.0,
                1.0
            ]
        },
        {
            "name": "lid_M",
            "translation": [
                0.000538508931640536,
                -0.0324332974851131,
                1.3688084191365e-15
            ],
            "rotation": [
                0.707088768482208,
                0.0050497087650001,
                0.707088768482208,
                -0.0050497087650001
            ],
            "scale": [
                1.0,
                1.0,
                1.0
            ]
        },
        {
            "name": "rotator_R",
            "translation": [
                0.00141753233037889,
                -0.12453730404377,
                -0.000236785781453364
            ],
            "rotation": [
                -0.500044822692871,
                -0.499955177307129,
                -0.499955117702484,
                0.500044882297516
            ],
            "scale": [
                1.0,
                1.0,
                1.0
            ]
        }
    ]
}