{
  "accessors": [
    {
      "bufferView": 0,
      "componentType": 5126,
      "count": 84,
      "max": [
        0.4313223958015442,
        1.2621526718139648,
        0.4705950915813446
      ],
      "min": [
        -0.43132248520851135,
        -0.00918856356292963,
        -0.4641264081001282
      ],
      "name": "Milk/POSITION",
      "type": "VEC3"
    },
    {
      "bufferView": 0,
      "byteOffset": 12,
      "componentType": 5126,
      "count": 84,
      "name": "Milk/NORMAL",
      "type": "VEC3"
    },
    {
      "bufferView": 0,
      "byteOffset": 24,
      "componentType": 5126,
      "count": 84,
      "name": "Milk/TEXCOORD_0",
      "type": "VEC2"
    },
    {
      "bufferView": 1,
      "componentType": 5125,
      "count": 84,
      "name": "Milk/INDICES",
      "type": "SCALAR"
    }
  ],
  "asset": {
    "copyright": "Copyright (c) 2018-2020 Chukong Technologies Inc.",
    "generator": "FBX-glTF-conv",
    "version": "2.0"
  },
  "bufferViews": [
    {
      "buffer": 0,
      "byteLength": 2688,
      "byteStride": 32,
      "name": "Milk",
      "target": 34962
    },
    {
      "buffer": 0,
      "byteLength": 336,
      "byteOffset": 2688
    }
  ],
  "buffers": [
    {
      "byteLength": 3024,
      "uri": "out.bin"
    }
  ],
  "extras": {
    "FBX-glTF-conv": {
      "animationFrameRate": 30.0
    }
  },
  "images": [
    {
      "extras": {
        "FBX-glTF-conv": {
          "fileName": "D:/Farts Ville/food/textures/Milk.png",
          "relativeFileName": "textures\\Milk.png"
        }
      },
      "name": "file12",
      "uri": "data:image/png;base64,"
    }
  ],
  "materials": [
    {
      "name": "lambert7",
      "pbrMetallicRoughness": {
        "baseColorFactor": [
          0.800000011920929,
          0.800000011920929,
          0.800000011920929,
          1.0
        ],
        "baseColorTexture": {
          "index": 0
        }
      }
    }
  ],
  "meshes": [
    {
      "name": "Milk",
      "primitives": [
        {
          "attributes": {
            "NORMAL": 1,
            "POSITION": 0,
            "TEXCOORD_0": 2
          },
          "indices": 3,
          "material": 0
        }
      ]
    }
  ],
  "nodes": [
    {
      "mesh": 0,
      "name": "Milk",
      "scale": [
        0.07351335883140564,
        0.07351335883140564,
        0.07351335883140564
      ]
    }
  ],
  "samplers": [
    {}
  ],
  "scenes": [
    {
      "nodes": [
        0
      ]
    }
  ],
  "textures": [
    {
      "name": "file12",
      "sampler": 0,
      "source": 0
    }
  ]
}