{
  "accessors": [
    {
      "bufferView": 0,
      "componentType": 5126,
      "count": 306,
      "max": [
        0.024711327627301216,
        0.14288201928138733,
        0.07864900678396225
      ],
      "min": [
        -0.02555638737976551,
        0.12863899767398834,
        0.028381945565342903
      ],
      "name": "pCylinder3/POSITION",
      "type": "VEC3"
    },
    {
      "bufferView": 0,
      "byteOffset": 12,
      "componentType": 5126,
      "count": 306,
      "name": "pCylinder3/NORMAL",
      "type": "VEC3"
    },
    {
      "bufferView": 0,
      "byteOffset": 24,
      "componentType": 5126,
      "count": 306,
      "name": "pCylinder3/TEXCOORD_0",
      "type": "VEC2"
    },
    {
      "bufferView": 0,
      "byteOffset": 32,
      "componentType": 5123,
      "count": 306,
      "name": "pCylinder3/JOINTS_0",
      "type": "VEC4"
    },
    {
      "bufferView": 0,
      "byteOffset": 40,
      "componentType": 5126,
      "count": 306,
      "name": "pCylinder3/WEIGHTS_0",
      "type": "VEC4"
    },
    {
      "bufferView": 1,
      "componentType": 5125,
      "count": 1344,
      "name": "pCylinder3/INDICES",
      "type": "SCALAR"
    },
    {
      "bufferView": 2,
      "componentType": 5126,
      "count": 1,
      "name": "/InverseBindMatrices",
      "type": "MAT4"
    },
    {
      "bufferView": 3,
      "componentType": 5126,
      "count": 393,
      "max": [
        0.036630067974328995,
        0.09504034370183945,
        -0.09916581213474274
      ],
      "min": [
        -0.03640192002058029,
        0.0220085047185421,
        -0.12830229103565216
      ],
      "name": "Fan/POSITION",
      "type": "VEC3"
    },
    {
      "bufferView": 3,
      "byteOffset": 12,
      "componentType": 5126,
      "count": 393,
      "name": "Fan/NORMAL",
      "type": "VEC3"
    },
    {
      "bufferView": 3,
      "byteOffset": 24,
      "componentType": 5126,
      "count": 393,
      "name": "Fan/TEXCOORD_0",
      "type": "VEC2"
    },
    {
      "bufferView": 3,
      "byteOffset": 32,
      "componentType": 5123,
      "count": 393,
      "name": "Fan/JOINTS_0",
      "type": "VEC4"
    },
    {
      "bufferView": 3,
      "byteOffset": 40,
      "componentType": 5126,
      "count": 393,
      "name": "Fan/WEIGHTS_0",
      "type": "VEC4"
    },
    {
      "bufferView": 4,
      "componentType": 5125,
      "count": 2160,
      "name": "Fan/INDICES",
      "type": "SCALAR"
    },
    {
      "bufferView": 5,
      "componentType": 5126,
      "count": 1,
      "name": "/InverseBindMatrices",
      "type": "MAT4"
    },
    {
      "bufferView": 6,
      "componentType": 5126,
      "count": 1264,
      "max": [
        0.06304839998483658,
        0.18272419273853302,
        0.18181778490543365
      ],
      "min": [
        -0.06257476657629013,
        1.7213820910910727e-06,
        -0.11585310101509094
      ],
      "name": "pCylinder5/POSITION",
      "type": "VEC3"
    },
    {
      "bufferView": 6,
      "byteOffset": 12,
      "componentType": 5126,
      "count": 1264,
      "name": "pCylinder5/NORMAL",
      "type": "VEC3"
    },
    {
      "bufferView": 6,
      "byteOffset": 24,
      "componentType": 5126,
      "count": 1264,
      "name": "pCylinder5/TEXCOORD_0",
      "type": "VEC2"
    },
    {
      "bufferView": 6,
      "byteOffset": 32,
      "componentType": 5123,
      "count": 1264,
      "name": "pCylinder5/JOINTS_0",
      "type": "VEC4"
    },
    {
      "bufferView": 6,
      "byteOffset": 40,
      "componentType": 5126,
      "count": 1264,
      "name": "pCylinder5/WEIGHTS_0",
      "type": "VEC4"
    },
    {
      "bufferView": 7,
      "componentType": 5125,
      "count": 4764,
      "name": "pCylinder5/INDICES",
      "type": "SCALAR"
    },
    {
      "bufferView": 8,
      "componentType": 5126,
      "count": 5,
      "name": "/InverseBindMatrices",
      "type": "MAT4"
    }
  ],
  "asset": {
    "copyright": "Copyright (c) 2018-2020 Chukong Technologies Inc.",
    "generator": "FBX-glTF-conv",
    "version": "2.0"
  },
  "bufferViews": [
    {
      "buffer": 0,
      "byteLength": 17136,
      "byteStride": 56,
      "name": "pCylinder3",
      "target": 34962
    },
    {
      "buffer": 0,
      "byteLength": 5376,
      "byteOffset": 17136
    },
    {
      "buffer": 0,
      "byteLength": 64,
      "byteOffset": 22512
    },
    {
      "buffer": 0,
      "byteLength": 22008,
      "byteOffset": 22576,
      "byteStride": 56,
      "name": "Fan",
      "target": 34962
    },
    {
      "buffer": 0,
      "byteLength": 8640,
      "byteOffset": 44584
    },
    {
      "buffer": 0,
      "byteLength": 64,
      "byteOffset": 53224
    },
    {
      "buffer": 0,
      "byteLength": 70784,
      "byteOffset": 53288,
      "byteStride": 56,
      "name": "pCylinder5",
      "target": 34962
    },
    {
      "buffer": 0,
      "byteLength": 19056,
      "byteOffset": 124072
    },
    {
      "buffer": 0,
      "byteLength": 320,
      "byteOffset": 143128
    }
  ],
  "buffers": [
    {
      "byteLength": 143448,
      "uri": "out.bin"
    }
  ],
  "extras": {
    "FBX-glTF-conv": {
      "animationFrameRate": 30.0
    }
  },
  "images": [
    {
      "extras": {
        "FBX-glTF-conv": {
          "fileName": "D:\\PA_2024\\3D\\CatEscape\\CatEscape_OP16\\temp\\asset-db\\assets\\fbx.FBX-glTF-conv\\50e2db95-097c-477d-91f6-7a48e331d786\\output\\.fbm\\7E01FB2\\SubMarine_Base.fbm/Megatexture.png",
          "relativeFileName": "..\\..\\..\\..\\temp\\asset-db\\assets\\fbx.FBX-glTF-conv\\50e2db95-097c-477d-91f6-7a48e331d786\\output\\.fbm\\7E01FB2\\SubMarine_Base.fbm\\Megatexture.png"
        }
      },
      "name": "file2",
      "uri": "Megatexture.png"
    }
  ],
  "materials": [
    {
      "name": "SubMarine_Mat",
      "pbrMetallicRoughness": {
        "baseColorFactor": [
          0.800000011920929,
          0.800000011920929,
          0.800000011920929,
          1.0
        ],
        "baseColorTexture": {
          "index": 0
        }
      }
    }
  ],
  "meshes": [
    {
      "name": "pCylinder3",
      "primitives": [
        {
          "attributes": {
            "JOINTS_0": 3,
            "NORMAL": 1,
            "POSITION": 0,
            "TEXCOORD_0": 2,
            "WEIGHTS_0": 4
          },
          "indices": 5,
          "material": 0
        }
      ]
    },
    {
      "name": "Fan",
      "primitives": [
        {
          "attributes": {
            "JOINTS_0": 10,
            "NORMAL": 8,
            "POSITION": 7,
            "TEXCOORD_0": 9,
            "WEIGHTS_0": 11
          },
          "indices": 12,
          "material": 0
        }
      ]
    },
    {
      "name": "pCylinder5",
      "primitives": [
        {
          "attributes": {
            "JOINTS_0": 17,
            "NORMAL": 15,
            "POSITION": 14,
            "TEXCOORD_0": 16,
            "WEIGHTS_0": 18
          },
          "indices": 19,
          "material": 0
        }
      ]
    }
  ],
  "nodes": [
    {
      "children": [
        1,
        2,
        3
      ],
      "name": "Submarine"
    },
    {
      "mesh": 0,
      "name": "pCylinder3",
      "skin": 0
    },
    {
      "mesh": 1,
      "name": "Fan",
      "skin": 1
    },
    {
      "mesh": 2,
      "name": "pCylinder5",
      "skin": 2
    },
    {
      "children": [
        5,
        14
      ],
      "extras": {
        "FBX-glTF-conv": {
          "skeleton": {
            "skeletonType": "LimbNode"
          }
        }
      },
      "name": "Root_M",
      "rotation": [
        0.5000448226928711,
        0.4999551773071289,
        0.49995511770248413,
        0.5000448822975159
      ],
      "translation": [
        0.0,
        0.05684535577893257,
        -2.3474699224346506e-18
      ]
    },
    {
      "children": [
        6,
        7
      ],
      "extras": {
        "FBX-glTF-conv": {
          "skeleton": {
            "skeletonType": "LimbNode"
          }
        }
      },
      "name": "Body_M",
      "rotation": [
        -5.089135710067971e-12,
        8.96958663361147e-05,
        5.6737412990059966e-08,
        1.0
      ],
      "translation": [
        0.039122823625802994,
        1.1608388845953786e-17,
        5.1608021755948786e-18
      ]
    },
    {
      "extras": {
        "FBX-glTF-conv": {
          "skeleton": {
            "skeletonType": "LimbNode"
          }
        }
      },
      "name": "BodyEnd_M",
      "translation": [
        0.019999999552965164,
        4.596540424433463e-17,
        -6.407634673953209e-18
      ]
    },
    {
      "children": [
        8,
        13
      ],
      "extras": {
        "FBX-glTF-conv": {
          "skeleton": {
            "skeletonType": "LimbNode"
          }
        }
      },
      "name": "joint1_M",
      "rotation": [
        -7.614337166638019e-17,
        -2.905448120149899e-18,
        0.7020390629768372,
        0.7121384739875793
      ],
      "translation": [
        0.0007492821896448731,
        0.07850650697946548,
        4.612521222995743e-17
      ]
    },
    {
      "children": [
        9
      ],
      "extras": {
        "FBX-glTF-conv": {
          "skeleton": {
            "skeletonType": "LimbNode"
          }
        }
      },
      "name": "joint2_M",
      "rotation": [
        4.008278689543312e-17,
        3.226704514627273e-17,
        -0.7213034629821777,
        0.6926191449165344
      ],
      "translation": [
        0.02800234779715538,
        1.4210854397564648e-16,
        1.288465822077104e-17
      ]
    },
    {
      "children": [
        10
      ],
      "extras": {
        "FBX-glTF-conv": {
          "skeleton": {
            "skeletonType": "LimbNode"
          }
        }
      },
      "name": "eyes4_M",
      "rotation": [
        -3.779459687159708e-17,
        3.097995542186267e-17,
        0.028838099911808968,
        0.9995840787887573
      ],
      "translation": [
        0.018579503521323204,
        5.329070399086743e-17,
        1.9510217763004407e-17
      ]
    },
    {
      "children": [
        11
      ],
      "extras": {
        "FBX-glTF-conv": {
          "skeleton": {
            "skeletonType": "LimbNode"
          }
        }
      },
      "name": "eyes3_M",
      "rotation": [
        1.4579537399257903e-16,
        -2.0991104324407067e-17,
        0.14755640923976898,
        0.9890536665916443
      ],
      "translation": [
        0.033969346433877945,
        1.5987212189876965e-16,
        -1.1152103612360348e-17
      ]
    },
    {
      "children": [
        12
      ],
      "extras": {
        "FBX-glTF-conv": {
          "skeleton": {
            "skeletonType": "LimbNode"
          }
        }
      },
      "name": "eyes2_M",
      "rotation": [
        3.6282987167882976e-16,
        2.447695195180189e-16,
        0.48908907175064087,
        0.8722338676452637
      ],
      "translation": [
        0.01339292898774147,
        6.217248964370656e-17,
        2.6367796503975223e-18
      ]
    },
    {
      "extras": {
        "FBX-glTF-conv": {
          "skeleton": {
            "skeletonType": "LimbNode"
          }
        }
      },
      "name": "eyes1_M",
      "translation": [
        0.019861893728375435,
        5.329070399086743e-17,
        -3.089976088186111e-19
      ]
    },
    {
      "extras": {
        "FBX-glTF-conv": {
          "skeleton": {
            "skeletonType": "LimbNode"
          }
        }
      },
      "name": "lid_M",
      "rotation": [
        0.7070887684822083,
        0.005049708765000105,
        0.7070887684822083,
        -0.005049708765000105
      ],
      "translation": [
        0.0005385089316405356,
        -0.03243330121040344,
        1.36880852501562e-15
      ]
    },
    {
      "extras": {
        "FBX-glTF-conv": {
          "skeleton": {
            "skeletonType": "LimbNode"
          }
        }
      },
      "name": "rotator_R",
      "rotation": [
        -0.5000448226928711,
        -0.4999551773071289,
        -0.49995511770248413,
        0.5000448822975159
      ],
      "translation": [
        0.0014175324467942119,
        -0.12453730404376984,
        -0.0002367857814533636
      ]
    }
  ],
  "samplers": [
    {}
  ],
  "scenes": [
    {
      "nodes": [
        0,
        4
      ]
    }
  ],
  "skins": [
    {
      "inverseBindMatrices": 6,
      "joints": [
        13
      ]
    },
    {
      "inverseBindMatrices": 13,
      "joints": [
        14
      ]
    },
    {
      "inverseBindMatrices": 20,
      "joints": [
        5,
        9,
        10,
        11,
        12
      ]
    }
  ],
  "textures": [
    {
      "name": "file2",
      "sampler": 0,
      "source": 0
    }
  ]
}