{
  "accessors": [
    {
      "bufferView": 0,
      "componentType": 5126,
      "count": 1152,
      "max": [
        0.026579421013593674,
        0.001982283778488636,
        0.005157513078302145
      ],
      "min": [
        -0.02655305154621601,
        -0.0013238235842436552,
        -0.0050738174468278885
      ],
      "name": "spear/POSITION",
      "type": "VEC3"
    },
    {
      "bufferView": 0,
      "byteOffset": 12,
      "componentType": 5126,
      "count": 1152,
      "name": "spear/NORMAL",
      "type": "VEC3"
    },
    {
      "bufferView": 0,
      "byteOffset": 24,
      "componentType": 5126,
      "count": 1152,
      "name": "spear/TEXCOORD_0",
      "type": "VEC2"
    },
    {
      "bufferView": 1,
      "componentType": 5125,
      "count": 1152,
      "name": "spear/INDICES",
      "type": "SCALAR"
    }
  ],
  "asset": {
    "copyright": "Copyright (c) 2018-2020 Chukong Technologies Inc.",
    "generator": "FBX-glTF-conv",
    "version": "2.0"
  },
  "bufferViews": [
    {
      "buffer": 0,
      "byteLength": 36864,
      "byteStride": 32,
      "name": "spear",
      "target": 34962
    },
    {
      "buffer": 0,
      "byteLength": 4608,
      "byteOffset": 36864
    }
  ],
  "buffers": [
    {
      "byteLength": 41472,
      "uri": "out.bin"
    }
  ],
  "extras": {
    "FBX-glTF-conv": {
      "animationFrameRate": 24.0
    }
  },
  "images": [
    {
      "extras": {
        "FBX-glTF-conv": {
          "fileName": "C:\\Users\\Cuong\\AppData\\Roaming\\NinjaRipper2\\2022.06.07_21.31.00_Palemoon.exe_31500\\frame_0\\000002A63C2F5778.dds",
          "relativeFileName": "..\\..\\Cuong\\AppData\\Roaming\\NinjaRipper2\\2022.06.07_21.31.00_Palemoon.exe_31500\\frame_0\\000002A63C2F5778.dds"
        }
      },
      "name": "base_color_texture7",
      "uri": "data:image/png;base64,"
    }
  ],
  "materials": [
    {
      "name": "mat_5",
      "pbrMetallicRoughness": {
        "baseColorTexture": {
          "index": 0
        },
        "metallicFactor": 0.4000000059604645,
        "roughnessFactor": 0.27216553688049316
      }
    }
  ],
  "meshes": [
    {
      "name": "spear",
      "primitives": [
        {
          "attributes": {
            "NORMAL": 1,
            "POSITION": 0,
            "TEXCOORD_0": 2
          },
          "indices": 3,
          "material": 0
        }
      ]
    }
  ],
  "nodes": [
    {
      "mesh": 0,
      "name": "spear"
    }
  ],
  "samplers": [
    {}
  ],
  "scenes": [
    {
      "nodes": [
        0
      ]
    }
  ],
  "textures": [
    {
      "name": "base_color_texture7",
      "sampler": 0,
      "source": 0
    }
  ]
}