{
  "accessors": [
    {
      "bufferView": 0,
      "componentType": 5126,
      "count": 2492,
      "max": [
        0.015268554911017418,
        0.05117431655526161,
        0.027103271335363388
      ],
      "min": [
        -0.01564941368997097,
        1.4648437172581907e-05,
        -0.02376464754343033
      ],
      "name": "toilet_03/POSITION",
      "type": "VEC3"
    },
    {
      "bufferView": 0,
      "byteOffset": 12,
      "componentType": 5126,
      "count": 2492,
      "name": "toilet_03/NORMAL",
      "type": "VEC3"
    },
    {
      "bufferView": 0,
      "byteOffset": 24,
      "componentType": 5126,
      "count": 2492,
      "name": "toilet_03/TEXCOORD_0",
      "type": "VEC2"
    },
    {
      "bufferView": 0,
      "byteOffset": 32,
      "componentType": 5123,
      "count": 2492,
      "name": "toilet_03/JOINTS_0",
      "type": "VEC4"
    },
    {
      "bufferView": 0,
      "byteOffset": 40,
      "componentType": 5126,
      "count": 2492,
      "name": "toilet_03/WEIGHTS_0",
      "type": "VEC4"
    },
    {
      "bufferView": 1,
      "componentType": 5125,
      "count": 7620,
      "name": "toilet_03/INDICES",
      "type": "SCALAR"
    },
    {
      "bufferView": 2,
      "componentType": 5126,
      "count": 8,
      "name": "/InverseBindMatrices",
      "type": "MAT4"
    },
    {
      "bufferView": 3,
      "componentType": 5126,
      "count": 2925,
      "max": [
        0.007005615159869194,
        0.05134765803813934,
        0.03185180574655533
      ],
      "min": [
        -0.009182129055261612,
        0.01344453077763319,
        0.00886688381433487
      ],
      "name": "head_01_Material0/POSITION",
      "type": "VEC3"
    },
    {
      "bufferView": 3,
      "byteOffset": 12,
      "componentType": 5126,
      "count": 2925,
      "name": "head_01_Material0/NORMAL",
      "type": "VEC3"
    },
    {
      "bufferView": 3,
      "byteOffset": 24,
      "componentType": 5126,
      "count": 2925,
      "name": "head_01_Material0/TEXCOORD_0",
      "type": "VEC2"
    },
    {
      "bufferView": 3,
      "byteOffset": 32,
      "componentType": 5123,
      "count": 2925,
      "name": "head_01_Material0/JOINTS_0",
      "type": "VEC4"
    },
    {
      "bufferView": 3,
      "byteOffset": 40,
      "componentType": 5126,
      "count": 2925,
      "name": "head_01_Material0/WEIGHTS_0",
      "type": "VEC4"
    },
    {
      "bufferView": 3,
      "byteOffset": 56,
      "componentType": 5123,
      "count": 2925,
      "name": "head_01_Material0/JOINTS_1",
      "type": "VEC4"
    },
    {
      "bufferView": 3,
      "byteOffset": 64,
      "componentType": 5126,
      "count": 2925,
      "name": "head_01_Material0/WEIGHTS_1",
      "type": "VEC4"
    },
    {
      "bufferView": 4,
      "componentType": 5125,
      "count": 9429,
      "name": "head_01_Material0/INDICES",
      "type": "SCALAR"
    },
    {
      "bufferView": 5,
      "componentType": 5126,
      "count": 470,
      "max": [
        0.0025292967911809683,
        0.04296875,
        0.028780518099665642
      ],
      "min": [
        -0.0046810912899672985,
        0.04078124836087227,
        0.027774658054113388
      ],
      "name": "head_01_Material0/POSITION",
      "type": "VEC3"
    },
    {
      "bufferView": 5,
      "byteOffset": 12,
      "componentType": 5126,
      "count": 470,
      "name": "head_01_Material0/NORMAL",
      "type": "VEC3"
    },
    {
      "bufferView": 5,
      "byteOffset": 24,
      "componentType": 5126,
      "count": 470,
      "name": "head_01_Material0/TEXCOORD_0",
      "type": "VEC2"
    },
    {
      "bufferView": 5,
      "byteOffset": 32,
      "componentType": 5123,
      "count": 470,
      "name": "head_01_Material0/JOINTS_0",
      "type": "VEC4"
    },
    {
      "bufferView": 5,
      "byteOffset": 40,
      "componentType": 5126,
      "count": 470,
      "name": "head_01_Material0/WEIGHTS_0",
      "type": "VEC4"
    },
    {
      "bufferView": 6,
      "componentType": 5125,
      "count": 954,
      "name": "head_01_Material0/INDICES",
      "type": "SCALAR"
    },
    {
      "bufferView": 7,
      "componentType": 5126,
      "count": 8,
      "name": "/InverseBindMatrices",
      "type": "MAT4"
    }
  ],
  "asset": {
    "copyright": "Copyright (c) 2018-2020 Chukong Technologies Inc.",
    "generator": "FBX-glTF-conv",
    "version": "2.0"
  },
  "bufferViews": [
    {
      "buffer": 0,
      "byteLength": 139552,
      "byteStride": 56,
      "name": "toilet_03",
      "target": 34962
    },
    {
      "buffer": 0,
      "byteLength": 30480,
      "byteOffset": 139552
    },
    {
      "buffer": 0,
      "byteLength": 512,
      "byteOffset": 170032
    },
    {
      "buffer": 0,
      "byteLength": 234000,
      "byteOffset": 170544,
      "byteStride": 80,
      "name": "head_01_Material0",
      "target": 34962
    },
    {
      "buffer": 0,
      "byteLength": 37716,
      "byteOffset": 404544
    },
    {
      "buffer": 0,
      "byteLength": 26320,
      "byteOffset": 442260,
      "byteStride": 56,
      "name": "head_01_Material0",
      "target": 34962
    },
    {
      "buffer": 0,
      "byteLength": 3816,
      "byteOffset": 468580
    },
    {
      "buffer": 0,
      "byteLength": 512,
      "byteOffset": 472396
    }
  ],
  "buffers": [
    {
      "byteLength": 472908,
      "uri": "out.bin"
    }
  ],
  "extras": {
    "FBX-glTF-conv": {
      "animationFrameRate": 30.0
    }
  },
  "images": [
    {
      "extras": {
        "FBX-glTF-conv": {
          "fileName": "D:/Maya_projects/Merge_toilet_monsters/toilet/toilet5.png",
          "relativeFileName": "..\\..\\..\\..\\Maya_projects\\Merge_toilet_monsters\\toilet\\toilet5.png"
        }
      },
      "name": "base_color_texture12",
      "uri": "data:image/png;base64,"
    },
    {
      "extras": {
        "FBX-glTF-conv": {
          "fileName": "D:/Maya_projects/Merge_toilet_monsters/heads/head1/head1.png",
          "relativeFileName": "..\\..\\..\\..\\Maya_projects\\Merge_toilet_monsters\\heads\\head1\\head1.png"
        }
      },
      "name": "base_color_texture",
      "uri": "data:image/png;base64,"
    },
    {
      "extras": {
        "FBX-glTF-conv": {
          "fileName": "D:/Maya_projects/Merge_toilet_monsters/heads/head1/eye1.png",
          "relativeFileName": "..\\..\\..\\..\\Maya_projects\\Merge_toilet_monsters\\heads\\head1\\eye1.png"
        }
      },
      "name": "base_color_texture13",
      "uri": "data:image/png;base64,"
    }
  ],
  "materials": [
    {
      "name": "m_toilet_06",
      "pbrMetallicRoughness": {
        "baseColorTexture": {
          "index": 0
        },
        "metallicFactor": 0.4000000059604645,
        "roughnessFactor": 0.27216553688049316
      }
    },
    {
      "name": "m_head_04",
      "pbrMetallicRoughness": {
        "baseColorTexture": {
          "index": 1
        },
        "metallicFactor": 0.4000000059604645,
        "roughnessFactor": 0.27216553688049316
      }
    },
    {
      "name": "m_eye_02",
      "pbrMetallicRoughness": {
        "baseColorTexture": {
          "index": 2
        },
        "metallicFactor": 0.4000000059604645,
        "roughnessFactor": 0.27216553688049316
      }
    }
  ],
  "meshes": [
    {
      "name": "toilet_03",
      "primitives": [
        {
          "attributes": {
            "JOINTS_0": 3,
            "NORMAL": 1,
            "POSITION": 0,
            "TEXCOORD_0": 2,
            "WEIGHTS_0": 4
          },
          "indices": 5,
          "material": 0
        }
      ]
    },
    {
      "name": "head_01_Material0",
      "primitives": [
        {
          "attributes": {
            "JOINTS_0": 10,
            "JOINTS_1": 12,
            "NORMAL": 8,
            "POSITION": 7,
            "TEXCOORD_0": 9,
            "WEIGHTS_0": 11,
            "WEIGHTS_1": 13
          },
          "indices": 14,
          "material": 1
        },
        {
          "attributes": {
            "JOINTS_0": 18,
            "NORMAL": 16,
            "POSITION": 15,
            "TEXCOORD_0": 17,
            "WEIGHTS_0": 19
          },
          "indices": 20,
          "material": 2
        }
      ]
    }
  ],
  "nodes": [
    {
      "children": [
        1,
        2
      ],
      "name": "skidibi_02"
    },
    {
      "mesh": 0,
      "name": "toilet_03",
      "skin": 0
    },
    {
      "mesh": 1,
      "name": "head_01",
      "skin": 1
    },
    {
      "children": [
        4
      ],
      "extras": {
        "FBX-glTF-conv": {
          "skeleton": {
            "skeletonType": "LimbNode"
          }
        }
      },
      "name": "Skidibi_02_Main",
      "translation": [
        0.0,
        0.00014283340715337545,
        -5.146756666363217e-05
      ]
    },
    {
      "children": [
        5
      ],
      "extras": {
        "FBX-glTF-conv": {
          "skeleton": {
            "skeletonType": "LimbNode"
          }
        }
      },
      "name": "Skidibi_02_1",
      "translation": [
        -0.0009120929171331227,
        0.014392509125173092,
        0.012593445368111134
      ]
    },
    {
      "children": [
        6
      ],
      "extras": {
        "FBX-glTF-conv": {
          "skeleton": {
            "skeletonType": "LimbNode"
          }
        }
      },
      "name": "Skidibi_02_2",
      "translation": [
        0.0,
        0.009145241230726242,
        0.0028485176153481007
      ]
    },
    {
      "children": [
        7
      ],
      "extras": {
        "FBX-glTF-conv": {
          "skeleton": {
            "skeletonType": "LimbNode"
          }
        }
      },
      "name": "Skidibi_02_3",
      "translation": [
        0.0,
        0.006896411068737507,
        0.0026985956355929375
      ]
    },
    {
      "children": [
        8,
        10
      ],
      "extras": {
        "FBX-glTF-conv": {
          "skeleton": {
            "skeletonType": "LimbNode"
          }
        }
      },
      "name": "Skidibi_02_Head",
      "translation": [
        -2.7755574995243454e-19,
        0.00749609898775816,
        0.0026985956355929375
      ]
    },
    {
      "children": [
        9
      ],
      "extras": {
        "FBX-glTF-conv": {
          "skeleton": {
            "skeletonType": "LimbNode"
          }
        }
      },
      "name": "Skidibi_02_mouth",
      "translation": [
        0.0,
        -0.004063131287693977,
        0.002345392946153879
      ]
    },
    {
      "extras": {
        "FBX-glTF-conv": {
          "skeleton": {
            "skeletonType": "LimbNode"
          }
        }
      },
      "name": "Skidibi_02_mouth1",
      "translation": [
        -0.00042194488923996687,
        -0.0026232439558953047,
        0.005906226579099894
      ]
    },
    {
      "extras": {
        "FBX-glTF-conv": {
          "skeleton": {
            "skeletonType": "LimbNode"
          }
        }
      },
      "name": "Skidibi_02_HeadEnd",
      "translation": [
        0.0,
        0.01289448980242014,
        0.00011694035492837429
      ]
    }
  ],
  "samplers": [
    {}
  ],
  "scenes": [
    {
      "nodes": [
        0,
        3
      ]
    }
  ],
  "skins": [
    {
      "inverseBindMatrices": 6,
      "joints": [
        3,
        4,
        5,
        6,
        7,
        8,
        9,
        10
      ]
    },
    {
      "inverseBindMatrices": 21,
      "joints": [
        3,
        4,
        5,
        6,
        7,
        8,
        9,
        10
      ]
    }
  ],
  "textures": [
    {
      "name": "base_color_texture12",
      "sampler": 0,
      "source": 0
    },
    {
      "name": "base_color_texture",
      "sampler": 0,
      "source": 1
    },
    {
      "name": "base_color_texture13",
      "sampler": 0,
      "source": 2
    }
  ]
}