{
  "accessors": [
    {
      "bufferView": 0,
      "componentType": 5126,
      "count": 735,
      "max": [
        0.01077987439930439,
        0.07991917431354523,
        0.021264050155878067
      ],
      "min": [
        -0.019790764898061752,
        -0.00016654102364555,
        -0.01184146013110876
      ],
      "name": "Palm_tree/POSITION",
      "type": "VEC3"
    },
    {
      "bufferView": 0,
      "byteOffset": 12,
      "componentType": 5126,
      "count": 735,
      "name": "Palm_tree/NORMAL",
      "type": "VEC3"
    },
    {
      "bufferView": 0,
      "byteOffset": 24,
      "componentType": 5126,
      "count": 735,
      "name": "Palm_tree/TEXCOORD_0",
      "type": "VEC2"
    },
    {
      "bufferView": 1,
      "componentType": 5125,
      "count": 3210,
      "name": "Palm_tree/INDICES",
      "type": "SCALAR"
    }
  ],
  "asset": {
    "copyright": "Copyright (c) 2018-2020 Chukong Technologies Inc.",
    "generator": "FBX-glTF-conv",
    "version": "2.0"
  },
  "bufferViews": [
    {
      "buffer": 0,
      "byteLength": 23520,
      "byteStride": 32,
      "name": "Palm_tree",
      "target": 34962
    },
    {
      "buffer": 0,
      "byteLength": 12840,
      "byteOffset": 23520
    }
  ],
  "buffers": [
    {
      "byteLength": 36360,
      "uri": "out.bin"
    }
  ],
  "extras": {
    "FBX-glTF-conv": {
      "animationFrameRate": 25.0
    }
  },
  "images": [
    {
      "extras": {
        "FBX-glTF-conv": {
          "fileName": "C:\\Users\\Admin\\Desktop\\Cat Escape\\Texture.jpg",
          "relativeFileName": "C:\\Users\\Admin\\Desktop\\Cat Escape\\Texture.jpg"
        }
      },
      "name": "base_color_texture",
      "uri": "data:image/png;base64,"
    }
  ],
  "materials": [
    {
      "name": "Mat_Environment",
      "pbrMetallicRoughness": {
        "baseColorTexture": {
          "index": 0
        },
        "metallicFactor": 0.4000000059604645
      }
    }
  ],
  "meshes": [
    {
      "name": "Palm_tree",
      "primitives": [
        {
          "attributes": {
            "NORMAL": 1,
            "POSITION": 0,
            "TEXCOORD_0": 2
          },
          "indices": 3,
          "material": 0
        }
      ]
    }
  ],
  "nodes": [
    {
      "mesh": 0,
      "name": "Palm_tree"
    }
  ],
  "samplers": [
    {}
  ],
  "scenes": [
    {
      "name": "Scene",
      "nodes": [
        0
      ]
    }
  ],
  "textures": [
    {
      "name": "base_color_texture",
      "sampler": 0,
      "source": 0
    }
  ]
}