{
    "asset": {
        "generator": "FBX2glTF v0.9.7",
        "version": "2.0"
    },
    "scene": 0,
    "buffers": [
        {
            "byteLength": 7608,
            "uri": "buffer.bin"
        }
    ],
    "bufferViews": [
        {
            "buffer": 0,
            "byteLength": 192,
            "byteOffset": 0,
            "target": 34963
        },
        {
            "buffer": 0,
            "byteLength": 300,
            "byteOffset": 192,
            "target": 34962
        },
        {
            "buffer": 0,
            "byteLength": 300,
            "byteOffset": 492,
            "target": 34962
        },
        {
            "buffer": 0,
            "byteLength": 200,
            "byteOffset": 792,
            "target": 34962
        },
        {
            "buffer": 0,
            "byteLength": 600,
            "byteOffset": 992,
            "target": 34963
        },
        {
            "buffer": 0,
            "byteLength": 2256,
            "byteOffset": 1592,
            "target": 34962
        },
        {
            "buffer": 0,
            "byteLength": 2256,
            "byteOffset": 3848,
            "target": 34962
        },
        {
            "buffer": 0,
            "byteLength": 1504,
            "byteOffset": 6104,
            "target": 34962
        }
    ],
    "scenes": [
        {
            "name": "Root Scene",
            "nodes": [
                0
            ]
        }
    ],
    "accessors": [
        {
            "componentType": 5123,
            "type": "SCALAR",
            "count": 96,
            "bufferView": 0,
            "byteOffset": 0
        },
        {
            "componentType": 5126,
            "type": "VEC3",
            "count": 25,
            "bufferView": 1,
            "byteOffset": 0,
            "min": [
                -2.29005578944452e-08,
                0.0,
                -0.444071888923645
            ],
            "max": [
                0.76783674955368,
                0.0,
                0.444071710109711
            ]
        },
        {
            "componentType": 5126,
            "type": "VEC3",
            "count": 25,
            "bufferView": 2,
            "byteOffset": 0
        },
        {
            "componentType": 5126,
            "type": "VEC2",
            "count": 25,
            "bufferView": 3,
            "byteOffset": 0
        },
        {
            "componentType": 5123,
            "type": "SCALAR",
            "count": 300,
            "bufferView": 4,
            "byteOffset": 0
        },
        {
            "componentType": 5126,
            "type": "VEC3",
            "count": 188,
            "bufferView": 5,
            "byteOffset": 0,
            "min": [
                -0.0201951004564762,
                -4.76837158203125e-07,
                -0.0999999940395355
            ],
            "max": [
                1.32002139091492,
                4.75347007977689e-07,
                0.100000023841858
            ]
        },
        {
            "componentType": 5126,
            "type": "VEC3",
            "count": 188,
            "bufferView": 6,
            "byteOffset": 0
        },
        {
            "componentType": 5126,
            "type": "VEC2",
            "count": 188,
            "bufferView": 7,
            "byteOffset": 0
        }
    ],
    "samplers": [
        {}
    ],
    "materials": [
        {
            "name": "lambert1",
            "alphaMode": "OPAQUE",
            "extras": {
                "fromFBX": {
                    "shadingModel": "Lambert",
                    "isTruePBR": false
                }
            },
            "pbrMetallicRoughness": {
                "baseColorFactor": [
                    0.400000005960464,
                    0.400000005960464,
                    0.400000005960464,
                    1.0
                ],
                "metallicFactor": 0.200000002980232,
                "roughnessFactor": 0.800000011920929
            }
        }
    ],
    "meshes": [
        {
            "name": "Cone",
            "primitives": [
                {
                    "material": 0,
                    "mode": 4,
                    "attributes": {
                        "NORMAL": 2,
                        "POSITION": 1,
                        "TEXCOORD_0": 3
                    },
                    "indices": 0
                }
            ]
        },
        {
            "name": "Straight",
            "primitives": [
                {
                    "material": 0,
                    "mode": 4,
                    "attributes": {
                        "NORMAL": 6,
                        "POSITION": 5,
                        "TEXCOORD_0": 7
                    },
                    "indices": 4
                }
            ]
        }
    ],
    "nodes": [
        {
            "name": "RootNode",
            "translation": [
                0.0,
                0.0,
                0.0
            ],
            "rotation": [
                0.0,
                0.0,
                0.0,
                1.0
            ],
            "scale": [
                1.0,
                1.0,
                1.0
            ],
            "children": [
                1,
                2
            ]
        },
        {
            "name": "Cone",
            "translation": [
                0.0,
                0.0,
                0.0
            ],
            "rotation": [
                0.0,
                0.0,
                0.0,
                1.0
            ],
            "scale": [
                1.0,
                1.0,
                1.0
            ],
            "mesh": 0
        },
        {
            "name": "Straight",
            "translation": [
                0.0,
                0.0,
                0.0
            ],
            "rotation": [
                0.0,
                0.0,
                0.0,
                1.0
            ],
            "scale": [
                1.0,
                1.0,
                1.0
            ],
            "mesh": 1
        }
    ]
}