{
  "accessors": [
    {
      "bufferView": 0,
      "componentType": 5126,
      "count": 49,
      "max": [
        1.600000023841858
      ],
      "min": [
        0.0
      ],
      "name": "Root_M/Trs/Input",
      "type": "SCALAR"
    },
    {
      "bufferView": 1,
      "componentType": 5126,
      "count": 49,
      "name": "Root_M/translation/Output",
      "type": "VEC3"
    },
    {
      "bufferView": 2,
      "componentType": 5126,
      "count": 49,
      "name": "Root_M/rotation/Output",
      "type": "VEC4"
    },
    {
      "bufferView": 3,
      "componentType": 5126,
      "count": 49,
      "name": "Root_M/scale/Output",
      "type": "VEC3"
    },
    {
      "bufferView": 4,
      "componentType": 5126,
      "count": 49,
      "max": [
        1.600000023841858
      ],
      "min": [
        0.0
      ],
      "name": "Tail1_M/Trs/Input",
      "type": "SCALAR"
    },
    {
      "bufferView": 5,
      "componentType": 5126,
      "count": 49,
      "name": "Tail1_M/translation/Output",
      "type": "VEC3"
    },
    {
      "bufferView": 6,
      "componentType": 5126,
      "count": 49,
      "name": "Tail1_M/rotation/Output",
      "type": "VEC4"
    },
    {
      "bufferView": 7,
      "componentType": 5126,
      "count": 49,
      "name": "Tail1_M/scale/Output",
      "type": "VEC3"
    },
    {
      "bufferView": 8,
      "componentType": 5126,
      "count": 49,
      "max": [
        1.600000023841858
      ],
      "min": [
        0.0
      ],
      "name": "Tail2_M/Trs/Input",
      "type": "SCALAR"
    },
    {
      "bufferView": 9,
      "componentType": 5126,
      "count": 49,
      "name": "Tail2_M/translation/Output",
      "type": "VEC3"
    },
    {
      "bufferView": 10,
      "componentType": 5126,
      "count": 49,
      "name": "Tail2_M/rotation/Output",
      "type": "VEC4"
    },
    {
      "bufferView": 11,
      "componentType": 5126,
      "count": 49,
      "name": "Tail2_M/scale/Output",
      "type": "VEC3"
    },
    {
      "bufferView": 12,
      "componentType": 5126,
      "count": 49,
      "max": [
        1.600000023841858
      ],
      "min": [
        0.0
      ],
      "name": "Tail3_M/Trs/Input",
      "type": "SCALAR"
    },
    {
      "bufferView": 13,
      "componentType": 5126,
      "count": 49,
      "name": "Tail3_M/translation/Output",
      "type": "VEC3"
    },
    {
      "bufferView": 14,
      "componentType": 5126,
      "count": 49,
      "name": "Tail3_M/rotation/Output",
      "type": "VEC4"
    },
    {
      "bufferView": 15,
      "componentType": 5126,
      "count": 49,
      "name": "Tail3_M/scale/Output",
      "type": "VEC3"
    },
    {
      "bufferView": 16,
      "componentType": 5126,
      "count": 49,
      "max": [
        1.600000023841858
      ],
      "min": [
        0.0
      ],
      "name": "Tail4_M/Trs/Input",
      "type": "SCALAR"
    },
    {
      "bufferView": 17,
      "componentType": 5126,
      "count": 49,
      "name": "Tail4_M/translation/Output",
      "type": "VEC3"
    },
    {
      "bufferView": 18,
      "componentType": 5126,
      "count": 49,
      "name": "Tail4_M/rotation/Output",
      "type": "VEC4"
    },
    {
      "bufferView": 19,
      "componentType": 5126,
      "count": 49,
      "name": "Tail4_M/scale/Output",
      "type": "VEC3"
    },
    {
      "bufferView": 20,
      "componentType": 5126,
      "count": 49,
      "max": [
        1.600000023841858
      ],
      "min": [
        0.0
      ],
      "name": "Tail5_M/Trs/Input",
      "type": "SCALAR"
    },
    {
      "bufferView": 21,
      "componentType": 5126,
      "count": 49,
      "name": "Tail5_M/translation/Output",
      "type": "VEC3"
    },
    {
      "bufferView": 22,
      "componentType": 5126,
      "count": 49,
      "name": "Tail5_M/rotation/Output",
      "type": "VEC4"
    },
    {
      "bufferView": 23,
      "componentType": 5126,
      "count": 49,
      "name": "Tail5_M/scale/Output",
      "type": "VEC3"
    },
    {
      "bufferView": 24,
      "componentType": 5126,
      "count": 49,
      "max": [
        1.600000023841858
      ],
      "min": [
        0.0
      ],
      "name": "Tail6_M/Trs/Input",
      "type": "SCALAR"
    },
    {
      "bufferView": 25,
      "componentType": 5126,
      "count": 49,
      "name": "Tail6_M/translation/Output",
      "type": "VEC3"
    },
    {
      "bufferView": 26,
      "componentType": 5126,
      "count": 49,
      "name": "Tail6_M/rotation/Output",
      "type": "VEC4"
    },
    {
      "bufferView": 27,
      "componentType": 5126,
      "count": 49,
      "name": "Tail6_M/scale/Output",
      "type": "VEC3"
    }
  ],
  "animations": [
    {
      "channels": [
        {
          "sampler": 0,
          "target": {
            "node": 0,
            "path": "translation"
          }
        },
        {
          "sampler": 1,
          "target": {
            "node": 0,
            "path": "rotation"
          }
        },
        {
          "sampler": 2,
          "target": {
            "node": 0,
            "path": "scale"
          }
        },
        {
          "sampler": 3,
          "target": {
            "node": 1,
            "path": "translation"
          }
        },
        {
          "sampler": 4,
          "target": {
            "node": 1,
            "path": "rotation"
          }
        },
        {
          "sampler": 5,
          "target": {
            "node": 1,
            "path": "scale"
          }
        },
        {
          "sampler": 6,
          "target": {
            "node": 2,
            "path": "translation"
          }
        },
        {
          "sampler": 7,
          "target": {
            "node": 2,
            "path": "rotation"
          }
        },
        {
          "sampler": 8,
          "target": {
            "node": 2,
            "path": "scale"
          }
        },
        {
          "sampler": 9,
          "target": {
            "node": 3,
            "path": "translation"
          }
        },
        {
          "sampler": 10,
          "target": {
            "node": 3,
            "path": "rotation"
          }
        },
        {
          "sampler": 11,
          "target": {
            "node": 3,
            "path": "scale"
          }
        },
        {
          "sampler": 12,
          "target": {
            "node": 4,
            "path": "translation"
          }
        },
        {
          "sampler": 13,
          "target": {
            "node": 4,
            "path": "rotation"
          }
        },
        {
          "sampler": 14,
          "target": {
            "node": 4,
            "path": "scale"
          }
        },
        {
          "sampler": 15,
          "target": {
            "node": 5,
            "path": "translation"
          }
        },
        {
          "sampler": 16,
          "target": {
            "node": 5,
            "path": "rotation"
          }
        },
        {
          "sampler": 17,
          "target": {
            "node": 5,
            "path": "scale"
          }
        },
        {
          "sampler": 18,
          "target": {
            "node": 6,
            "path": "translation"
          }
        },
        {
          "sampler": 19,
          "target": {
            "node": 6,
            "path": "rotation"
          }
        },
        {
          "sampler": 20,
          "target": {
            "node": 6,
            "path": "scale"
          }
        }
      ],
      "name": "CE_hidingbox",
      "samplers": [
        {
          "input": 0,
          "output": 1
        },
        {
          "input": 0,
          "output": 2
        },
        {
          "input": 0,
          "output": 3
        },
        {
          "input": 4,
          "output": 5
        },
        {
          "input": 4,
          "output": 6
        },
        {
          "input": 4,
          "output": 7
        },
        {
          "input": 8,
          "output": 9
        },
        {
          "input": 8,
          "output": 10
        },
        {
          "input": 8,
          "output": 11
        },
        {
          "input": 12,
          "output": 13
        },
        {
          "input": 12,
          "output": 14
        },
        {
          "input": 12,
          "output": 15
        },
        {
          "input": 16,
          "output": 17
        },
        {
          "input": 16,
          "output": 18
        },
        {
          "input": 16,
          "output": 19
        },
        {
          "input": 20,
          "output": 21
        },
        {
          "input": 20,
          "output": 22
        },
        {
          "input": 20,
          "output": 23
        },
        {
          "input": 24,
          "output": 25
        },
        {
          "input": 24,
          "output": 26
        },
        {
          "input": 24,
          "output": 27
        }
      ]
    }
  ],
  "asset": {
    "copyright": "Copyright (c) 2018-2020 Chukong Technologies Inc.",
    "generator": "FBX-glTF-conv",
    "version": "2.0"
  },
  "bufferViews": [
    {
      "buffer": 0,
      "byteLength": 196
    },
    {
      "buffer": 0,
      "byteLength": 588,
      "byteOffset": 196
    },
    {
      "buffer": 0,
      "byteLength": 784,
      "byteOffset": 784
    },
    {
      "buffer": 0,
      "byteLength": 588,
      "byteOffset": 1568
    },
    {
      "buffer": 0,
      "byteLength": 196,
      "byteOffset": 2156
    },
    {
      "buffer": 0,
      "byteLength": 588,
      "byteOffset": 2352
    },
    {
      "buffer": 0,
      "byteLength": 784,
      "byteOffset": 2940
    },
    {
      "buffer": 0,
      "byteLength": 588,
      "byteOffset": 3724
    },
    {
      "buffer": 0,
      "byteLength": 196,
      "byteOffset": 4312
    },
    {
      "buffer": 0,
      "byteLength": 588,
      "byteOffset": 4508
    },
    {
      "buffer": 0,
      "byteLength": 784,
      "byteOffset": 5096
    },
    {
      "buffer": 0,
      "byteLength": 588,
      "byteOffset": 5880
    },
    {
      "buffer": 0,
      "byteLength": 196,
      "byteOffset": 6468
    },
    {
      "buffer": 0,
      "byteLength": 588,
      "byteOffset": 6664
    },
    {
      "buffer": 0,
      "byteLength": 784,
      "byteOffset": 7252
    },
    {
      "buffer": 0,
      "byteLength": 588,
      "byteOffset": 8036
    },
    {
      "buffer": 0,
      "byteLength": 196,
      "byteOffset": 8624
    },
    {
      "buffer": 0,
      "byteLength": 588,
      "byteOffset": 8820
    },
    {
      "buffer": 0,
      "byteLength": 784,
      "byteOffset": 9408
    },
    {
      "buffer": 0,
      "byteLength": 588,
      "byteOffset": 10192
    },
    {
      "buffer": 0,
      "byteLength": 196,
      "byteOffset": 10780
    },
    {
      "buffer": 0,
      "byteLength": 588,
      "byteOffset": 10976
    },
    {
      "buffer": 0,
      "byteLength": 784,
      "byteOffset": 11564
    },
    {
      "buffer": 0,
      "byteLength": 588,
      "byteOffset": 12348
    },
    {
      "buffer": 0,
      "byteLength": 196,
      "byteOffset": 12936
    },
    {
      "buffer": 0,
      "byteLength": 588,
      "byteOffset": 13132
    },
    {
      "buffer": 0,
      "byteLength": 784,
      "byteOffset": 13720
    },
    {
      "buffer": 0,
      "byteLength": 588,
      "byteOffset": 14504
    }
  ],
  "buffers": [
    {
      "byteLength": 15092,
      "uri": "out.bin"
    }
  ],
  "extras": {
    "FBX-glTF-conv": {
      "animationFrameRate": 30.0
    }
  },
  "nodes": [
    {
      "children": [
        1
      ],
      "extras": {
        "FBX-glTF-conv": {
          "skeleton": {
            "skeletonType": "LimbNode"
          }
        }
      },
      "name": "Root_M",
      "rotation": [
        -0.5064792037010193,
        -0.493423730134964,
        0.49299079179763794,
        0.5069239735603333
      ],
      "translation": [
        1.3224414385571071e-17,
        0.0,
        -4.3155884053027355e-19
      ]
    },
    {
      "children": [
        2
      ],
      "extras": {
        "FBX-glTF-conv": {
          "skeleton": {
            "skeletonType": "LimbNode"
          }
        }
      },
      "name": "Tail1_M",
      "rotation": [
        1.9299979612696916e-05,
        0.005827406421303749,
        -0.00037238342338241637,
        0.9999829530715942
      ],
      "translation": [
        0.0027456646785140038,
        -3.8634848209539996e-08,
        -7.74276429638121e-07
      ]
    },
    {
      "children": [
        3
      ],
      "extras": {
        "FBX-glTF-conv": {
          "skeleton": {
            "skeletonType": "LimbNode"
          }
        }
      },
      "name": "Tail2_M",
      "rotation": [
        -3.081848262809217e-05,
        -0.011183969676494598,
        0.0002104459999827668,
        0.9999374151229858
      ],
      "translation": [
        0.0024809467140585184,
        -1.569552821045761e-09,
        1.4903096118290549e-12
      ]
    },
    {
      "children": [
        4
      ],
      "extras": {
        "FBX-glTF-conv": {
          "skeleton": {
            "skeletonType": "LimbNode"
          }
        }
      },
      "name": "Tail3_M",
      "rotation": [
        0.00015792895283084363,
        -0.0113671300932765,
        0.005642123054713011,
        0.9999194741249084
      ],
      "translation": [
        0.0024714996106922626,
        -6.773559562134324e-07,
        -1.1989881310014994e-11
      ]
    },
    {
      "children": [
        5
      ],
      "extras": {
        "FBX-glTF-conv": {
          "skeleton": {
            "skeletonType": "LimbNode"
          }
        }
      },
      "name": "Tail4_M",
      "rotation": [
        -0.0001020635463646613,
        -0.008379437029361725,
        -0.005675551015883684,
        0.9999487996101379
      ],
      "translation": [
        0.002431028988212347,
        1.4828837038294296e-06,
        -3.769399015141062e-09
      ]
    },
    {
      "children": [
        6
      ],
      "extras": {
        "FBX-glTF-conv": {
          "skeleton": {
            "skeletonType": "LimbNode"
          }
        }
      },
      "name": "Tail5_M",
      "rotation": [
        1.5381529010483064e-05,
        -0.008216094225645065,
        0.00020031632448080927,
        0.9999662041664124
      ],
      "translation": [
        0.0024360097013413906,
        -8.495410952491511e-07,
        1.4142979010145496e-09
      ]
    },
    {
      "extras": {
        "FBX-glTF-conv": {
          "skeleton": {
            "skeletonType": "LimbNode"
          }
        }
      },
      "name": "Tail6_M",
      "rotation": [
        -0.00014007957361172885,
        -0.00330100255087018,
        0.0004413858405314386,
        0.9999944567680359
      ],
      "translation": [
        0.0026525480207055807,
        -2.9679984692165817e-08,
        -3.3124623044500368e-09
      ]
    }
  ],
  "scenes": [
    {
      "nodes": [
        0
      ]
    }
  ]
}