{
    "asset": {
        "generator": "FBX2glTF v0.9.7",
        "version": "2.0"
    },
    "scene": 0,
    "buffers": [
        {
            "byteLength": 325060,
            "uri": "buffer.bin"
        }
    ],
    "bufferViews": [
        {
            "buffer": 0,
            "byteLength": 11976,
            "byteOffset": 0,
            "target": 34963
        },
        {
            "buffer": 0,
            "byteLength": 41712,
            "byteOffset": 11976,
            "target": 34962
        },
        {
            "buffer": 0,
            "byteLength": 41712,
            "byteOffset": 53688,
            "target": 34962
        },
        {
            "buffer": 0,
            "byteLength": 55616,
            "byteOffset": 95400,
            "target": 34962
        },
        {
            "buffer": 0,
            "byteLength": 27808,
            "byteOffset": 151016,
            "target": 34962
        },
        {
            "buffer": 0,
            "byteLength": 27808,
            "byteOffset": 178824,
            "target": 34962
        },
        {
            "buffer": 0,
            "byteLength": 27808,
            "byteOffset": 206632,
            "target": 34962
        },
        {
            "buffer": 0,
            "byteLength": 55616,
            "byteOffset": 234440,
            "target": 34962
        },
        {
            "buffer": 0,
            "byteLength": 1212,
            "byteOffset": 290056,
            "target": 34963
        },
        {
            "buffer": 0,
            "byteLength": 4800,
            "byteOffset": 291268,
            "target": 34962
        },
        {
            "buffer": 0,
            "byteLength": 4800,
            "byteOffset": 296068,
            "target": 34962
        },
        {
            "buffer": 0,
            "byteLength": 6400,
            "byteOffset": 300868,
            "target": 34962
        },
        {
            "buffer": 0,
            "byteLength": 3200,
            "byteOffset": 307268,
            "target": 34962
        },
        {
            "buffer": 0,
            "byteLength": 3200,
            "byteOffset": 310468,
            "target": 34962
        },
        {
            "buffer": 0,
            "byteLength": 3200,
            "byteOffset": 313668,
            "target": 34962
        },
        {
            "buffer": 0,
            "byteLength": 6400,
            "byteOffset": 316868,
            "target": 34962
        },
        {
            "buffer": 0,
            "byteLength": 896,
            "byteOffset": 323268
        },
        {
            "buffer": 0,
            "byteLength": 896,
            "byteOffset": 324164
        }
    ],
    "scenes": [
        {
            "name": "Root Scene",
            "nodes": [
                0
            ]
        }
    ],
    "accessors": [
        {
            "componentType": 5123,
            "type": "SCALAR",
            "count": 5988,
            "bufferView": 0,
            "byteOffset": 0
        },
        {
            "componentType": 5126,
            "type": "VEC3",
            "count": 3476,
            "bufferView": 1,
            "byteOffset": 0,
            "min": [
                -0.11869140714407,
                -0.0103271482512355,
                -0.107346192002296
            ],
            "max": [
                0.11869140714407,
                0.0993505865335464,
                0.103270262479782
            ]
        },
        {
            "componentType": 5126,
            "type": "VEC3",
            "count": 3476,
            "bufferView": 2,
            "byteOffset": 0
        },
        {
            "componentType": 5126,
            "type": "VEC4",
            "count": 3476,
            "bufferView": 3,
            "byteOffset": 0
        },
        {
            "componentType": 5126,
            "type": "VEC2",
            "count": 3476,
            "bufferView": 4,
            "byteOffset": 0
        },
        {
            "componentType": 5126,
            "type": "VEC2",
            "count": 3476,
            "bufferView": 5,
            "byteOffset": 0
        },
        {
            "componentType": 5123,
            "type": "VEC4",
            "count": 3476,
            "bufferView": 6,
            "byteOffset": 0
        },
        {
            "componentType": 5126,
            "type": "VEC4",
            "count": 3476,
            "bufferView": 7,
            "byteOffset": 0
        },
        {
            "componentType": 5123,
            "type": "SCALAR",
            "count": 606,
            "bufferView": 8,
            "byteOffset": 0
        },
        {
            "componentType": 5126,
            "type": "VEC3",
            "count": 400,
            "bufferView": 9,
            "byteOffset": 0,
            "min": [
                -0.0151660153642297,
                0.0194726549088955,
                -0.12015625089407
            ],
            "max": [
                0.0151171870529652,
                0.0531005859375,
                -0.0458300784230232
            ]
        },
        {
            "componentType": 5126,
            "type": "VEC3",
            "count": 400,
            "bufferView": 10,
            "byteOffset": 0
        },
        {
            "componentType": 5126,
            "type": "VEC4",
            "count": 400,
            "bufferView": 11,
            "byteOffset": 0
        },
        {
            "componentType": 5126,
            "type": "VEC2",
            "count": 400,
            "bufferView": 12,
            "byteOffset": 0
        },
        {
            "componentType": 5126,
            "type": "VEC2",
            "count": 400,
            "bufferView": 13,
            "byteOffset": 0
        },
        {
            "componentType": 5123,
            "type": "VEC4",
            "count": 400,
            "bufferView": 14,
            "byteOffset": 0
        },
        {
            "componentType": 5126,
            "type": "VEC4",
            "count": 400,
            "bufferView": 15,
            "byteOffset": 0
        },
        {
            "componentType": 5126,
            "type": "MAT4",
            "count": 14,
            "bufferView": 16,
            "byteOffset": 0
        },
        {
            "componentType": 5126,
            "type": "MAT4",
            "count": 14,
            "bufferView": 17,
            "byteOffset": 0
        }
    ],
    "images": [
        {
            "name": "Scene_Atlas.png",
            "uri": "Scene_Atlas.png"
        }
    ],
    "samplers": [
        {}
    ],
    "textures": [
        {
            "name": "DiffuseColor_Texture3",
            "sampler": 0,
            "source": 0
        }
    ],
    "materials": [
        {
            "name": "Spaceship",
            "alphaMode": "OPAQUE",
            "extras": {
                "fromFBX": {
                    "shadingModel": "Lambert",
                    "isTruePBR": false
                }
            },
            "pbrMetallicRoughness": {
                "baseColorTexture": {
                    "index": 0,
                    "texCoord": 0
                },
                "baseColorFactor": [
                    1.0,
                    1.0,
                    1.0,
                    1.0
                ],
                "metallicFactor": 0.200000002980232,
                "roughnessFactor": 0.800000011920929
            }
        }
    ],
    "meshes": [
        {
            "name": "Spaceship",
            "primitives": [
                {
                    "material": 0,
                    "mode": 4,
                    "attributes": {
                        "JOINTS_0": 6,
                        "NORMAL": 2,
                        "POSITION": 1,
                        "TANGENT": 3,
                        "TEXCOORD_0": 4,
                        "TEXCOORD_1": 5,
                        "WEIGHTS_0": 7
                    },
                    "indices": 0
                }
            ]
        },
        {
            "name": "SM_Ship_Fighter_Heavy_02.001",
            "primitives": [
                {
                    "material": 0,
                    "mode": 4,
                    "attributes": {
                        "JOINTS_0": 14,
                        "NORMAL": 10,
                        "POSITION": 9,
                        "TANGENT": 11,
                        "TEXCOORD_0": 12,
                        "TEXCOORD_1": 13,
                        "WEIGHTS_0": 15
                    },
                    "indices": 8
                }
            ]
        }
    ],
    "skins": [
        {
            "joints": [
                4,
                5,
                6,
                7,
                8,
                9,
                10,
                11,
                12,
                13,
                14,
                15,
                16,
                17
            ],
            "inverseBindMatrices": 16,
            "skeleton": 4
        },
        {
            "joints": [
                4,
                5,
                6,
                7,
                8,
                9,
                10,
                11,
                12,
                13,
                14,
                15,
                16,
                17
            ],
            "inverseBindMatrices": 17,
            "skeleton": 4
        }
    ],
    "nodes": [
        {
            "name": "RootNode",
            "translation": [
                0.0,
                0.0,
                0.0
            ],
            "rotation": [
                0.0,
                0.0,
                0.0,
                1.0
            ],
            "scale": [
                1.0,
                1.0,
                1.0
            ],
            "children": [
                1,
                3
            ]
        },
        {
            "name": "Spaceship",
            "translation": [
                0.0,
                0.0,
                0.0
            ],
            "rotation": [
                0.0,
                0.0,
                0.0,
                1.0
            ],
            "scale": [
                1.0,
                1.0,
                1.0
            ],
            "children": [
                2
            ],
            "mesh": 0,
            "skin": 0
        },
        {
            "name": "SM_Ship_Fighter_Heavy_02.001",
            "translation": [
                0.0,
                0.0,
                0.0
            ],
            "rotation": [
                0.0,
                0.0,
                0.0,
                1.0
            ],
            "scale": [
                1.0,
                1.0,
                1.0
            ],
            "mesh": 1,
            "skin": 1
        },
        {
            "name": "Root_M",
            "translation": [
                0.0,
                0.0144021166488528,
                0.0
            ],
            "rotation": [
                0.5,
                0.5,
                0.5,
                0.5
            ],
            "scale": [
                1.0,
                1.0,
                1.0
            ],
            "children": [
                4,
                14,
                16
            ]
        },
        {
            "name": "Body_M",
            "translation": [
                0.0255978815257549,
                -5.57213345161851e-18,
                -5.10441906350143e-18
            ],
            "rotation": [
                0.0,
                3.99305821308013e-32,
                -8.32667268468867e-17,
                1.0
            ],
            "scale": [
                1.0,
                1.0,
                1.0
            ],
            "children": [
                5,
                6,
                10
            ]
        },
        {
            "name": "BodyEnd_M",
            "translation": [
                0.0314607843756676,
                -5.23927307799503e-18,
                -9.93063081722167e-18
            ],
            "rotation": [
                -4.93038065763132e-32,
                -1.66005589743428e-32,
                -8.32667268468867e-17,
                1.0
            ],
            "scale": [
                1.0,
                1.0,
                1.0
            ]
        },
        {
            "name": "wing1_R",
            "translation": [
                0.01981520652771,
                -0.00586253451183438,
                -0.0263877622783184
            ],
            "rotation": [
                0.588311553001404,
                0.321552336215973,
                -0.35584419965744,
                0.651051878929138
            ],
            "scale": [
                1.0,
                1.0,
                1.0
            ],
            "children": [
                7
            ]
        },
        {
            "name": "wing2_R",
            "translation": [
                0.0429245233535767,
                6.66133775070425e-17,
                -6.66133799885843e-18
            ],
            "rotation": [
                0.015495209954679,
                0.0368847995996475,
                -0.171682015061378,
                0.984339714050293
            ],
            "scale": [
                1.0,
                1.0,
                1.0
            ],
            "children": [
                8
            ]
        },
        {
            "name": "wing3_R",
            "translation": [
                0.0279112923890352,
                -6.21724896437066e-17,
                0.0
            ],
            "rotation": [
                0.00480295391753316,
                0.0221392922103405,
                -0.0113991070538759,
                0.999678373336792
            ],
            "scale": [
                1.0,
                1.0,
                1.0
            ],
            "children": [
                9
            ]
        },
        {
            "name": "wing4_R",
            "translation": [
                0.0242546387016773,
                -4.44089183380283e-17,
                -3.7747583234302e-17
            ],
            "rotation": [
                -4.33680868994202e-19,
                -9.19403442267708e-17,
                -4.05356087238018e-17,
                1.0
            ],
            "scale": [
                1.0,
                1.0,
                1.0
            ]
        },
        {
            "name": "wing1_L",
            "translation": [
                0.01981520652771,
                -0.00586253451183438,
                0.0263877622783184
            ],
            "rotation": [
                -0.321552336215973,
                0.588311553001404,
                0.651051878929138,
                0.35584419965744
            ],
            "scale": [
                1.0,
                1.0,
                1.0
            ],
            "children": [
                11
            ]
        },
        {
            "name": "wing2_L",
            "translation": [
                -0.0429245233535767,
                -1.06581407981735e-16,
                -1.8873791617151e-17
            ],
            "rotation": [
                0.015495209954679,
                0.0368847995996475,
                -0.171682015061378,
                0.984339714050293
            ],
            "scale": [
                1.0,
                1.0,
                1.0
            ],
            "children": [
                12
            ]
        },
        {
            "name": "wing3_L",
            "translation": [
                -0.0279112923890352,
                8.88178366760566e-17,
                1.11022295845071e-17
            ],
            "rotation": [
                0.00480295391753316,
                0.0221392922103405,
                -0.0113991070538759,
                0.999678373336792
            ],
            "scale": [
                1.0,
                1.0,
                1.0
            ],
            "children": [
                13
            ]
        },
        {
            "name": "wing4_L",
            "translation": [
                -0.0242546387016773,
                0.0,
                3.10862448218533e-17
            ],
            "rotation": [
                1.0321604682062e-16,
                3.98986399474666e-17,
                -3.38271077815477e-17,
                1.0
            ],
            "scale": [
                1.0,
                1.0,
                1.0
            ]
        },
        {
            "name": "hehe1_R",
            "translation": [
                -0.0204705689102411,
                -0.01182303391397,
                -0.0715868920087814
            ],
            "rotation": [
                0.105346813797951,
                0.108024515211582,
                -0.707727551460266,
                0.690184354782104
            ],
            "scale": [
                1.0,
                1.0,
                1.0
            ],
            "children": [
                15
            ]
        },
        {
            "name": "hehe2_R",
            "translation": [
                0.0753801167011261,
                2.66453519954337e-17,
                8.88178399847791e-18
            ],
            "rotation": [
                0.0101104341447353,
                -0.805641651153564,
                0.00743273226544261,
                0.592270314693451
            ],
            "scale": [
                1.0,
                1.0,
                1.0
            ]
        },
        {
            "name": "hehe1_L",
            "translation": [
                -0.0204705689102411,
                -0.01182303391397,
                0.0715868920087814
            ],
            "rotation": [
                -0.108024522662163,
                0.10534680634737,
                0.690184354782104,
                0.707727551460266
            ],
            "scale": [
                1.0,
                1.0,
                1.0
            ],
            "children": [
                17
            ]
        },
        {
            "name": "hehe2_L",
            "translation": [
                -0.0753801167011261,
                2.77555756156289e-17,
                -4.44089183380283e-17
            ],
            "rotation": [
                0.0101104397326708,
                -0.805641651153564,
                0.0074327252805233,
                0.592270314693451
            ],
            "scale": [
                1.0,
                1.0,
                1.0
            ]
        }
    ]
}