{
  "accessors": [
    {
      "bufferView": 0,
      "componentType": 5126,
      "count": 2671,
      "max": [
        0.2400597631931305,
        0.28971654176712036,
        0.277975857257843
      ],
      "min": [
        -0.2904480993747711,
        -0.00931044016033411,
        -0.27797436714172363
      ],
      "name": "campfire/POSITION",
      "type": "VEC3"
    },
    {
      "bufferView": 0,
      "byteOffset": 12,
      "componentType": 5126,
      "count": 2671,
      "name": "campfire/NORMAL",
      "type": "VEC3"
    },
    {
      "bufferView": 0,
      "byteOffset": 24,
      "componentType": 5126,
      "count": 2671,
      "name": "campfire/TEXCOORD_0",
      "type": "VEC2"
    },
    {
      "bufferView": 1,
      "componentType": 5125,
      "count": 3762,
      "name": "campfire/INDICES",
      "type": "SCALAR"
    }
  ],
  "asset": {
    "copyright": "Copyright (c) 2018-2020 Chukong Technologies Inc.",
    "generator": "FBX-glTF-conv",
    "version": "2.0"
  },
  "bufferViews": [
    {
      "buffer": 0,
      "byteLength": 85472,
      "byteStride": 32,
      "name": "campfire",
      "target": 34962
    },
    {
      "buffer": 0,
      "byteLength": 15048,
      "byteOffset": 85472
    }
  ],
  "buffers": [
    {
      "byteLength": 100520,
      "uri": "out.bin"
    }
  ],
  "extras": {
    "FBX-glTF-conv": {
      "animationFrameRate": 30.0
    }
  },
  "images": [
    {
      "extras": {
        "FBX-glTF-conv": {
          "fileName": "D:\\PA_2024\\3D\\FartTroll\\FartTroll_Op1\\assets\\Assets3D\\LevelSource\\Level\\Level_9\\Campfire_AlbedoTransparency.png",
          "relativeFileName": "Campfire_AlbedoTransparency.png"
        }
      },
      "name": "file26",
      "uri": "Campfire_AlbedoTransparency.png"
    }
  ],
  "materials": [
    {
      "name": "Campfire",
      "pbrMetallicRoughness": {
        "baseColorTexture": {
          "index": 0
        },
        "metallicFactor": 0.4000000059604645,
        "roughnessFactor": 0.27216553688049316
      }
    }
  ],
  "meshes": [
    {
      "name": "campfire",
      "primitives": [
        {
          "attributes": {
            "NORMAL": 1,
            "POSITION": 0,
            "TEXCOORD_0": 2
          },
          "indices": 3,
          "material": 0
        }
      ]
    }
  ],
  "nodes": [
    {
      "mesh": 0,
      "name": "campfire"
    }
  ],
  "samplers": [
    {}
  ],
  "scenes": [
    {
      "nodes": [
        0
      ]
    }
  ],
  "textures": [
    {
      "name": "file26",
      "sampler": 0,
      "source": 0
    }
  ]
}