{
  "accessors": [
    {
      "bufferView": 0,
      "componentType": 5126,
      "count": 5136,
      "max": [
        0.06145704165101051,
        0.024536600336432457,
        0.0009941596072167158
      ],
      "min": [
        -0.06145704165101051,
        -7.277548138517886e-05,
        -0.003843677928671241
      ],
      "name": "m871/POSITION",
      "type": "VEC3"
    },
    {
      "bufferView": 0,
      "byteOffset": 12,
      "componentType": 5126,
      "count": 5136,
      "name": "m871/NORMAL",
      "type": "VEC3"
    },
    {
      "bufferView": 0,
      "byteOffset": 24,
      "componentType": 5126,
      "count": 5136,
      "name": "m871/TEXCOORD_0",
      "type": "VEC2"
    },
    {
      "bufferView": 1,
      "componentType": 5125,
      "count": 8424,
      "name": "m871/INDICES",
      "type": "SCALAR"
    }
  ],
  "asset": {
    "copyright": "Copyright (c) 2018-2020 Chukong Technologies Inc.",
    "generator": "FBX-glTF-conv",
    "version": "2.0"
  },
  "bufferViews": [
    {
      "buffer": 0,
      "byteLength": 164352,
      "byteStride": 32,
      "name": "m871",
      "target": 34962
    },
    {
      "buffer": 0,
      "byteLength": 33696,
      "byteOffset": 164352
    }
  ],
  "buffers": [
    {
      "byteLength": 198048,
      "uri": "out.bin"
    }
  ],
  "extras": {
    "FBX-glTF-conv": {
      "animationFrameRate": 30.0
    }
  },
  "images": [
    {
      "extras": {
        "FBX-glTF-conv": {
          "fileName": "D:\\Model_Gun\\Jacky_Trigger\\Model\\m870\\tex_gun_01.png",
          "relativeFileName": "..\\..\\Model_Gun\\Jacky_Trigger\\Model\\m870\\tex_gun_01.png"
        }
      },
      "name": "tex_gun_01.png",
      "uri": "data:image/png;base64,"
    }
  ],
  "materials": [
    {
      "name": "tex_gun_01",
      "pbrMetallicRoughness": {
        "baseColorTexture": {
          "index": 0
        },
        "metallicFactor": 0.4000000059604645,
        "roughnessFactor": 0.30151134729385376
      }
    }
  ],
  "meshes": [
    {
      "name": "m871",
      "primitives": [
        {
          "attributes": {
            "NORMAL": 1,
            "POSITION": 0,
            "TEXCOORD_0": 2
          },
          "indices": 3,
          "material": 0
        }
      ]
    }
  ],
  "nodes": [
    {
      "mesh": 0,
      "name": "m871"
    }
  ],
  "samplers": [
    {}
  ],
  "scenes": [
    {
      "nodes": [
        0
      ]
    }
  ],
  "textures": [
    {
      "name": "tex_gun_01.png",
      "sampler": 0,
      "source": 0
    }
  ]
}