{
  "accessors": [
    {
      "bufferView": 0,
      "componentType": 5126,
      "count": 96,
      "max": [
        0.0008237636648118496,
        0.006162403151392937,
        0.014634717255830765
      ],
      "min": [
        -0.0008237636648118496,
        -0.006162404548376799,
        -0.014634717255830765
      ],
      "name": "laser_vfx_mesh/POSITION",
      "type": "VEC3"
    },
    {
      "bufferView": 0,
      "byteOffset": 12,
      "componentType": 5126,
      "count": 96,
      "name": "laser_vfx_mesh/NORMAL",
      "type": "VEC3"
    },
    {
      "bufferView": 0,
      "byteOffset": 24,
      "componentType": 5126,
      "count": 96,
      "name": "laser_vfx_mesh/TEXCOORD_0",
      "type": "VEC2"
    },
    {
      "bufferView": 1,
      "componentType": 5125,
      "count": 252,
      "name": "laser_vfx_mesh/INDICES",
      "type": "SCALAR"
    },
    {
      "bufferView": 2,
      "componentType": 5126,
      "count": 735,
      "max": [
        0.002633505268022418,
        0.01577996276319027,
        0.0007057737675495446
      ],
      "min": [
        -0.007146873511373997,
        -1.225123752446322e-10,
        -0.0017473874613642693
      ],
      "name": "laser_base2/POSITION",
      "type": "VEC3"
    },
    {
      "bufferView": 2,
      "byteOffset": 12,
      "componentType": 5126,
      "count": 735,
      "name": "laser_base2/NORMAL",
      "type": "VEC3"
    },
    {
      "bufferView": 2,
      "byteOffset": 24,
      "componentType": 5126,
      "count": 735,
      "name": "laser_base2/TEXCOORD_0",
      "type": "VEC2"
    },
    {
      "bufferView": 3,
      "componentType": 5125,
      "count": 1980,
      "name": "laser_base2/INDICES",
      "type": "SCALAR"
    },
    {
      "bufferView": 4,
      "componentType": 5126,
      "count": 735,
      "max": [
        0.002633505268022418,
        0.01577996276319027,
        0.001747388974763453
      ],
      "min": [
        -0.007146873511373997,
        -1.225123752446322e-10,
        -0.0007057737093418837
      ],
      "name": "laser_base1/POSITION",
      "type": "VEC3"
    },
    {
      "bufferView": 4,
      "byteOffset": 12,
      "componentType": 5126,
      "count": 735,
      "name": "laser_base1/NORMAL",
      "type": "VEC3"
    },
    {
      "bufferView": 4,
      "byteOffset": 24,
      "componentType": 5126,
      "count": 735,
      "name": "laser_base1/TEXCOORD_0",
      "type": "VEC2"
    },
    {
      "bufferView": 5,
      "componentType": 5125,
      "count": 1980,
      "name": "laser_base1/INDICES",
      "type": "SCALAR"
    }
  ],
  "asset": {
    "copyright": "Copyright (c) 2018-2020 Chukong Technologies Inc.",
    "generator": "FBX-glTF-conv",
    "version": "2.0"
  },
  "bufferViews": [
    {
      "buffer": 0,
      "byteLength": 3072,
      "byteStride": 32,
      "name": "laser_vfx_mesh",
      "target": 34962
    },
    {
      "buffer": 0,
      "byteLength": 1008,
      "byteOffset": 3072
    },
    {
      "buffer": 0,
      "byteLength": 23520,
      "byteOffset": 4080,
      "byteStride": 32,
      "name": "laser_base2",
      "target": 34962
    },
    {
      "buffer": 0,
      "byteLength": 7920,
      "byteOffset": 27600
    },
    {
      "buffer": 0,
      "byteLength": 23520,
      "byteOffset": 35520,
      "byteStride": 32,
      "name": "laser_base1",
      "target": 34962
    },
    {
      "buffer": 0,
      "byteLength": 7920,
      "byteOffset": 59040
    }
  ],
  "buffers": [
    {
      "byteLength": 66960,
      "uri": "out.bin"
    }
  ],
  "extras": {
    "FBX-glTF-conv": {
      "animationFrameRate": 25.0
    }
  },
  "images": [
    {
      "extras": {
        "FBX-glTF-conv": {
          "fileName": "C:\\Users\\Admin\\Desktop\\Cat Escape\\Texture.jpg",
          "relativeFileName": "C:\\Users\\Admin\\Desktop\\Cat Escape\\Texture.jpg"
        }
      },
      "name": "base_color_texture",
      "uri": "data:image/png;base64,"
    }
  ],
  "materials": [
    {
      "name": "Laser_vfx_mesh",
      "pbrMetallicRoughness": {
        "baseColorFactor": [
          0.6415094137191772,
          0.6415094137191772,
          0.6415094137191772,
          1.0
        ],
        "metallicFactor": 0.4000000059604645,
        "roughnessFactor": 0.30151134729385376
      }
    },
    {
      "name": "Mat_Environment",
      "pbrMetallicRoughness": {
        "baseColorTexture": {
          "index": 0
        },
        "metallicFactor": 0.4000000059604645
      }
    }
  ],
  "meshes": [
    {
      "name": "laser_vfx_mesh",
      "primitives": [
        {
          "attributes": {
            "NORMAL": 1,
            "POSITION": 0,
            "TEXCOORD_0": 2
          },
          "indices": 3,
          "material": 0
        }
      ]
    },
    {
      "name": "laser_base2",
      "primitives": [
        {
          "attributes": {
            "NORMAL": 5,
            "POSITION": 4,
            "TEXCOORD_0": 6
          },
          "indices": 7,
          "material": 1
        }
      ]
    },
    {
      "name": "laser_base1",
      "primitives": [
        {
          "attributes": {
            "NORMAL": 9,
            "POSITION": 8,
            "TEXCOORD_0": 10
          },
          "indices": 11,
          "material": 1
        }
      ]
    }
  ],
  "nodes": [
    {
      "children": [
        1,
        2,
        3
      ],
      "name": "laser"
    },
    {
      "mesh": 0,
      "name": "laser_vfx_mesh",
      "translation": [
        -2.109229413349567e-08,
        0.007881137542426586,
        2.020315292838859e-07
      ]
    },
    {
      "mesh": 1,
      "name": "laser_base2",
      "translation": [
        -2.078171768005177e-08,
        1.6899934962566476e-06,
        0.014305144548416138
      ]
    },
    {
      "mesh": 2,
      "name": "laser_base1",
      "translation": [
        -2.2032313751196853e-08,
        1.6899934962566476e-06,
        -0.014305144548416138
      ]
    }
  ],
  "samplers": [
    {}
  ],
  "scenes": [
    {
      "name": "Scene",
      "nodes": [
        0
      ]
    }
  ],
  "textures": [
    {
      "name": "base_color_texture",
      "sampler": 0,
      "source": 0
    }
  ]
}