{
  "accessors": [
    {
      "bufferView": 0,
      "componentType": 5126,
      "count": 659,
      "max": [
        0.0030731672886759043,
        0.013054335489869118,
        0.004810853861272335
      ],
      "min": [
        -0.002802838571369648,
        -8.097117643046658e-08,
        -0.004610410891473293
      ],
      "name": "military_streetmap.006/POSITION",
      "type": "VEC3"
    },
    {
      "bufferView": 0,
      "byteOffset": 12,
      "componentType": 5126,
      "count": 659,
      "name": "military_streetmap.006/NORMAL",
      "type": "VEC3"
    },
    {
      "bufferView": 0,
      "byteOffset": 24,
      "componentType": 5126,
      "count": 659,
      "name": "military_streetmap.006/TEXCOORD_0",
      "type": "VEC2"
    },
    {
      "bufferView": 1,
      "componentType": 5125,
      "count": 2256,
      "name": "military_streetmap.006/INDICES",
      "type": "SCALAR"
    }
  ],
  "asset": {
    "copyright": "Copyright (c) 2018-2020 Chukong Technologies Inc.",
    "generator": "FBX-glTF-conv",
    "version": "2.0"
  },
  "bufferViews": [
    {
      "buffer": 0,
      "byteLength": 21088,
      "byteStride": 32,
      "name": "military_streetmap.006",
      "target": 34962
    },
    {
      "buffer": 0,
      "byteLength": 9024,
      "byteOffset": 21088
    }
  ],
  "buffers": [
    {
      "byteLength": 30112,
      "uri": "out.bin"
    }
  ],
  "extras": {
    "FBX-glTF-conv": {
      "animationFrameRate": 25.0
    }
  },
  "images": [
    {
      "extras": {
        "FBX-glTF-conv": {
          "fileName": "C:\\Users\\Admin\\Desktop\\Cat Escape\\Texture.jpg",
          "relativeFileName": "C:\\Users\\Admin\\Desktop\\Cat Escape\\Texture.jpg"
        }
      },
      "name": "base_color_texture",
      "uri": "data:image/png;base64,"
    }
  ],
  "materials": [
    {
      "name": "Mat_Environment",
      "pbrMetallicRoughness": {
        "baseColorTexture": {
          "index": 0
        },
        "metallicFactor": 0.4000000059604645
      }
    }
  ],
  "meshes": [
    {
      "name": "military_streetmap.006",
      "primitives": [
        {
          "attributes": {
            "NORMAL": 1,
            "POSITION": 0,
            "TEXCOORD_0": 2
          },
          "indices": 3,
          "material": 0
        }
      ]
    }
  ],
  "nodes": [
    {
      "mesh": 0,
      "name": "military_cactus1"
    }
  ],
  "samplers": [
    {}
  ],
  "scenes": [
    {
      "name": "Scene",
      "nodes": [
        0
      ]
    }
  ],
  "textures": [
    {
      "name": "base_color_texture",
      "sampler": 0,
      "source": 0
    }
  ]
}