{
  "accessors": [
    {
      "bufferView": 0,
      "componentType": 5126,
      "count": 1054,
      "max": [
        0.065214142203331,
        0.06829509139060974,
        0.007584859617054462
      ],
      "min": [
        -0.065214142203331,
        0.0018311298917979002,
        -0.009061329998075962
      ],
      "name": "range02_Material0/POSITION",
      "type": "VEC3"
    },
    {
      "bufferView": 0,
      "byteOffset": 12,
      "componentType": 5126,
      "count": 1054,
      "name": "range02_Material0/NORMAL",
      "type": "VEC3"
    },
    {
      "bufferView": 0,
      "byteOffset": 24,
      "componentType": 5126,
      "count": 1054,
      "name": "range02_Material0/TEXCOORD_0",
      "type": "VEC2"
    },
    {
      "bufferView": 0,
      "byteOffset": 32,
      "componentType": 5123,
      "count": 1054,
      "name": "range02_Material0/JOINTS_0",
      "type": "VEC4"
    },
    {
      "bufferView": 0,
      "byteOffset": 40,
      "componentType": 5126,
      "count": 1054,
      "name": "range02_Material0/WEIGHTS_0",
      "type": "VEC4"
    },
    {
      "bufferView": 0,
      "byteOffset": 56,
      "componentType": 5123,
      "count": 1054,
      "name": "range02_Material0/JOINTS_1",
      "type": "VEC4"
    },
    {
      "bufferView": 0,
      "byteOffset": 64,
      "componentType": 5126,
      "count": 1054,
      "name": "range02_Material0/WEIGHTS_1",
      "type": "VEC4"
    },
    {
      "bufferView": 1,
      "componentType": 5125,
      "count": 5070,
      "name": "range02_Material0/INDICES",
      "type": "SCALAR"
    },
    {
      "bufferView": 2,
      "componentType": 5126,
      "count": 604,
      "max": [
        0.019179580733180046,
        0.09411726891994476,
        0.011779328808188438
      ],
      "min": [
        -0.01922120898962021,
        0.06547395139932632,
        -0.010011509992182255
      ],
      "name": "range02_Material0/POSITION",
      "type": "VEC3"
    },
    {
      "bufferView": 2,
      "byteOffset": 12,
      "componentType": 5126,
      "count": 604,
      "name": "range02_Material0/NORMAL",
      "type": "VEC3"
    },
    {
      "bufferView": 2,
      "byteOffset": 24,
      "componentType": 5126,
      "count": 604,
      "name": "range02_Material0/TEXCOORD_0",
      "type": "VEC2"
    },
    {
      "bufferView": 2,
      "byteOffset": 32,
      "componentType": 5123,
      "count": 604,
      "name": "range02_Material0/JOINTS_0",
      "type": "VEC4"
    },
    {
      "bufferView": 2,
      "byteOffset": 40,
      "componentType": 5126,
      "count": 604,
      "name": "range02_Material0/WEIGHTS_0",
      "type": "VEC4"
    },
    {
      "bufferView": 2,
      "byteOffset": 56,
      "componentType": 5123,
      "count": 604,
      "name": "range02_Material0/JOINTS_1",
      "type": "VEC4"
    },
    {
      "bufferView": 2,
      "byteOffset": 64,
      "componentType": 5126,
      "count": 604,
      "name": "range02_Material0/WEIGHTS_1",
      "type": "VEC4"
    },
    {
      "bufferView": 3,
      "componentType": 5125,
      "count": 3066,
      "name": "range02_Material0/INDICES",
      "type": "SCALAR"
    },
    {
      "bufferView": 4,
      "componentType": 5126,
      "count": 337,
      "max": [
        0.013446258381009102,
        0.07662243396043777,
        0.015573805198073387
      ],
      "min": [
        -0.013446258381009102,
        -0.00029310904210433364,
        -0.009187839925289154
      ],
      "name": "range02_Material0/POSITION",
      "type": "VEC3"
    },
    {
      "bufferView": 4,
      "byteOffset": 12,
      "componentType": 5126,
      "count": 337,
      "name": "range02_Material0/NORMAL",
      "type": "VEC3"
    },
    {
      "bufferView": 4,
      "byteOffset": 24,
      "componentType": 5126,
      "count": 337,
      "name": "range02_Material0/TEXCOORD_0",
      "type": "VEC2"
    },
    {
      "bufferView": 4,
      "byteOffset": 32,
      "componentType": 5123,
      "count": 337,
      "name": "range02_Material0/JOINTS_0",
      "type": "VEC4"
    },
    {
      "bufferView": 4,
      "byteOffset": 40,
      "componentType": 5126,
      "count": 337,
      "name": "range02_Material0/WEIGHTS_0",
      "type": "VEC4"
    },
    {
      "bufferView": 4,
      "byteOffset": 56,
      "componentType": 5123,
      "count": 337,
      "name": "range02_Material0/JOINTS_1",
      "type": "VEC4"
    },
    {
      "bufferView": 4,
      "byteOffset": 64,
      "componentType": 5126,
      "count": 337,
      "name": "range02_Material0/WEIGHTS_1",
      "type": "VEC4"
    },
    {
      "bufferView": 5,
      "componentType": 5125,
      "count": 1446,
      "name": "range02_Material0/INDICES",
      "type": "SCALAR"
    },
    {
      "bufferView": 6,
      "componentType": 5126,
      "count": 432,
      "max": [
        0.007196840830147266,
        0.0689619854092598,
        0.007283550687134266
      ],
      "min": [
        -0.00847863033413887,
        0.056810494512319565,
        0.0015080556040629745
      ],
      "name": "range02_Material0/POSITION",
      "type": "VEC3"
    },
    {
      "bufferView": 6,
      "byteOffset": 12,
      "componentType": 5126,
      "count": 432,
      "name": "range02_Material0/NORMAL",
      "type": "VEC3"
    },
    {
      "bufferView": 6,
      "byteOffset": 24,
      "componentType": 5126,
      "count": 432,
      "name": "range02_Material0/TEXCOORD_0",
      "type": "VEC2"
    },
    {
      "bufferView": 6,
      "byteOffset": 32,
      "componentType": 5123,
      "count": 432,
      "name": "range02_Material0/JOINTS_0",
      "type": "VEC4"
    },
    {
      "bufferView": 6,
      "byteOffset": 40,
      "componentType": 5126,
      "count": 432,
      "name": "range02_Material0/WEIGHTS_0",
      "type": "VEC4"
    },
    {
      "bufferView": 6,
      "byteOffset": 56,
      "componentType": 5123,
      "count": 432,
      "name": "range02_Material0/JOINTS_1",
      "type": "VEC4"
    },
    {
      "bufferView": 6,
      "byteOffset": 64,
      "componentType": 5126,
      "count": 432,
      "name": "range02_Material0/WEIGHTS_1",
      "type": "VEC4"
    },
    {
      "bufferView": 7,
      "componentType": 5125,
      "count": 1998,
      "name": "range02_Material0/INDICES",
      "type": "SCALAR"
    },
    {
      "bufferView": 8,
      "componentType": 5126,
      "count": 20,
      "name": "/InverseBindMatrices",
      "type": "MAT4"
    }
  ],
  "asset": {
    "copyright": "Copyright (c) 2018-2020 Chukong Technologies Inc.",
    "generator": "FBX-glTF-conv",
    "version": "2.0"
  },
  "bufferViews": [
    {
      "buffer": 0,
      "byteLength": 84320,
      "byteStride": 80,
      "name": "range02_Material0",
      "target": 34962
    },
    {
      "buffer": 0,
      "byteLength": 20280,
      "byteOffset": 84320
    },
    {
      "buffer": 0,
      "byteLength": 48320,
      "byteOffset": 104600,
      "byteStride": 80,
      "name": "range02_Material0",
      "target": 34962
    },
    {
      "buffer": 0,
      "byteLength": 12264,
      "byteOffset": 152920
    },
    {
      "buffer": 0,
      "byteLength": 26960,
      "byteOffset": 165184,
      "byteStride": 80,
      "name": "range02_Material0",
      "target": 34962
    },
    {
      "buffer": 0,
      "byteLength": 5784,
      "byteOffset": 192144
    },
    {
      "buffer": 0,
      "byteLength": 34560,
      "byteOffset": 197928,
      "byteStride": 80,
      "name": "range02_Material0",
      "target": 34962
    },
    {
      "buffer": 0,
      "byteLength": 7992,
      "byteOffset": 232488
    },
    {
      "buffer": 0,
      "byteLength": 1280,
      "byteOffset": 240480
    }
  ],
  "buffers": [
    {
      "byteLength": 241760,
      "uri": "out.bin"
    }
  ],
  "extras": {
    "FBX-glTF-conv": {
      "animationFrameRate": 30.0
    }
  },
  "materials": [
    {
      "name": "Default OBJ.004",
      "pbrMetallicRoughness": {
        "baseColorFactor": [
          0.800000011920929,
          0.800000011920929,
          0.800000011920929,
          1.0
        ],
        "metallicFactor": 0.4000000059604645,
        "roughnessFactor": 0.27216553688049316
      }
    },
    {
      "name": "Default OBJ",
      "pbrMetallicRoughness": {
        "baseColorFactor": [
          0.800000011920929,
          0.800000011920929,
          0.800000011920929,
          1.0
        ],
        "metallicFactor": 0.4000000059604645,
        "roughnessFactor": 0.27216553688049316
      }
    },
    {
      "name": "Default OBJ.001",
      "pbrMetallicRoughness": {
        "baseColorFactor": [
          0.800000011920929,
          0.800000011920929,
          0.800000011920929,
          1.0
        ],
        "metallicFactor": 0.4000000059604645,
        "roughnessFactor": 0.27216553688049316
      }
    },
    {
      "name": "Default OBJ.002",
      "pbrMetallicRoughness": {
        "baseColorFactor": [
          0.800000011920929,
          0.800000011920929,
          0.800000011920929,
          1.0
        ],
        "metallicFactor": 0.4000000059604645,
        "roughnessFactor": 0.27216553688049316
      }
    }
  ],
  "meshes": [
    {
      "name": "range02_Material0",
      "primitives": [
        {
          "attributes": {
            "JOINTS_0": 3,
            "JOINTS_1": 5,
            "NORMAL": 1,
            "POSITION": 0,
            "TEXCOORD_0": 2,
            "WEIGHTS_0": 4,
            "WEIGHTS_1": 6
          },
          "indices": 7,
          "material": 0
        },
        {
          "attributes": {
            "JOINTS_0": 11,
            "JOINTS_1": 13,
            "NORMAL": 9,
            "POSITION": 8,
            "TEXCOORD_0": 10,
            "WEIGHTS_0": 12,
            "WEIGHTS_1": 14
          },
          "indices": 15,
          "material": 1
        },
        {
          "attributes": {
            "JOINTS_0": 19,
            "JOINTS_1": 21,
            "NORMAL": 17,
            "POSITION": 16,
            "TEXCOORD_0": 18,
            "WEIGHTS_0": 20,
            "WEIGHTS_1": 22
          },
          "indices": 23,
          "material": 2
        },
        {
          "attributes": {
            "JOINTS_0": 27,
            "JOINTS_1": 29,
            "NORMAL": 25,
            "POSITION": 24,
            "TEXCOORD_0": 26,
            "WEIGHTS_0": 28,
            "WEIGHTS_1": 30
          },
          "indices": 31,
          "material": 3
        }
      ]
    }
  ],
  "nodes": [
    {
      "mesh": 0,
      "name": "range02",
      "skin": 0
    },
    {
      "children": [
        2,
        6,
        10
      ],
      "extras": {
        "FBX-glTF-conv": {
          "skeleton": {
            "skeletonType": "LimbNode"
          }
        }
      },
      "name": "Hips",
      "rotation": [
        0.4949474632740021,
        0.5050020217895508,
        0.4949474632740021,
        0.5050020217895508
      ],
      "translation": [
        0.0,
        0.05065533146262169,
        -0.0013288784539327025
      ]
    },
    {
      "children": [
        3
      ],
      "extras": {
        "FBX-glTF-conv": {
          "skeleton": {
            "skeletonType": "LimbNode"
          }
        }
      },
      "name": "LeftUpLeg",
      "rotation": [
        0.008575832471251488,
        -0.005126091185957193,
        0.9996856451034546,
        0.022995175793766975
      ],
      "translation": [
        -0.004040120169520378,
        -7.24870478734374e-05,
        0.006863633170723915
      ]
    },
    {
      "children": [
        4
      ],
      "extras": {
        "FBX-glTF-conv": {
          "skeleton": {
            "skeletonType": "LimbNode"
          }
        }
      },
      "name": "LeftLeg",
      "rotation": [
        0.0016395848942920566,
        0.00010010300320573151,
        0.05939505249261856,
        0.9982331991195679
      ],
      "translation": [
        0.01997019723057747,
        4.9960038093365514e-18,
        -3.3306689994292145e-18
      ]
    },
    {
      "children": [
        5
      ],
      "extras": {
        "FBX-glTF-conv": {
          "skeleton": {
            "skeletonType": "LimbNode"
          }
        }
      },
      "name": "LeftFoot",
      "rotation": [
        -0.003530202666297555,
        0.006550954654812813,
        -0.6196042895317078,
        0.7848790884017944
      ],
      "translation": [
        0.02200494334101677,
        1.387778801460961e-18,
        -1.1102229998097382e-18
      ]
    },
    {
      "extras": {
        "FBX-glTF-conv": {
          "skeleton": {
            "skeletonType": "LimbNode"
          }
        }
      },
      "name": "LeftToeBase",
      "translation": [
        0.015773551538586617,
        7.952367236940816e-11,
        2.918607022728281e-10
      ]
    },
    {
      "children": [
        7
      ],
      "extras": {
        "FBX-glTF-conv": {
          "skeleton": {
            "skeletonType": "LimbNode"
          }
        }
      },
      "name": "RightUpLeg",
      "rotation": [
        -0.0051259067840874195,
        -0.008575822226703167,
        -0.022997993975877762,
        0.9996855854988098
      ],
      "translation": [
        -0.004040120169520378,
        -7.24870478734374e-05,
        -0.006863633170723915
      ]
    },
    {
      "children": [
        8
      ],
      "extras": {
        "FBX-glTF-conv": {
          "skeleton": {
            "skeletonType": "LimbNode"
          }
        }
      },
      "name": "RightLeg",
      "rotation": [
        0.0016625210409983993,
        0.00010140842641703784,
        0.05939732864499092,
        0.9982330203056335
      ],
      "translation": [
        -0.01997019723057747,
        -3.637419575611145e-12,
        -5.795677271436261e-10
      ]
    },
    {
      "children": [
        9
      ],
      "extras": {
        "FBX-glTF-conv": {
          "skeleton": {
            "skeletonType": "LimbNode"
          }
        }
      },
      "name": "RightFoot",
      "rotation": [
        -0.0035485888365656137,
        0.0065363747999072075,
        -0.6196040511131287,
        0.7848792672157288
      ],
      "translation": [
        -0.02200494334101677,
        -3.0531133011755682e-18,
        9.918821319843119e-11
      ]
    },
    {
      "extras": {
        "FBX-glTF-conv": {
          "skeleton": {
            "skeletonType": "LimbNode"
          }
        }
      },
      "name": "RightToeBase",
      "rotation": [
        2.5421932150493376e-05,
        -1.7642877381263133e-08,
        4.485992740471678e-13,
        1.0
      ],
      "translation": [
        -0.015773551538586617,
        -2.2310904859712544e-11,
        2.9476421303797906e-10
      ]
    },
    {
      "children": [
        11,
        15,
        19
      ],
      "extras": {
        "FBX-glTF-conv": {
          "skeleton": {
            "skeletonType": "LimbNode"
          }
        }
      },
      "name": "Spine",
      "rotation": [
        2.177108842586973e-32,
        -7.235410856547275e-18,
        0.11816322803497314,
        0.9929941892623901
      ],
      "translation": [
        0.00951240211725235,
        3.2288557244575244e-11,
        0.0
      ]
    },
    {
      "children": [
        12
      ],
      "extras": {
        "FBX-glTF-conv": {
          "skeleton": {
            "skeletonType": "LimbNode"
          }
        }
      },
      "name": "LeftShoulder",
      "rotation": [
        0.5511525869369507,
        0.44297945499420166,
        0.5511525869369507,
        -0.44297945499420166
      ],
      "translation": [
        0.003662260016426444,
        -0.0009514836710877717,
        0.0060694245621562
      ]
    },
    {
      "children": [
        13
      ],
      "extras": {
        "FBX-glTF-conv": {
          "skeleton": {
            "skeletonType": "LimbNode"
          }
        }
      },
      "name": "LeftArm",
      "rotation": [
        0.7046915292739868,
        -0.004139336291700602,
        -0.015615101903676987,
        0.7093299031257629
      ],
      "translation": [
        0.005321125499904156,
        -8.881783998477905e-18,
        -2.2204459996194763e-18
      ]
    },
    {
      "children": [
        14
      ],
      "extras": {
        "FBX-glTF-conv": {
          "skeleton": {
            "skeletonType": "LimbNode"
          }
        }
      },
      "name": "LeftForeArm",
      "rotation": [
        4.7113780965446495e-07,
        5.470082669489784e-06,
        0.0710422620177269,
        0.9974732995033264
      ],
      "translation": [
        0.019009413197636604,
        -1.51267891737389e-17,
        2.6645351995433716e-17
      ]
    },
    {
      "extras": {
        "FBX-glTF-conv": {
          "skeleton": {
            "skeletonType": "LimbNode"
          }
        }
      },
      "name": "LeftHand",
      "translation": [
        0.017746489495038986,
        -1.1102230411687688e-17,
        8.88178432935015e-17
      ]
    },
    {
      "children": [
        16
      ],
      "extras": {
        "FBX-glTF-conv": {
          "skeleton": {
            "skeletonType": "LimbNode"
          }
        }
      },
      "name": "RightShoulder",
      "rotation": [
        0.44297945499420166,
        -0.5511525869369507,
        0.44297945499420166,
        0.5511525869369507
      ],
      "translation": [
        0.003662260016426444,
        -0.0009514836710877717,
        -0.0060694245621562
      ]
    },
    {
      "children": [
        17
      ],
      "extras": {
        "FBX-glTF-conv": {
          "skeleton": {
            "skeletonType": "LimbNode"
          }
        }
      },
      "name": "RightArm",
      "rotation": [
        0.7046918869018555,
        -0.0041409810073673725,
        -0.015609941445291042,
        0.7093296647071838
      ],
      "translation": [
        -0.005321125499904156,
        0.0,
        -2.2204459996194763e-18
      ]
    },
    {
      "children": [
        18
      ],
      "extras": {
        "FBX-glTF-conv": {
          "skeleton": {
            "skeletonType": "LimbNode"
          }
        }
      },
      "name": "RightForeArm",
      "rotation": [
        -1.7294394805134061e-09,
        -2.4285814248514725e-08,
        0.07103203982114792,
        0.9974740147590637
      ],
      "translation": [
        -0.019009413197636604,
        -1.4432898790731443e-17,
        9.769962563761818e-17
      ]
    },
    {
      "extras": {
        "FBX-glTF-conv": {
          "skeleton": {
            "skeletonType": "LimbNode"
          }
        }
      },
      "name": "RightHand",
      "rotation": [
        -8.716958997003854e-17,
        2.4362033403661125e-16,
        -1.0885995607168297e-06,
        1.0
      ],
      "translation": [
        -0.017746489495038986,
        -1.554312241092664e-17,
        8.6415874456236e-10
      ]
    },
    {
      "children": [
        20
      ],
      "extras": {
        "FBX-glTF-conv": {
          "skeleton": {
            "skeletonType": "LimbNode"
          }
        }
      },
      "name": "Neck",
      "rotation": [
        -7.124629383347637e-33,
        7.009612883196837e-18,
        -0.11447566002607346,
        0.9934260249137878
      ],
      "translation": [
        0.008204733021557331,
        4.179555868066842e-10,
        9.860761094857457e-34
      ]
    },
    {
      "extras": {
        "FBX-glTF-conv": {
          "skeleton": {
            "skeletonType": "LimbNode"
          }
        }
      },
      "name": "Head",
      "translation": [
        0.020541852340102196,
        -4.766349207679932e-12,
        -4.930380547428728e-34
      ]
    }
  ],
  "scenes": [
    {
      "nodes": [
        0,
        1
      ]
    }
  ],
  "skins": [
    {
      "inverseBindMatrices": 32,
      "joints": [
        1,
        2,
        3,
        4,
        5,
        6,
        7,
        8,
        9,
        10,
        11,
        12,
        13,
        14,
        15,
        16,
        17,
        18,
        19,
        20
      ]
    }
  ]
}