{
    "asset": {
        "generator": "FBX2glTF v0.9.7",
        "version": "2.0"
    },
    "scene": 0,
    "buffers": [
        {
            "byteLength": 18560,
            "uri": "buffer.bin"
        }
    ],
    "bufferViews": [
        {
            "buffer": 0,
            "byteLength": 960,
            "byteOffset": 0,
            "target": 34963
        },
        {
            "buffer": 0,
            "byteLength": 3120,
            "byteOffset": 960,
            "target": 34962
        },
        {
            "buffer": 0,
            "byteLength": 3120,
            "byteOffset": 4080,
            "target": 34962
        },
        {
            "buffer": 0,
            "byteLength": 2080,
            "byteOffset": 7200,
            "target": 34962
        },
        {
            "buffer": 0,
            "byteLength": 960,
            "byteOffset": 9280,
            "target": 34963
        },
        {
            "buffer": 0,
            "byteLength": 3120,
            "byteOffset": 10240,
            "target": 34962
        },
        {
            "buffer": 0,
            "byteLength": 3120,
            "byteOffset": 13360,
            "target": 34962
        },
        {
            "buffer": 0,
            "byteLength": 2080,
            "byteOffset": 16480,
            "target": 34962
        }
    ],
    "scenes": [
        {
            "name": "Root Scene",
            "nodes": [
                0
            ]
        }
    ],
    "accessors": [
        {
            "componentType": 5123,
            "type": "SCALAR",
            "count": 480,
            "bufferView": 0,
            "byteOffset": 0
        },
        {
            "componentType": 5126,
            "type": "VEC3",
            "count": 260,
            "bufferView": 1,
            "byteOffset": 0,
            "min": [
                -0.00167481251992285,
                -0.00746545335277915,
                -0.00309891276992857
            ],
            "max": [
                0.0190277472138405,
                0.00729105016216636,
                0.00167049176525325
            ]
        },
        {
            "componentType": 5126,
            "type": "VEC3",
            "count": 260,
            "bufferView": 2,
            "byteOffset": 0
        },
        {
            "componentType": 5126,
            "type": "VEC2",
            "count": 260,
            "bufferView": 3,
            "byteOffset": 0
        },
        {
            "componentType": 5123,
            "type": "SCALAR",
            "count": 480,
            "bufferView": 4,
            "byteOffset": 0
        },
        {
            "componentType": 5126,
            "type": "VEC3",
            "count": 260,
            "bufferView": 5,
            "byteOffset": 0,
            "min": [
                -0.0190277472138405,
                -0.00746545335277915,
                -0.00309890764765441
            ],
            "max": [
                0.00167481251992285,
                0.00729105016216636,
                0.00167049176525325
            ]
        },
        {
            "componentType": 5126,
            "type": "VEC3",
            "count": 260,
            "bufferView": 6,
            "byteOffset": 0
        },
        {
            "componentType": 5126,
            "type": "VEC2",
            "count": 260,
            "bufferView": 7,
            "byteOffset": 0
        }
    ],
    "images": [
        {
            "name": "base_color_texture",
            "uri": "data:image/png;base64,"
        }
    ],
    "samplers": [
        {}
    ],
    "textures": [
        {
            "name": "base_color_texture",
            "sampler": 0,
            "source": 0
        }
    ],
    "materials": [
        {
            "name": "Mat_Environment",
            "alphaMode": "OPAQUE",
            "extras": {
                "fromFBX": {
                    "shadingModel": "Phong",
                    "isTruePBR": false
                }
            },
            "pbrMetallicRoughness": {
                "baseColorTexture": {
                    "index": 0,
                    "texCoord": 0
                },
                "baseColorFactor": [
                    1.0,
                    1.0,
                    1.0,
                    1.0
                ],
                "metallicFactor": 0.400000005960464,
                "roughnessFactor": 1.0
            }
        }
    ],
    "meshes": [
        {
            "name": "ExitDoor_L",
            "primitives": [
                {
                    "material": 0,
                    "mode": 4,
                    "attributes": {
                        "NORMAL": 2,
                        "POSITION": 1,
                        "TEXCOORD_0": 3
                    },
                    "indices": 0
                }
            ]
        },
        {
            "name": "ExitDoor_R",
            "primitives": [
                {
                    "material": 0,
                    "mode": 4,
                    "attributes": {
                        "NORMAL": 6,
                        "POSITION": 5,
                        "TEXCOORD_0": 7
                    },
                    "indices": 4
                }
            ]
        }
    ],
    "nodes": [
        {
            "name": "RootNode",
            "translation": [
                0.0,
                0.0,
                0.0
            ],
            "rotation": [
                0.0,
                0.0,
                0.0,
                1.0
            ],
            "scale": [
                1.0,
                1.0,
                1.0
            ],
            "children": [
                1
            ]
        },
        {
            "name": "exit_door",
            "translation": [
                0.0,
                0.0,
                0.0
            ],
            "rotation": [
                0.0,
                0.0,
                0.0,
                1.0
            ],
            "scale": [
                1.0,
                1.0,
                1.0
            ],
            "children": [
                2,
                3
            ]
        },
        {
            "name": "ExitDoor_L",
            "translation": [
                -0.0190503969788551,
                0.00746551156044006,
                -0.000119895557872951
            ],
            "rotation": [
                0.0,
                0.0,
                0.0,
                1.0
            ],
            "scale": [
                1.0,
                1.0,
                1.0
            ],
            "mesh": 0
        },
        {
            "name": "ExitDoor_R",
            "translation": [
                0.0190503969788551,
                0.00746551156044006,
                -0.000119897216791287
            ],
            "rotation": [
                0.0,
                0.0,
                0.0,
                1.0
            ],
            "scale": [
                1.0,
                1.0,
                1.0
            ],
            "mesh": 1
        }
    ]
}