{
  "accessors": [
    {
      "bufferView": 0,
      "componentType": 5126,
      "count": 3210,
      "max": [
        0.007206484209746122,
        0.06612320989370346,
        0.019150197505950928
      ],
      "min": [
        -0.007206418085843325,
        0.020835161209106445,
        0.0011270571267232299
      ],
      "name": "head_03_Material0/POSITION",
      "type": "VEC3"
    },
    {
      "bufferView": 0,
      "byteOffset": 12,
      "componentType": 5126,
      "count": 3210,
      "name": "head_03_Material0/NORMAL",
      "type": "VEC3"
    },
    {
      "bufferView": 0,
      "byteOffset": 24,
      "componentType": 5126,
      "count": 3210,
      "name": "head_03_Material0/TEXCOORD_0",
      "type": "VEC2"
    },
    {
      "bufferView": 0,
      "byteOffset": 32,
      "componentType": 5123,
      "count": 3210,
      "name": "head_03_Material0/JOINTS_0",
      "type": "VEC4"
    },
    {
      "bufferView": 0,
      "byteOffset": 40,
      "componentType": 5126,
      "count": 3210,
      "name": "head_03_Material0/WEIGHTS_0",
      "type": "VEC4"
    },
    {
      "bufferView": 1,
      "componentType": 5125,
      "count": 16731,
      "name": "head_03_Material0/INDICES",
      "type": "SCALAR"
    },
    {
      "bufferView": 2,
      "componentType": 5126,
      "count": 1753,
      "max": [
        0.00827853474766016,
        0.07113433629274368,
        0.01893552392721176
      ],
      "min": [
        -0.00827853474766016,
        0.048438187688589096,
        -0.0008896208018995821
      ],
      "name": "head_03_Material0/POSITION",
      "type": "VEC3"
    },
    {
      "bufferView": 2,
      "byteOffset": 12,
      "componentType": 5126,
      "count": 1753,
      "name": "head_03_Material0/NORMAL",
      "type": "VEC3"
    },
    {
      "bufferView": 2,
      "byteOffset": 24,
      "componentType": 5126,
      "count": 1753,
      "name": "head_03_Material0/TEXCOORD_0",
      "type": "VEC2"
    },
    {
      "bufferView": 2,
      "byteOffset": 32,
      "componentType": 5123,
      "count": 1753,
      "name": "head_03_Material0/JOINTS_0",
      "type": "VEC4"
    },
    {
      "bufferView": 2,
      "byteOffset": 40,
      "componentType": 5126,
      "count": 1753,
      "name": "head_03_Material0/WEIGHTS_0",
      "type": "VEC4"
    },
    {
      "bufferView": 3,
      "componentType": 5125,
      "count": 7308,
      "name": "head_03_Material0/INDICES",
      "type": "SCALAR"
    },
    {
      "bufferView": 4,
      "componentType": 5126,
      "count": 18,
      "name": "/InverseBindMatrices",
      "type": "MAT4"
    },
    {
      "bufferView": 5,
      "componentType": 5126,
      "count": 3196,
      "max": [
        0.02361292764544487,
        0.0630641058087349,
        0.019150197505950928
      ],
      "min": [
        -0.0027593434788286686,
        0.020180072635412216,
        0.0011270571267232299
      ],
      "name": "head_04_Material0/POSITION",
      "type": "VEC3"
    },
    {
      "bufferView": 5,
      "byteOffset": 12,
      "componentType": 5126,
      "count": 3196,
      "name": "head_04_Material0/NORMAL",
      "type": "VEC3"
    },
    {
      "bufferView": 5,
      "byteOffset": 24,
      "componentType": 5126,
      "count": 3196,
      "name": "head_04_Material0/TEXCOORD_0",
      "type": "VEC2"
    },
    {
      "bufferView": 5,
      "byteOffset": 32,
      "componentType": 5123,
      "count": 3196,
      "name": "head_04_Material0/JOINTS_0",
      "type": "VEC4"
    },
    {
      "bufferView": 5,
      "byteOffset": 40,
      "componentType": 5126,
      "count": 3196,
      "name": "head_04_Material0/WEIGHTS_0",
      "type": "VEC4"
    },
    {
      "bufferView": 6,
      "componentType": 5125,
      "count": 16644,
      "name": "head_04_Material0/INDICES",
      "type": "SCALAR"
    },
    {
      "bufferView": 7,
      "componentType": 5126,
      "count": 1753,
      "max": [
        0.02489536814391613,
        0.06806953251361847,
        0.01893552392721176
      ],
      "min": [
        0.008407294750213623,
        0.045510049909353256,
        -0.0008896208018995821
      ],
      "name": "head_04_Material0/POSITION",
      "type": "VEC3"
    },
    {
      "bufferView": 7,
      "byteOffset": 12,
      "componentType": 5126,
      "count": 1753,
      "name": "head_04_Material0/NORMAL",
      "type": "VEC3"
    },
    {
      "bufferView": 7,
      "byteOffset": 24,
      "componentType": 5126,
      "count": 1753,
      "name": "head_04_Material0/TEXCOORD_0",
      "type": "VEC2"
    },
    {
      "bufferView": 7,
      "byteOffset": 32,
      "componentType": 5123,
      "count": 1753,
      "name": "head_04_Material0/JOINTS_0",
      "type": "VEC4"
    },
    {
      "bufferView": 7,
      "byteOffset": 40,
      "componentType": 5126,
      "count": 1753,
      "name": "head_04_Material0/WEIGHTS_0",
      "type": "VEC4"
    },
    {
      "bufferView": 8,
      "componentType": 5125,
      "count": 7308,
      "name": "head_04_Material0/INDICES",
      "type": "SCALAR"
    },
    {
      "bufferView": 9,
      "componentType": 5126,
      "count": 18,
      "name": "/InverseBindMatrices",
      "type": "MAT4"
    },
    {
      "bufferView": 10,
      "componentType": 5126,
      "count": 3196,
      "max": [
        0.0027593434788286686,
        0.06282059848308563,
        0.019150197505950928
      ],
      "min": [
        -0.02361292764544487,
        0.019936567172408104,
        0.0011270571267232299
      ],
      "name": "head_05_Material0/POSITION",
      "type": "VEC3"
    },
    {
      "bufferView": 10,
      "byteOffset": 12,
      "componentType": 5126,
      "count": 3196,
      "name": "head_05_Material0/NORMAL",
      "type": "VEC3"
    },
    {
      "bufferView": 10,
      "byteOffset": 24,
      "componentType": 5126,
      "count": 3196,
      "name": "head_05_Material0/TEXCOORD_0",
      "type": "VEC2"
    },
    {
      "bufferView": 10,
      "byteOffset": 32,
      "componentType": 5123,
      "count": 3196,
      "name": "head_05_Material0/JOINTS_0",
      "type": "VEC4"
    },
    {
      "bufferView": 10,
      "byteOffset": 40,
      "componentType": 5126,
      "count": 3196,
      "name": "head_05_Material0/WEIGHTS_0",
      "type": "VEC4"
    },
    {
      "bufferView": 11,
      "componentType": 5125,
      "count": 16644,
      "name": "head_05_Material0/INDICES",
      "type": "SCALAR"
    },
    {
      "bufferView": 12,
      "componentType": 5126,
      "count": 1753,
      "max": [
        -0.008407294750213623,
        0.06782602518796921,
        0.01893552392721176
      ],
      "min": [
        -0.02489536814391613,
        0.045266542583703995,
        -0.0008896208018995821
      ],
      "name": "head_05_Material0/POSITION",
      "type": "VEC3"
    },
    {
      "bufferView": 12,
      "byteOffset": 12,
      "componentType": 5126,
      "count": 1753,
      "name": "head_05_Material0/NORMAL",
      "type": "VEC3"
    },
    {
      "bufferView": 12,
      "byteOffset": 24,
      "componentType": 5126,
      "count": 1753,
      "name": "head_05_Material0/TEXCOORD_0",
      "type": "VEC2"
    },
    {
      "bufferView": 12,
      "byteOffset": 32,
      "componentType": 5123,
      "count": 1753,
      "name": "head_05_Material0/JOINTS_0",
      "type": "VEC4"
    },
    {
      "bufferView": 12,
      "byteOffset": 40,
      "componentType": 5126,
      "count": 1753,
      "name": "head_05_Material0/WEIGHTS_0",
      "type": "VEC4"
    },
    {
      "bufferView": 13,
      "componentType": 5125,
      "count": 7308,
      "name": "head_05_Material0/INDICES",
      "type": "SCALAR"
    },
    {
      "bufferView": 14,
      "componentType": 5126,
      "count": 5,
      "name": "/InverseBindMatrices",
      "type": "MAT4"
    },
    {
      "bufferView": 15,
      "componentType": 5126,
      "count": 5470,
      "max": [
        0.014129333198070526,
        0.06496276706457138,
        0.023046264424920082
      ],
      "min": [
        -0.013992615044116974,
        2.6855468604480848e-05,
        -0.02853698655962944
      ],
      "name": "toilet_02/POSITION",
      "type": "VEC3"
    },
    {
      "bufferView": 15,
      "byteOffset": 12,
      "componentType": 5126,
      "count": 5470,
      "name": "toilet_02/NORMAL",
      "type": "VEC3"
    },
    {
      "bufferView": 15,
      "byteOffset": 24,
      "componentType": 5126,
      "count": 5470,
      "name": "toilet_02/TEXCOORD_0",
      "type": "VEC2"
    },
    {
      "bufferView": 15,
      "byteOffset": 32,
      "componentType": 5123,
      "count": 5470,
      "name": "toilet_02/JOINTS_0",
      "type": "VEC4"
    },
    {
      "bufferView": 15,
      "byteOffset": 40,
      "componentType": 5126,
      "count": 5470,
      "name": "toilet_02/WEIGHTS_0",
      "type": "VEC4"
    },
    {
      "bufferView": 16,
      "componentType": 5125,
      "count": 5910,
      "name": "toilet_02/INDICES",
      "type": "SCALAR"
    },
    {
      "bufferView": 17,
      "componentType": 5126,
      "count": 18,
      "name": "/InverseBindMatrices",
      "type": "MAT4"
    }
  ],
  "asset": {
    "copyright": "Copyright (c) 2018-2020 Chukong Technologies Inc.",
    "generator": "FBX-glTF-conv",
    "version": "2.0"
  },
  "bufferViews": [
    {
      "buffer": 0,
      "byteLength": 179760,
      "byteStride": 56,
      "name": "head_03_Material0",
      "target": 34962
    },
    {
      "buffer": 0,
      "byteLength": 66924,
      "byteOffset": 179760
    },
    {
      "buffer": 0,
      "byteLength": 98168,
      "byteOffset": 246684,
      "byteStride": 56,
      "name": "head_03_Material0",
      "target": 34962
    },
    {
      "buffer": 0,
      "byteLength": 29232,
      "byteOffset": 344852
    },
    {
      "buffer": 0,
      "byteLength": 1152,
      "byteOffset": 374084
    },
    {
      "buffer": 0,
      "byteLength": 178976,
      "byteOffset": 375236,
      "byteStride": 56,
      "name": "head_04_Material0",
      "target": 34962
    },
    {
      "buffer": 0,
      "byteLength": 66576,
      "byteOffset": 554212
    },
    {
      "buffer": 0,
      "byteLength": 98168,
      "byteOffset": 620788,
      "byteStride": 56,
      "name": "head_04_Material0",
      "target": 34962
    },
    {
      "buffer": 0,
      "byteLength": 29232,
      "byteOffset": 718956
    },
    {
      "buffer": 0,
      "byteLength": 1152,
      "byteOffset": 748188
    },
    {
      "buffer": 0,
      "byteLength": 178976,
      "byteOffset": 749340,
      "byteStride": 56,
      "name": "head_05_Material0",
      "target": 34962
    },
    {
      "buffer": 0,
      "byteLength": 66576,
      "byteOffset": 928316
    },
    {
      "buffer": 0,
      "byteLength": 98168,
      "byteOffset": 994892,
      "byteStride": 56,
      "name": "head_05_Material0",
      "target": 34962
    },
    {
      "buffer": 0,
      "byteLength": 29232,
      "byteOffset": 1093060
    },
    {
      "buffer": 0,
      "byteLength": 320,
      "byteOffset": 1122292
    },
    {
      "buffer": 0,
      "byteLength": 306320,
      "byteOffset": 1122612,
      "byteStride": 56,
      "name": "toilet_02",
      "target": 34962
    },
    {
      "buffer": 0,
      "byteLength": 23640,
      "byteOffset": 1428932
    },
    {
      "buffer": 0,
      "byteLength": 1152,
      "byteOffset": 1452572
    }
  ],
  "buffers": [
    {
      "byteLength": 1453724,
      "uri": "out.bin"
    }
  ],
  "extras": {
    "FBX-glTF-conv": {
      "animationFrameRate": 30.0
    }
  },
  "images": [
    {
      "extras": {
        "FBX-glTF-conv": {
          "fileName": "D:/Maya_projects/Merge_toilet_monsters/heads/head6/head6.png",
          "relativeFileName": "D:\\Maya_projects\\Merge_toilet_monsters\\heads\\head6\\head6.png"
        }
      },
      "name": "file16",
      "uri": "data:image/png;base64,"
    },
    {
      "extras": {
        "FBX-glTF-conv": {
          "fileName": "D:/Maya_projects/Merge_toilet_monsters/heads/head6/head6_helmet.png",
          "relativeFileName": "D:\\Maya_projects\\Merge_toilet_monsters\\heads\\head6\\head6_helmet.png"
        }
      },
      "name": "file17",
      "uri": "data:image/png;base64,"
    },
    {
      "extras": {
        "FBX-glTF-conv": {
          "fileName": "D:/Maya_projects/Merge_toilet_monsters/toilet/toilet6.png",
          "relativeFileName": "D:\\Maya_projects\\Merge_toilet_monsters\\toilet\\toilet6.png"
        }
      },
      "name": "base_color_texture10",
      "uri": "data:image/png;base64,"
    }
  ],
  "materials": [
    {
      "name": "m_head_05",
      "pbrMetallicRoughness": {
        "baseColorTexture": {
          "index": 0
        },
        "metallicFactor": 0.4000000059604645,
        "roughnessFactor": 0.22941572964191437
      }
    },
    {
      "alphaMode": "BLEND",
      "name": "m_m_head_03_hat2",
      "pbrMetallicRoughness": {
        "baseColorFactor": [
          1.0,
          1.0,
          1.0,
          0.0
        ],
        "baseColorTexture": {
          "index": 1
        },
        "metallicFactor": 0.4000000059604645,
        "roughnessFactor": 0.22941572964191437
      }
    },
    {
      "name": "m_toilet_06",
      "pbrMetallicRoughness": {
        "baseColorTexture": {
          "index": 2
        },
        "metallicFactor": 0.4000000059604645,
        "roughnessFactor": 0.7071067690849304
      }
    }
  ],
  "meshes": [
    {
      "name": "head_03_Material0",
      "primitives": [
        {
          "attributes": {
            "JOINTS_0": 3,
            "NORMAL": 1,
            "POSITION": 0,
            "TEXCOORD_0": 2,
            "WEIGHTS_0": 4
          },
          "indices": 5,
          "material": 0
        },
        {
          "attributes": {
            "JOINTS_0": 9,
            "NORMAL": 7,
            "POSITION": 6,
            "TEXCOORD_0": 8,
            "WEIGHTS_0": 10
          },
          "indices": 11,
          "material": 1
        }
      ]
    },
    {
      "name": "head_04_Material0",
      "primitives": [
        {
          "attributes": {
            "JOINTS_0": 16,
            "NORMAL": 14,
            "POSITION": 13,
            "TEXCOORD_0": 15,
            "WEIGHTS_0": 17
          },
          "indices": 18,
          "material": 0
        },
        {
          "attributes": {
            "JOINTS_0": 22,
            "NORMAL": 20,
            "POSITION": 19,
            "TEXCOORD_0": 21,
            "WEIGHTS_0": 23
          },
          "indices": 24,
          "material": 1
        }
      ]
    },
    {
      "name": "head_05_Material0",
      "primitives": [
        {
          "attributes": {
            "JOINTS_0": 29,
            "NORMAL": 27,
            "POSITION": 26,
            "TEXCOORD_0": 28,
            "WEIGHTS_0": 30
          },
          "indices": 31,
          "material": 0
        },
        {
          "attributes": {
            "JOINTS_0": 35,
            "NORMAL": 33,
            "POSITION": 32,
            "TEXCOORD_0": 34,
            "WEIGHTS_0": 36
          },
          "indices": 37,
          "material": 1
        }
      ]
    },
    {
      "name": "toilet_02",
      "primitives": [
        {
          "attributes": {
            "JOINTS_0": 42,
            "NORMAL": 40,
            "POSITION": 39,
            "TEXCOORD_0": 41,
            "WEIGHTS_0": 43
          },
          "indices": 44,
          "material": 2
        }
      ]
    }
  ],
  "nodes": [
    {
      "children": [
        1,
        2,
        3,
        4
      ],
      "name": "skidibi_07"
    },
    {
      "mesh": 0,
      "name": "head_03",
      "skin": 0
    },
    {
      "mesh": 1,
      "name": "head_04",
      "skin": 1
    },
    {
      "mesh": 2,
      "name": "head_05",
      "skin": 2
    },
    {
      "mesh": 3,
      "name": "toilet_02",
      "skin": 3
    },
    {
      "children": [
        6,
        17,
        20
      ],
      "extras": {
        "FBX-glTF-conv": {
          "skeleton": {
            "skeletonType": "LimbNode"
          }
        }
      },
      "name": "skibidi_07",
      "rotation": [
        -0.0038957518991082907,
        -0.0,
        0.0,
        0.9999924302101135
      ],
      "translation": [
        0.0,
        0.00017881901294458658,
        0.0006889961077831686
      ]
    },
    {
      "children": [
        7
      ],
      "extras": {
        "FBX-glTF-conv": {
          "skeleton": {
            "skeletonType": "LimbNode"
          }
        }
      },
      "name": "skibidi_07_1",
      "translation": [
        0.0,
        0.013156638480722904,
        0.004749649669975042
      ]
    },
    {
      "children": [
        8,
        11,
        14
      ],
      "extras": {
        "FBX-glTF-conv": {
          "skeleton": {
            "skeletonType": "LimbNode"
          }
        }
      },
      "name": "skibidi_07_2",
      "translation": [
        1.1777666259149555e-05,
        0.010841893963515759,
        8.447658910881728e-05
      ]
    },
    {
      "children": [
        9
      ],
      "extras": {
        "FBX-glTF-conv": {
          "skeleton": {
            "skeletonType": "LimbNode"
          }
        }
      },
      "name": "skibidi_07_3",
      "translation": [
        0.00015279336366802454,
        0.011730198748409748,
        9.139797475654632e-05
      ]
    },
    {
      "children": [
        10
      ],
      "extras": {
        "FBX-glTF-conv": {
          "skeleton": {
            "skeletonType": "LimbNode"
          }
        }
      },
      "name": "skibidi_07_4",
      "translation": [
        0.0003055867273360491,
        0.011306366883218288,
        8.809560677036643e-05
      ]
    },
    {
      "extras": {
        "FBX-glTF-conv": {
          "skeleton": {
            "skeletonType": "LimbNode"
          }
        }
      },
      "name": "skibidi_07_5",
      "translation": [
        -0.0003055867273360491,
        0.007333859335631132,
        5.714309372706339e-05
      ]
    },
    {
      "children": [
        12
      ],
      "extras": {
        "FBX-glTF-conv": {
          "skeleton": {
            "skeletonType": "LimbNode"
          }
        }
      },
      "name": "skibidi_07_6",
      "rotation": [
        0.0038957518991082907,
        0.0,
        0.0,
        0.9999924302101135
      ],
      "translation": [
        0.006111735012382269,
        0.009591794572770596,
        -7.106279554136563e-06
      ]
    },
    {
      "children": [
        13
      ],
      "extras": {
        "FBX-glTF-conv": {
          "skeleton": {
            "skeletonType": "LimbNode"
          }
        }
      },
      "name": "skibidi_07_7",
      "translation": [
        0.005958941765129566,
        0.006570115219801664,
        7.77156120546332e-18
      ]
    },
    {
      "extras": {
        "FBX-glTF-conv": {
          "skeleton": {
            "skeletonType": "LimbNode"
          }
        }
      },
      "name": "skibidi_07_8",
      "rotation": [
        0.08380015939474106,
        0.0,
        0.0,
        0.9964825510978699
      ],
      "translation": [
        0.002597487298771739,
        0.01215977780520916,
        0.0029034200124442577
      ]
    },
    {
      "children": [
        15
      ],
      "extras": {
        "FBX-glTF-conv": {
          "skeleton": {
            "skeletonType": "LimbNode"
          }
        }
      },
      "name": "skibidi_07_9",
      "rotation": [
        0.0038957518991082907,
        0.0,
        0.0,
        0.9999924302101135
      ],
      "translation": [
        -0.006111735012382269,
        0.009591794572770596,
        -7.106279554136563e-06
      ]
    },
    {
      "children": [
        16
      ],
      "extras": {
        "FBX-glTF-conv": {
          "skeleton": {
            "skeletonType": "LimbNode"
          }
        }
      },
      "name": "skibidi_07_10",
      "translation": [
        -0.005194974597543478,
        0.006570115219801664,
        -2.5535130029599743e-17
      ]
    },
    {
      "extras": {
        "FBX-glTF-conv": {
          "skeleton": {
            "skeletonType": "LimbNode"
          }
        }
      },
      "name": "skibidi_07_11",
      "rotation": [
        0.08380015939474106,
        0.0,
        0.0,
        0.9964825510978699
      ],
      "translation": [
        -0.004431007895618677,
        0.012037985026836395,
        0.0028827895876020193
      ]
    },
    {
      "children": [
        18
      ],
      "extras": {
        "FBX-glTF-conv": {
          "skeleton": {
            "skeletonType": "LimbNode"
          }
        }
      },
      "name": "skibidi_07_12",
      "rotation": [
        -0.003294851165264845,
        -0.0,
        0.0,
        0.9999945759773254
      ],
      "translation": [
        -0.022644806653261185,
        0.021249311044812202,
        -0.011497430503368378
      ]
    },
    {
      "children": [
        19
      ],
      "extras": {
        "FBX-glTF-conv": {
          "skeleton": {
            "skeletonType": "LimbNode"
          }
        }
      },
      "name": "skibidi_07_13",
      "translation": [
        9.710359154269099e-05,
        -0.002394692739471793,
        0.013201356865465641
      ]
    },
    {
      "extras": {
        "FBX-glTF-conv": {
          "skeleton": {
            "skeletonType": "LimbNode"
          }
        }
      },
      "name": "skibidi_07_14",
      "translation": [
        0.0,
        0.00043023243779316545,
        0.012333924882113934
      ]
    },
    {
      "children": [
        21
      ],
      "extras": {
        "FBX-glTF-conv": {
          "skeleton": {
            "skeletonType": "LimbNode"
          }
        }
      },
      "name": "skibidi_07_15",
      "rotation": [
        -0.003294851165264845,
        -0.0,
        0.0,
        0.9999945759773254
      ],
      "translation": [
        0.023973973467946053,
        0.021249311044812202,
        -0.011497430503368378
      ]
    },
    {
      "children": [
        22
      ],
      "extras": {
        "FBX-glTF-conv": {
          "skeleton": {
            "skeletonType": "LimbNode"
          }
        }
      },
      "name": "skibidi_07_16",
      "translation": [
        9.710359154269099e-05,
        -0.002394692739471793,
        0.013201356865465641
      ]
    },
    {
      "extras": {
        "FBX-glTF-conv": {
          "skeleton": {
            "skeletonType": "LimbNode"
          }
        }
      },
      "name": "skibidi_07_17",
      "translation": [
        0.0,
        0.00043023243779316545,
        0.012333924882113934
      ]
    }
  ],
  "samplers": [
    {}
  ],
  "scenes": [
    {
      "nodes": [
        0,
        5
      ]
    }
  ],
  "skins": [
    {
      "inverseBindMatrices": 12,
      "joints": [
        6,
        7,
        8,
        9,
        10,
        11,
        12,
        13,
        14,
        15,
        16,
        17,
        18,
        19,
        20,
        21,
        22,
        5
      ]
    },
    {
      "inverseBindMatrices": 25,
      "joints": [
        6,
        7,
        8,
        9,
        10,
        11,
        12,
        13,
        14,
        15,
        16,
        17,
        18,
        19,
        20,
        21,
        22,
        5
      ]
    },
    {
      "inverseBindMatrices": 38,
      "joints": [
        6,
        7,
        14,
        15,
        16
      ]
    },
    {
      "inverseBindMatrices": 45,
      "joints": [
        6,
        7,
        8,
        9,
        10,
        11,
        12,
        13,
        14,
        15,
        16,
        17,
        18,
        19,
        20,
        21,
        22,
        5
      ]
    }
  ],
  "textures": [
    {
      "name": "file16",
      "sampler": 0,
      "source": 0
    },
    {
      "name": "file17",
      "sampler": 0,
      "source": 1
    },
    {
      "name": "base_color_texture10",
      "sampler": 0,
      "source": 2
    }
  ]
}