{
  "accessors": [
    {
      "bufferView": 0,
      "componentType": 5126,
      "count": 1105,
      "max": [
        0.00955703854560852,
        0.03780943900346756,
        0.0064054010435938835
      ],
      "min": [
        -0.009557031095027924,
        0.007201085798442364,
        -0.0017040243837982416
      ],
      "name": "Banban_skidibi_07_body/POSITION",
      "type": "VEC3"
    },
    {
      "bufferView": 0,
      "byteOffset": 12,
      "componentType": 5126,
      "count": 1105,
      "name": "Banban_skidibi_07_body/NORMAL",
      "type": "VEC3"
    },
    {
      "bufferView": 0,
      "byteOffset": 24,
      "componentType": 5126,
      "count": 1105,
      "name": "Banban_skidibi_07_body/TEXCOORD_0",
      "type": "VEC2"
    },
    {
      "bufferView": 0,
      "byteOffset": 32,
      "componentType": 5123,
      "count": 1105,
      "name": "Banban_skidibi_07_body/JOINTS_0",
      "type": "VEC4"
    },
    {
      "bufferView": 0,
      "byteOffset": 40,
      "componentType": 5126,
      "count": 1105,
      "name": "Banban_skidibi_07_body/WEIGHTS_0",
      "type": "VEC4"
    },
    {
      "bufferView": 1,
      "componentType": 5125,
      "count": 5064,
      "name": "Banban_skidibi_07_body/INDICES",
      "type": "SCALAR"
    },
    {
      "bufferView": 2,
      "componentType": 5126,
      "count": 8,
      "name": "/InverseBindMatrices",
      "type": "MAT4"
    },
    {
      "bufferView": 3,
      "componentType": 5126,
      "count": 965,
      "max": [
        0.009346872568130493,
        0.03780242055654526,
        0.01599264144897461
      ],
      "min": [
        -0.009346872568130493,
        0.000182777366717346,
        -0.0159608181566
      ],
      "name": "Banban_skidibi_07_toilet/POSITION",
      "type": "VEC3"
    },
    {
      "bufferView": 3,
      "byteOffset": 12,
      "componentType": 5126,
      "count": 965,
      "name": "Banban_skidibi_07_toilet/NORMAL",
      "type": "VEC3"
    },
    {
      "bufferView": 3,
      "byteOffset": 24,
      "componentType": 5126,
      "count": 965,
      "name": "Banban_skidibi_07_toilet/TEXCOORD_0",
      "type": "VEC2"
    },
    {
      "bufferView": 3,
      "byteOffset": 32,
      "componentType": 5123,
      "count": 965,
      "name": "Banban_skidibi_07_toilet/JOINTS_0",
      "type": "VEC4"
    },
    {
      "bufferView": 3,
      "byteOffset": 40,
      "componentType": 5126,
      "count": 965,
      "name": "Banban_skidibi_07_toilet/WEIGHTS_0",
      "type": "VEC4"
    },
    {
      "bufferView": 4,
      "componentType": 5125,
      "count": 3162,
      "name": "Banban_skidibi_07_toilet/INDICES",
      "type": "SCALAR"
    },
    {
      "bufferView": 5,
      "componentType": 5126,
      "count": 8,
      "name": "/InverseBindMatrices",
      "type": "MAT4"
    }
  ],
  "asset": {
    "copyright": "Copyright (c) 2018-2020 Chukong Technologies Inc.",
    "generator": "FBX-glTF-conv",
    "version": "2.0"
  },
  "bufferViews": [
    {
      "buffer": 0,
      "byteLength": 61880,
      "byteStride": 56,
      "name": "Banban_skidibi_07_body",
      "target": 34962
    },
    {
      "buffer": 0,
      "byteLength": 20256,
      "byteOffset": 61880
    },
    {
      "buffer": 0,
      "byteLength": 512,
      "byteOffset": 82136
    },
    {
      "buffer": 0,
      "byteLength": 54040,
      "byteOffset": 82648,
      "byteStride": 56,
      "name": "Banban_skidibi_07_toilet",
      "target": 34962
    },
    {
      "buffer": 0,
      "byteLength": 12648,
      "byteOffset": 136688
    },
    {
      "buffer": 0,
      "byteLength": 512,
      "byteOffset": 149336
    }
  ],
  "buffers": [
    {
      "byteLength": 149848,
      "uri": "out.bin"
    }
  ],
  "extras": {
    "FBX-glTF-conv": {
      "animationFrameRate": 24.0
    }
  },
  "images": [
    {
      "extras": {
        "FBX-glTF-conv": {
          "fileName": "D:/Library/Merge Monster Skinbidi Toilet/CharacterLv7/SilentSteve.png",
          "relativeFileName": "..\\..\\..\\..\\Library\\Merge Monster Skinbidi Toilet\\CharacterLv7\\SilentSteve.png"
        }
      },
      "name": "SilentSteve.png",
      "uri": "data:image/png;base64,"
    },
    {
      "extras": {
        "FBX-glTF-conv": {
          "fileName": "D:/Library/Merge Monster Skinbidi Toilet/CharacterLv1/Skibidi1.png",
          "relativeFileName": "..\\..\\..\\..\\Library\\Merge Monster Skinbidi Toilet\\CharacterLv1\\Skibidi1.png"
        }
      },
      "name": "Skibidi1.png",
      "uri": "data:image/png;base64,"
    }
  ],
  "materials": [
    {
      "name": "m_Banban_skidibi_07_body",
      "pbrMetallicRoughness": {
        "baseColorTexture": {
          "index": 0
        },
        "metallicFactor": 0.4000000059604645,
        "roughnessFactor": 0.30151134729385376
      }
    },
    {
      "name": "m_toilet_13",
      "pbrMetallicRoughness": {
        "baseColorTexture": {
          "index": 1
        },
        "metallicFactor": 0.4000000059604645,
        "roughnessFactor": 0.30151134729385376
      }
    }
  ],
  "meshes": [
    {
      "name": "Banban_skidibi_07_body",
      "primitives": [
        {
          "attributes": {
            "JOINTS_0": 3,
            "NORMAL": 1,
            "POSITION": 0,
            "TEXCOORD_0": 2,
            "WEIGHTS_0": 4
          },
          "indices": 5,
          "material": 0
        }
      ]
    },
    {
      "name": "Banban_skidibi_07_toilet",
      "primitives": [
        {
          "attributes": {
            "JOINTS_0": 10,
            "NORMAL": 8,
            "POSITION": 7,
            "TEXCOORD_0": 9,
            "WEIGHTS_0": 11
          },
          "indices": 12,
          "material": 1
        }
      ]
    }
  ],
  "nodes": [
    {
      "children": [
        1
      ],
      "extras": {
        "FBX-glTF-conv": {
          "skeleton": {
            "skeletonType": "LimbNode"
          }
        }
      },
      "name": "Skidibi_02_Main",
      "translation": [
        0.0,
        0.00014283340715337545,
        -5.146756666363217e-05
      ]
    },
    {
      "children": [
        2
      ],
      "extras": {
        "FBX-glTF-conv": {
          "skeleton": {
            "skeletonType": "LimbNode"
          }
        }
      },
      "name": "Skidibi_02_1",
      "translation": [
        -1.902587064250838e-05,
        0.008809792809188366,
        0.000842849665787071
      ]
    },
    {
      "children": [
        3
      ],
      "extras": {
        "FBX-glTF-conv": {
          "skeleton": {
            "skeletonType": "LimbNode"
          }
        }
      },
      "name": "Skidibi_02_2",
      "translation": [
        -2.7755574995243454e-19,
        0.00534428283572197,
        -5.3789004596183077e-05
      ]
    },
    {
      "children": [
        4
      ],
      "extras": {
        "FBX-glTF-conv": {
          "skeleton": {
            "skeletonType": "LimbNode"
          }
        }
      },
      "name": "Skidibi_02_3",
      "translation": [
        0.0,
        0.005032535642385483,
        -0.00024185748770833015
      ]
    },
    {
      "children": [
        5,
        7
      ],
      "extras": {
        "FBX-glTF-conv": {
          "skeleton": {
            "skeletonType": "LimbNode"
          }
        }
      },
      "name": "Skidibi_02_Head",
      "translation": [
        -2.7755574995243454e-19,
        0.005053581204265356,
        3.956160071538761e-05
      ]
    },
    {
      "children": [
        6
      ],
      "extras": {
        "FBX-glTF-conv": {
          "skeleton": {
            "skeletonType": "LimbNode"
          }
        }
      },
      "name": "Skidibi_02_mouth",
      "rotation": [
        -0.25908803939819336,
        0.06063568592071533,
        0.05036161467432976,
        0.9626320004463196
      ],
      "translation": [
        -1.387778801460961e-18,
        0.001138786319643259,
        0.002345392946153879
      ]
    },
    {
      "extras": {
        "FBX-glTF-conv": {
          "skeleton": {
            "skeletonType": "LimbNode"
          }
        }
      },
      "name": "Skidibi_02_mouth1",
      "translation": [
        -0.0008668738882988691,
        0.0007466709357686341,
        0.0006497130380012095
      ]
    },
    {
      "extras": {
        "FBX-glTF-conv": {
          "skeleton": {
            "skeletonType": "LimbNode"
          }
        }
      },
      "name": "Skidibi_02_HeadEnd",
      "translation": [
        0.0,
        0.007006279658526182,
        0.00011694035492837429
      ]
    },
    {
      "children": [
        9,
        10
      ],
      "name": "Banban_skidibi_07"
    },
    {
      "mesh": 0,
      "name": "Banban_skidibi_07_body",
      "skin": 0
    },
    {
      "mesh": 1,
      "name": "Banban_skidibi_07_toilet",
      "skin": 1
    }
  ],
  "samplers": [
    {}
  ],
  "scenes": [
    {
      "nodes": [
        0,
        8
      ]
    }
  ],
  "skins": [
    {
      "inverseBindMatrices": 6,
      "joints": [
        0,
        1,
        2,
        3,
        4,
        5,
        6,
        7
      ]
    },
    {
      "inverseBindMatrices": 13,
      "joints": [
        0,
        1,
        2,
        3,
        4,
        5,
        6,
        7
      ]
    }
  ],
  "textures": [
    {
      "name": "SilentSteve.png",
      "sampler": 0,
      "source": 0
    },
    {
      "name": "Skibidi1.png",
      "sampler": 0,
      "source": 1
    }
  ]
}