{
  "accessors": [
    {
      "bufferView": 0,
      "componentType": 5126,
      "count": 437,
      "max": [
        0.1011136844754219,
        0.15484535694122314,
        0.0888708308339119
      ],
      "min": [
        -0.1011136844754219,
        -6.639480852754787e-05,
        -0.08887085318565369
      ],
      "name": "BuildingC/POSITION",
      "type": "VEC3"
    },
    {
      "bufferView": 0,
      "byteOffset": 12,
      "componentType": 5126,
      "count": 437,
      "name": "BuildingC/NORMAL",
      "type": "VEC3"
    },
    {
      "bufferView": 0,
      "byteOffset": 24,
      "componentType": 5126,
      "count": 437,
      "name": "BuildingC/TEXCOORD_0",
      "type": "VEC2"
    },
    {
      "bufferView": 1,
      "componentType": 5125,
      "count": 936,
      "name": "BuildingC/INDICES",
      "type": "SCALAR"
    }
  ],
  "asset": {
    "copyright": "Copyright (c) 2018-2020 Chukong Technologies Inc.",
    "generator": "FBX-glTF-conv",
    "version": "2.0"
  },
  "bufferViews": [
    {
      "buffer": 0,
      "byteLength": 13984,
      "byteStride": 32,
      "name": "BuildingC",
      "target": 34962
    },
    {
      "buffer": 0,
      "byteLength": 3744,
      "byteOffset": 13984
    }
  ],
  "buffers": [
    {
      "byteLength": 17728,
      "uri": "out.bin"
    }
  ],
  "extras": {
    "FBX-glTF-conv": {
      "animationFrameRate": 30.0
    }
  },
  "images": [
    {
      "extras": {
        "FBX-glTF-conv": {
          "fileName": "D:\\PA_2024\\3D\\FartTroll\\FartTroll_Op1\\assets\\Assets3D\\LevelSource\\Level\\Level_7\\BuildingC_Color.png",
          "relativeFileName": "BuildingC_Color.png"
        }
      },
      "name": "Map #9",
      "uri": "BuildingC_Color.png"
    }
  ],
  "materials": [
    {
      "name": "C",
      "pbrMetallicRoughness": {
        "baseColorTexture": {
          "index": 0
        },
        "metallicFactor": 0.4000000059604645,
        "roughnessFactor": 0.8164966106414795
      }
    }
  ],
  "meshes": [
    {
      "name": "BuildingC",
      "primitives": [
        {
          "attributes": {
            "NORMAL": 1,
            "POSITION": 0,
            "TEXCOORD_0": 2
          },
          "indices": 3,
          "material": 0
        }
      ]
    }
  ],
  "nodes": [
    {
      "mesh": 0,
      "name": "BuildingC"
    }
  ],
  "samplers": [
    {}
  ],
  "scenes": [
    {
      "nodes": [
        0
      ]
    }
  ],
  "textures": [
    {
      "name": "Map #9",
      "sampler": 0,
      "source": 0
    }
  ]
}