{
  "accessors": [
    {
      "bufferView": 0,
      "componentType": 5126,
      "count": 20,
      "max": [
        0.6333333253860474
      ],
      "min": [
        0.0
      ],
      "name": "Root_M/Trs/Input",
      "type": "SCALAR"
    },
    {
      "bufferView": 1,
      "componentType": 5126,
      "count": 20,
      "name": "Root_M/translation/Output",
      "type": "VEC3"
    },
    {
      "bufferView": 2,
      "componentType": 5126,
      "count": 20,
      "name": "Root_M/rotation/Output",
      "type": "VEC4"
    },
    {
      "bufferView": 3,
      "componentType": 5126,
      "count": 20,
      "name": "Root_M/scale/Output",
      "type": "VEC3"
    },
    {
      "bufferView": 4,
      "componentType": 5126,
      "count": 20,
      "max": [
        0.6333333253860474
      ],
      "min": [
        0.0
      ],
      "name": "frontWheel_R/Trs/Input",
      "type": "SCALAR"
    },
    {
      "bufferView": 5,
      "componentType": 5126,
      "count": 20,
      "name": "frontWheel_R/translation/Output",
      "type": "VEC3"
    },
    {
      "bufferView": 6,
      "componentType": 5126,
      "count": 20,
      "name": "frontWheel_R/rotation/Output",
      "type": "VEC4"
    },
    {
      "bufferView": 7,
      "componentType": 5126,
      "count": 20,
      "name": "frontWheel_R/scale/Output",
      "type": "VEC3"
    },
    {
      "bufferView": 8,
      "componentType": 5126,
      "count": 20,
      "max": [
        0.6333333253860474
      ],
      "min": [
        0.0
      ],
      "name": "backWheel_R/Trs/Input",
      "type": "SCALAR"
    },
    {
      "bufferView": 9,
      "componentType": 5126,
      "count": 20,
      "name": "backWheel_R/translation/Output",
      "type": "VEC3"
    },
    {
      "bufferView": 10,
      "componentType": 5126,
      "count": 20,
      "name": "backWheel_R/rotation/Output",
      "type": "VEC4"
    },
    {
      "bufferView": 11,
      "componentType": 5126,
      "count": 20,
      "name": "backWheel_R/scale/Output",
      "type": "VEC3"
    },
    {
      "bufferView": 12,
      "componentType": 5126,
      "count": 2,
      "max": [
        0.6333333253860474
      ],
      "min": [
        0.0
      ],
      "name": "Body_M/Trs/Input",
      "type": "SCALAR"
    },
    {
      "bufferView": 13,
      "componentType": 5126,
      "count": 2,
      "name": "Body_M/translation/Output",
      "type": "VEC3"
    },
    {
      "bufferView": 14,
      "componentType": 5126,
      "count": 2,
      "name": "Body_M/rotation/Output",
      "type": "VEC4"
    },
    {
      "bufferView": 15,
      "componentType": 5126,
      "count": 2,
      "name": "Body_M/scale/Output",
      "type": "VEC3"
    },
    {
      "bufferView": 16,
      "componentType": 5126,
      "count": 20,
      "max": [
        0.6333333253860474
      ],
      "min": [
        0.0
      ],
      "name": "Door_R/Trs/Input",
      "type": "SCALAR"
    },
    {
      "bufferView": 17,
      "componentType": 5126,
      "count": 20,
      "name": "Door_R/translation/Output",
      "type": "VEC3"
    },
    {
      "bufferView": 18,
      "componentType": 5126,
      "count": 20,
      "name": "Door_R/rotation/Output",
      "type": "VEC4"
    },
    {
      "bufferView": 19,
      "componentType": 5126,
      "count": 20,
      "name": "Door_R/scale/Output",
      "type": "VEC3"
    },
    {
      "bufferView": 20,
      "componentType": 5126,
      "count": 20,
      "max": [
        0.6333333253860474
      ],
      "min": [
        0.0
      ],
      "name": "Door_L/Trs/Input",
      "type": "SCALAR"
    },
    {
      "bufferView": 21,
      "componentType": 5126,
      "count": 20,
      "name": "Door_L/translation/Output",
      "type": "VEC3"
    },
    {
      "bufferView": 22,
      "componentType": 5126,
      "count": 20,
      "name": "Door_L/rotation/Output",
      "type": "VEC4"
    },
    {
      "bufferView": 23,
      "componentType": 5126,
      "count": 20,
      "name": "Door_L/scale/Output",
      "type": "VEC3"
    },
    {
      "bufferView": 24,
      "componentType": 5126,
      "count": 20,
      "max": [
        0.6333333253860474
      ],
      "min": [
        0.0
      ],
      "name": "frontWheel_L/Trs/Input",
      "type": "SCALAR"
    },
    {
      "bufferView": 25,
      "componentType": 5126,
      "count": 20,
      "name": "frontWheel_L/translation/Output",
      "type": "VEC3"
    },
    {
      "bufferView": 26,
      "componentType": 5126,
      "count": 20,
      "name": "frontWheel_L/rotation/Output",
      "type": "VEC4"
    },
    {
      "bufferView": 27,
      "componentType": 5126,
      "count": 20,
      "name": "frontWheel_L/scale/Output",
      "type": "VEC3"
    },
    {
      "bufferView": 28,
      "componentType": 5126,
      "count": 20,
      "max": [
        0.6333333253860474
      ],
      "min": [
        0.0
      ],
      "name": "backWheel_L/Trs/Input",
      "type": "SCALAR"
    },
    {
      "bufferView": 29,
      "componentType": 5126,
      "count": 20,
      "name": "backWheel_L/translation/Output",
      "type": "VEC3"
    },
    {
      "bufferView": 30,
      "componentType": 5126,
      "count": 20,
      "name": "backWheel_L/rotation/Output",
      "type": "VEC4"
    },
    {
      "bufferView": 31,
      "componentType": 5126,
      "count": 20,
      "name": "backWheel_L/scale/Output",
      "type": "VEC3"
    }
  ],
  "animations": [
    {
      "channels": [
        {
          "sampler": 0,
          "target": {
            "node": 0,
            "path": "translation"
          }
        },
        {
          "sampler": 1,
          "target": {
            "node": 0,
            "path": "rotation"
          }
        },
        {
          "sampler": 2,
          "target": {
            "node": 0,
            "path": "scale"
          }
        },
        {
          "sampler": 3,
          "target": {
            "node": 1,
            "path": "translation"
          }
        },
        {
          "sampler": 4,
          "target": {
            "node": 1,
            "path": "rotation"
          }
        },
        {
          "sampler": 5,
          "target": {
            "node": 1,
            "path": "scale"
          }
        },
        {
          "sampler": 6,
          "target": {
            "node": 3,
            "path": "translation"
          }
        },
        {
          "sampler": 7,
          "target": {
            "node": 3,
            "path": "rotation"
          }
        },
        {
          "sampler": 8,
          "target": {
            "node": 3,
            "path": "scale"
          }
        },
        {
          "sampler": 9,
          "target": {
            "node": 5,
            "path": "translation"
          }
        },
        {
          "sampler": 10,
          "target": {
            "node": 5,
            "path": "rotation"
          }
        },
        {
          "sampler": 11,
          "target": {
            "node": 5,
            "path": "scale"
          }
        },
        {
          "sampler": 12,
          "target": {
            "node": 7,
            "path": "translation"
          }
        },
        {
          "sampler": 13,
          "target": {
            "node": 7,
            "path": "rotation"
          }
        },
        {
          "sampler": 14,
          "target": {
            "node": 7,
            "path": "scale"
          }
        },
        {
          "sampler": 15,
          "target": {
            "node": 8,
            "path": "translation"
          }
        },
        {
          "sampler": 16,
          "target": {
            "node": 8,
            "path": "rotation"
          }
        },
        {
          "sampler": 17,
          "target": {
            "node": 8,
            "path": "scale"
          }
        },
        {
          "sampler": 18,
          "target": {
            "node": 9,
            "path": "translation"
          }
        },
        {
          "sampler": 19,
          "target": {
            "node": 9,
            "path": "rotation"
          }
        },
        {
          "sampler": 20,
          "target": {
            "node": 9,
            "path": "scale"
          }
        },
        {
          "sampler": 21,
          "target": {
            "node": 11,
            "path": "translation"
          }
        },
        {
          "sampler": 22,
          "target": {
            "node": 11,
            "path": "rotation"
          }
        },
        {
          "sampler": 23,
          "target": {
            "node": 11,
            "path": "scale"
          }
        }
      ],
      "name": "Car_idle",
      "samplers": [
        {
          "input": 0,
          "output": 1
        },
        {
          "input": 0,
          "output": 2
        },
        {
          "input": 0,
          "output": 3
        },
        {
          "input": 4,
          "output": 5
        },
        {
          "input": 4,
          "output": 6
        },
        {
          "input": 4,
          "output": 7
        },
        {
          "input": 8,
          "output": 9
        },
        {
          "input": 8,
          "output": 10
        },
        {
          "input": 8,
          "output": 11
        },
        {
          "input": 12,
          "output": 13
        },
        {
          "input": 12,
          "output": 14
        },
        {
          "input": 12,
          "output": 15
        },
        {
          "input": 16,
          "output": 17
        },
        {
          "input": 16,
          "output": 18
        },
        {
          "input": 16,
          "output": 19
        },
        {
          "input": 20,
          "output": 21
        },
        {
          "input": 20,
          "output": 22
        },
        {
          "input": 20,
          "output": 23
        },
        {
          "input": 24,
          "output": 25
        },
        {
          "input": 24,
          "output": 26
        },
        {
          "input": 24,
          "output": 27
        },
        {
          "input": 28,
          "output": 29
        },
        {
          "input": 28,
          "output": 30
        },
        {
          "input": 28,
          "output": 31
        }
      ]
    }
  ],
  "asset": {
    "copyright": "Copyright (c) 2018-2020 Chukong Technologies Inc.",
    "generator": "FBX-glTF-conv",
    "version": "2.0"
  },
  "bufferViews": [
    {
      "buffer": 0,
      "byteLength": 80
    },
    {
      "buffer": 0,
      "byteLength": 240,
      "byteOffset": 80
    },
    {
      "buffer": 0,
      "byteLength": 320,
      "byteOffset": 320
    },
    {
      "buffer": 0,
      "byteLength": 240,
      "byteOffset": 640
    },
    {
      "buffer": 0,
      "byteLength": 80,
      "byteOffset": 880
    },
    {
      "buffer": 0,
      "byteLength": 240,
      "byteOffset": 960
    },
    {
      "buffer": 0,
      "byteLength": 320,
      "byteOffset": 1200
    },
    {
      "buffer": 0,
      "byteLength": 240,
      "byteOffset": 1520
    },
    {
      "buffer": 0,
      "byteLength": 80,
      "byteOffset": 1760
    },
    {
      "buffer": 0,
      "byteLength": 240,
      "byteOffset": 1840
    },
    {
      "buffer": 0,
      "byteLength": 320,
      "byteOffset": 2080
    },
    {
      "buffer": 0,
      "byteLength": 240,
      "byteOffset": 2400
    },
    {
      "buffer": 0,
      "byteLength": 8,
      "byteOffset": 2640
    },
    {
      "buffer": 0,
      "byteLength": 24,
      "byteOffset": 2648
    },
    {
      "buffer": 0,
      "byteLength": 32,
      "byteOffset": 2672
    },
    {
      "buffer": 0,
      "byteLength": 24,
      "byteOffset": 2704
    },
    {
      "buffer": 0,
      "byteLength": 80,
      "byteOffset": 2728
    },
    {
      "buffer": 0,
      "byteLength": 240,
      "byteOffset": 2808
    },
    {
      "buffer": 0,
      "byteLength": 320,
      "byteOffset": 3048
    },
    {
      "buffer": 0,
      "byteLength": 240,
      "byteOffset": 3368
    },
    {
      "buffer": 0,
      "byteLength": 80,
      "byteOffset": 3608
    },
    {
      "buffer": 0,
      "byteLength": 240,
      "byteOffset": 3688
    },
    {
      "buffer": 0,
      "byteLength": 320,
      "byteOffset": 3928
    },
    {
      "buffer": 0,
      "byteLength": 240,
      "byteOffset": 4248
    },
    {
      "buffer": 0,
      "byteLength": 80,
      "byteOffset": 4488
    },
    {
      "buffer": 0,
      "byteLength": 240,
      "byteOffset": 4568
    },
    {
      "buffer": 0,
      "byteLength": 320,
      "byteOffset": 4808
    },
    {
      "buffer": 0,
      "byteLength": 240,
      "byteOffset": 5128
    },
    {
      "buffer": 0,
      "byteLength": 80,
      "byteOffset": 5368
    },
    {
      "buffer": 0,
      "byteLength": 240,
      "byteOffset": 5448
    },
    {
      "buffer": 0,
      "byteLength": 320,
      "byteOffset": 5688
    },
    {
      "buffer": 0,
      "byteLength": 240,
      "byteOffset": 6008
    }
  ],
  "buffers": [
    {
      "byteLength": 6248,
      "uri": "out.bin"
    }
  ],
  "extras": {
    "FBX-glTF-conv": {
      "animationFrameRate": 30.0
    }
  },
  "nodes": [
    {
      "children": [
        1,
        3,
        5,
        9,
        11
      ],
      "extras": {
        "FBX-glTF-conv": {
          "skeleton": {
            "skeletonType": "LimbNode"
          }
        }
      },
      "name": "Root_M",
      "rotation": [
        0.5017762184143066,
        0.495583176612854,
        0.5010767579078674,
        0.5015376806259155
      ],
      "translation": [
        0.0,
        0.019999999552965164,
        0.0
      ]
    },
    {
      "children": [
        2
      ],
      "extras": {
        "FBX-glTF-conv": {
          "skeleton": {
            "skeletonType": "LimbNode"
          }
        }
      },
      "name": "frontWheel_R",
      "rotation": [
        0.6889619827270508,
        -0.15915828943252563,
        -0.6889619827270508,
        -0.15915828943252563
      ],
      "translation": [
        -0.008112533949315548,
        0.04690692573785782,
        -0.03011426143348217
      ]
    },
    {
      "extras": {
        "FBX-glTF-conv": {
          "skeleton": {
            "skeletonType": "LimbNode"
          }
        }
      },
      "name": "frontWheelEnd_R",
      "translation": [
        0.006229385733604431,
        8.881783998477905e-18,
        4.440892164675075e-17
      ]
    },
    {
      "children": [
        4
      ],
      "extras": {
        "FBX-glTF-conv": {
          "skeleton": {
            "skeletonType": "LimbNode"
          }
        }
      },
      "name": "backWheel_R",
      "rotation": [
        0.5579452514648438,
        0.4343928098678589,
        -0.5579452514648438,
        0.4343928098678589
      ],
      "translation": [
        -0.008112533949315548,
        -0.04715878143906593,
        -0.03011426143348217
      ]
    },
    {
      "extras": {
        "FBX-glTF-conv": {
          "skeleton": {
            "skeletonType": "LimbNode"
          }
        }
      },
      "name": "backWheelEnd_R",
      "translation": [
        0.006229385733604431,
        1.3322675997716858e-17,
        -3.552713599391162e-17
      ]
    },
    {
      "children": [
        6,
        7,
        8
      ],
      "extras": {
        "FBX-glTF-conv": {
          "skeleton": {
            "skeletonType": "LimbNode"
          }
        }
      },
      "name": "Body_M",
      "rotation": [
        8.682405139916646e-19,
        -1.9950141053888817e-19,
        0.004363309126347303,
        0.9999904632568359
      ],
      "translation": [
        0.019999999552965164,
        -4.524158812112623e-17,
        -4.6837534678554404e-18
      ]
    },
    {
      "extras": {
        "FBX-glTF-conv": {
          "skeleton": {
            "skeletonType": "LimbNode"
          }
        }
      },
      "name": "BodyEnd_M",
      "translation": [
        0.040453020483255386,
        1.3877787497621727e-19,
        -1.3929829048872618e-17
      ]
    },
    {
      "extras": {
        "FBX-glTF-conv": {
          "skeleton": {
            "skeletonType": "LimbNode"
          }
        }
      },
      "name": "Door_R",
      "rotation": [
        0.06149953231215477,
        0.047666192054748535,
        -0.7044273018836975,
        0.7054983377456665
      ],
      "translation": [
        0.0046603865921497345,
        -0.09981141239404678,
        -0.021082637831568718
      ]
    },
    {
      "extras": {
        "FBX-glTF-conv": {
          "skeleton": {
            "skeletonType": "LimbNode"
          }
        }
      },
      "name": "Door_L",
      "rotation": [
        -0.1330081820487976,
        0.14660897850990295,
        0.6944845914840698,
        0.6917411684989929
      ],
      "translation": [
        0.0046603865921497345,
        -0.09981141239404678,
        0.021082637831568718
      ]
    },
    {
      "children": [
        10
      ],
      "extras": {
        "FBX-glTF-conv": {
          "skeleton": {
            "skeletonType": "LimbNode"
          }
        }
      },
      "name": "frontWheel_L",
      "rotation": [
        0.6921616792678833,
        0.14461076259613037,
        -0.6921616196632385,
        0.14461077749729156
      ],
      "translation": [
        -0.008112533949315548,
        0.04690692573785782,
        0.03011426143348217
      ]
    },
    {
      "extras": {
        "FBX-glTF-conv": {
          "skeleton": {
            "skeletonType": "LimbNode"
          }
        }
      },
      "name": "frontWheelEnd_L",
      "translation": [
        -0.006229385733604431,
        -5.445902062639618e-10,
        -3.996803047469241e-17
      ]
    },
    {
      "children": [
        12
      ],
      "extras": {
        "FBX-glTF-conv": {
          "skeleton": {
            "skeletonType": "LimbNode"
          }
        }
      },
      "name": "backWheel_L",
      "rotation": [
        0.6942640542984009,
        -0.1341545432806015,
        -0.6942639946937561,
        -0.1341545581817627
      ],
      "translation": [
        -0.008112533949315548,
        -0.04715878143906593,
        0.03011426143348217
      ]
    },
    {
      "extras": {
        "FBX-glTF-conv": {
          "skeleton": {
            "skeletonType": "LimbNode"
          }
        }
      },
      "name": "backWheelEnd_L",
      "translation": [
        -0.006229385733604431,
        -5.445902062639618e-10,
        5.329070399086743e-17
      ]
    }
  ],
  "scenes": [
    {
      "nodes": [
        0
      ]
    }
  ]
}