{
  "accessors": [
    {
      "bufferView": 0,
      "componentType": 5126,
      "count": 267,
      "max": [
        0.014849023893475533,
        0.014840209856629372,
        0.001793696079403162
      ],
      "min": [
        -0.014849023893475533,
        -7.194449608505238e-06,
        -0.0017936883959919214
      ],
      "name": "Wall4_SecurityDoor/POSITION",
      "type": "VEC3"
    },
    {
      "bufferView": 0,
      "byteOffset": 12,
      "componentType": 5126,
      "count": 267,
      "name": "Wall4_SecurityDoor/NORMAL",
      "type": "VEC3"
    },
    {
      "bufferView": 0,
      "byteOffset": 24,
      "componentType": 5126,
      "count": 267,
      "name": "Wall4_SecurityDoor/TEXCOORD_0",
      "type": "VEC2"
    },
    {
      "bufferView": 1,
      "componentType": 5125,
      "count": 396,
      "name": "Wall4_SecurityDoor/INDICES",
      "type": "SCALAR"
    },
    {
      "bufferView": 2,
      "componentType": 5126,
      "count": 272,
      "max": [
        0.011849400587379932,
        0.012259703129529953,
        0.0014364052331075072
      ],
      "min": [
        0.0002182757161790505,
        -0.00013569780276156962,
        -0.0014364023227244616
      ],
      "name": "SecurityDoorLeftBig1/POSITION",
      "type": "VEC3"
    },
    {
      "bufferView": 2,
      "byteOffset": 12,
      "componentType": 5126,
      "count": 272,
      "name": "SecurityDoorLeftBig1/NORMAL",
      "type": "VEC3"
    },
    {
      "bufferView": 2,
      "byteOffset": 24,
      "componentType": 5126,
      "count": 272,
      "name": "SecurityDoorLeftBig1/TEXCOORD_0",
      "type": "VEC2"
    },
    {
      "bufferView": 3,
      "componentType": 5125,
      "count": 492,
      "name": "SecurityDoorLeftBig1/INDICES",
      "type": "SCALAR"
    },
    {
      "bufferView": 4,
      "componentType": 5126,
      "count": 272,
      "max": [
        -0.00021828252647537738,
        0.012259695678949356,
        0.0014364068629220128
      ],
      "min": [
        -0.011849400587379932,
        -0.0001356984575977549,
        -0.0014364004600793123
      ],
      "name": "SecurityDoorLeftBig/POSITION",
      "type": "VEC3"
    },
    {
      "bufferView": 4,
      "byteOffset": 12,
      "componentType": 5126,
      "count": 272,
      "name": "SecurityDoorLeftBig/NORMAL",
      "type": "VEC3"
    },
    {
      "bufferView": 4,
      "byteOffset": 24,
      "componentType": 5126,
      "count": 272,
      "name": "SecurityDoorLeftBig/TEXCOORD_0",
      "type": "VEC2"
    },
    {
      "bufferView": 5,
      "componentType": 5125,
      "count": 492,
      "name": "SecurityDoorLeftBig/INDICES",
      "type": "SCALAR"
    },
    {
      "bufferView": 6,
      "componentType": 5126,
      "count": 537,
      "max": [
        0.0012567297089844942,
        0.009131865575909615,
        0.0011028716107830405
      ],
      "min": [
        -0.001256739255040884,
        0.004122420214116573,
        -0.00044459369382821023
      ],
      "name": "CardReader1/POSITION",
      "type": "VEC3"
    },
    {
      "bufferView": 6,
      "byteOffset": 12,
      "componentType": 5126,
      "count": 537,
      "name": "CardReader1/NORMAL",
      "type": "VEC3"
    },
    {
      "bufferView": 6,
      "byteOffset": 24,
      "componentType": 5126,
      "count": 537,
      "name": "CardReader1/TEXCOORD_0",
      "type": "VEC2"
    },
    {
      "bufferView": 7,
      "componentType": 5125,
      "count": 1254,
      "name": "CardReader1/INDICES",
      "type": "SCALAR"
    },
    {
      "bufferView": 8,
      "componentType": 5126,
      "count": 501,
      "max": [
        0.0012567341327667236,
        0.00913186464458704,
        0.0004445997183211148
      ],
      "min": [
        -0.0012567341327667236,
        0.004122420679777861,
        -0.0011028654407709837
      ],
      "name": "CardReader/POSITION",
      "type": "VEC3"
    },
    {
      "bufferView": 8,
      "byteOffset": 12,
      "componentType": 5126,
      "count": 501,
      "name": "CardReader/NORMAL",
      "type": "VEC3"
    },
    {
      "bufferView": 8,
      "byteOffset": 24,
      "componentType": 5126,
      "count": 501,
      "name": "CardReader/TEXCOORD_0",
      "type": "VEC2"
    },
    {
      "bufferView": 9,
      "componentType": 5125,
      "count": 1122,
      "name": "CardReader/INDICES",
      "type": "SCALAR"
    },
    {
      "bufferView": 10,
      "componentType": 5126,
      "count": 42,
      "max": [
        1.1666666269302368
      ],
      "min": [
        0.0
      ],
      "name": "SecurityDoorLeftBig1/Trs/Input",
      "type": "SCALAR"
    },
    {
      "bufferView": 11,
      "componentType": 5126,
      "count": 42,
      "name": "SecurityDoorLeftBig1/translation/Output",
      "type": "VEC3"
    },
    {
      "bufferView": 12,
      "componentType": 5126,
      "count": 42,
      "name": "SecurityDoorLeftBig1/rotation/Output",
      "type": "VEC4"
    },
    {
      "bufferView": 13,
      "componentType": 5126,
      "count": 42,
      "name": "SecurityDoorLeftBig1/scale/Output",
      "type": "VEC3"
    },
    {
      "bufferView": 14,
      "componentType": 5126,
      "count": 42,
      "max": [
        1.1666666269302368
      ],
      "min": [
        0.0
      ],
      "name": "SecurityDoorLeftBig/Trs/Input",
      "type": "SCALAR"
    },
    {
      "bufferView": 15,
      "componentType": 5126,
      "count": 42,
      "name": "SecurityDoorLeftBig/translation/Output",
      "type": "VEC3"
    },
    {
      "bufferView": 16,
      "componentType": 5126,
      "count": 42,
      "name": "SecurityDoorLeftBig/rotation/Output",
      "type": "VEC4"
    },
    {
      "bufferView": 17,
      "componentType": 5126,
      "count": 42,
      "name": "SecurityDoorLeftBig/scale/Output",
      "type": "VEC3"
    }
  ],
  "animations": [
    {
      "channels": [
        {
          "sampler": 0,
          "target": {
            "node": 2,
            "path": "translation"
          }
        },
        {
          "sampler": 1,
          "target": {
            "node": 2,
            "path": "rotation"
          }
        },
        {
          "sampler": 2,
          "target": {
            "node": 2,
            "path": "scale"
          }
        },
        {
          "sampler": 3,
          "target": {
            "node": 3,
            "path": "translation"
          }
        },
        {
          "sampler": 4,
          "target": {
            "node": 3,
            "path": "rotation"
          }
        },
        {
          "sampler": 5,
          "target": {
            "node": 3,
            "path": "scale"
          }
        }
      ],
      "name": "DoorOpen",
      "samplers": [
        {
          "input": 20,
          "output": 21
        },
        {
          "input": 20,
          "output": 22
        },
        {
          "input": 20,
          "output": 23
        },
        {
          "input": 24,
          "output": 25
        },
        {
          "input": 24,
          "output": 26
        },
        {
          "input": 24,
          "output": 27
        }
      ]
    }
  ],
  "asset": {
    "copyright": "Copyright (c) 2018-2020 Chukong Technologies Inc.",
    "generator": "FBX-glTF-conv",
    "version": "2.0"
  },
  "bufferViews": [
    {
      "buffer": 0,
      "byteLength": 8544,
      "byteStride": 32,
      "name": "Wall4_SecurityDoor",
      "target": 34962
    },
    {
      "buffer": 0,
      "byteLength": 1584,
      "byteOffset": 8544
    },
    {
      "buffer": 0,
      "byteLength": 8704,
      "byteOffset": 10128,
      "byteStride": 32,
      "name": "SecurityDoorLeftBig1",
      "target": 34962
    },
    {
      "buffer": 0,
      "byteLength": 1968,
      "byteOffset": 18832
    },
    {
      "buffer": 0,
      "byteLength": 8704,
      "byteOffset": 20800,
      "byteStride": 32,
      "name": "SecurityDoorLeftBig",
      "target": 34962
    },
    {
      "buffer": 0,
      "byteLength": 1968,
      "byteOffset": 29504
    },
    {
      "buffer": 0,
      "byteLength": 17184,
      "byteOffset": 31472,
      "byteStride": 32,
      "name": "CardReader1",
      "target": 34962
    },
    {
      "buffer": 0,
      "byteLength": 5016,
      "byteOffset": 48656
    },
    {
      "buffer": 0,
      "byteLength": 16032,
      "byteOffset": 53672,
      "byteStride": 32,
      "name": "CardReader",
      "target": 34962
    },
    {
      "buffer": 0,
      "byteLength": 4488,
      "byteOffset": 69704
    },
    {
      "buffer": 0,
      "byteLength": 168,
      "byteOffset": 74192
    },
    {
      "buffer": 0,
      "byteLength": 504,
      "byteOffset": 74360
    },
    {
      "buffer": 0,
      "byteLength": 672,
      "byteOffset": 74864
    },
    {
      "buffer": 0,
      "byteLength": 504,
      "byteOffset": 75536
    },
    {
      "buffer": 0,
      "byteLength": 168,
      "byteOffset": 76040
    },
    {
      "buffer": 0,
      "byteLength": 504,
      "byteOffset": 76208
    },
    {
      "buffer": 0,
      "byteLength": 672,
      "byteOffset": 76712
    },
    {
      "buffer": 0,
      "byteLength": 504,
      "byteOffset": 77384
    }
  ],
  "buffers": [
    {
      "byteLength": 77888,
      "uri": "out.bin"
    }
  ],
  "extras": {
    "FBX-glTF-conv": {
      "animationFrameRate": 60.0
    }
  },
  "images": [
    {
      "extras": {
        "FBX-glTF-conv": {
          "fileName": "C:\\Users\\Admin\\Desktop\\Cat Escape\\Texture.jpg",
          "relativeFileName": "Cat Escape\\Texture.jpg"
        }
      },
      "name": "base_color_texture",
      "uri": "data:image/png;base64,"
    }
  ],
  "materials": [
    {
      "name": "Mat_Environment",
      "pbrMetallicRoughness": {
        "baseColorTexture": {
          "index": 0
        },
        "metallicFactor": 0.4000000059604645,
        "roughnessFactor": 0.7071067690849304
      }
    }
  ],
  "meshes": [
    {
      "name": "Wall4_SecurityDoor",
      "primitives": [
        {
          "attributes": {
            "NORMAL": 1,
            "POSITION": 0,
            "TEXCOORD_0": 2
          },
          "indices": 3,
          "material": 0
        }
      ]
    },
    {
      "name": "SecurityDoorLeftBig1",
      "primitives": [
        {
          "attributes": {
            "NORMAL": 5,
            "POSITION": 4,
            "TEXCOORD_0": 6
          },
          "indices": 7,
          "material": 0
        }
      ]
    },
    {
      "name": "SecurityDoorLeftBig",
      "primitives": [
        {
          "attributes": {
            "NORMAL": 9,
            "POSITION": 8,
            "TEXCOORD_0": 10
          },
          "indices": 11,
          "material": 0
        }
      ]
    },
    {
      "name": "CardReader1",
      "primitives": [
        {
          "attributes": {
            "NORMAL": 13,
            "POSITION": 12,
            "TEXCOORD_0": 14
          },
          "indices": 15,
          "material": 0
        }
      ]
    },
    {
      "name": "CardReader",
      "primitives": [
        {
          "attributes": {
            "NORMAL": 17,
            "POSITION": 16,
            "TEXCOORD_0": 18
          },
          "indices": 19,
          "material": 0
        }
      ]
    }
  ],
  "nodes": [
    {
      "children": [
        1,
        2,
        3,
        4,
        5
      ],
      "name": "SecurityDoor"
    },
    {
      "mesh": 0,
      "name": "Wall4_SecurityDoor",
      "translation": [
        1.3879603102395777e-06,
        7.56096366072434e-11,
        -0.00046408866182900965
      ]
    },
    {
      "mesh": 1,
      "name": "SecurityDoorLeftBig1",
      "translation": [
        -0.01195492409169674,
        0.0,
        0.0
      ]
    },
    {
      "mesh": 2,
      "name": "SecurityDoorLeftBig",
      "translation": [
        0.011806415393948555,
        0.0,
        0.0
      ]
    },
    {
      "mesh": 3,
      "name": "CardReader1",
      "translation": [
        0.01329288724809885,
        -2.752201799793852e-10,
        0.0016892894636839628
      ]
    },
    {
      "mesh": 4,
      "name": "CardReader",
      "translation": [
        -0.013364365324378014,
        4.385350138580435e-10,
        -0.002691708505153656
      ]
    }
  ],
  "samplers": [
    {}
  ],
  "scenes": [
    {
      "nodes": [
        0
      ]
    }
  ],
  "textures": [
    {
      "name": "base_color_texture",
      "sampler": 0,
      "source": 0
    }
  ]
}