{
  "accessors": [
    {
      "bufferView": 0,
      "componentType": 5126,
      "count": 3857,
      "max": [
        0.049023400992155075,
        0.15070657432079315,
        0.24745796620845795
      ],
      "min": [
        -0.04904273897409439,
        6.559916073456407e-05,
        -0.24745796620845795
      ],
      "name": "polySurface16/POSITION",
      "type": "VEC3"
    },
    {
      "bufferView": 0,
      "byteOffset": 12,
      "componentType": 5126,
      "count": 3857,
      "name": "polySurface16/NORMAL",
      "type": "VEC3"
    },
    {
      "bufferView": 0,
      "byteOffset": 24,
      "componentType": 5126,
      "count": 3857,
      "name": "polySurface16/TEXCOORD_0",
      "type": "VEC2"
    },
    {
      "bufferView": 0,
      "byteOffset": 32,
      "componentType": 5123,
      "count": 3857,
      "name": "polySurface16/JOINTS_0",
      "type": "VEC4"
    },
    {
      "bufferView": 0,
      "byteOffset": 40,
      "componentType": 5126,
      "count": 3857,
      "name": "polySurface16/WEIGHTS_0",
      "type": "VEC4"
    },
    {
      "bufferView": 1,
      "componentType": 5125,
      "count": 10380,
      "name": "polySurface16/INDICES",
      "type": "SCALAR"
    },
    {
      "bufferView": 2,
      "componentType": 5126,
      "count": 1,
      "name": "/InverseBindMatrices",
      "type": "MAT4"
    },
    {
      "bufferView": 3,
      "componentType": 5126,
      "count": 84,
      "max": [
        0.06806076318025589,
        0.09610261023044586,
        -0.19120775163173676
      ],
      "min": [
        0.03809749707579613,
        0.036748964339494705,
        -0.22426743805408478
      ],
      "name": "polySurface14/POSITION",
      "type": "VEC3"
    },
    {
      "bufferView": 3,
      "byteOffset": 12,
      "componentType": 5126,
      "count": 84,
      "name": "polySurface14/NORMAL",
      "type": "VEC3"
    },
    {
      "bufferView": 3,
      "byteOffset": 24,
      "componentType": 5126,
      "count": 84,
      "name": "polySurface14/TEXCOORD_0",
      "type": "VEC2"
    },
    {
      "bufferView": 3,
      "byteOffset": 32,
      "componentType": 5123,
      "count": 84,
      "name": "polySurface14/JOINTS_0",
      "type": "VEC4"
    },
    {
      "bufferView": 3,
      "byteOffset": 40,
      "componentType": 5126,
      "count": 84,
      "name": "polySurface14/WEIGHTS_0",
      "type": "VEC4"
    },
    {
      "bufferView": 4,
      "componentType": 5125,
      "count": 114,
      "name": "polySurface14/INDICES",
      "type": "SCALAR"
    },
    {
      "bufferView": 5,
      "componentType": 5126,
      "count": 1,
      "name": "/InverseBindMatrices",
      "type": "MAT4"
    },
    {
      "bufferView": 6,
      "componentType": 5126,
      "count": 84,
      "max": [
        0.07515380531549454,
        0.09610262513160706,
        -0.0773940458893776
      ],
      "min": [
        0.03831569850444794,
        0.036748990416526794,
        -0.10313989967107773
      ],
      "name": "polySurface12/POSITION",
      "type": "VEC3"
    },
    {
      "bufferView": 6,
      "byteOffset": 12,
      "componentType": 5126,
      "count": 84,
      "name": "polySurface12/NORMAL",
      "type": "VEC3"
    },
    {
      "bufferView": 6,
      "byteOffset": 24,
      "componentType": 5126,
      "count": 84,
      "name": "polySurface12/TEXCOORD_0",
      "type": "VEC2"
    },
    {
      "bufferView": 6,
      "byteOffset": 32,
      "componentType": 5123,
      "count": 84,
      "name": "polySurface12/JOINTS_0",
      "type": "VEC4"
    },
    {
      "bufferView": 6,
      "byteOffset": 40,
      "componentType": 5126,
      "count": 84,
      "name": "polySurface12/WEIGHTS_0",
      "type": "VEC4"
    },
    {
      "bufferView": 7,
      "componentType": 5125,
      "count": 114,
      "name": "polySurface12/INDICES",
      "type": "SCALAR"
    },
    {
      "bufferView": 8,
      "componentType": 5126,
      "count": 1,
      "name": "/InverseBindMatrices",
      "type": "MAT4"
    }
  ],
  "asset": {
    "copyright": "Copyright (c) 2018-2020 Chukong Technologies Inc.",
    "generator": "FBX-glTF-conv",
    "version": "2.0"
  },
  "bufferViews": [
    {
      "buffer": 0,
      "byteLength": 215992,
      "byteStride": 56,
      "name": "polySurface16",
      "target": 34962
    },
    {
      "buffer": 0,
      "byteLength": 41520,
      "byteOffset": 215992
    },
    {
      "buffer": 0,
      "byteLength": 64,
      "byteOffset": 257512
    },
    {
      "buffer": 0,
      "byteLength": 4704,
      "byteOffset": 257576,
      "byteStride": 56,
      "name": "polySurface14",
      "target": 34962
    },
    {
      "buffer": 0,
      "byteLength": 456,
      "byteOffset": 262280
    },
    {
      "buffer": 0,
      "byteLength": 64,
      "byteOffset": 262736
    },
    {
      "buffer": 0,
      "byteLength": 4704,
      "byteOffset": 262800,
      "byteStride": 56,
      "name": "polySurface12",
      "target": 34962
    },
    {
      "buffer": 0,
      "byteLength": 456,
      "byteOffset": 267504
    },
    {
      "buffer": 0,
      "byteLength": 64,
      "byteOffset": 267960
    }
  ],
  "buffers": [
    {
      "byteLength": 268024,
      "uri": "out.bin"
    }
  ],
  "extras": {
    "FBX-glTF-conv": {
      "animationFrameRate": 30.0
    }
  },
  "images": [
    {
      "extras": {
        "FBX-glTF-conv": {
          "fileName": "D:\\PA_2024\\3D\\CatEscape\\CatEscape_OP15\\temp\\asset-db\\assets\\fbx.FBX-glTF-conv\\ad8400f5-f89d-4687-8b6a-61b4f104473b\\output\\.fbm\\8A061E09\\Train_Base.fbm/Megatexture.png",
          "relativeFileName": "..\\..\\..\\..\\temp\\asset-db\\assets\\fbx.FBX-glTF-conv\\ad8400f5-f89d-4687-8b6a-61b4f104473b\\output\\.fbm\\8A061E09\\Train_Base.fbm\\Megatexture.png"
        }
      },
      "name": "file3",
      "uri": "Megatexture.png"
    }
  ],
  "materials": [
    {
      "name": "Train_Mat",
      "pbrMetallicRoughness": {
        "baseColorFactor": [
          0.800000011920929,
          0.800000011920929,
          0.800000011920929,
          1.0
        ],
        "baseColorTexture": {
          "index": 0
        }
      }
    }
  ],
  "meshes": [
    {
      "name": "polySurface16",
      "primitives": [
        {
          "attributes": {
            "JOINTS_0": 3,
            "NORMAL": 1,
            "POSITION": 0,
            "TEXCOORD_0": 2,
            "WEIGHTS_0": 4
          },
          "indices": 5,
          "material": 0
        }
      ]
    },
    {
      "name": "polySurface14",
      "primitives": [
        {
          "attributes": {
            "JOINTS_0": 10,
            "NORMAL": 8,
            "POSITION": 7,
            "TEXCOORD_0": 9,
            "WEIGHTS_0": 11
          },
          "indices": 12,
          "material": 0
        }
      ]
    },
    {
      "name": "polySurface12",
      "primitives": [
        {
          "attributes": {
            "JOINTS_0": 17,
            "NORMAL": 15,
            "POSITION": 14,
            "TEXCOORD_0": 16,
            "WEIGHTS_0": 18
          },
          "indices": 19,
          "material": 0
        }
      ]
    }
  ],
  "nodes": [
    {
      "children": [
        1
      ],
      "name": "animBot"
    },
    {
      "name": "animBot_Anim_Recovery_Scene_ID"
    },
    {
      "children": [
        3,
        4,
        5
      ],
      "name": "Train"
    },
    {
      "mesh": 0,
      "name": "polySurface16",
      "skin": 0
    },
    {
      "mesh": 1,
      "name": "polySurface14",
      "skin": 1
    },
    {
      "mesh": 2,
      "name": "polySurface12",
      "skin": 2
    },
    {
      "children": [
        7,
        9,
        11,
        13,
        15,
        17,
        19,
        20,
        21,
        23,
        25,
        27,
        29
      ],
      "extras": {
        "FBX-glTF-conv": {
          "skeleton": {
            "skeletonType": "LimbNode"
          }
        }
      },
      "name": "Root_M",
      "rotation": [
        0.5,
        0.5,
        0.5,
        0.5
      ],
      "translation": [
        0.0,
        0.019999999552965164,
        0.0
      ]
    },
    {
      "children": [
        8
      ],
      "extras": {
        "FBX-glTF-conv": {
          "skeleton": {
            "skeletonType": "LimbNode"
          }
        }
      },
      "name": "frontWheel_R",
      "rotation": [
        0.5692197680473328,
        0.41951021552085876,
        -0.5692197680473328,
        0.41951021552085876
      ],
      "translation": [
        -0.0029058451764285564,
        -0.001665271818637848,
        -0.02234426885843277
      ]
    },
    {
      "extras": {
        "FBX-glTF-conv": {
          "skeleton": {
            "skeletonType": "LimbNode"
          }
        }
      },
      "name": "frontWheelEnd_R",
      "translation": [
        0.009999999776482582,
        2.2204460823375376e-17,
        5.218048202503346e-17
      ]
    },
    {
      "children": [
        10
      ],
      "extras": {
        "FBX-glTF-conv": {
          "skeleton": {
            "skeletonType": "LimbNode"
          }
        }
      },
      "name": "backWheel_R",
      "rotation": [
        -0.7004218697547913,
        -0.07901245355606079,
        0.7026784420013428,
        -0.0970010980963707
      ],
      "translation": [
        -0.006395315285772085,
        -0.06967505812644958,
        -0.02472865767776966
      ]
    },
    {
      "extras": {
        "FBX-glTF-conv": {
          "skeleton": {
            "skeletonType": "LimbNode"
          }
        }
      },
      "name": "backWheelEnd_R",
      "translation": [
        0.01000328827649355,
        1.776356799695581e-17,
        -1.776356799695581e-17
      ]
    },
    {
      "children": [
        12
      ],
      "extras": {
        "FBX-glTF-conv": {
          "skeleton": {
            "skeletonType": "LimbNode"
          }
        }
      },
      "name": "Body_M",
      "translation": [
        0.019999999552965164,
        -1.309229627095349e-18,
        -2.618459254190698e-18
      ]
    },
    {
      "extras": {
        "FBX-glTF-conv": {
          "skeleton": {
            "skeletonType": "LimbNode"
          }
        }
      },
      "name": "BodyEnd_M",
      "translation": [
        0.019999999552965164,
        0.0,
        -4.841019941046166e-18
      ]
    },
    {
      "children": [
        14
      ],
      "extras": {
        "FBX-glTF-conv": {
          "skeleton": {
            "skeletonType": "LimbNode"
          }
        }
      },
      "name": "backWheel1_R",
      "rotation": [
        -0.05351642891764641,
        0.7068943977355957,
        0.017329460009932518,
        0.7050787210464478
      ],
      "translation": [
        -0.007209954783320427,
        -0.10944163054227829,
        -0.02472865767776966
      ]
    },
    {
      "extras": {
        "FBX-glTF-conv": {
          "skeleton": {
            "skeletonType": "LimbNode"
          }
        }
      },
      "name": "backWheelEnd3_R",
      "translation": [
        0.01001314539462328,
        0.0,
        -3.3306692062243676e-17
      ]
    },
    {
      "children": [
        16
      ],
      "extras": {
        "FBX-glTF-conv": {
          "skeleton": {
            "skeletonType": "LimbNode"
          }
        }
      },
      "name": "backWheel2_R",
      "rotation": [
        -0.6539246439933777,
        0.2351905256509781,
        0.6668473482131958,
        0.26904013752937317
      ],
      "translation": [
        -0.007209954783320427,
        -0.1833130568265915,
        -0.02472865767776966
      ]
    },
    {
      "extras": {
        "FBX-glTF-conv": {
          "skeleton": {
            "skeletonType": "LimbNode"
          }
        }
      },
      "name": "backWheelEnd2_R",
      "translation": [
        0.01001314539462328,
        0.0,
        -3.552713599391162e-17
      ]
    },
    {
      "children": [
        18
      ],
      "extras": {
        "FBX-glTF-conv": {
          "skeleton": {
            "skeletonType": "LimbNode"
          }
        }
      },
      "name": "backWheel3_R",
      "rotation": [
        0.6684572696685791,
        0.2305750846862793,
        -0.6684572696685791,
        0.2305750846862793
      ],
      "translation": [
        -0.007209954783320427,
        -0.22315958142280579,
        -0.02472865767776966
      ]
    },
    {
      "extras": {
        "FBX-glTF-conv": {
          "skeleton": {
            "skeletonType": "LimbNode"
          }
        }
      },
      "name": "backWheelEnd1_R",
      "translation": [
        0.009999999776482582,
        3.552713599391162e-17,
        -1.2434497928741312e-16
      ]
    },
    {
      "extras": {
        "FBX-glTF-conv": {
          "skeleton": {
            "skeletonType": "LimbNode"
          }
        }
      },
      "name": "joint1_L",
      "rotation": [
        -0.5,
        -0.5,
        -0.5,
        0.5
      ],
      "translation": [
        0.04944585636258125,
        -0.10102583467960358,
        0.038950882852077484
      ]
    },
    {
      "extras": {
        "FBX-glTF-conv": {
          "skeleton": {
            "skeletonType": "LimbNode"
          }
        }
      },
      "name": "joint2_L",
      "rotation": [
        -0.5,
        -0.5,
        -0.5,
        0.5
      ],
      "translation": [
        0.04939224198460579,
        -0.1934768557548523,
        0.03895542770624161
      ]
    },
    {
      "children": [
        22
      ],
      "extras": {
        "FBX-glTF-conv": {
          "skeleton": {
            "skeletonType": "LimbNode"
          }
        }
      },
      "name": "frontWheel_L",
      "rotation": [
        0.5429837107658386,
        -0.4529555141925812,
        -0.5429836511611938,
        -0.45295557379722595
      ],
      "translation": [
        -0.0029058451764285564,
        -0.001665271818637848,
        0.02234426885843277
      ]
    },
    {
      "extras": {
        "FBX-glTF-conv": {
          "skeleton": {
            "skeletonType": "LimbNode"
          }
        }
      },
      "name": "frontWheelEnd_L",
      "translation": [
        -0.009999999776482582,
        -8.742278012618954e-10,
        -3.7747583234302016e-17
      ]
    },
    {
      "children": [
        24
      ],
      "extras": {
        "FBX-glTF-conv": {
          "skeleton": {
            "skeletonType": "LimbNode"
          }
        }
      },
      "name": "backWheel_L",
      "rotation": [
        -0.3346985876560211,
        0.6140924692153931,
        0.3505573272705078,
        0.6228778958320618
      ],
      "translation": [
        -0.006395315285772085,
        -0.06967505812644958,
        0.02472865767776966
      ]
    },
    {
      "extras": {
        "FBX-glTF-conv": {
          "skeleton": {
            "skeletonType": "LimbNode"
          }
        }
      },
      "name": "backWheelEnd_L",
      "translation": [
        -0.01000328827649355,
        -2.6645351995433716e-17,
        8.881783998477905e-18
      ]
    },
    {
      "children": [
        26
      ],
      "extras": {
        "FBX-glTF-conv": {
          "skeleton": {
            "skeletonType": "LimbNode"
          }
        }
      },
      "name": "backWheel1_L",
      "rotation": [
        0.6860424280166626,
        0.20622286200523376,
        -0.6763668656349182,
        0.17130614817142487
      ],
      "translation": [
        -0.007209954783320427,
        -0.10944163054227829,
        0.02472865767776966
      ]
    },
    {
      "extras": {
        "FBX-glTF-conv": {
          "skeleton": {
            "skeletonType": "LimbNode"
          }
        }
      },
      "name": "backWheelEnd3_L",
      "translation": [
        -0.01001314539462328,
        1.776356799695581e-17,
        1.776356799695581e-17
      ]
    },
    {
      "children": [
        28
      ],
      "extras": {
        "FBX-glTF-conv": {
          "skeleton": {
            "skeletonType": "LimbNode"
          }
        }
      },
      "name": "backWheel2_L",
      "rotation": [
        -0.5757299661636353,
        -0.3805001974105835,
        0.596002995967865,
        -0.410530149936676
      ],
      "translation": [
        -0.007209954783320427,
        -0.1833130568265915,
        0.02472865767776966
      ]
    },
    {
      "extras": {
        "FBX-glTF-conv": {
          "skeleton": {
            "skeletonType": "LimbNode"
          }
        }
      },
      "name": "backWheelEnd2_L",
      "translation": [
        -0.01001314539462328,
        0.0,
        3.552713599391162e-17
      ]
    },
    {
      "children": [
        30
      ],
      "extras": {
        "FBX-glTF-conv": {
          "skeleton": {
            "skeletonType": "LimbNode"
          }
        }
      },
      "name": "backWheel3_L",
      "rotation": [
        -0.3560272753238678,
        0.6109374165534973,
        0.3560272455215454,
        0.6109374761581421
      ],
      "translation": [
        -0.007209954783320427,
        -0.22315958142280579,
        0.02472865767776966
      ]
    },
    {
      "extras": {
        "FBX-glTF-conv": {
          "skeleton": {
            "skeletonType": "LimbNode"
          }
        }
      },
      "name": "backWheelEnd1_L",
      "translation": [
        -0.009999999776482582,
        -8.742278012618954e-10,
        1.4210854397564648e-16
      ]
    }
  ],
  "samplers": [
    {}
  ],
  "scenes": [
    {
      "nodes": [
        0,
        2,
        6
      ]
    }
  ],
  "skins": [
    {
      "inverseBindMatrices": 6,
      "joints": [
        6
      ]
    },
    {
      "inverseBindMatrices": 13,
      "joints": [
        20
      ]
    },
    {
      "inverseBindMatrices": 20,
      "joints": [
        19
      ]
    }
  ],
  "textures": [
    {
      "name": "file3",
      "sampler": 0,
      "source": 0
    }
  ]
}