{
  "accessors": [
    {
      "bufferView": 0,
      "componentType": 5126,
      "count": 1737,
      "max": [
        0.005443782079964876,
        0.01761755906045437,
        0.004963317420333624
      ],
      "min": [
        -0.005443782079964876,
        -4.963315586792305e-05,
        -1.3969838306981952e-11
      ],
      "name": "polySurface13/POSITION",
      "type": "VEC3"
    },
    {
      "bufferView": 0,
      "byteOffset": 12,
      "componentType": 5126,
      "count": 1737,
      "name": "polySurface13/NORMAL",
      "type": "VEC3"
    },
    {
      "bufferView": 0,
      "byteOffset": 24,
      "componentType": 5126,
      "count": 1737,
      "name": "polySurface13/TEXCOORD_0",
      "type": "VEC2"
    },
    {
      "bufferView": 1,
      "componentType": 5125,
      "count": 3780,
      "name": "polySurface13/INDICES",
      "type": "SCALAR"
    }
  ],
  "asset": {
    "copyright": "Copyright (c) 2018-2020 Chukong Technologies Inc.",
    "generator": "FBX-glTF-conv",
    "version": "2.0"
  },
  "bufferViews": [
    {
      "buffer": 0,
      "byteLength": 55584,
      "byteStride": 32,
      "name": "polySurface13",
      "target": 34962
    },
    {
      "buffer": 0,
      "byteLength": 15120,
      "byteOffset": 55584
    }
  ],
  "buffers": [
    {
      "byteLength": 70704,
      "uri": "out.bin"
    }
  ],
  "extras": {
    "FBX-glTF-conv": {
      "animationFrameRate": 24.0
    }
  },
  "images": [
    {
      "extras": {
        "FBX-glTF-conv": {
          "fileName": "F:/Git/cat-escape/cat-escape/Assets/Cat Escape Prop/Texture/Texture.jpg",
          "relativeFileName": "..\\..\\Texture\\Texture.jpg"
        }
      },
      "name": "base_color_texture",
      "uri": "data:image/png;base64,"
    }
  ],
  "materials": [
    {
      "name": "Enviroment1",
      "pbrMetallicRoughness": {
        "baseColorTexture": {
          "index": 0
        },
        "metallicFactor": 0.4000000059604645,
        "roughnessFactor": 0.30151134729385376
      }
    }
  ],
  "meshes": [
    {
      "name": "polySurface13",
      "primitives": [
        {
          "attributes": {
            "NORMAL": 1,
            "POSITION": 0,
            "TEXCOORD_0": 2
          },
          "indices": 3,
          "material": 0
        }
      ]
    }
  ],
  "nodes": [
    {
      "children": [
        1,
        25
      ],
      "name": "bookshelf"
    },
    {
      "children": [
        2,
        4,
        6,
        8,
        10,
        12,
        14,
        16,
        18,
        20,
        22,
        24
      ],
      "name": "bookshelf_clear"
    },
    {
      "children": [
        3
      ],
      "name": "polySurface13"
    },
    {
      "name": "transform20"
    },
    {
      "children": [
        5
      ],
      "name": "polySurface14"
    },
    {
      "name": "transform19"
    },
    {
      "children": [
        7
      ],
      "name": "polySurface15"
    },
    {
      "name": "transform18"
    },
    {
      "children": [
        9
      ],
      "name": "polySurface16"
    },
    {
      "name": "transform17"
    },
    {
      "children": [
        11
      ],
      "name": "polySurface17"
    },
    {
      "name": "transform16"
    },
    {
      "children": [
        13
      ],
      "name": "polySurface18"
    },
    {
      "name": "transform15"
    },
    {
      "children": [
        15
      ],
      "name": "polySurface19"
    },
    {
      "name": "transform14"
    },
    {
      "children": [
        17
      ],
      "name": "polySurface20"
    },
    {
      "name": "transform13"
    },
    {
      "children": [
        19
      ],
      "name": "polySurface21"
    },
    {
      "name": "transform12"
    },
    {
      "children": [
        21
      ],
      "name": "polySurface22"
    },
    {
      "name": "transform11"
    },
    {
      "children": [
        23
      ],
      "name": "polySurface23"
    },
    {
      "name": "transform10"
    },
    {
      "name": "transform1"
    },
    {
      "children": [
        26,
        28,
        30,
        32,
        34,
        36,
        38,
        40
      ],
      "name": "bookshelf_clear_broken_GRP"
    },
    {
      "children": [
        27
      ],
      "name": "polySurface6",
      "rotation": [
        0.7071068286895752,
        0.0,
        0.0,
        0.7071067094802856
      ],
      "scale": [
        0.009999999776482582,
        0.009999999776482582,
        0.009999999776482582
      ],
      "translation": [
        -1.3429934369924013e-05,
        -4.439087933860719e-05,
        4.381209146231413e-05
      ]
    },
    {
      "name": "transform9"
    },
    {
      "children": [
        29
      ],
      "name": "polySurface7",
      "rotation": [
        0.7071068286895752,
        0.0,
        0.0,
        0.7071067094802856
      ],
      "scale": [
        0.009999999776482582,
        0.009999999776482582,
        0.009999999776482582
      ],
      "translation": [
        2.916014409493073e-06,
        -2.07004850381054e-05,
        5.949012847850099e-05
      ]
    },
    {
      "name": "transform8"
    },
    {
      "children": [
        31
      ],
      "name": "polySurface10_FRAC1",
      "rotation": [
        0.7071068286895752,
        0.0,
        0.0,
        0.7071067094802856
      ],
      "scale": [
        0.009999999776482582,
        0.009999999776482582,
        0.009999999776482582
      ],
      "translation": [
        -7.416869266307913e-06,
        -1.7690616004983895e-05,
        9.48601373238489e-05
      ]
    },
    {
      "name": "transform7"
    },
    {
      "children": [
        33
      ],
      "name": "polySurface12_FRAC1",
      "rotation": [
        0.7071068286895752,
        0.0,
        0.0,
        0.7071067094802856
      ],
      "scale": [
        0.009999999776482582,
        0.009999999776482582,
        0.009999999776482582
      ],
      "translation": [
        6.412060884031234e-06,
        -1.8761707906378433e-05,
        0.00011842179810628295
      ]
    },
    {
      "name": "transform6"
    },
    {
      "children": [
        35
      ],
      "name": "polySurface12_FRAC5",
      "rotation": [
        0.7071068286895752,
        0.0,
        0.0,
        0.7071067094802856
      ],
      "scale": [
        0.009999999776482582,
        0.009999999776482582,
        0.009999999776482582
      ],
      "translation": [
        -8.833624633552972e-06,
        -2.0061783288838342e-05,
        0.0001458493497921154
      ]
    },
    {
      "name": "transform5"
    },
    {
      "children": [
        37
      ],
      "name": "book",
      "rotation": [
        0.7071068286895752,
        0.0,
        0.0,
        0.7071067094802856
      ],
      "scale": [
        0.009999999776482582,
        0.009999999776482582,
        0.009999999776482582
      ],
      "translation": [
        -4.664085281547159e-05,
        -2.5686931621748954e-05,
        0.00013191119069233537
      ]
    },
    {
      "name": "transform4"
    },
    {
      "children": [
        39
      ],
      "name": "book.001",
      "rotation": [
        0.7071068286895752,
        0.0,
        0.0,
        0.7071067094802856
      ],
      "scale": [
        0.009999999776482582,
        0.009999999776482582,
        0.009999999776482582
      ],
      "translation": [
        -2.6926138161798008e-05,
        -2.5686931621748954e-05,
        0.00013191119069233537
      ]
    },
    {
      "name": "transform3"
    },
    {
      "children": [
        41
      ],
      "name": "book.002",
      "rotation": [
        0.7071068286895752,
        0.0,
        0.0,
        0.7071067094802856
      ],
      "scale": [
        0.009999999776482582,
        0.009999999776482582,
        0.009999999776482582
      ],
      "translation": [
        -3.7185836845310405e-05,
        -2.5686931621748954e-05,
        0.00013191119069233537
      ]
    },
    {
      "name": "transform2"
    },
    {
      "mesh": 0,
      "name": "polySurface13"
    }
  ],
  "samplers": [
    {}
  ],
  "scenes": [
    {
      "nodes": [
        0,
        42
      ]
    }
  ],
  "textures": [
    {
      "name": "base_color_texture",
      "sampler": 0,
      "source": 0
    }
  ]
}