{
  "accessors": [
    {
      "bufferView": 0,
      "componentType": 5126,
      "count": 667,
      "max": [
        0.01291745901107788,
        0.013116731308400631,
        0.041637640446424484
      ],
      "min": [
        -0.012917461805045605,
        -0.013116730377078056,
        0.0
      ],
      "name": "soda_open/POSITION",
      "type": "VEC3"
    },
    {
      "bufferView": 0,
      "byteOffset": 12,
      "componentType": 5126,
      "count": 667,
      "name": "soda_open/NORMAL",
      "type": "VEC3"
    },
    {
      "bufferView": 0,
      "byteOffset": 24,
      "componentType": 5126,
      "count": 667,
      "name": "soda_open/TEXCOORD_0",
      "type": "VEC2"
    },
    {
      "bufferView": 1,
      "componentType": 5125,
      "count": 2880,
      "name": "soda_open/INDICES",
      "type": "SCALAR"
    }
  ],
  "asset": {
    "copyright": "Copyright (c) 2018-2020 Chukong Technologies Inc.",
    "generator": "FBX-glTF-conv",
    "version": "2.0"
  },
  "bufferViews": [
    {
      "buffer": 0,
      "byteLength": 21344,
      "byteStride": 32,
      "name": "soda_open",
      "target": 34962
    },
    {
      "buffer": 0,
      "byteLength": 11520,
      "byteOffset": 21344
    }
  ],
  "buffers": [
    {
      "byteLength": 32864,
      "uri": "out.bin"
    }
  ],
  "extras": {
    "FBX-glTF-conv": {
      "animationFrameRate": 30.0
    }
  },
  "images": [
    {
      "extras": {
        "FBX-glTF-conv": {
          "fileName": "D:/Farts Ville/food/textures/soda_d.png",
          "relativeFileName": "textures\\soda_d.png"
        }
      },
      "name": "file17",
      "uri": "data:image/png;base64,"
    }
  ],
  "materials": [
    {
      "name": "soda",
      "pbrMetallicRoughness": {
        "baseColorTexture": {
          "index": 0
        },
        "metallicFactor": 0.4000000059604645,
        "roughnessFactor": 0.27216553688049316
      }
    }
  ],
  "meshes": [
    {
      "name": "soda_open",
      "primitives": [
        {
          "attributes": {
            "NORMAL": 1,
            "POSITION": 0,
            "TEXCOORD_0": 2
          },
          "indices": 3,
          "material": 0
        }
      ]
    }
  ],
  "nodes": [
    {
      "mesh": 0,
      "name": "soda_open",
      "rotation": [
        -0.7071068286895752,
        0.0,
        0.0,
        0.7071067094802856
      ],
      "scale": [
        3.0886099338531494,
        3.0886099338531494,
        3.0886099338531494
      ]
    }
  ],
  "samplers": [
    {}
  ],
  "scenes": [
    {
      "nodes": [
        0
      ]
    }
  ],
  "textures": [
    {
      "name": "file17",
      "sampler": 0,
      "source": 0
    }
  ]
}