{
  "accessors": [
    {
      "bufferView": 0,
      "componentType": 5126,
      "count": 525,
      "max": [
        0.008211755193769932,
        0.00033962499583140016,
        0.008173173293471336
      ],
      "min": [
        -0.008112297393381596,
        -2.5160081804642687e-06,
        -0.008118667639791965
      ],
      "name": "polySurface6/POSITION",
      "type": "VEC3"
    },
    {
      "bufferView": 0,
      "byteOffset": 12,
      "componentType": 5126,
      "count": 525,
      "name": "polySurface6/NORMAL",
      "type": "VEC3"
    },
    {
      "bufferView": 0,
      "byteOffset": 24,
      "componentType": 5126,
      "count": 525,
      "name": "polySurface6/TEXCOORD_0",
      "type": "VEC2"
    },
    {
      "bufferView": 1,
      "componentType": 5125,
      "count": 2619,
      "name": "polySurface6/INDICES",
      "type": "SCALAR"
    }
  ],
  "asset": {
    "copyright": "Copyright (c) 2018-2020 Chukong Technologies Inc.",
    "generator": "FBX-glTF-conv",
    "version": "2.0"
  },
  "bufferViews": [
    {
      "buffer": 0,
      "byteLength": 16800,
      "byteStride": 32,
      "name": "polySurface6",
      "target": 34962
    },
    {
      "buffer": 0,
      "byteLength": 10476,
      "byteOffset": 16800
    }
  ],
  "buffers": [
    {
      "byteLength": 27276,
      "uri": "out.bin"
    }
  ],
  "extras": {
    "FBX-glTF-conv": {
      "animationFrameRate": 24.0
    }
  },
  "images": [
    {
      "extras": {
        "FBX-glTF-conv": {
          "fileName": "F:/Git/cat-escape/cat-escape/Assets/Cat Escape Prop/Texture/Texture.jpg",
          "relativeFileName": "..\\..\\Texture\\Texture.jpg"
        }
      },
      "name": "base_color_texture",
      "uri": "data:image/png;base64,"
    }
  ],
  "materials": [
    {
      "name": "Enviroment1",
      "pbrMetallicRoughness": {
        "baseColorTexture": {
          "index": 0
        },
        "metallicFactor": 0.4000000059604645,
        "roughnessFactor": 0.30151134729385376
      }
    }
  ],
  "meshes": [
    {
      "name": "polySurface6",
      "primitives": [
        {
          "attributes": {
            "NORMAL": 1,
            "POSITION": 0,
            "TEXCOORD_0": 2
          },
          "indices": 3,
          "material": 0
        }
      ]
    }
  ],
  "nodes": [
    {
      "children": [
        1,
        3,
        5,
        7,
        9
      ],
      "name": "carpet1"
    },
    {
      "children": [
        2
      ],
      "name": "polySurface5"
    },
    {
      "name": "transform2"
    },
    {
      "children": [
        4
      ],
      "name": "polySurface6"
    },
    {
      "name": "transform5"
    },
    {
      "children": [
        6
      ],
      "name": "polySurface7"
    },
    {
      "name": "transform3"
    },
    {
      "children": [
        8
      ],
      "name": "polySurface9"
    },
    {
      "name": "transform4"
    },
    {
      "name": "transform1"
    },
    {
      "mesh": 0,
      "name": "polySurface6"
    }
  ],
  "samplers": [
    {}
  ],
  "scenes": [
    {
      "nodes": [
        0,
        10
      ]
    }
  ],
  "textures": [
    {
      "name": "base_color_texture",
      "sampler": 0,
      "source": 0
    }
  ]
}