{
  "accessors": [
    {
      "bufferView": 0,
      "componentType": 5126,
      "count": 430,
      "max": [
        0.008577626198530197,
        0.01465408131480217,
        0.004377518780529499
      ],
      "min": [
        -0.008274284191429615,
        1.1382987395336386e-05,
        -0.004198386333882809
      ],
      "name": "tablePC_on/POSITION",
      "type": "VEC3"
    },
    {
      "bufferView": 0,
      "byteOffset": 12,
      "componentType": 5126,
      "count": 430,
      "name": "tablePC_on/NORMAL",
      "type": "VEC3"
    },
    {
      "bufferView": 0,
      "byteOffset": 24,
      "componentType": 5126,
      "count": 430,
      "name": "tablePC_on/TEXCOORD_0",
      "type": "VEC2"
    },
    {
      "bufferView": 1,
      "componentType": 5125,
      "count": 636,
      "name": "tablePC_on/INDICES",
      "type": "SCALAR"
    }
  ],
  "asset": {
    "copyright": "Copyright (c) 2018-2020 Chukong Technologies Inc.",
    "generator": "FBX-glTF-conv",
    "version": "2.0"
  },
  "bufferViews": [
    {
      "buffer": 0,
      "byteLength": 13760,
      "byteStride": 32,
      "name": "tablePC_on",
      "target": 34962
    },
    {
      "buffer": 0,
      "byteLength": 2544,
      "byteOffset": 13760
    }
  ],
  "buffers": [
    {
      "byteLength": 16304,
      "uri": "out.bin"
    }
  ],
  "extras": {
    "FBX-glTF-conv": {
      "animationFrameRate": 25.0
    }
  },
  "images": [
    {
      "extras": {
        "FBX-glTF-conv": {
          "fileName": "C:\\Users\\Admin\\Desktop\\Cat Escape\\Texture.jpg",
          "relativeFileName": "C:\\Users\\Admin\\Desktop\\Cat Escape\\Texture.jpg"
        }
      },
      "name": "base_color_texture",
      "uri": "data:image/png;base64,"
    }
  ],
  "materials": [
    {
      "name": "Mat_Environment",
      "pbrMetallicRoughness": {
        "baseColorTexture": {
          "index": 0
        },
        "metallicFactor": 0.4000000059604645
      }
    }
  ],
  "meshes": [
    {
      "name": "tablePC_on",
      "primitives": [
        {
          "attributes": {
            "NORMAL": 1,
            "POSITION": 0,
            "TEXCOORD_0": 2
          },
          "indices": 3,
          "material": 0
        }
      ]
    }
  ],
  "nodes": [
    {
      "mesh": 0,
      "name": "tablePC_on"
    }
  ],
  "samplers": [
    {}
  ],
  "scenes": [
    {
      "name": "Scene",
      "nodes": [
        0
      ]
    }
  ],
  "textures": [
    {
      "name": "base_color_texture",
      "sampler": 0,
      "source": 0
    }
  ]
}