{
  "accessors": [
    {
      "bufferView": 0,
      "componentType": 5126,
      "count": 89,
      "max": [
        2.933333396911621
      ],
      "min": [
        0.0
      ],
      "name": "Hips/Trs/Input",
      "type": "SCALAR"
    },
    {
      "bufferView": 1,
      "componentType": 5126,
      "count": 89,
      "name": "Hips/translation/Output",
      "type": "VEC3"
    },
    {
      "bufferView": 2,
      "componentType": 5126,
      "count": 89,
      "name": "Hips/rotation/Output",
      "type": "VEC4"
    },
    {
      "bufferView": 3,
      "componentType": 5126,
      "count": 89,
      "max": [
        2.933333396911621
      ],
      "min": [
        0.0
      ],
      "name": "LeftUpLeg/Trs/Input",
      "type": "SCALAR"
    },
    {
      "bufferView": 4,
      "componentType": 5126,
      "count": 89,
      "name": "LeftUpLeg/rotation/Output",
      "type": "VEC4"
    },
    {
      "bufferView": 5,
      "componentType": 5126,
      "count": 89,
      "max": [
        2.933333396911621
      ],
      "min": [
        0.0
      ],
      "name": "LeftLeg/Trs/Input",
      "type": "SCALAR"
    },
    {
      "bufferView": 6,
      "componentType": 5126,
      "count": 89,
      "name": "LeftLeg/rotation/Output",
      "type": "VEC4"
    },
    {
      "bufferView": 7,
      "componentType": 5126,
      "count": 89,
      "max": [
        2.933333396911621
      ],
      "min": [
        0.0
      ],
      "name": "LeftFoot/Trs/Input",
      "type": "SCALAR"
    },
    {
      "bufferView": 8,
      "componentType": 5126,
      "count": 89,
      "name": "LeftFoot/rotation/Output",
      "type": "VEC4"
    },
    {
      "bufferView": 9,
      "componentType": 5126,
      "count": 89,
      "max": [
        2.933333396911621
      ],
      "min": [
        0.0
      ],
      "name": "RightUpLeg/Trs/Input",
      "type": "SCALAR"
    },
    {
      "bufferView": 10,
      "componentType": 5126,
      "count": 89,
      "name": "RightUpLeg/rotation/Output",
      "type": "VEC4"
    },
    {
      "bufferView": 11,
      "componentType": 5126,
      "count": 89,
      "max": [
        2.933333396911621
      ],
      "min": [
        0.0
      ],
      "name": "RightLeg/Trs/Input",
      "type": "SCALAR"
    },
    {
      "bufferView": 12,
      "componentType": 5126,
      "count": 89,
      "name": "RightLeg/rotation/Output",
      "type": "VEC4"
    },
    {
      "bufferView": 13,
      "componentType": 5126,
      "count": 89,
      "max": [
        2.933333396911621
      ],
      "min": [
        0.0
      ],
      "name": "RightFoot/Trs/Input",
      "type": "SCALAR"
    },
    {
      "bufferView": 14,
      "componentType": 5126,
      "count": 89,
      "name": "RightFoot/rotation/Output",
      "type": "VEC4"
    },
    {
      "bufferView": 15,
      "componentType": 5126,
      "count": 89,
      "max": [
        2.933333396911621
      ],
      "min": [
        0.0
      ],
      "name": "Spine/Trs/Input",
      "type": "SCALAR"
    },
    {
      "bufferView": 16,
      "componentType": 5126,
      "count": 89,
      "name": "Spine/rotation/Output",
      "type": "VEC4"
    },
    {
      "bufferView": 17,
      "componentType": 5126,
      "count": 89,
      "max": [
        2.933333396911621
      ],
      "min": [
        0.0
      ],
      "name": "LeftShoulder/Trs/Input",
      "type": "SCALAR"
    },
    {
      "bufferView": 18,
      "componentType": 5126,
      "count": 89,
      "name": "LeftShoulder/rotation/Output",
      "type": "VEC4"
    },
    {
      "bufferView": 19,
      "componentType": 5126,
      "count": 89,
      "max": [
        2.933333396911621
      ],
      "min": [
        0.0
      ],
      "name": "LeftArm/Trs/Input",
      "type": "SCALAR"
    },
    {
      "bufferView": 20,
      "componentType": 5126,
      "count": 89,
      "name": "LeftArm/rotation/Output",
      "type": "VEC4"
    },
    {
      "bufferView": 21,
      "componentType": 5126,
      "count": 89,
      "max": [
        2.933333396911621
      ],
      "min": [
        0.0
      ],
      "name": "LeftForeArm/Trs/Input",
      "type": "SCALAR"
    },
    {
      "bufferView": 22,
      "componentType": 5126,
      "count": 89,
      "name": "LeftForeArm/rotation/Output",
      "type": "VEC4"
    },
    {
      "bufferView": 23,
      "componentType": 5126,
      "count": 89,
      "max": [
        2.933333396911621
      ],
      "min": [
        0.0
      ],
      "name": "RightShoulder/Trs/Input",
      "type": "SCALAR"
    },
    {
      "bufferView": 24,
      "componentType": 5126,
      "count": 89,
      "name": "RightShoulder/rotation/Output",
      "type": "VEC4"
    },
    {
      "bufferView": 25,
      "componentType": 5126,
      "count": 89,
      "max": [
        2.933333396911621
      ],
      "min": [
        0.0
      ],
      "name": "RightArm/Trs/Input",
      "type": "SCALAR"
    },
    {
      "bufferView": 26,
      "componentType": 5126,
      "count": 89,
      "name": "RightArm/rotation/Output",
      "type": "VEC4"
    },
    {
      "bufferView": 27,
      "componentType": 5126,
      "count": 89,
      "max": [
        2.933333396911621
      ],
      "min": [
        0.0
      ],
      "name": "RightForeArm/Trs/Input",
      "type": "SCALAR"
    },
    {
      "bufferView": 28,
      "componentType": 5126,
      "count": 89,
      "name": "RightForeArm/rotation/Output",
      "type": "VEC4"
    },
    {
      "bufferView": 29,
      "componentType": 5126,
      "count": 89,
      "max": [
        2.933333396911621
      ],
      "min": [
        0.0
      ],
      "name": "Neck/Trs/Input",
      "type": "SCALAR"
    },
    {
      "bufferView": 30,
      "componentType": 5126,
      "count": 89,
      "name": "Neck/rotation/Output",
      "type": "VEC4"
    }
  ],
  "animations": [
    {
      "channels": [
        {
          "sampler": 0,
          "target": {
            "node": 0,
            "path": "translation"
          }
        },
        {
          "sampler": 1,
          "target": {
            "node": 0,
            "path": "rotation"
          }
        },
        {
          "sampler": 2,
          "target": {
            "node": 1,
            "path": "rotation"
          }
        },
        {
          "sampler": 3,
          "target": {
            "node": 2,
            "path": "rotation"
          }
        },
        {
          "sampler": 4,
          "target": {
            "node": 3,
            "path": "rotation"
          }
        },
        {
          "sampler": 5,
          "target": {
            "node": 5,
            "path": "rotation"
          }
        },
        {
          "sampler": 6,
          "target": {
            "node": 6,
            "path": "rotation"
          }
        },
        {
          "sampler": 7,
          "target": {
            "node": 7,
            "path": "rotation"
          }
        },
        {
          "sampler": 8,
          "target": {
            "node": 9,
            "path": "rotation"
          }
        },
        {
          "sampler": 9,
          "target": {
            "node": 10,
            "path": "rotation"
          }
        },
        {
          "sampler": 10,
          "target": {
            "node": 11,
            "path": "rotation"
          }
        },
        {
          "sampler": 11,
          "target": {
            "node": 12,
            "path": "rotation"
          }
        },
        {
          "sampler": 12,
          "target": {
            "node": 14,
            "path": "rotation"
          }
        },
        {
          "sampler": 13,
          "target": {
            "node": 15,
            "path": "rotation"
          }
        },
        {
          "sampler": 14,
          "target": {
            "node": 16,
            "path": "rotation"
          }
        },
        {
          "sampler": 15,
          "target": {
            "node": 18,
            "path": "rotation"
          }
        }
      ],
      "name": "mixamo.com",
      "samplers": [
        {
          "input": 0,
          "output": 1
        },
        {
          "input": 0,
          "output": 2
        },
        {
          "input": 3,
          "output": 4
        },
        {
          "input": 5,
          "output": 6
        },
        {
          "input": 7,
          "output": 8
        },
        {
          "input": 9,
          "output": 10
        },
        {
          "input": 11,
          "output": 12
        },
        {
          "input": 13,
          "output": 14
        },
        {
          "input": 15,
          "output": 16
        },
        {
          "input": 17,
          "output": 18
        },
        {
          "input": 19,
          "output": 20
        },
        {
          "input": 21,
          "output": 22
        },
        {
          "input": 23,
          "output": 24
        },
        {
          "input": 25,
          "output": 26
        },
        {
          "input": 27,
          "output": 28
        },
        {
          "input": 29,
          "output": 30
        }
      ]
    }
  ],
  "asset": {
    "copyright": "Copyright (c) 2018-2020 Chukong Technologies Inc.",
    "generator": "FBX-glTF-conv",
    "version": "2.0"
  },
  "bufferViews": [
    {
      "buffer": 0,
      "byteLength": 356
    },
    {
      "buffer": 0,
      "byteLength": 1068,
      "byteOffset": 356
    },
    {
      "buffer": 0,
      "byteLength": 1424,
      "byteOffset": 1424
    },
    {
      "buffer": 0,
      "byteLength": 356,
      "byteOffset": 2848
    },
    {
      "buffer": 0,
      "byteLength": 1424,
      "byteOffset": 3204
    },
    {
      "buffer": 0,
      "byteLength": 356,
      "byteOffset": 4628
    },
    {
      "buffer": 0,
      "byteLength": 1424,
      "byteOffset": 4984
    },
    {
      "buffer": 0,
      "byteLength": 356,
      "byteOffset": 6408
    },
    {
      "buffer": 0,
      "byteLength": 1424,
      "byteOffset": 6764
    },
    {
      "buffer": 0,
      "byteLength": 356,
      "byteOffset": 8188
    },
    {
      "buffer": 0,
      "byteLength": 1424,
      "byteOffset": 8544
    },
    {
      "buffer": 0,
      "byteLength": 356,
      "byteOffset": 9968
    },
    {
      "buffer": 0,
      "byteLength": 1424,
      "byteOffset": 10324
    },
    {
      "buffer": 0,
      "byteLength": 356,
      "byteOffset": 11748
    },
    {
      "buffer": 0,
      "byteLength": 1424,
      "byteOffset": 12104
    },
    {
      "buffer": 0,
      "byteLength": 356,
      "byteOffset": 13528
    },
    {
      "buffer": 0,
      "byteLength": 1424,
      "byteOffset": 13884
    },
    {
      "buffer": 0,
      "byteLength": 356,
      "byteOffset": 15308
    },
    {
      "buffer": 0,
      "byteLength": 1424,
      "byteOffset": 15664
    },
    {
      "buffer": 0,
      "byteLength": 356,
      "byteOffset": 17088
    },
    {
      "buffer": 0,
      "byteLength": 1424,
      "byteOffset": 17444
    },
    {
      "buffer": 0,
      "byteLength": 356,
      "byteOffset": 18868
    },
    {
      "buffer": 0,
      "byteLength": 1424,
      "byteOffset": 19224
    },
    {
      "buffer": 0,
      "byteLength": 356,
      "byteOffset": 20648
    },
    {
      "buffer": 0,
      "byteLength": 1424,
      "byteOffset": 21004
    },
    {
      "buffer": 0,
      "byteLength": 356,
      "byteOffset": 22428
    },
    {
      "buffer": 0,
      "byteLength": 1424,
      "byteOffset": 22784
    },
    {
      "buffer": 0,
      "byteLength": 356,
      "byteOffset": 24208
    },
    {
      "buffer": 0,
      "byteLength": 1424,
      "byteOffset": 24564
    },
    {
      "buffer": 0,
      "byteLength": 356,
      "byteOffset": 25988
    },
    {
      "buffer": 0,
      "byteLength": 1424,
      "byteOffset": 26344
    }
  ],
  "buffers": [
    {
      "byteLength": 27768,
      "uri": "out.bin"
    }
  ],
  "extras": {
    "FBX-glTF-conv": {
      "animationFrameRate": 30.0
    }
  },
  "nodes": [
    {
      "children": [
        1,
        5,
        9
      ],
      "extras": {
        "FBX-glTF-conv": {
          "skeleton": {
            "skeletonType": "LimbNode"
          }
        }
      },
      "name": "Hips",
      "rotation": [
        0.4949474036693573,
        0.5050020813941956,
        0.4949474036693573,
        0.5050020813941956
      ],
      "translation": [
        0.0,
        0.0506608672440052,
        0.0
      ]
    },
    {
      "children": [
        2
      ],
      "extras": {
        "FBX-glTF-conv": {
          "skeleton": {
            "skeletonType": "LimbNode"
          }
        }
      },
      "name": "LeftUpLeg",
      "rotation": [
        0.00021744161495007575,
        -0.005486289970576763,
        0.9997215270996094,
        0.022949976846575737
      ],
      "translation": [
        -0.004040000028908253,
        -7.200000254670158e-05,
        0.006864000111818314
      ]
    },
    {
      "children": [
        3
      ],
      "extras": {
        "FBX-glTF-conv": {
          "skeleton": {
            "skeletonType": "LimbNode"
          }
        }
      },
      "name": "LeftLeg",
      "rotation": [
        0.0016392990946769714,
        0.00010016136366175488,
        0.05939514562487602,
        0.9982331991195679
      ],
      "translation": [
        0.01996999979019165,
        0.0,
        -1.1102229998097382e-18
      ]
    },
    {
      "children": [
        4
      ],
      "extras": {
        "FBX-glTF-conv": {
          "skeleton": {
            "skeletonType": "LimbNode"
          }
        }
      },
      "name": "LeftFoot",
      "rotation": [
        0.0013001696206629276,
        -0.0002797474153339863,
        -0.6196655035018921,
        0.7848648428916931
      ],
      "translation": [
        0.022004999220371246,
        -6.938893748810864e-20,
        0.0
      ]
    },
    {
      "extras": {
        "FBX-glTF-conv": {
          "skeleton": {
            "skeletonType": "LimbNode"
          }
        }
      },
      "name": "LeftToeBase",
      "translation": [
        0.01577400043606758,
        -5.551114999048691e-19,
        -1.1102229998097382e-18
      ]
    },
    {
      "children": [
        6
      ],
      "extras": {
        "FBX-glTF-conv": {
          "skeleton": {
            "skeletonType": "LimbNode"
          }
        }
      },
      "name": "RightUpLeg",
      "rotation": [
        -0.005486348178237677,
        -0.00021743982506450266,
        -0.022953465580940247,
        0.9997214674949646
      ],
      "translation": [
        -0.004040000028908253,
        -7.200000254670158e-05,
        -0.006864000111818314
      ]
    },
    {
      "children": [
        7
      ],
      "extras": {
        "FBX-glTF-conv": {
          "skeleton": {
            "skeletonType": "LimbNode"
          }
        }
      },
      "name": "RightLeg",
      "rotation": [
        0.001662819180637598,
        0.00010156517964787781,
        0.059397753328084946,
        0.9982330203056335
      ],
      "translation": [
        -0.01996999979019165,
        0.0,
        0.0
      ]
    },
    {
      "children": [
        8
      ],
      "extras": {
        "FBX-glTF-conv": {
          "skeleton": {
            "skeletonType": "LimbNode"
          }
        }
      },
      "name": "RightFoot",
      "rotation": [
        0.0012817785609513521,
        -0.00029517101938836277,
        -0.6196647882461548,
        0.7848654389381409
      ],
      "translation": [
        -0.022004999220371246,
        -3.4694470036524025e-19,
        1.1102229998097382e-18
      ]
    },
    {
      "extras": {
        "FBX-glTF-conv": {
          "skeleton": {
            "skeletonType": "LimbNode"
          }
        }
      },
      "name": "RightToeBase",
      "rotation": [
        2.5307273972430266e-05,
        4.336808689942018e-19,
        -1.0975280568237903e-23,
        1.0
      ],
      "translation": [
        -0.01577400043606758,
        -5.551114999048691e-19,
        -1.1102229998097382e-18
      ]
    },
    {
      "children": [
        10,
        14,
        18
      ],
      "extras": {
        "FBX-glTF-conv": {
          "skeleton": {
            "skeletonType": "LimbNode"
          }
        }
      },
      "name": "Spine",
      "rotation": [
        1.1511362711633266e-32,
        7.576271210664852e-33,
        0.11816307157278061,
        0.9929941892623901
      ],
      "translation": [
        0.009511999785900116,
        0.0,
        -4.930380547428728e-34
      ]
    },
    {
      "children": [
        11
      ],
      "extras": {
        "FBX-glTF-conv": {
          "skeleton": {
            "skeletonType": "LimbNode"
          }
        }
      },
      "name": "LeftShoulder",
      "rotation": [
        0.5523695945739746,
        0.44146105647087097,
        0.5499312281608582,
        -0.4444948434829712
      ],
      "translation": [
        0.0036619999445974827,
        -0.0009510000236332417,
        0.006068999879062176
      ]
    },
    {
      "children": [
        12
      ],
      "extras": {
        "FBX-glTF-conv": {
          "skeleton": {
            "skeletonType": "LimbNode"
          }
        }
      },
      "name": "LeftArm",
      "rotation": [
        0.7047023177146912,
        -0.0019395037088543177,
        -0.001952701830305159,
        0.7094977498054504
      ],
      "translation": [
        0.005320999771356583,
        8.881783998477905e-18,
        0.0
      ]
    },
    {
      "children": [
        13
      ],
      "extras": {
        "FBX-glTF-conv": {
          "skeleton": {
            "skeletonType": "LimbNode"
          }
        }
      },
      "name": "LeftForeArm",
      "translation": [
        0.019008999690413475,
        -6.938893748810864e-20,
        8.881783998477905e-18
      ]
    },
    {
      "extras": {
        "FBX-glTF-conv": {
          "skeleton": {
            "skeletonType": "LimbNode"
          }
        }
      },
      "name": "LeftHand",
      "translation": [
        0.01774599961936474,
        0.0,
        -8.881783998477905e-18
      ]
    },
    {
      "children": [
        15
      ],
      "extras": {
        "FBX-glTF-conv": {
          "skeleton": {
            "skeletonType": "LimbNode"
          }
        }
      },
      "name": "RightShoulder",
      "rotation": [
        0.44146105647087097,
        -0.5523695945739746,
        0.4444948434829712,
        0.5499312281608582
      ],
      "translation": [
        0.0036619999445974827,
        -0.0009510000236332417,
        -0.006068999879062176
      ]
    },
    {
      "children": [
        16
      ],
      "extras": {
        "FBX-glTF-conv": {
          "skeleton": {
            "skeletonType": "LimbNode"
          }
        }
      },
      "name": "RightArm",
      "rotation": [
        0.7047024369239807,
        -0.0019395040581002831,
        -0.0019527014810591936,
        0.7094976305961609
      ],
      "translation": [
        -0.005320999771356583,
        0.0,
        0.0
      ]
    },
    {
      "children": [
        17
      ],
      "extras": {
        "FBX-glTF-conv": {
          "skeleton": {
            "skeletonType": "LimbNode"
          }
        }
      },
      "name": "RightForeArm",
      "translation": [
        -0.019008999690413475,
        0.0,
        0.0
      ]
    },
    {
      "extras": {
        "FBX-glTF-conv": {
          "skeleton": {
            "skeletonType": "LimbNode"
          }
        }
      },
      "name": "RightHand",
      "translation": [
        -0.01774599961936474,
        0.0,
        0.0
      ]
    },
    {
      "children": [
        19
      ],
      "extras": {
        "FBX-glTF-conv": {
          "skeleton": {
            "skeletonType": "LimbNode"
          }
        }
      },
      "name": "Neck",
      "rotation": [
        1.6449534932043366e-18,
        -1.957440977027309e-19,
        -0.11447595804929733,
        0.9934260249137878
      ],
      "translation": [
        0.008205000311136246,
        0.0,
        -4.930380547428728e-34
      ]
    },
    {
      "extras": {
        "FBX-glTF-conv": {
          "skeleton": {
            "skeletonType": "LimbNode"
          }
        }
      },
      "name": "Head",
      "translation": [
        0.020541999489068985,
        0.0,
        0.0
      ]
    }
  ],
  "scenes": [
    {
      "nodes": [
        0
      ]
    }
  ]
}