{
  "accessors": [
    {
      "bufferView": 0,
      "componentType": 5126,
      "count": 823,
      "max": [
        0.005594864021986723,
        0.018475189805030823,
        0.008681869134306908
      ],
      "min": [
        -0.005594864021986723,
        -1.6203672203118913e-05,
        -1.1071413609897718e-05
      ],
      "name": "ArcadeMachine/POSITION",
      "type": "VEC3"
    },
    {
      "bufferView": 0,
      "byteOffset": 12,
      "componentType": 5126,
      "count": 823,
      "name": "ArcadeMachine/NORMAL",
      "type": "VEC3"
    },
    {
      "bufferView": 0,
      "byteOffset": 24,
      "componentType": 5126,
      "count": 823,
      "name": "ArcadeMachine/TEXCOORD_0",
      "type": "VEC2"
    },
    {
      "bufferView": 1,
      "componentType": 5125,
      "count": 2934,
      "name": "ArcadeMachine/INDICES",
      "type": "SCALAR"
    }
  ],
  "asset": {
    "copyright": "Copyright (c) 2018-2020 Chukong Technologies Inc.",
    "generator": "FBX-glTF-conv",
    "version": "2.0"
  },
  "bufferViews": [
    {
      "buffer": 0,
      "byteLength": 26336,
      "byteStride": 32,
      "name": "ArcadeMachine",
      "target": 34962
    },
    {
      "buffer": 0,
      "byteLength": 11736,
      "byteOffset": 26336
    }
  ],
  "buffers": [
    {
      "byteLength": 38072,
      "uri": "out.bin"
    }
  ],
  "extras": {
    "FBX-glTF-conv": {
      "animationFrameRate": 24.0
    }
  },
  "images": [
    {
      "extras": {
        "FBX-glTF-conv": {
          "fileName": "D:/Maya_projects/Cat_escape/sourceimages/Texture.jpg",
          "relativeFileName": "..\\..\\sourceimages\\Texture.jpg"
        }
      },
      "name": "file1",
      "uri": "data:image/png;base64,"
    }
  ],
  "materials": [
    {
      "name": "Megatexture",
      "pbrMetallicRoughness": {
        "baseColorFactor": [
          0.800000011920929,
          0.800000011920929,
          0.800000011920929,
          1.0
        ],
        "baseColorTexture": {
          "index": 0
        },
        "metallicFactor": 0.4000000059604645,
        "roughnessFactor": 0.49053239822387695
      }
    }
  ],
  "meshes": [
    {
      "name": "ArcadeMachine",
      "primitives": [
        {
          "attributes": {
            "NORMAL": 1,
            "POSITION": 0,
            "TEXCOORD_0": 2
          },
          "indices": 3,
          "material": 0
        }
      ]
    }
  ],
  "nodes": [
    {
      "mesh": 0,
      "name": "ArcadeMachine"
    }
  ],
  "samplers": [
    {}
  ],
  "scenes": [
    {
      "nodes": [
        0
      ]
    }
  ],
  "textures": [
    {
      "name": "file1",
      "sampler": 0,
      "source": 0
    }
  ]
}