{
  "accessors": [
    {
      "bufferView": 0,
      "componentType": 5126,
      "count": 521,
      "max": [
        0.004063944332301617,
        0.008287928998470306,
        0.004392784554511309
      ],
      "min": [
        -0.004011399112641811,
        3.1613348255632445e-05,
        -0.004166778642684221
      ],
      "name": "polySurface22/POSITION",
      "type": "VEC3"
    },
    {
      "bufferView": 0,
      "byteOffset": 12,
      "componentType": 5126,
      "count": 521,
      "name": "polySurface22/NORMAL",
      "type": "VEC3"
    },
    {
      "bufferView": 0,
      "byteOffset": 24,
      "componentType": 5126,
      "count": 521,
      "name": "polySurface22/TEXCOORD_0",
      "type": "VEC2"
    },
    {
      "bufferView": 1,
      "componentType": 5125,
      "count": 1128,
      "name": "polySurface22/INDICES",
      "type": "SCALAR"
    }
  ],
  "asset": {
    "copyright": "Copyright (c) 2018-2020 Chukong Technologies Inc.",
    "generator": "FBX-glTF-conv",
    "version": "2.0"
  },
  "bufferViews": [
    {
      "buffer": 0,
      "byteLength": 16672,
      "byteStride": 32,
      "name": "polySurface22",
      "target": 34962
    },
    {
      "buffer": 0,
      "byteLength": 4512,
      "byteOffset": 16672
    }
  ],
  "buffers": [
    {
      "byteLength": 21184,
      "uri": "out.bin"
    }
  ],
  "extras": {
    "FBX-glTF-conv": {
      "animationFrameRate": 24.0
    }
  },
  "images": [
    {
      "extras": {
        "FBX-glTF-conv": {
          "fileName": "C:\\Users\\Admin\\Desktop\\Texture.jpg",
          "relativeFileName": "C:\\Users\\Admin\\Desktop\\Texture.jpg"
        }
      },
      "name": "base_color_texture",
      "uri": "data:image/png;base64,"
    }
  ],
  "materials": [
    {
      "name": "Enviroment1",
      "pbrMetallicRoughness": {
        "baseColorTexture": {
          "index": 0
        },
        "metallicFactor": 0.4000000059604645,
        "roughnessFactor": 0.30151134729385376
      }
    }
  ],
  "meshes": [
    {
      "name": "polySurface22",
      "primitives": [
        {
          "attributes": {
            "NORMAL": 1,
            "POSITION": 0,
            "TEXCOORD_0": 2
          },
          "indices": 3,
          "material": 0
        }
      ]
    }
  ],
  "nodes": [
    {
      "children": [
        1,
        3,
        5,
        7,
        9,
        11,
        13,
        15,
        17,
        19,
        21,
        23,
        25,
        27,
        29,
        31,
        33,
        35,
        37,
        39,
        41,
        43,
        45
      ],
      "name": "safe"
    },
    {
      "children": [
        2
      ],
      "name": "polySurface1"
    },
    {
      "name": "transform13"
    },
    {
      "children": [
        4
      ],
      "name": "polySurface2"
    },
    {
      "name": "transform18"
    },
    {
      "children": [
        6
      ],
      "name": "polySurface3"
    },
    {
      "name": "transform6"
    },
    {
      "children": [
        8
      ],
      "name": "polySurface4"
    },
    {
      "name": "transform19"
    },
    {
      "children": [
        10
      ],
      "name": "polySurface5"
    },
    {
      "name": "transform4"
    },
    {
      "children": [
        12
      ],
      "name": "polySurface6"
    },
    {
      "name": "transform20"
    },
    {
      "children": [
        14
      ],
      "name": "polySurface7"
    },
    {
      "name": "transform2"
    },
    {
      "children": [
        16
      ],
      "name": "polySurface8"
    },
    {
      "name": "transform17"
    },
    {
      "children": [
        18
      ],
      "name": "polySurface9"
    },
    {
      "name": "transform9"
    },
    {
      "children": [
        20
      ],
      "name": "polySurface10"
    },
    {
      "name": "transform10"
    },
    {
      "children": [
        22
      ],
      "name": "polySurface11"
    },
    {
      "name": "transform14"
    },
    {
      "children": [
        24
      ],
      "name": "polySurface12"
    },
    {
      "name": "transform8"
    },
    {
      "children": [
        26
      ],
      "name": "polySurface13"
    },
    {
      "name": "transform3"
    },
    {
      "children": [
        28
      ],
      "name": "polySurface14"
    },
    {
      "name": "transform7"
    },
    {
      "children": [
        30
      ],
      "name": "polySurface15"
    },
    {
      "name": "transform22"
    },
    {
      "children": [
        32
      ],
      "name": "polySurface16"
    },
    {
      "name": "transform11"
    },
    {
      "children": [
        34
      ],
      "name": "polySurface17"
    },
    {
      "name": "transform15"
    },
    {
      "children": [
        36
      ],
      "name": "polySurface18"
    },
    {
      "name": "transform16"
    },
    {
      "children": [
        38
      ],
      "name": "polySurface19"
    },
    {
      "name": "transform5"
    },
    {
      "children": [
        40
      ],
      "name": "polySurface20"
    },
    {
      "name": "transform21"
    },
    {
      "children": [
        42
      ],
      "name": "polySurface21"
    },
    {
      "name": "transform12"
    },
    {
      "children": [
        44
      ],
      "name": "polySurface22"
    },
    {
      "name": "transform23"
    },
    {
      "name": "transform1"
    },
    {
      "mesh": 0,
      "name": "polySurface22"
    }
  ],
  "samplers": [
    {}
  ],
  "scenes": [
    {
      "nodes": [
        0,
        46
      ]
    }
  ],
  "textures": [
    {
      "name": "base_color_texture",
      "sampler": 0,
      "source": 0
    }
  ]
}