{
  "accessors": [
    {
      "bufferView": 0,
      "componentType": 5126,
      "count": 620,
      "max": [
        0.0045495787635445595,
        0.008207093924283981,
        0.0049368711188435555
      ],
      "min": [
        -0.004550213925540447,
        0.0,
        -0.0049368711188435555
      ],
      "name": "crate/POSITION",
      "type": "VEC3"
    },
    {
      "bufferView": 0,
      "byteOffset": 12,
      "componentType": 5126,
      "count": 620,
      "name": "crate/NORMAL",
      "type": "VEC3"
    },
    {
      "bufferView": 0,
      "byteOffset": 24,
      "componentType": 5126,
      "count": 620,
      "name": "crate/TEXCOORD_0",
      "type": "VEC2"
    },
    {
      "bufferView": 1,
      "componentType": 5125,
      "count": 1164,
      "name": "crate/INDICES",
      "type": "SCALAR"
    },
    {
      "bufferView": 2,
      "componentType": 5126,
      "count": 24,
      "max": [
        0.0017324008513242006,
        0.000396738265408203,
        -0.01767735928297043
      ],
      "min": [
        -0.0017324008513242006,
        -3.111306004499603e-11,
        -0.020867016166448593
      ],
      "name": "Point01/POSITION",
      "type": "VEC3"
    },
    {
      "bufferView": 2,
      "byteOffset": 12,
      "componentType": 5126,
      "count": 24,
      "name": "Point01/NORMAL",
      "type": "VEC3"
    },
    {
      "bufferView": 2,
      "byteOffset": 24,
      "componentType": 5126,
      "count": 24,
      "name": "Point01/TEXCOORD_0",
      "type": "VEC2"
    },
    {
      "bufferView": 3,
      "componentType": 5125,
      "count": 36,
      "name": "Point01/INDICES",
      "type": "SCALAR"
    },
    {
      "bufferView": 4,
      "componentType": 5126,
      "count": 24,
      "max": [
        0.0017324008513242006,
        0.000396738265408203,
        0.020867014303803444
      ],
      "min": [
        -0.0017324008513242006,
        -3.111306004499603e-11,
        0.01767735742032528
      ],
      "name": "Point02/POSITION",
      "type": "VEC3"
    },
    {
      "bufferView": 4,
      "byteOffset": 12,
      "componentType": 5126,
      "count": 24,
      "name": "Point02/NORMAL",
      "type": "VEC3"
    },
    {
      "bufferView": 4,
      "byteOffset": 24,
      "componentType": 5126,
      "count": 24,
      "name": "Point02/TEXCOORD_0",
      "type": "VEC2"
    },
    {
      "bufferView": 5,
      "componentType": 5125,
      "count": 36,
      "name": "Point02/INDICES",
      "type": "SCALAR"
    },
    {
      "bufferView": 6,
      "componentType": 5126,
      "count": 24,
      "max": [
        0.000968712440226227,
        0.0006882388261146843,
        0.019148865714669228
      ],
      "min": [
        -0.000969447661191225,
        -8.400526385621276e-10,
        -0.01947658136487007
      ],
      "name": "Rail/POSITION",
      "type": "VEC3"
    },
    {
      "bufferView": 6,
      "byteOffset": 12,
      "componentType": 5126,
      "count": 24,
      "name": "Rail/NORMAL",
      "type": "VEC3"
    },
    {
      "bufferView": 6,
      "byteOffset": 24,
      "componentType": 5126,
      "count": 24,
      "name": "Rail/TEXCOORD_0",
      "type": "VEC2"
    },
    {
      "bufferView": 7,
      "componentType": 5125,
      "count": 36,
      "name": "Rail/INDICES",
      "type": "SCALAR"
    }
  ],
  "asset": {
    "copyright": "Copyright (c) 2018-2020 Chukong Technologies Inc.",
    "generator": "FBX-glTF-conv",
    "version": "2.0"
  },
  "bufferViews": [
    {
      "buffer": 0,
      "byteLength": 19840,
      "byteStride": 32,
      "name": "crate",
      "target": 34962
    },
    {
      "buffer": 0,
      "byteLength": 4656,
      "byteOffset": 19840
    },
    {
      "buffer": 0,
      "byteLength": 768,
      "byteOffset": 24496,
      "byteStride": 32,
      "name": "Point01",
      "target": 34962
    },
    {
      "buffer": 0,
      "byteLength": 144,
      "byteOffset": 25264
    },
    {
      "buffer": 0,
      "byteLength": 768,
      "byteOffset": 25408,
      "byteStride": 32,
      "name": "Point02",
      "target": 34962
    },
    {
      "buffer": 0,
      "byteLength": 144,
      "byteOffset": 26176
    },
    {
      "buffer": 0,
      "byteLength": 768,
      "byteOffset": 26320,
      "byteStride": 32,
      "name": "Rail",
      "target": 34962
    },
    {
      "buffer": 0,
      "byteLength": 144,
      "byteOffset": 27088
    }
  ],
  "buffers": [
    {
      "byteLength": 27232,
      "uri": "out.bin"
    }
  ],
  "extras": {
    "FBX-glTF-conv": {
      "animationFrameRate": 30.0
    }
  },
  "images": [
    {
      "extras": {
        "FBX-glTF-conv": {
          "fileName": "C:\\Users\\Admin\\Desktop\\Cat Escape\\Texture.jpg",
          "relativeFileName": "Cat Escape\\Texture.jpg"
        }
      },
      "name": "base_color_texture",
      "uri": "data:image/png;base64,"
    }
  ],
  "materials": [
    {
      "name": "Mat_Environment",
      "pbrMetallicRoughness": {
        "baseColorTexture": {
          "index": 0
        },
        "metallicFactor": 0.4000000059604645,
        "roughnessFactor": 0.7071067690849304
      }
    }
  ],
  "meshes": [
    {
      "name": "crate",
      "primitives": [
        {
          "attributes": {
            "NORMAL": 1,
            "POSITION": 0,
            "TEXCOORD_0": 2
          },
          "indices": 3,
          "material": 0
        }
      ]
    },
    {
      "name": "Point01",
      "primitives": [
        {
          "attributes": {
            "NORMAL": 5,
            "POSITION": 4,
            "TEXCOORD_0": 6
          },
          "indices": 7,
          "material": 0
        }
      ]
    },
    {
      "name": "Point02",
      "primitives": [
        {
          "attributes": {
            "NORMAL": 9,
            "POSITION": 8,
            "TEXCOORD_0": 10
          },
          "indices": 11,
          "material": 0
        }
      ]
    },
    {
      "name": "Rail",
      "primitives": [
        {
          "attributes": {
            "NORMAL": 13,
            "POSITION": 12,
            "TEXCOORD_0": 14
          },
          "indices": 15,
          "material": 0
        }
      ]
    }
  ],
  "nodes": [
    {
      "children": [
        1,
        2,
        3,
        4
      ],
      "name": "rails"
    },
    {
      "mesh": 0,
      "name": "crate",
      "translation": [
        2.7205260266782716e-07,
        1.0095690413436387e-05,
        0.009215905331075191
      ]
    },
    {
      "mesh": 1,
      "name": "Point01",
      "translation": [
        3.1679320500188624e-07,
        -3.873887237659801e-07,
        0.020866941660642624
      ]
    },
    {
      "mesh": 2,
      "name": "Point02",
      "translation": [
        3.1679320500188624e-07,
        -3.873887237659801e-07,
        0.020866941660642624
      ]
    },
    {
      "mesh": 3,
      "name": "Rail",
      "translation": [
        3.1679320500188624e-07,
        -3.873887237659801e-07,
        0.020866941660642624
      ]
    }
  ],
  "samplers": [
    {}
  ],
  "scenes": [
    {
      "nodes": [
        0
      ]
    }
  ],
  "textures": [
    {
      "name": "base_color_texture",
      "sampler": 0,
      "source": 0
    }
  ]
}