{
  "accessors": [
    {
      "bufferView": 0,
      "componentType": 5126,
      "count": 1205,
      "max": [
        0.006767130922526121,
        0.011577378958463669,
        0.013845416717231274
      ],
      "min": [
        -0.006447670981287956,
        -1.4417023130874895e-09,
        -0.013845414854586124
      ],
      "name": "Mesh.021/POSITION",
      "type": "VEC3"
    },
    {
      "bufferView": 0,
      "byteOffset": 12,
      "componentType": 5126,
      "count": 1205,
      "name": "Mesh.021/NORMAL",
      "type": "VEC3"
    },
    {
      "bufferView": 0,
      "byteOffset": 24,
      "componentType": 5126,
      "count": 1205,
      "name": "Mesh.021/TEXCOORD_0",
      "type": "VEC2"
    },
    {
      "bufferView": 1,
      "componentType": 5125,
      "count": 6705,
      "name": "Mesh.021/INDICES",
      "type": "SCALAR"
    },
    {
      "bufferView": 2,
      "componentType": 5126,
      "count": 142,
      "max": [
        0.005297953262925148,
        0.0014674863778054714,
        0.005697934422641993
      ],
      "min": [
        -0.006575208157300949,
        -0.0011590872891247272,
        -0.006043448578566313
      ],
      "name": "Mesh.022/POSITION",
      "type": "VEC3"
    },
    {
      "bufferView": 2,
      "byteOffset": 12,
      "componentType": 5126,
      "count": 142,
      "name": "Mesh.022/NORMAL",
      "type": "VEC3"
    },
    {
      "bufferView": 2,
      "byteOffset": 24,
      "componentType": 5126,
      "count": 142,
      "name": "Mesh.022/TEXCOORD_0",
      "type": "VEC2"
    },
    {
      "bufferView": 3,
      "componentType": 5125,
      "count": 840,
      "name": "Mesh.022/INDICES",
      "type": "SCALAR"
    },
    {
      "bufferView": 4,
      "componentType": 5126,
      "count": 241,
      "max": [
        0.005898776464164257,
        0.0012956596910953522,
        0.006815141998231411
      ],
      "min": [
        -0.006209769286215305,
        -0.0012669512070715427,
        -0.009264523163437843
      ],
      "name": "Mesh.023/POSITION",
      "type": "VEC3"
    },
    {
      "bufferView": 4,
      "byteOffset": 12,
      "componentType": 5126,
      "count": 241,
      "name": "Mesh.023/NORMAL",
      "type": "VEC3"
    },
    {
      "bufferView": 4,
      "byteOffset": 24,
      "componentType": 5126,
      "count": 241,
      "name": "Mesh.023/TEXCOORD_0",
      "type": "VEC2"
    },
    {
      "bufferView": 5,
      "componentType": 5125,
      "count": 870,
      "name": "Mesh.023/INDICES",
      "type": "SCALAR"
    },
    {
      "bufferView": 6,
      "componentType": 5126,
      "count": 241,
      "max": [
        0.005898773670196533,
        0.0012956596910953522,
        0.008584625087678432
      ],
      "min": [
        -0.006209772080183029,
        -0.0012669512070715427,
        -0.006910719908773899
      ],
      "name": "Mesh.024/POSITION",
      "type": "VEC3"
    },
    {
      "bufferView": 6,
      "byteOffset": 12,
      "componentType": 5126,
      "count": 241,
      "name": "Mesh.024/NORMAL",
      "type": "VEC3"
    },
    {
      "bufferView": 6,
      "byteOffset": 24,
      "componentType": 5126,
      "count": 241,
      "name": "Mesh.024/TEXCOORD_0",
      "type": "VEC2"
    },
    {
      "bufferView": 7,
      "componentType": 5125,
      "count": 870,
      "name": "Mesh.024/INDICES",
      "type": "SCALAR"
    },
    {
      "bufferView": 8,
      "componentType": 5126,
      "count": 104,
      "max": [
        0.000517044507432729,
        0.003167922841385007,
        0.002127681626006961
      ],
      "min": [
        -0.000530766963493079,
        -0.0031697810627520084,
        -0.004648389294743538
      ],
      "name": "Mesh.025/POSITION",
      "type": "VEC3"
    },
    {
      "bufferView": 8,
      "byteOffset": 12,
      "componentType": 5126,
      "count": 104,
      "name": "Mesh.025/NORMAL",
      "type": "VEC3"
    },
    {
      "bufferView": 8,
      "byteOffset": 24,
      "componentType": 5126,
      "count": 104,
      "name": "Mesh.025/TEXCOORD_0",
      "type": "VEC2"
    },
    {
      "bufferView": 9,
      "componentType": 5125,
      "count": 348,
      "name": "Mesh.025/INDICES",
      "type": "SCALAR"
    },
    {
      "bufferView": 10,
      "componentType": 5126,
      "count": 110,
      "max": [
        0.0005044608842581511,
        0.003119350178167224,
        0.006530785001814365
      ],
      "min": [
        -0.0005433498881757259,
        -0.0032183541916310787,
        -0.002900254912674427
      ],
      "name": "Mesh.026/POSITION",
      "type": "VEC3"
    },
    {
      "bufferView": 10,
      "byteOffset": 12,
      "componentType": 5126,
      "count": 110,
      "name": "Mesh.026/NORMAL",
      "type": "VEC3"
    },
    {
      "bufferView": 10,
      "byteOffset": 24,
      "componentType": 5126,
      "count": 110,
      "name": "Mesh.026/TEXCOORD_0",
      "type": "VEC2"
    },
    {
      "bufferView": 11,
      "componentType": 5125,
      "count": 372,
      "name": "Mesh.026/INDICES",
      "type": "SCALAR"
    },
    {
      "bufferView": 12,
      "componentType": 5126,
      "count": 190,
      "max": [
        0.0005073454231023788,
        0.003136612707749009,
        0.005779012572020292
      ],
      "min": [
        -0.0005404664552770555,
        -0.003201091196388006,
        -0.005501236766576767
      ],
      "name": "Mesh.027/POSITION",
      "type": "VEC3"
    },
    {
      "bufferView": 12,
      "byteOffset": 12,
      "componentType": 5126,
      "count": 190,
      "name": "Mesh.027/NORMAL",
      "type": "VEC3"
    },
    {
      "bufferView": 12,
      "byteOffset": 24,
      "componentType": 5126,
      "count": 190,
      "name": "Mesh.027/TEXCOORD_0",
      "type": "VEC2"
    },
    {
      "bufferView": 13,
      "componentType": 5125,
      "count": 588,
      "name": "Mesh.027/INDICES",
      "type": "SCALAR"
    },
    {
      "bufferView": 14,
      "componentType": 5126,
      "count": 142,
      "max": [
        0.005297952331602573,
        0.0014674863778054714,
        0.00558854453265667
      ],
      "min": [
        -0.006575208157300949,
        -0.001159087405540049,
        -0.0052690329030156136
      ],
      "name": "Mesh.028/POSITION",
      "type": "VEC3"
    },
    {
      "bufferView": 14,
      "byteOffset": 12,
      "componentType": 5126,
      "count": 142,
      "name": "Mesh.028/NORMAL",
      "type": "VEC3"
    },
    {
      "bufferView": 14,
      "byteOffset": 24,
      "componentType": 5126,
      "count": 142,
      "name": "Mesh.028/TEXCOORD_0",
      "type": "VEC2"
    },
    {
      "bufferView": 15,
      "componentType": 5125,
      "count": 840,
      "name": "Mesh.028/INDICES",
      "type": "SCALAR"
    },
    {
      "bufferView": 16,
      "componentType": 5126,
      "count": 148,
      "max": [
        0.001310785417445004,
        0.002790717873722315,
        0.005526700988411903
      ],
      "min": [
        -0.0015881671570241451,
        -0.0031568368431180716,
        -0.0054735406301915646
      ],
      "name": "Mesh.029/POSITION",
      "type": "VEC3"
    },
    {
      "bufferView": 16,
      "byteOffset": 12,
      "componentType": 5126,
      "count": 148,
      "name": "Mesh.029/NORMAL",
      "type": "VEC3"
    },
    {
      "bufferView": 16,
      "byteOffset": 24,
      "componentType": 5126,
      "count": 148,
      "name": "Mesh.029/TEXCOORD_0",
      "type": "VEC2"
    },
    {
      "bufferView": 17,
      "componentType": 5125,
      "count": 876,
      "name": "Mesh.029/INDICES",
      "type": "SCALAR"
    },
    {
      "bufferView": 18,
      "componentType": 5126,
      "count": 53,
      "max": [
        0.006116293836385012,
        0.0040207854472100735,
        0.0015599653124809265
      ],
      "min": [
        -0.006375523284077644,
        -0.004913967102766037,
        -0.0015473933890461922
      ],
      "name": "Mesh.030/POSITION",
      "type": "VEC3"
    },
    {
      "bufferView": 18,
      "byteOffset": 12,
      "componentType": 5126,
      "count": 53,
      "name": "Mesh.030/NORMAL",
      "type": "VEC3"
    },
    {
      "bufferView": 18,
      "byteOffset": 24,
      "componentType": 5126,
      "count": 53,
      "name": "Mesh.030/TEXCOORD_0",
      "type": "VEC2"
    },
    {
      "bufferView": 19,
      "componentType": 5125,
      "count": 291,
      "name": "Mesh.030/INDICES",
      "type": "SCALAR"
    },
    {
      "bufferView": 20,
      "componentType": 5126,
      "count": 53,
      "max": [
        0.006116293836385012,
        0.0040207854472100735,
        0.0015473958337679505
      ],
      "min": [
        -0.006375522818416357,
        -0.004913967102766037,
        -0.0015599627513438463
      ],
      "name": "Mesh.031/POSITION",
      "type": "VEC3"
    },
    {
      "bufferView": 20,
      "byteOffset": 12,
      "componentType": 5126,
      "count": 53,
      "name": "Mesh.031/NORMAL",
      "type": "VEC3"
    },
    {
      "bufferView": 20,
      "byteOffset": 24,
      "componentType": 5126,
      "count": 53,
      "name": "Mesh.031/TEXCOORD_0",
      "type": "VEC2"
    },
    {
      "bufferView": 21,
      "componentType": 5125,
      "count": 291,
      "name": "Mesh.031/INDICES",
      "type": "SCALAR"
    },
    {
      "bufferView": 22,
      "componentType": 5126,
      "count": 148,
      "max": [
        0.001310785417445004,
        0.002790717873722315,
        0.005378442816436291
      ],
      "min": [
        -0.0015881675062701106,
        -0.003156836610287428,
        -0.0054838149808347225
      ],
      "name": "Mesh.032/POSITION",
      "type": "VEC3"
    },
    {
      "bufferView": 22,
      "byteOffset": 12,
      "componentType": 5126,
      "count": 148,
      "name": "Mesh.032/NORMAL",
      "type": "VEC3"
    },
    {
      "bufferView": 22,
      "byteOffset": 24,
      "componentType": 5126,
      "count": 148,
      "name": "Mesh.032/TEXCOORD_0",
      "type": "VEC2"
    },
    {
      "bufferView": 23,
      "componentType": 5125,
      "count": 876,
      "name": "Mesh.032/INDICES",
      "type": "SCALAR"
    }
  ],
  "asset": {
    "copyright": "Copyright (c) 2018-2020 Chukong Technologies Inc.",
    "generator": "FBX-glTF-conv",
    "version": "2.0"
  },
  "bufferViews": [
    {
      "buffer": 0,
      "byteLength": 38560,
      "byteStride": 32,
      "name": "Mesh.021",
      "target": 34962
    },
    {
      "buffer": 0,
      "byteLength": 26820,
      "byteOffset": 38560
    },
    {
      "buffer": 0,
      "byteLength": 4544,
      "byteOffset": 65380,
      "byteStride": 32,
      "name": "Mesh.022",
      "target": 34962
    },
    {
      "buffer": 0,
      "byteLength": 3360,
      "byteOffset": 69924
    },
    {
      "buffer": 0,
      "byteLength": 7712,
      "byteOffset": 73284,
      "byteStride": 32,
      "name": "Mesh.023",
      "target": 34962
    },
    {
      "buffer": 0,
      "byteLength": 3480,
      "byteOffset": 80996
    },
    {
      "buffer": 0,
      "byteLength": 7712,
      "byteOffset": 84476,
      "byteStride": 32,
      "name": "Mesh.024",
      "target": 34962
    },
    {
      "buffer": 0,
      "byteLength": 3480,
      "byteOffset": 92188
    },
    {
      "buffer": 0,
      "byteLength": 3328,
      "byteOffset": 95668,
      "byteStride": 32,
      "name": "Mesh.025",
      "target": 34962
    },
    {
      "buffer": 0,
      "byteLength": 1392,
      "byteOffset": 98996
    },
    {
      "buffer": 0,
      "byteLength": 3520,
      "byteOffset": 100388,
      "byteStride": 32,
      "name": "Mesh.026",
      "target": 34962
    },
    {
      "buffer": 0,
      "byteLength": 1488,
      "byteOffset": 103908
    },
    {
      "buffer": 0,
      "byteLength": 6080,
      "byteOffset": 105396,
      "byteStride": 32,
      "name": "Mesh.027",
      "target": 34962
    },
    {
      "buffer": 0,
      "byteLength": 2352,
      "byteOffset": 111476
    },
    {
      "buffer": 0,
      "byteLength": 4544,
      "byteOffset": 113828,
      "byteStride": 32,
      "name": "Mesh.028",
      "target": 34962
    },
    {
      "buffer": 0,
      "byteLength": 3360,
      "byteOffset": 118372
    },
    {
      "buffer": 0,
      "byteLength": 4736,
      "byteOffset": 121732,
      "byteStride": 32,
      "name": "Mesh.029",
      "target": 34962
    },
    {
      "buffer": 0,
      "byteLength": 3504,
      "byteOffset": 126468
    },
    {
      "buffer": 0,
      "byteLength": 1696,
      "byteOffset": 129972,
      "byteStride": 32,
      "name": "Mesh.030",
      "target": 34962
    },
    {
      "buffer": 0,
      "byteLength": 1164,
      "byteOffset": 131668
    },
    {
      "buffer": 0,
      "byteLength": 1696,
      "byteOffset": 132832,
      "byteStride": 32,
      "name": "Mesh.031",
      "target": 34962
    },
    {
      "buffer": 0,
      "byteLength": 1164,
      "byteOffset": 134528
    },
    {
      "buffer": 0,
      "byteLength": 4736,
      "byteOffset": 135692,
      "byteStride": 32,
      "name": "Mesh.032",
      "target": 34962
    },
    {
      "buffer": 0,
      "byteLength": 3504,
      "byteOffset": 140428
    }
  ],
  "buffers": [
    {
      "byteLength": 143932,
      "uri": "out.bin"
    }
  ],
  "extras": {
    "FBX-glTF-conv": {
      "animationFrameRate": 25.0
    }
  },
  "images": [
    {
      "extras": {
        "FBX-glTF-conv": {
          "fileName": "C:\\Users\\Admin\\Desktop\\Cat Escape\\Texture.jpg",
          "relativeFileName": "C:\\Users\\Admin\\Desktop\\Cat Escape\\Texture.jpg"
        }
      },
      "name": "base_color_texture",
      "uri": "data:image/png;base64,"
    }
  ],
  "materials": [
    {
      "name": "Mat_Environment",
      "pbrMetallicRoughness": {
        "baseColorTexture": {
          "index": 0
        },
        "metallicFactor": 0.4000000059604645
      }
    }
  ],
  "meshes": [
    {
      "name": "Mesh.021",
      "primitives": [
        {
          "attributes": {
            "NORMAL": 1,
            "POSITION": 0,
            "TEXCOORD_0": 2
          },
          "indices": 3,
          "material": 0
        }
      ]
    },
    {
      "name": "Mesh.022",
      "primitives": [
        {
          "attributes": {
            "NORMAL": 5,
            "POSITION": 4,
            "TEXCOORD_0": 6
          },
          "indices": 7,
          "material": 0
        }
      ]
    },
    {
      "name": "Mesh.023",
      "primitives": [
        {
          "attributes": {
            "NORMAL": 9,
            "POSITION": 8,
            "TEXCOORD_0": 10
          },
          "indices": 11,
          "material": 0
        }
      ]
    },
    {
      "name": "Mesh.024",
      "primitives": [
        {
          "attributes": {
            "NORMAL": 13,
            "POSITION": 12,
            "TEXCOORD_0": 14
          },
          "indices": 15,
          "material": 0
        }
      ]
    },
    {
      "name": "Mesh.025",
      "primitives": [
        {
          "attributes": {
            "NORMAL": 17,
            "POSITION": 16,
            "TEXCOORD_0": 18
          },
          "indices": 19,
          "material": 0
        }
      ]
    },
    {
      "name": "Mesh.026",
      "primitives": [
        {
          "attributes": {
            "NORMAL": 21,
            "POSITION": 20,
            "TEXCOORD_0": 22
          },
          "indices": 23,
          "material": 0
        }
      ]
    },
    {
      "name": "Mesh.027",
      "primitives": [
        {
          "attributes": {
            "NORMAL": 25,
            "POSITION": 24,
            "TEXCOORD_0": 26
          },
          "indices": 27,
          "material": 0
        }
      ]
    },
    {
      "name": "Mesh.028",
      "primitives": [
        {
          "attributes": {
            "NORMAL": 29,
            "POSITION": 28,
            "TEXCOORD_0": 30
          },
          "indices": 31,
          "material": 0
        }
      ]
    },
    {
      "name": "Mesh.029",
      "primitives": [
        {
          "attributes": {
            "NORMAL": 33,
            "POSITION": 32,
            "TEXCOORD_0": 34
          },
          "indices": 35,
          "material": 0
        }
      ]
    },
    {
      "name": "Mesh.030",
      "primitives": [
        {
          "attributes": {
            "NORMAL": 37,
            "POSITION": 36,
            "TEXCOORD_0": 38
          },
          "indices": 39,
          "material": 0
        }
      ]
    },
    {
      "name": "Mesh.031",
      "primitives": [
        {
          "attributes": {
            "NORMAL": 41,
            "POSITION": 40,
            "TEXCOORD_0": 42
          },
          "indices": 43,
          "material": 0
        }
      ]
    },
    {
      "name": "Mesh.032",
      "primitives": [
        {
          "attributes": {
            "NORMAL": 45,
            "POSITION": 44,
            "TEXCOORD_0": 46
          },
          "indices": 47,
          "material": 0
        }
      ]
    }
  ],
  "nodes": [
    {
      "children": [
        1,
        2
      ],
      "name": "Sofa"
    },
    {
      "mesh": 0,
      "name": "Sofa_clear"
    },
    {
      "children": [
        3,
        4,
        5,
        6,
        7,
        8,
        9,
        10,
        11,
        12,
        13
      ],
      "name": "Sofa_broken_GRP"
    },
    {
      "mesh": 1,
      "name": "polySurface1",
      "rotation": [
        0.7071068286895752,
        0.0,
        0.0,
        0.7071067094802856
      ],
      "scale": [
        0.009999999776482582,
        0.009999999776482582,
        0.009999999776482582
      ],
      "translation": [
        1.2753974942825153e-06,
        4.817907392862253e-05,
        4.4654039811575785e-05
      ]
    },
    {
      "mesh": 2,
      "name": "polySurface2_FRAC1",
      "rotation": [
        0.7071068286895752,
        0.0,
        0.0,
        0.7071067094802856
      ],
      "scale": [
        0.009999999776482582,
        0.009999999776482582,
        0.009999999776482582
      ],
      "translation": [
        5.5543773669342045e-06,
        1.662416798353661e-05,
        2.005084024858661e-05
      ]
    },
    {
      "mesh": 3,
      "name": "polySurface2_FRAC2",
      "rotation": [
        0.7071068286895752,
        0.0,
        0.0,
        0.7071067094802856
      ],
      "scale": [
        0.009999999776482582,
        0.009999999776482582,
        0.009999999776482582
      ],
      "translation": [
        5.554368726734538e-06,
        -2.392613714619074e-05,
        2.005084024858661e-05
      ]
    },
    {
      "mesh": 4,
      "name": "polySurface3_FRAC1_1",
      "rotation": [
        0.7071068286895752,
        0.0,
        0.0,
        0.7071067094802856
      ],
      "scale": [
        0.009999999776482582,
        0.009999999776482582,
        0.009999999776482582
      ],
      "translation": [
        5.948282705503516e-05,
        6.37720077065751e-05,
        6.346662121359259e-05
      ]
    },
    {
      "mesh": 5,
      "name": "polySurface3_FRAC2_1",
      "rotation": [
        0.7071068286895752,
        0.0,
        0.0,
        0.7071067094802856
      ],
      "scale": [
        0.009999999776482582,
        0.009999999776482582,
        0.009999999776482582
      ],
      "translation": [
        5.96086320001632e-05,
        -4.564797563944012e-05,
        6.395234959200025e-05
      ]
    },
    {
      "mesh": 6,
      "name": "polySurface3_FRAC3_1",
      "rotation": [
        0.7071068286895752,
        0.0,
        0.0,
        0.7071067094802856
      ],
      "scale": [
        0.009999999776482582,
        0.009999999776482582,
        0.009999999776482582
      ],
      "translation": [
        5.957981193205342e-05,
        9.132493687502574e-06,
        6.377972022164613e-05
      ]
    },
    {
      "mesh": 7,
      "name": "polySurface4",
      "rotation": [
        0.7071068286895752,
        0.0,
        0.0,
        0.7071067094802856
      ],
      "scale": [
        0.009999999776482582,
        0.009999999776482582,
        0.009999999776482582
      ],
      "translation": [
        1.275381691812072e-06,
        -5.27253323525656e-05,
        4.4654039811575785e-05
      ]
    },
    {
      "mesh": 8,
      "name": "polySurface5",
      "rotation": [
        0.7071068286895752,
        0.0,
        0.0,
        0.7071067094802856
      ],
      "scale": [
        0.009999999776482582,
        0.009999999776482582,
        0.009999999776482582
      ],
      "translation": [
        4.30865547969006e-05,
        -5.376496847020462e-05,
        8.786659600446001e-05
      ]
    },
    {
      "mesh": 9,
      "name": "polySurface10",
      "rotation": [
        0.7071068286895752,
        0.0,
        0.0,
        0.7071067094802856
      ],
      "scale": [
        0.009999999776482582,
        0.009999999776482582,
        0.009999999776482582
      ],
      "translation": [
        6.508335445687408e-06,
        -0.0001228545152116567,
        5.247012813924812e-05
      ]
    },
    {
      "mesh": 10,
      "name": "polySurface11",
      "rotation": [
        0.7071068286895752,
        0.0,
        0.0,
        0.7071067094802856
      ],
      "scale": [
        0.009999999776482582,
        0.009999999776482582,
        0.009999999776482582
      ],
      "translation": [
        6.50837273497018e-06,
        0.0001228545152116567,
        5.247012813924812e-05
      ]
    },
    {
      "mesh": 11,
      "name": "polySurface13",
      "rotation": [
        0.7071068286895752,
        0.0,
        0.0,
        0.7071067094802856
      ],
      "scale": [
        0.009999999776482582,
        0.009999999776482582,
        0.009999999776482582
      ],
      "translation": [
        4.3086572986794636e-05,
        5.419382068794221e-05,
        8.786659600446001e-05
      ]
    }
  ],
  "samplers": [
    {}
  ],
  "scenes": [
    {
      "name": "Scene",
      "nodes": [
        0
      ]
    }
  ],
  "textures": [
    {
      "name": "base_color_texture",
      "sampler": 0,
      "source": 0
    }
  ]
}