{
  "accessors": [
    {
      "bufferView": 0,
      "componentType": 5126,
      "count": 1470,
      "max": [
        0.00742979533970356,
        0.016202783212065697,
        0.0036675964947789907
      ],
      "min": [
        -0.007551106158643961,
        -1.1798646504246335e-09,
        -0.0036420279648154974
      ],
      "name": "nordic_tv/POSITION",
      "type": "VEC3"
    },
    {
      "bufferView": 0,
      "byteOffset": 12,
      "componentType": 5126,
      "count": 1470,
      "name": "nordic_tv/NORMAL",
      "type": "VEC3"
    },
    {
      "bufferView": 0,
      "byteOffset": 24,
      "componentType": 5126,
      "count": 1470,
      "name": "nordic_tv/TEXCOORD_0",
      "type": "VEC2"
    },
    {
      "bufferView": 1,
      "componentType": 5125,
      "count": 3183,
      "name": "nordic_tv/INDICES",
      "type": "SCALAR"
    }
  ],
  "asset": {
    "copyright": "Copyright (c) 2018-2020 Chukong Technologies Inc.",
    "generator": "FBX-glTF-conv",
    "version": "2.0"
  },
  "bufferViews": [
    {
      "buffer": 0,
      "byteLength": 47040,
      "byteStride": 32,
      "name": "nordic_tv",
      "target": 34962
    },
    {
      "buffer": 0,
      "byteLength": 12732,
      "byteOffset": 47040
    }
  ],
  "buffers": [
    {
      "byteLength": 59772,
      "uri": "out.bin"
    }
  ],
  "extras": {
    "FBX-glTF-conv": {
      "animationFrameRate": 30.0
    }
  },
  "images": [
    {
      "extras": {
        "FBX-glTF-conv": {
          "fileName": "C:\\Users\\Admin\\Desktop\\Texture.jpg",
          "relativeFileName": "C:\\Users\\Admin\\Desktop\\Texture.jpg"
        }
      },
      "name": "base_color_texture",
      "uri": "data:image/png;base64,"
    }
  ],
  "materials": [
    {
      "name": "Enviroment1",
      "pbrMetallicRoughness": {
        "baseColorTexture": {
          "index": 0
        },
        "metallicFactor": 0.4000000059604645,
        "roughnessFactor": 0.30151134729385376
      }
    }
  ],
  "meshes": [
    {
      "name": "nordic_tv",
      "primitives": [
        {
          "attributes": {
            "NORMAL": 1,
            "POSITION": 0,
            "TEXCOORD_0": 2
          },
          "indices": 3,
          "material": 0
        }
      ]
    }
  ],
  "nodes": [
    {
      "mesh": 0,
      "name": "nordic_tv",
      "translation": [
        0.001781553728505969,
        0.0007205585134215653,
        4.407183587318286e-05
      ]
    }
  ],
  "samplers": [
    {}
  ],
  "scenes": [
    {
      "name": "Scene",
      "nodes": [
        0
      ]
    }
  ],
  "textures": [
    {
      "name": "base_color_texture",
      "sampler": 0,
      "source": 0
    }
  ]
}