{
  "accessors": [
    {
      "bufferView": 0,
      "componentType": 5126,
      "count": 936,
      "max": [
        0.003009623847901821,
        0.007136764470487833,
        0.0031183031387627125
      ],
      "min": [
        -0.003009623847901821,
        1.2799799151252955e-05,
        -0.0031183031387627125
      ],
      "name": "Plant_01/POSITION",
      "type": "VEC3"
    },
    {
      "bufferView": 0,
      "byteOffset": 12,
      "componentType": 5126,
      "count": 936,
      "name": "Plant_01/NORMAL",
      "type": "VEC3"
    },
    {
      "bufferView": 0,
      "byteOffset": 24,
      "componentType": 5126,
      "count": 936,
      "name": "Plant_01/TEXCOORD_0",
      "type": "VEC2"
    },
    {
      "bufferView": 1,
      "componentType": 5125,
      "count": 2064,
      "name": "Plant_01/INDICES",
      "type": "SCALAR"
    }
  ],
  "asset": {
    "copyright": "Copyright (c) 2018-2020 Chukong Technologies Inc.",
    "generator": "FBX-glTF-conv",
    "version": "2.0"
  },
  "bufferViews": [
    {
      "buffer": 0,
      "byteLength": 29952,
      "byteStride": 32,
      "name": "Plant_01",
      "target": 34962
    },
    {
      "buffer": 0,
      "byteLength": 8256,
      "byteOffset": 29952
    }
  ],
  "buffers": [
    {
      "byteLength": 38208,
      "uri": "out.bin"
    }
  ],
  "extras": {
    "FBX-glTF-conv": {
      "animationFrameRate": 24.0
    }
  },
  "images": [
    {
      "extras": {
        "FBX-glTF-conv": {
          "fileName": "D:/Cat Escape/Obstacle/Megatexture.png",
          "relativeFileName": "..\\Megatexture.png"
        }
      },
      "name": "Megatexture.png",
      "uri": "data:image/png;base64,"
    }
  ],
  "materials": [
    {
      "name": "Plant_Mat",
      "pbrMetallicRoughness": {
        "baseColorTexture": {
          "index": 0
        },
        "metallicFactor": 0.4000000059604645,
        "roughnessFactor": 0.30151134729385376
      }
    }
  ],
  "meshes": [
    {
      "name": "Plant_01",
      "primitives": [
        {
          "attributes": {
            "NORMAL": 1,
            "POSITION": 0,
            "TEXCOORD_0": 2
          },
          "indices": 3,
          "material": 0
        }
      ]
    }
  ],
  "nodes": [
    {
      "mesh": 0,
      "name": "Plant_01"
    }
  ],
  "samplers": [
    {}
  ],
  "scenes": [
    {
      "nodes": [
        0
      ]
    }
  ],
  "textures": [
    {
      "name": "Megatexture.png",
      "sampler": 0,
      "source": 0
    }
  ]
}