{
  "accessors": [
    {
      "bufferView": 0,
      "componentType": 5126,
      "count": 133,
      "max": [
        0.2983241379261017,
        0.29379287362098694,
        0.0924006849527359
      ],
      "min": [
        -0.29832419753074646,
        -0.2937929034233093,
        -0.0923447236418724
      ],
      "name": "RPGFXCurvedCylinder2/POSITION",
      "type": "VEC3"
    },
    {
      "bufferView": 0,
      "byteOffset": 12,
      "componentType": 5126,
      "count": 133,
      "name": "RPGFXCurvedCylinder2/NORMAL",
      "type": "VEC3"
    },
    {
      "bufferView": 0,
      "byteOffset": 24,
      "componentType": 5126,
      "count": 133,
      "name": "RPGFXCurvedCylinder2/TEXCOORD_0",
      "type": "VEC2"
    },
    {
      "bufferView": 1,
      "componentType": 5125,
      "count": 540,
      "name": "RPGFXCurvedCylinder2/INDICES",
      "type": "SCALAR"
    }
  ],
  "asset": {
    "copyright": "Copyright (c) 2018-2020 Chukong Technologies Inc.",
    "generator": "FBX-glTF-conv",
    "version": "2.0"
  },
  "bufferViews": [
    {
      "buffer": 0,
      "byteLength": 4256,
      "byteStride": 32,
      "name": "RPGFXCurvedCylinder2",
      "target": 34962
    },
    {
      "buffer": 0,
      "byteLength": 2160,
      "byteOffset": 4256
    }
  ],
  "buffers": [
    {
      "byteLength": 6416,
      "uri": "out.bin"
    }
  ],
  "extras": {
    "FBX-glTF-conv": {
      "animationFrameRate": 30.0
    }
  },
  "meshes": [
    {
      "name": "RPGFXCurvedCylinder2",
      "primitives": [
        {
          "attributes": {
            "NORMAL": 1,
            "POSITION": 0,
            "TEXCOORD_0": 2
          },
          "indices": 3
        }
      ]
    }
  ],
  "nodes": [
    {
      "mesh": 0,
      "name": "RPGFXCurvedCylinder2",
      "rotation": [
        -0.7071067690849304,
        -0.0,
        0.0,
        0.7071067690849304
      ],
      "translation": [
        1.907348590179936e-08,
        0.0,
        0.0
      ]
    }
  ],
  "scenes": [
    {
      "nodes": [
        0
      ]
    }
  ]
}