{
    "asset": {
        "generator": "FBX2glTF v0.9.7",
        "version": "2.0"
    },
    "scene": 0,
    "buffers": [
        {
            "byteLength": 504,
            "uri": "buffer.bin"
        }
    ],
    "bufferViews": [
        {
            "buffer": 0,
            "byteLength": 36,
            "byteOffset": 0
        },
        {
            "buffer": 0,
            "byteLength": 108,
            "byteOffset": 36
        },
        {
            "buffer": 0,
            "byteLength": 108,
            "byteOffset": 144
        },
        {
            "buffer": 0,
            "byteLength": 108,
            "byteOffset": 252
        },
        {
            "buffer": 0,
            "byteLength": 144,
            "byteOffset": 360
        }
    ],
    "scenes": [
        {
            "name": "Root Scene",
            "nodes": [
                0
            ]
        }
    ],
    "accessors": [
        {
            "componentType": 5126,
            "type": "SCALAR",
            "count": 9,
            "bufferView": 0,
            "byteOffset": 0,
            "min": [
                0.0
            ],
            "max": [
                0.333333343267441
            ]
        },
        {
            "componentType": 5126,
            "type": "VEC3",
            "count": 9,
            "bufferView": 1,
            "byteOffset": 0
        },
        {
            "componentType": 5126,
            "type": "VEC3",
            "count": 9,
            "bufferView": 2,
            "byteOffset": 0
        },
        {
            "componentType": 5126,
            "type": "VEC3",
            "count": 9,
            "bufferView": 3,
            "byteOffset": 0
        },
        {
            "componentType": 5126,
            "type": "VEC4",
            "count": 9,
            "bufferView": 4,
            "byteOffset": 0
        }
    ],
    "samplers": [
        {}
    ],
    "animations": [
        {
            "name": "submarine_move",
            "channels": [
                {
                    "sampler": 0,
                    "target": {
                        "node": 1,
                        "path": "translation"
                    }
                },
                {
                    "sampler": 1,
                    "target": {
                        "node": 5,
                        "path": "translation"
                    }
                },
                {
                    "sampler": 2,
                    "target": {
                        "node": 7,
                        "path": "translation"
                    }
                },
                {
                    "sampler": 3,
                    "target": {
                        "node": 11,
                        "path": "rotation"
                    }
                }
            ],
            "samplers": [
                {
                    "input": 0,
                    "interpolation": "LINEAR",
                    "output": 1
                },
                {
                    "input": 0,
                    "interpolation": "LINEAR",
                    "output": 2
                },
                {
                    "input": 0,
                    "interpolation": "LINEAR",
                    "output": 3
                },
                {
                    "input": 0,
                    "interpolation": "LINEAR",
                    "output": 4
                }
            ]
        }
    ],
    "nodes": [
        {
            "name": "RootNode",
            "translation": [
                0.0,
                0.0,
                0.0
            ],
            "rotation": [
                0.0,
                0.0,
                0.0,
                1.0
            ],
            "scale": [
                1.0,
                1.0,
                1.0
            ],
            "children": [
                1
            ]
        },
        {
            "name": "Root_M",
            "translation": [
                -2.78121115115937e-05,
                0.02587098069489,
                -2.3474697156395e-18
            ],
            "rotation": [
                0.49796050786972,
                0.498168289661407,
                0.506096184253693,
                0.497725188732147
            ],
            "scale": [
                1.0,
                1.0,
                1.0
            ],
            "children": [
                2,
                11
            ]
        },
        {
            "name": "Body_M",
            "translation": [
                0.039122823625803,
                9.12464505350409e-18,
                1.49186209007838e-17
            ],
            "rotation": [
                -5.08913571006797e-12,
                8.96958663361147e-05,
                5.673741299006e-08,
                1.0
            ],
            "scale": [
                1.0,
                1.0,
                1.0
            ],
            "children": [
                3,
                4
            ]
        },
        {
            "name": "BodyEnd_M",
            "translation": [
                0.0199999995529652,
                4.60048640682759e-17,
                -6.45317138026456e-18
            ],
            "rotation": [
                -5.46604873132364e-37,
                6.30192512757199e-19,
                8.67361737988404e-19,
                1.0
            ],
            "scale": [
                1.0,
                1.0,
                1.0
            ]
        },
        {
            "name": "joint1_M",
            "translation": [
                0.000749282131437212,
                0.0785065069794655,
                3.00454100745227e-17
            ],
            "rotation": [
                -7.55352218625863e-17,
                -2.6038932239891e-18,
                0.702039062976837,
                0.712138473987579
            ],
            "scale": [
                1.0,
                1.0,
                1.0
            ],
            "children": [
                5,
                10
            ]
        },
        {
            "name": "joint2_M",
            "translation": [
                0.0280023477971554,
                1.95399251275236e-16,
                7.1470605225011e-18
            ],
            "rotation": [
                -0.193895041942596,
                0.208903580904007,
                -0.702544152736664,
                0.652070343494415
            ],
            "scale": [
                1.0,
                1.0,
                1.0
            ],
            "children": [
                6
            ]
        },
        {
            "name": "eyes4_M",
            "translation": [
                0.0185795035213232,
                3.55271359939116e-17,
                2.66453519954337e-17
            ],
            "rotation": [
                -8.4332671488892e-17,
                3.57467888424914e-17,
                0.028838099911809,
                0.999584078788757
            ],
            "scale": [
                1.0,
                1.0,
                1.0
            ],
            "children": [
                7
            ]
        },
        {
            "name": "eyes3_M",
            "translation": [
                0.0809641852974892,
                0.000228342396439984,
                0.00241505890153348
            ],
            "rotation": [
                5.7975143605041e-17,
                -1.23977888112091e-17,
                0.147556409239769,
                0.989053666591644
            ],
            "scale": [
                1.0,
                1.0,
                1.0
            ],
            "children": [
                8
            ]
        },
        {
            "name": "eyes2_M",
            "translation": [
                0.0133929289877415,
                8.88178399847791e-18,
                0.0
            ],
            "rotation": [
                3.61670018876243e-16,
                2.34621058958288e-16,
                0.489089071750641,
                0.872233867645264
            ],
            "scale": [
                1.0,
                1.0,
                1.0
            ],
            "children": [
                9
            ]
        },
        {
            "name": "eyes1_M",
            "translation": [
                0.0198618937283754,
                1.06581407981735e-16,
                0.0
            ],
            "rotation": [
                0.0,
                -8.32667268468867e-17,
                0.0,
                1.0
            ],
            "scale": [
                1.0,
                1.0,
                1.0
            ]
        },
        {
            "name": "lid_M",
            "translation": [
                0.000538508931640536,
                -0.0324332974851131,
                1.37702347405457e-15
            ],
            "rotation": [
                0.707088768482208,
                0.0050497087650001,
                0.707088768482208,
                -0.0050497087650001
            ],
            "scale": [
                1.0,
                1.0,
                1.0
            ]
        },
        {
            "name": "rotator_R",
            "translation": [
                0.00141753233037889,
                -0.12453730404377,
                -0.000236785781453364
            ],
            "rotation": [
                -0.500044822692871,
                -0.499955177307129,
                -0.499955117702484,
                0.500044882297516
            ],
            "scale": [
                1.0,
                1.0,
                1.0
            ]
        }
    ]
}