{
    "asset": {
        "generator": "FBX2glTF v0.9.7",
        "version": "2.0"
    },
    "scene": 0,
    "buffers": [
        {
            "byteLength": 7344,
            "uri": "buffer.bin"
        }
    ],
    "bufferViews": [
        {
            "buffer": 0,
            "byteLength": 108,
            "byteOffset": 0
        },
        {
            "buffer": 0,
            "byteLength": 324,
            "byteOffset": 108
        },
        {
            "buffer": 0,
            "byteLength": 432,
            "byteOffset": 432
        },
        {
            "buffer": 0,
            "byteLength": 432,
            "byteOffset": 864
        },
        {
            "buffer": 0,
            "byteLength": 324,
            "byteOffset": 1296
        },
        {
            "buffer": 0,
            "byteLength": 432,
            "byteOffset": 1620
        },
        {
            "buffer": 0,
            "byteLength": 324,
            "byteOffset": 2052
        },
        {
            "buffer": 0,
            "byteLength": 432,
            "byteOffset": 2376
        },
        {
            "buffer": 0,
            "byteLength": 432,
            "byteOffset": 2808
        },
        {
            "buffer": 0,
            "byteLength": 324,
            "byteOffset": 3240
        },
        {
            "buffer": 0,
            "byteLength": 432,
            "byteOffset": 3564
        },
        {
            "buffer": 0,
            "byteLength": 432,
            "byteOffset": 3996
        },
        {
            "buffer": 0,
            "byteLength": 432,
            "byteOffset": 4428
        },
        {
            "buffer": 0,
            "byteLength": 432,
            "byteOffset": 4860
        },
        {
            "buffer": 0,
            "byteLength": 324,
            "byteOffset": 5292
        },
        {
            "buffer": 0,
            "byteLength": 432,
            "byteOffset": 5616
        },
        {
            "buffer": 0,
            "byteLength": 432,
            "byteOffset": 6048
        },
        {
            "buffer": 0,
            "byteLength": 432,
            "byteOffset": 6480
        },
        {
            "buffer": 0,
            "byteLength": 432,
            "byteOffset": 6912
        }
    ],
    "scenes": [
        {
            "name": "Root Scene",
            "nodes": [
                0
            ]
        }
    ],
    "accessors": [
        {
            "componentType": 5126,
            "type": "SCALAR",
            "count": 27,
            "bufferView": 0,
            "byteOffset": 0,
            "min": [
                0.0
            ],
            "max": [
                1.08333337306976
            ]
        },
        {
            "componentType": 5126,
            "type": "VEC3",
            "count": 27,
            "bufferView": 1,
            "byteOffset": 0
        },
        {
            "componentType": 5126,
            "type": "VEC4",
            "count": 27,
            "bufferView": 2,
            "byteOffset": 0
        },
        {
            "componentType": 5126,
            "type": "VEC4",
            "count": 27,
            "bufferView": 3,
            "byteOffset": 0
        },
        {
            "componentType": 5126,
            "type": "VEC3",
            "count": 27,
            "bufferView": 4,
            "byteOffset": 0
        },
        {
            "componentType": 5126,
            "type": "VEC4",
            "count": 27,
            "bufferView": 5,
            "byteOffset": 0
        },
        {
            "componentType": 5126,
            "type": "VEC3",
            "count": 27,
            "bufferView": 6,
            "byteOffset": 0
        },
        {
            "componentType": 5126,
            "type": "VEC4",
            "count": 27,
            "bufferView": 7,
            "byteOffset": 0
        },
        {
            "componentType": 5126,
            "type": "VEC4",
            "count": 27,
            "bufferView": 8,
            "byteOffset": 0
        },
        {
            "componentType": 5126,
            "type": "VEC3",
            "count": 27,
            "bufferView": 9,
            "byteOffset": 0
        },
        {
            "componentType": 5126,
            "type": "VEC4",
            "count": 27,
            "bufferView": 10,
            "byteOffset": 0
        },
        {
            "componentType": 5126,
            "type": "VEC4",
            "count": 27,
            "bufferView": 11,
            "byteOffset": 0
        },
        {
            "componentType": 5126,
            "type": "VEC4",
            "count": 27,
            "bufferView": 12,
            "byteOffset": 0
        },
        {
            "componentType": 5126,
            "type": "VEC4",
            "count": 27,
            "bufferView": 13,
            "byteOffset": 0
        },
        {
            "componentType": 5126,
            "type": "VEC3",
            "count": 27,
            "bufferView": 14,
            "byteOffset": 0
        },
        {
            "componentType": 5126,
            "type": "VEC4",
            "count": 27,
            "bufferView": 15,
            "byteOffset": 0
        },
        {
            "componentType": 5126,
            "type": "VEC4",
            "count": 27,
            "bufferView": 16,
            "byteOffset": 0
        },
        {
            "componentType": 5126,
            "type": "VEC4",
            "count": 27,
            "bufferView": 17,
            "byteOffset": 0
        },
        {
            "componentType": 5126,
            "type": "VEC4",
            "count": 27,
            "bufferView": 18,
            "byteOffset": 0
        }
    ],
    "samplers": [
        {}
    ],
    "animations": [
        {
            "name": "Robo_Cat_ATK",
            "channels": [
                {
                    "sampler": 0,
                    "target": {
                        "node": 1,
                        "path": "translation"
                    }
                },
                {
                    "sampler": 1,
                    "target": {
                        "node": 1,
                        "path": "rotation"
                    }
                },
                {
                    "sampler": 2,
                    "target": {
                        "node": 2,
                        "path": "rotation"
                    }
                },
                {
                    "sampler": 3,
                    "target": {
                        "node": 3,
                        "path": "translation"
                    }
                },
                {
                    "sampler": 4,
                    "target": {
                        "node": 3,
                        "path": "rotation"
                    }
                },
                {
                    "sampler": 5,
                    "target": {
                        "node": 5,
                        "path": "translation"
                    }
                },
                {
                    "sampler": 6,
                    "target": {
                        "node": 5,
                        "path": "rotation"
                    }
                },
                {
                    "sampler": 7,
                    "target": {
                        "node": 9,
                        "path": "rotation"
                    }
                },
                {
                    "sampler": 8,
                    "target": {
                        "node": 13,
                        "path": "translation"
                    }
                },
                {
                    "sampler": 9,
                    "target": {
                        "node": 13,
                        "path": "rotation"
                    }
                },
                {
                    "sampler": 10,
                    "target": {
                        "node": 14,
                        "path": "rotation"
                    }
                },
                {
                    "sampler": 11,
                    "target": {
                        "node": 15,
                        "path": "rotation"
                    }
                },
                {
                    "sampler": 12,
                    "target": {
                        "node": 16,
                        "path": "rotation"
                    }
                },
                {
                    "sampler": 13,
                    "target": {
                        "node": 18,
                        "path": "translation"
                    }
                },
                {
                    "sampler": 14,
                    "target": {
                        "node": 18,
                        "path": "rotation"
                    }
                },
                {
                    "sampler": 15,
                    "target": {
                        "node": 19,
                        "path": "rotation"
                    }
                },
                {
                    "sampler": 16,
                    "target": {
                        "node": 20,
                        "path": "rotation"
                    }
                },
                {
                    "sampler": 17,
                    "target": {
                        "node": 21,
                        "path": "rotation"
                    }
                }
            ],
            "samplers": [
                {
                    "input": 0,
                    "interpolation": "LINEAR",
                    "output": 1
                },
                {
                    "input": 0,
                    "interpolation": "LINEAR",
                    "output": 2
                },
                {
                    "input": 0,
                    "interpolation": "LINEAR",
                    "output": 3
                },
                {
                    "input": 0,
                    "interpolation": "LINEAR",
                    "output": 4
                },
                {
                    "input": 0,
                    "interpolation": "LINEAR",
                    "output": 5
                },
                {
                    "input": 0,
                    "interpolation": "LINEAR",
                    "output": 6
                },
                {
                    "input": 0,
                    "interpolation": "LINEAR",
                    "output": 7
                },
                {
                    "input": 0,
                    "interpolation": "LINEAR",
                    "output": 8
                },
                {
                    "input": 0,
                    "interpolation": "LINEAR",
                    "output": 9
                },
                {
                    "input": 0,
                    "interpolation": "LINEAR",
                    "output": 10
                },
                {
                    "input": 0,
                    "interpolation": "LINEAR",
                    "output": 11
                },
                {
                    "input": 0,
                    "interpolation": "LINEAR",
                    "output": 12
                },
                {
                    "input": 0,
                    "interpolation": "LINEAR",
                    "output": 13
                },
                {
                    "input": 0,
                    "interpolation": "LINEAR",
                    "output": 14
                },
                {
                    "input": 0,
                    "interpolation": "LINEAR",
                    "output": 15
                },
                {
                    "input": 0,
                    "interpolation": "LINEAR",
                    "output": 16
                },
                {
                    "input": 0,
                    "interpolation": "LINEAR",
                    "output": 17
                },
                {
                    "input": 0,
                    "interpolation": "LINEAR",
                    "output": 18
                }
            ]
        }
    ],
    "nodes": [
        {
            "name": "RootNode",
            "translation": [
                0.0,
                0.0,
                0.0
            ],
            "rotation": [
                0.0,
                0.0,
                0.0,
                1.0
            ],
            "scale": [
                1.0,
                1.0,
                1.0
            ],
            "children": [
                1
            ]
        },
        {
            "name": "Root_M",
            "translation": [
                4.17743017649326e-17,
                0.522929787635803,
                -0.0270395632833242
            ],
            "rotation": [
                0.411118477582932,
                0.391620248556137,
                0.580308079719543,
                0.583830237388611
            ],
            "scale": [
                1.0,
                1.0,
                1.0
            ],
            "children": [
                2
            ]
        },
        {
            "name": "Spine1_M",
            "translation": [
                0.751231491565704,
                -2.66453519954337e-17,
                -2.4424907071149e-16
            ],
            "rotation": [
                2.78520579622771e-17,
                -7.45469891847692e-18,
                0.0126436892896891,
                0.999920070171356
            ],
            "scale": [
                1.0,
                1.0,
                1.0
            ],
            "children": [
                3
            ]
        },
        {
            "name": "Chest_M",
            "translation": [
                0.760133445262909,
                -1.02140516147932e-15,
                -7.32747185664691e-16
            ],
            "rotation": [
                -0.138425782322884,
                0.0301939677447081,
                0.0293856132775545,
                0.989476203918457
            ],
            "scale": [
                1.0,
                1.0,
                1.0
            ],
            "children": [
                4,
                13,
                18
            ]
        },
        {
            "name": "Neck_M",
            "translation": [
                0.916350483894348,
                1.13686835180517e-15,
                7.28306297801356e-16
            ],
            "rotation": [
                5.54537779839711e-17,
                -5.78357901416054e-18,
                -0.0104428073391318,
                0.999945461750031
            ],
            "scale": [
                1.0,
                1.0,
                1.0
            ],
            "children": [
                5
            ]
        },
        {
            "name": "Head_M",
            "translation": [
                0.447840571403503,
                2.46810759563232e-05,
                -0.000219535562791862
            ],
            "rotation": [
                0.312885880470276,
                -0.0494122393429279,
                0.0568885132670403,
                0.946797013282776
            ],
            "scale": [
                1.0,
                1.0,
                1.0
            ],
            "children": [
                6,
                7,
                9,
                11
            ]
        },
        {
            "name": "HeadEnd_M",
            "translation": [
                0.799021065235138,
                -1.42108543975646e-16,
                4.17443856200268e-16
            ],
            "rotation": [
                4.96308367531817e-24,
                0.0,
                0.0,
                1.0
            ],
            "scale": [
                1.0,
                1.0,
                1.0
            ]
        },
        {
            "name": "Eye_R",
            "translation": [
                0.434589862823486,
                0.694486320018768,
                -0.279517292976379
            ],
            "rotation": [
                -0.133379742503166,
                0.144958794116974,
                0.663838148117065,
                0.721467733383179
            ],
            "scale": [
                1.0,
                1.0,
                1.0
            ],
            "children": [
                8
            ]
        },
        {
            "name": "EyeEnd_R",
            "translation": [
                0.103889539837837,
                1.70530252770776e-15,
                0.0
            ],
            "rotation": [
                3.46944695195361e-18,
                2.40741243048404e-35,
                6.93889390390723e-18,
                1.0
            ],
            "scale": [
                1.0,
                1.0,
                1.0
            ]
        },
        {
            "name": "Jaw_M",
            "translation": [
                -0.153860867023468,
                0.0771095901727676,
                -1.68753897625441e-16
            ],
            "rotation": [
                1.99773975537428e-24,
                -2.76421929620759e-24,
                0.764836013317108,
                0.644225001335144
            ],
            "scale": [
                1.0,
                1.0,
                1.0
            ],
            "children": [
                10
            ]
        },
        {
            "name": "JawEnd_M",
            "translation": [
                0.876297831535339,
                2.84217077363381e-15,
                3.81916700354021e-16
            ],
            "rotation": [
                -8.27180612553028e-25,
                -4.96308367531817e-24,
                5.55111512312578e-17,
                1.0
            ],
            "scale": [
                1.0,
                1.0,
                1.0
            ]
        },
        {
            "name": "Eye_L",
            "translation": [
                0.434589862823486,
                0.694486320018768,
                0.279517292976379
            ],
            "rotation": [
                0.133379742503166,
                -0.144958809018135,
                0.663838148117065,
                0.721467733383179
            ],
            "scale": [
                1.0,
                1.0,
                1.0
            ],
            "children": [
                12
            ]
        },
        {
            "name": "EyeEnd_L",
            "translation": [
                0.103889539837837,
                2.27373670361034e-15,
                -1.42108543975646e-16
            ],
            "rotation": [
                1.92592994438724e-34,
                2.77555756156289e-17,
                -6.93889390390723e-18,
                1.0
            ],
            "scale": [
                1.0,
                1.0,
                1.0
            ]
        },
        {
            "name": "Scapula_R",
            "translation": [
                0.21366311609745,
                0.0117677301168442,
                -1.48324906826019
            ],
            "rotation": [
                -0.146495267748833,
                0.918000400066376,
                -0.093560591340065,
                0.35645592212677
            ],
            "scale": [
                1.0,
                1.0,
                1.0
            ],
            "children": [
                14
            ]
        },
        {
            "name": "Shoulder_R",
            "translation": [
                0.596678137779236,
                -8.52651263853879e-16,
                0.0
            ],
            "rotation": [
                -0.124606683850288,
                0.109501667320728,
                0.288036435842514,
                0.943142414093018
            ],
            "scale": [
                1.0,
                1.0,
                1.0
            ],
            "children": [
                15
            ]
        },
        {
            "name": "Elbow_R",
            "translation": [
                0.763250470161438,
                -7.46069838666787e-15,
                -8.52651263853879e-16
            ],
            "rotation": [
                3.81721750427255e-17,
                -9.14489443489938e-18,
                0.522908985614777,
                0.852388501167297
            ],
            "scale": [
                1.0,
                1.0,
                1.0
            ],
            "children": [
                16
            ]
        },
        {
            "name": "Wrist_R",
            "translation": [
                0.432999551296234,
                4.40536499559394e-15,
                2.84217087951293e-16
            ],
            "rotation": [
                0.683003008365631,
                0.0665905624628067,
                -0.0310711562633514,
                0.726709842681885
            ],
            "scale": [
                1.0,
                1.0,
                1.0
            ],
            "children": [
                17
            ]
        },
        {
            "name": "MiddleFinger4_R",
            "translation": [
                1.35125017166138,
                -2.84217087951293e-16,
                1.20792266349766e-15
            ],
            "rotation": [
                3.46944695195361e-17,
                -2.77555756156289e-17,
                9.62964972193618e-34,
                1.0
            ],
            "scale": [
                1.0,
                1.0,
                1.0
            ]
        },
        {
            "name": "Scapula_L",
            "translation": [
                0.397407799959183,
                0.173670366406441,
                1.7145516872406
            ],
            "rotation": [
                0.907218217849731,
                -0.0549781695008278,
                -0.373115837574005,
                0.186325073242188
            ],
            "scale": [
                1.0,
                1.0,
                1.0
            ],
            "children": [
                19
            ]
        },
        {
            "name": "Shoulder_L",
            "translation": [
                -0.596678137779236,
                2.84217087951293e-16,
                1.13686835180517e-15
            ],
            "rotation": [
                -0.0540898963809013,
                0.347416132688522,
                0.0617921836674213,
                0.934108138084412
            ],
            "scale": [
                1.0,
                1.0,
                1.0
            ],
            "children": [
                20
            ]
        },
        {
            "name": "Elbow_L",
            "translation": [
                -0.763250470161438,
                4.23483473223525e-14,
                8.52651263853879e-16
            ],
            "rotation": [
                1.82460286879405e-08,
                7.40059213910627e-09,
                0.498190343379974,
                0.867067694664001
            ],
            "scale": [
                1.0,
                1.0,
                1.0
            ],
            "children": [
                21
            ]
        },
        {
            "name": "Wrist_L",
            "translation": [
                -0.432999551296234,
                2.22399867483769e-14,
                4.63836608011192e-10
            ],
            "rotation": [
                0.744325459003448,
                -0.0711753219366074,
                0.0386134386062622,
                0.66288959980011
            ],
            "scale": [
                1.0,
                1.0,
                1.0
            ],
            "children": [
                22
            ]
        },
        {
            "name": "MiddleFinger4_L",
            "translation": [
                -1.35125017166138,
                2.3557475414826e-10,
                -5.5223665917925e-11
            ],
            "rotation": [
                1.29047839081409e-08,
                -4.16333634234434e-17,
                2.77555756156289e-17,
                1.0
            ],
            "scale": [
                1.0,
                1.0,
                1.0
            ]
        }
    ]
}