{
    "asset": {
        "generator": "FBX2glTF v0.9.7",
        "version": "2.0"
    },
    "scene": 0,
    "buffers": [
        {
            "byteLength": 4000,
            "uri": "buffer.bin"
        }
    ],
    "bufferViews": [
        {
            "buffer": 0,
            "byteLength": 100,
            "byteOffset": 0
        },
        {
            "buffer": 0,
            "byteLength": 300,
            "byteOffset": 100
        },
        {
            "buffer": 0,
            "byteLength": 400,
            "byteOffset": 400
        },
        {
            "buffer": 0,
            "byteLength": 400,
            "byteOffset": 800
        },
        {
            "buffer": 0,
            "byteLength": 400,
            "byteOffset": 1200
        },
        {
            "buffer": 0,
            "byteLength": 400,
            "byteOffset": 1600
        },
        {
            "buffer": 0,
            "byteLength": 400,
            "byteOffset": 2000
        },
        {
            "buffer": 0,
            "byteLength": 400,
            "byteOffset": 2400
        },
        {
            "buffer": 0,
            "byteLength": 400,
            "byteOffset": 2800
        },
        {
            "buffer": 0,
            "byteLength": 400,
            "byteOffset": 3200
        },
        {
            "buffer": 0,
            "byteLength": 400,
            "byteOffset": 3600
        }
    ],
    "scenes": [
        {
            "name": "Root Scene",
            "nodes": [
                0
            ]
        }
    ],
    "accessors": [
        {
            "componentType": 5126,
            "type": "SCALAR",
            "count": 25,
            "bufferView": 0,
            "byteOffset": 0,
            "min": [
                0.0
            ],
            "max": [
                1.0
            ]
        },
        {
            "componentType": 5126,
            "type": "VEC3",
            "count": 25,
            "bufferView": 1,
            "byteOffset": 0
        },
        {
            "componentType": 5126,
            "type": "VEC4",
            "count": 25,
            "bufferView": 2,
            "byteOffset": 0
        },
        {
            "componentType": 5126,
            "type": "VEC4",
            "count": 25,
            "bufferView": 3,
            "byteOffset": 0
        },
        {
            "componentType": 5126,
            "type": "VEC4",
            "count": 25,
            "bufferView": 4,
            "byteOffset": 0
        },
        {
            "componentType": 5126,
            "type": "VEC4",
            "count": 25,
            "bufferView": 5,
            "byteOffset": 0
        },
        {
            "componentType": 5126,
            "type": "VEC4",
            "count": 25,
            "bufferView": 6,
            "byteOffset": 0
        },
        {
            "componentType": 5126,
            "type": "VEC4",
            "count": 25,
            "bufferView": 7,
            "byteOffset": 0
        },
        {
            "componentType": 5126,
            "type": "VEC4",
            "count": 25,
            "bufferView": 8,
            "byteOffset": 0
        },
        {
            "componentType": 5126,
            "type": "VEC4",
            "count": 25,
            "bufferView": 9,
            "byteOffset": 0
        },
        {
            "componentType": 5126,
            "type": "VEC4",
            "count": 25,
            "bufferView": 10,
            "byteOffset": 0
        }
    ],
    "samplers": [
        {}
    ],
    "animations": [
        {
            "name": "SpaceShip_idle",
            "channels": [
                {
                    "sampler": 0,
                    "target": {
                        "node": 1,
                        "path": "translation"
                    }
                },
                {
                    "sampler": 1,
                    "target": {
                        "node": 1,
                        "path": "rotation"
                    }
                },
                {
                    "sampler": 2,
                    "target": {
                        "node": 4,
                        "path": "rotation"
                    }
                },
                {
                    "sampler": 3,
                    "target": {
                        "node": 5,
                        "path": "rotation"
                    }
                },
                {
                    "sampler": 4,
                    "target": {
                        "node": 6,
                        "path": "rotation"
                    }
                },
                {
                    "sampler": 5,
                    "target": {
                        "node": 8,
                        "path": "rotation"
                    }
                },
                {
                    "sampler": 6,
                    "target": {
                        "node": 9,
                        "path": "rotation"
                    }
                },
                {
                    "sampler": 7,
                    "target": {
                        "node": 10,
                        "path": "rotation"
                    }
                },
                {
                    "sampler": 8,
                    "target": {
                        "node": 13,
                        "path": "rotation"
                    }
                },
                {
                    "sampler": 9,
                    "target": {
                        "node": 15,
                        "path": "rotation"
                    }
                }
            ],
            "samplers": [
                {
                    "input": 0,
                    "interpolation": "LINEAR",
                    "output": 1
                },
                {
                    "input": 0,
                    "interpolation": "LINEAR",
                    "output": 2
                },
                {
                    "input": 0,
                    "interpolation": "LINEAR",
                    "output": 3
                },
                {
                    "input": 0,
                    "interpolation": "LINEAR",
                    "output": 4
                },
                {
                    "input": 0,
                    "interpolation": "LINEAR",
                    "output": 5
                },
                {
                    "input": 0,
                    "interpolation": "LINEAR",
                    "output": 6
                },
                {
                    "input": 0,
                    "interpolation": "LINEAR",
                    "output": 7
                },
                {
                    "input": 0,
                    "interpolation": "LINEAR",
                    "output": 8
                },
                {
                    "input": 0,
                    "interpolation": "LINEAR",
                    "output": 9
                },
                {
                    "input": 0,
                    "interpolation": "LINEAR",
                    "output": 10
                }
            ]
        }
    ],
    "nodes": [
        {
            "name": "RootNode",
            "translation": [
                0.0,
                0.0,
                0.0
            ],
            "rotation": [
                0.0,
                0.0,
                0.0,
                1.0
            ],
            "scale": [
                1.0,
                1.0,
                1.0
            ],
            "children": [
                1
            ]
        },
        {
            "name": "Root_M",
            "translation": [
                0.0,
                0.0144021166488528,
                0.0
            ],
            "rotation": [
                0.502157747745514,
                0.502195835113525,
                0.493431329727173,
                0.502157747745514
            ],
            "scale": [
                1.0,
                1.0,
                1.0
            ],
            "children": [
                2,
                12,
                14
            ]
        },
        {
            "name": "Body_M",
            "translation": [
                0.0255978815257549,
                -5.06886187769022e-17,
                -5.0133506139624e-18
            ],
            "rotation": [
                -1.73472347597681e-18,
                7.31836466427715e-19,
                -8.67361737988404e-19,
                1.0
            ],
            "scale": [
                1.0,
                1.0,
                1.0
            ],
            "children": [
                3,
                4,
                8
            ]
        },
        {
            "name": "BodyEnd_M",
            "translation": [
                0.0314607843756676,
                6.93889374881086e-20,
                -9.99200679149249e-18
            ],
            "rotation": [
                -8.67361737988404e-19,
                7.31836466427715e-19,
                -8.67361737988404e-19,
                1.0
            ],
            "scale": [
                1.0,
                1.0,
                1.0
            ]
        },
        {
            "name": "wing1_R",
            "translation": [
                0.01981520652771,
                -0.00586253451183438,
                -0.0263877622783184
            ],
            "rotation": [
                0.590574860572815,
                0.317376315593719,
                -0.351222842931747,
                0.653556525707245
            ],
            "scale": [
                1.0,
                1.0,
                1.0
            ],
            "children": [
                5
            ]
        },
        {
            "name": "wing2_R",
            "translation": [
                0.0429245233535767,
                8.88178366760566e-17,
                2.00638117231478e-11
            ],
            "rotation": [
                0.0153260976076126,
                0.0369553901255131,
                -0.176188945770264,
                0.983543038368225
            ],
            "scale": [
                1.0,
                1.0,
                1.0
            ],
            "children": [
                6
            ]
        },
        {
            "name": "wing3_R",
            "translation": [
                0.0279112923890352,
                -3.55271359939116e-17,
                1.22302055635681e-11
            ],
            "rotation": [
                0.00372851244173944,
                0.0223453529179096,
                -0.0596482940018177,
                0.997962355613708
            ],
            "scale": [
                1.0,
                1.0,
                1.0
            ],
            "children": [
                7
            ]
        },
        {
            "name": "wing4_R",
            "translation": [
                0.0242546387016773,
                -7.10542719878232e-17,
                -4.44089183380283e-17
            ],
            "rotation": [
                -8.67361737988404e-19,
                -3.46944695195361e-18,
                7.39967982721357e-18,
                1.0
            ],
            "scale": [
                1.0,
                1.0,
                1.0
            ]
        },
        {
            "name": "wing1_L",
            "translation": [
                0.01981520652771,
                -0.00586253451183438,
                0.0263877622783184
            ],
            "rotation": [
                -0.318080931901932,
                0.590195655822754,
                0.653136909008026,
                0.352002590894699
            ],
            "scale": [
                1.0,
                1.0,
                1.0
            ],
            "children": [
                9
            ]
        },
        {
            "name": "wing2_L",
            "translation": [
                -0.0429245233535767,
                -1.11022302462516e-16,
                -4.66293655784187e-17
            ],
            "rotation": [
                0.0152280544862151,
                0.0369958952069283,
                -0.178796261548996,
                0.983072400093079
            ],
            "scale": [
                1.0,
                1.0,
                1.0
            ],
            "children": [
                10
            ]
        },
        {
            "name": "wing3_L",
            "translation": [
                -0.0279112923890352,
                7.99360543319399e-17,
                9.99200679149249e-18
            ],
            "rotation": [
                0.00372851244173944,
                0.0223453529179096,
                -0.0596482940018177,
                0.997962355613708
            ],
            "scale": [
                1.0,
                1.0,
                1.0
            ],
            "children": [
                11
            ]
        },
        {
            "name": "wing4_L",
            "translation": [
                -0.0242546387016773,
                -2.66453519954337e-17,
                3.55271359939116e-17
            ],
            "rotation": [
                -8.67361737988404e-19,
                -1.73472347597681e-18,
                3.63207727782644e-18,
                1.0
            ],
            "scale": [
                1.0,
                1.0,
                1.0
            ]
        },
        {
            "name": "hehe1_R",
            "translation": [
                -0.0204705689102411,
                -0.01182303391397,
                -0.0715868920087814
            ],
            "rotation": [
                0.105346813797951,
                0.108024515211582,
                -0.707727551460266,
                0.690184354782104
            ],
            "scale": [
                1.0,
                1.0,
                1.0
            ],
            "children": [
                13
            ]
        },
        {
            "name": "hehe2_R",
            "translation": [
                0.0753801167011261,
                9.99200679149249e-18,
                -8.88178399847791e-18
            ],
            "rotation": [
                -0.0178552120923996,
                -0.805507183074951,
                0.027982821688056,
                0.591655552387238
            ],
            "scale": [
                1.0,
                1.0,
                1.0
            ]
        },
        {
            "name": "hehe1_L",
            "translation": [
                -0.0204705689102411,
                -0.01182303391397,
                0.0715868920087814
            ],
            "rotation": [
                -0.108024522662163,
                0.10534680634737,
                0.690184354782104,
                0.707727551460266
            ],
            "scale": [
                1.0,
                1.0,
                1.0
            ],
            "children": [
                15
            ]
        },
        {
            "name": "hehe2_L",
            "translation": [
                -0.0753801167011261,
                1.49880110971374e-16,
                5.32907039908674e-17
            ],
            "rotation": [
                -0.0178552065044641,
                -0.805507183074951,
                0.0279828142374754,
                0.591655552387238
            ],
            "scale": [
                1.0,
                1.0,
                1.0
            ]
        }
    ]
}