{
  "accessors": [
    {
      "bufferView": 0,
      "componentType": 5126,
      "count": 250,
      "max": [
        0.006131268106400967,
        0.0014566857134923339,
        0.008419165387749672
      ],
      "min": [
        -0.006131268106400967,
        -5.760863496107049e-05,
        -0.008419165387749672
      ],
      "name": "Book_01_Open/POSITION",
      "type": "VEC3"
    },
    {
      "bufferView": 0,
      "byteOffset": 12,
      "componentType": 5126,
      "count": 250,
      "name": "Book_01_Open/NORMAL",
      "type": "VEC3"
    },
    {
      "bufferView": 0,
      "byteOffset": 24,
      "componentType": 5126,
      "count": 250,
      "name": "Book_01_Open/TEXCOORD_0",
      "type": "VEC2"
    },
    {
      "bufferView": 1,
      "componentType": 5125,
      "count": 708,
      "name": "Book_01_Open/INDICES",
      "type": "SCALAR"
    }
  ],
  "asset": {
    "copyright": "Copyright (c) 2018-2020 Chukong Technologies Inc.",
    "generator": "FBX-glTF-conv",
    "version": "2.0"
  },
  "bufferViews": [
    {
      "buffer": 0,
      "byteLength": 8000,
      "byteStride": 32,
      "name": "Book_01_Open",
      "target": 34962
    },
    {
      "buffer": 0,
      "byteLength": 2832,
      "byteOffset": 8000
    }
  ],
  "buffers": [
    {
      "byteLength": 10832,
      "uri": "out.bin"
    }
  ],
  "extras": {
    "FBX-glTF-conv": {
      "animationFrameRate": 30.0
    }
  },
  "images": [
    {
      "extras": {
        "FBX-glTF-conv": {
          "fileName": "C:\\Users\\Artist\\Downloads\\New folder (3)\\Level (8)\\PSDVictorian_TextureAtlas_01.png",
          "relativeFileName": "C:\\Users\\Artist\\Downloads\\New folder (3)\\Level (8)\\PSDVictorian_TextureAtlas_01.png"
        }
      },
      "name": "PSDVictorian_TextureAtlas_01.png",
      "uri": "data:image/png;base64,"
    }
  ],
  "materials": [
    {
      "name": "Victorian_TextureAtlas_01",
      "pbrMetallicRoughness": {
        "baseColorTexture": {
          "index": 0
        },
        "metallicFactor": 0.4000000059604645,
        "roughnessFactor": 0.30151134729385376
      }
    }
  ],
  "meshes": [
    {
      "name": "Book_01_Open",
      "primitives": [
        {
          "attributes": {
            "NORMAL": 1,
            "POSITION": 0,
            "TEXCOORD_0": 2
          },
          "indices": 3,
          "material": 0
        }
      ]
    }
  ],
  "nodes": [
    {
      "mesh": 0,
      "name": "Book_01_Open"
    }
  ],
  "samplers": [
    {}
  ],
  "scenes": [
    {
      "nodes": [
        0
      ]
    }
  ],
  "textures": [
    {
      "name": "PSDVictorian_TextureAtlas_01.png",
      "sampler": 0,
      "source": 0
    }
  ]
}