{
  "accessors": [
    {
      "bufferView": 0,
      "componentType": 5126,
      "count": 583,
      "max": [
        0.07868200540542603,
        0.17953355610370636,
        0.07868202030658722
      ],
      "min": [
        -0.07868203520774841,
        -2.093103830702603e-06,
        -0.07868203520774841
      ],
      "name": "lab_Material0/POSITION",
      "type": "VEC3"
    },
    {
      "bufferView": 0,
      "byteOffset": 12,
      "componentType": 5126,
      "count": 583,
      "name": "lab_Material0/NORMAL",
      "type": "VEC3"
    },
    {
      "bufferView": 0,
      "byteOffset": 24,
      "componentType": 5126,
      "count": 583,
      "name": "lab_Material0/TEXCOORD_0",
      "type": "VEC2"
    },
    {
      "bufferView": 1,
      "componentType": 5125,
      "count": 2340,
      "name": "lab_Material0/INDICES",
      "type": "SCALAR"
    },
    {
      "bufferView": 2,
      "componentType": 5126,
      "count": 402,
      "max": [
        0.05816105380654335,
        0.2214127480983734,
        0.05816105753183365
      ],
      "min": [
        -0.058161068707704544,
        0.0203403253108263,
        -0.05816107615828514
      ],
      "name": "lab_Material0/POSITION",
      "type": "VEC3"
    },
    {
      "bufferView": 2,
      "byteOffset": 12,
      "componentType": 5126,
      "count": 402,
      "name": "lab_Material0/NORMAL",
      "type": "VEC3"
    },
    {
      "bufferView": 2,
      "byteOffset": 24,
      "componentType": 5126,
      "count": 402,
      "name": "lab_Material0/TEXCOORD_0",
      "type": "VEC2"
    },
    {
      "bufferView": 3,
      "componentType": 5125,
      "count": 2160,
      "name": "lab_Material0/INDICES",
      "type": "SCALAR"
    },
    {
      "bufferView": 4,
      "componentType": 5126,
      "count": 1344,
      "max": [
        -0.05700531601905823,
        0.05119362846016884,
        0.015875589102506638
      ],
      "min": [
        -0.1272979974746704,
        0.005411271005868912,
        -0.01587558351457119
      ],
      "name": "polySurface305/POSITION",
      "type": "VEC3"
    },
    {
      "bufferView": 4,
      "byteOffset": 12,
      "componentType": 5126,
      "count": 1344,
      "name": "polySurface305/NORMAL",
      "type": "VEC3"
    },
    {
      "bufferView": 4,
      "byteOffset": 24,
      "componentType": 5126,
      "count": 1344,
      "name": "polySurface305/TEXCOORD_0",
      "type": "VEC2"
    },
    {
      "bufferView": 5,
      "componentType": 5125,
      "count": 5760,
      "name": "polySurface305/INDICES",
      "type": "SCALAR"
    }
  ],
  "asset": {
    "copyright": "Copyright (c) 2018-2020 Chukong Technologies Inc.",
    "generator": "FBX-glTF-conv",
    "version": "2.0"
  },
  "bufferViews": [
    {
      "buffer": 0,
      "byteLength": 18656,
      "byteStride": 32,
      "name": "lab_Material0",
      "target": 34962
    },
    {
      "buffer": 0,
      "byteLength": 9360,
      "byteOffset": 18656
    },
    {
      "buffer": 0,
      "byteLength": 12864,
      "byteOffset": 28016,
      "byteStride": 32,
      "name": "lab_Material0",
      "target": 34962
    },
    {
      "buffer": 0,
      "byteLength": 8640,
      "byteOffset": 40880
    },
    {
      "buffer": 0,
      "byteLength": 43008,
      "byteOffset": 49520,
      "byteStride": 32,
      "name": "polySurface305",
      "target": 34962
    },
    {
      "buffer": 0,
      "byteLength": 23040,
      "byteOffset": 92528
    }
  ],
  "buffers": [
    {
      "byteLength": 115568,
      "uri": "out.bin"
    }
  ],
  "extras": {
    "FBX-glTF-conv": {
      "animationFrameRate": 30.0
    }
  },
  "images": [
    {
      "extras": {
        "FBX-glTF-conv": {
          "fileName": "D:/Farts Ville/Texture.png",
          "relativeFileName": "..\\Texture.png"
        }
      },
      "name": "file1",
      "uri": "data:image/png;base64,"
    }
  ],
  "materials": [
    {
      "name": "Texture",
      "pbrMetallicRoughness": {
        "baseColorFactor": [
          0.800000011920929,
          0.800000011920929,
          0.800000011920929,
          1.0
        ],
        "baseColorTexture": {
          "index": 0
        }
      }
    },
    {
      "alphaMode": "BLEND",
      "name": "glass",
      "pbrMetallicRoughness": {
        "baseColorFactor": [
          0.25461921095848083,
          0.5737146735191345,
          0.651199996471405,
          0.285714328289032
        ]
      }
    }
  ],
  "meshes": [
    {
      "name": "lab_Material0",
      "primitives": [
        {
          "attributes": {
            "NORMAL": 1,
            "POSITION": 0,
            "TEXCOORD_0": 2
          },
          "indices": 3,
          "material": 0
        },
        {
          "attributes": {
            "NORMAL": 5,
            "POSITION": 4,
            "TEXCOORD_0": 6
          },
          "indices": 7,
          "material": 1
        }
      ]
    },
    {
      "name": "polySurface305",
      "primitives": [
        {
          "attributes": {
            "NORMAL": 9,
            "POSITION": 8,
            "TEXCOORD_0": 10
          },
          "indices": 11,
          "material": 0
        }
      ]
    }
  ],
  "nodes": [
    {
      "children": [
        1
      ],
      "mesh": 0,
      "name": "lab"
    },
    {
      "mesh": 1,
      "name": "polySurface305"
    }
  ],
  "samplers": [
    {}
  ],
  "scenes": [
    {
      "nodes": [
        0
      ]
    }
  ],
  "textures": [
    {
      "name": "file1",
      "sampler": 0,
      "source": 0
    }
  ]
}