{
  "accessors": [
    {
      "bufferView": 0,
      "componentType": 5126,
      "count": 3330,
      "max": [
        0.9166162610054016,
        1.4359031915664673,
        0.5813591480255127
      ],
      "min": [
        -0.9638257622718811,
        0.0022294402588158846,
        -0.5425029993057251
      ],
      "name": "Body/POSITION",
      "type": "VEC3"
    },
    {
      "bufferView": 0,
      "byteOffset": 12,
      "componentType": 5126,
      "count": 3330,
      "name": "Body/NORMAL",
      "type": "VEC3"
    },
    {
      "bufferView": 0,
      "byteOffset": 24,
      "componentType": 5126,
      "count": 3330,
      "name": "Body/TEXCOORD_0",
      "type": "VEC2"
    },
    {
      "bufferView": 0,
      "byteOffset": 32,
      "componentType": 5123,
      "count": 3330,
      "name": "Body/JOINTS_0",
      "type": "VEC4"
    },
    {
      "bufferView": 0,
      "byteOffset": 40,
      "componentType": 5126,
      "count": 3330,
      "name": "Body/WEIGHTS_0",
      "type": "VEC4"
    },
    {
      "bufferView": 0,
      "byteOffset": 56,
      "componentType": 5123,
      "count": 3330,
      "name": "Body/JOINTS_1",
      "type": "VEC4"
    },
    {
      "bufferView": 0,
      "byteOffset": 64,
      "componentType": 5126,
      "count": 3330,
      "name": "Body/WEIGHTS_1",
      "type": "VEC4"
    },
    {
      "bufferView": 1,
      "componentType": 5125,
      "count": 12972,
      "name": "Body/INDICES",
      "type": "SCALAR"
    },
    {
      "bufferView": 2,
      "componentType": 5126,
      "count": 22,
      "name": "/InverseBindMatrices",
      "type": "MAT4"
    },
    {
      "bufferView": 3,
      "componentType": 5126,
      "count": 503,
      "max": [
        0.2825256288051605,
        1.5468449592590332,
        0.7303321957588196
      ],
      "min": [
        -0.2806457579135895,
        0.9587143063545227,
        0.2632386088371277
      ],
      "name": "Head/POSITION",
      "type": "VEC3"
    },
    {
      "bufferView": 3,
      "byteOffset": 12,
      "componentType": 5126,
      "count": 503,
      "name": "Head/NORMAL",
      "type": "VEC3"
    },
    {
      "bufferView": 3,
      "byteOffset": 24,
      "componentType": 5126,
      "count": 503,
      "name": "Head/TEXCOORD_0",
      "type": "VEC2"
    },
    {
      "bufferView": 4,
      "componentType": 5125,
      "count": 1920,
      "name": "Head/INDICES",
      "type": "SCALAR"
    }
  ],
  "asset": {
    "copyright": "Copyright (c) 2018-2020 Chukong Technologies Inc.",
    "generator": "FBX-glTF-conv",
    "version": "2.0"
  },
  "bufferViews": [
    {
      "buffer": 0,
      "byteLength": 266400,
      "byteStride": 80,
      "name": "Body",
      "target": 34962
    },
    {
      "buffer": 0,
      "byteLength": 51888,
      "byteOffset": 266400
    },
    {
      "buffer": 0,
      "byteLength": 1408,
      "byteOffset": 318288
    },
    {
      "buffer": 0,
      "byteLength": 16096,
      "byteOffset": 319696,
      "byteStride": 32,
      "name": "Head",
      "target": 34962
    },
    {
      "buffer": 0,
      "byteLength": 7680,
      "byteOffset": 335792
    }
  ],
  "buffers": [
    {
      "byteLength": 343472,
      "uri": "out.bin"
    }
  ],
  "extras": {
    "FBX-glTF-conv": {
      "animationFrameRate": 24.0
    }
  },
  "images": [
    {
      "extras": {
        "FBX-glTF-conv": {
          "fileName": "D:/Maya_projects/Zombie/FixZombie/Zombie/Zombie_Big.png",
          "relativeFileName": "Zombie_Big.png"
        }
      },
      "name": "file14",
      "uri": "data:image/png;base64,"
    }
  ],
  "materials": [
    {
      "name": "Zombie_gunner_mat",
      "pbrMetallicRoughness": {
        "baseColorFactor": [
          0.800000011920929,
          0.800000011920929,
          0.800000011920929,
          1.0
        ],
        "baseColorTexture": {
          "index": 0
        },
        "metallicFactor": 0.4000000059604645,
        "roughnessFactor": 0.49053239822387695
      }
    }
  ],
  "meshes": [
    {
      "name": "Body",
      "primitives": [
        {
          "attributes": {
            "JOINTS_0": 3,
            "JOINTS_1": 5,
            "NORMAL": 1,
            "POSITION": 0,
            "TEXCOORD_0": 2,
            "WEIGHTS_0": 4,
            "WEIGHTS_1": 6
          },
          "indices": 7,
          "material": 0
        }
      ]
    },
    {
      "name": "Head",
      "primitives": [
        {
          "attributes": {
            "NORMAL": 10,
            "POSITION": 9,
            "TEXCOORD_0": 11
          },
          "indices": 12,
          "material": 0
        }
      ]
    }
  ],
  "nodes": [
    {
      "children": [
        1,
        2
      ],
      "name": "group"
    },
    {
      "mesh": 0,
      "name": "Body",
      "skin": 0
    },
    {
      "children": [
        3
      ],
      "name": "Zombie_Big",
      "translation": [
        0.0,
        -0.1980886161327362,
        -0.18061654269695282
      ]
    },
    {
      "children": [
        4,
        8,
        12
      ],
      "extras": {
        "FBX-glTF-conv": {
          "skeleton": {
            "skeletonType": "LimbNode"
          }
        }
      },
      "name": "Character1_Hips",
      "translation": [
        0.0,
        0.7999687194824219,
        1.584107849339489e-05
      ]
    },
    {
      "children": [
        5
      ],
      "extras": {
        "FBX-glTF-conv": {
          "skeleton": {
            "skeletonType": "LimbNode"
          }
        }
      },
      "name": "Character1_LeftUpLeg",
      "rotation": [
        -0.0037896058056503534,
        -0.0,
        0.0,
        0.999992847442627
      ],
      "translation": [
        0.27467840909957886,
        -0.050159987062215805,
        -5.7220457705398076e-08
      ]
    },
    {
      "children": [
        6
      ],
      "extras": {
        "FBX-glTF-conv": {
          "skeleton": {
            "skeletonType": "LimbNode"
          }
        }
      },
      "name": "Character1_LeftLeg",
      "rotation": [
        0.013063019141554832,
        0.0,
        0.0,
        0.9999146461486816
      ],
      "translation": [
        9.536743306171047e-08,
        -0.30114248394966125,
        -2.952927161459229e-06
      ]
    },
    {
      "children": [
        7
      ],
      "extras": {
        "FBX-glTF-conv": {
          "skeleton": {
            "skeletonType": "LimbNode"
          }
        }
      },
      "name": "Character1_LeftFoot",
      "rotation": [
        -0.009273640811443329,
        -0.0,
        0.0,
        0.9999570250511169
      ],
      "translation": [
        -5.7220457705398076e-08,
        -0.12371070683002472,
        -6.56414727018273e-07
      ]
    },
    {
      "extras": {
        "FBX-glTF-conv": {
          "skeleton": {
            "skeletonType": "LimbNode"
          }
        }
      },
      "name": "Character1_LeftToeBase",
      "translation": [
        7.629394360719743e-08,
        -0.05009845271706581,
        0.3243740200996399
      ]
    },
    {
      "children": [
        9
      ],
      "extras": {
        "FBX-glTF-conv": {
          "skeleton": {
            "skeletonType": "LimbNode"
          }
        }
      },
      "name": "Character1_RightUpLeg",
      "rotation": [
        -0.003787596710026264,
        -0.0,
        0.0,
        0.999992847442627
      ],
      "translation": [
        -0.27467840909957886,
        -0.050159987062215805,
        -5.7220457705398076e-08
      ]
    },
    {
      "children": [
        10
      ],
      "extras": {
        "FBX-glTF-conv": {
          "skeleton": {
            "skeletonType": "LimbNode"
          }
        }
      },
      "name": "Character1_RightLeg",
      "rotation": [
        0.013056826777756214,
        0.0,
        0.0,
        0.9999147653579712
      ],
      "translation": [
        -1.5258788721439487e-07,
        -0.30114227533340454,
        -2.8096769710828084e-06
      ]
    },
    {
      "children": [
        11
      ],
      "extras": {
        "FBX-glTF-conv": {
          "skeleton": {
            "skeletonType": "LimbNode"
          }
        }
      },
      "name": "Character1_RightFoot",
      "rotation": [
        -0.009269461035728455,
        -0.0,
        0.0,
        0.9999570250511169
      ],
      "translation": [
        1.1444091541079615e-07,
        -0.12371085584163666,
        -6.58581598145247e-07
      ]
    },
    {
      "extras": {
        "FBX-glTF-conv": {
          "skeleton": {
            "skeletonType": "LimbNode"
          }
        }
      },
      "name": "Character1_RightToeBase",
      "rotation": [
        3.915654230554013e-18,
        4.1891249566106126e-05,
        1.5605705204653486e-13,
        1.0
      ],
      "translation": [
        -7.629394360719743e-08,
        -0.05009844899177551,
        0.3243739604949951
      ]
    },
    {
      "children": [
        13
      ],
      "extras": {
        "FBX-glTF-conv": {
          "skeleton": {
            "skeletonType": "LimbNode"
          }
        }
      },
      "name": "Character1_Spine",
      "rotation": [
        1.5605600083290483e-06,
        0.0,
        0.0,
        1.0
      ],
      "translation": [
        0.0,
        0.15839165449142456,
        1.5258788721439487e-07
      ]
    },
    {
      "children": [
        14
      ],
      "extras": {
        "FBX-glTF-conv": {
          "skeleton": {
            "skeletonType": "LimbNode"
          }
        }
      },
      "name": "Character1_Spine1",
      "translation": [
        0.0,
        0.13605225086212158,
        -5.018233828479879e-09
      ]
    },
    {
      "children": [
        15,
        19,
        23,
        25
      ],
      "extras": {
        "FBX-glTF-conv": {
          "skeleton": {
            "skeletonType": "LimbNode"
          }
        }
      },
      "name": "Character1_Spine2",
      "translation": [
        0.0,
        0.13605239987373352,
        -5.018709892112838e-09
      ]
    },
    {
      "children": [
        16
      ],
      "extras": {
        "FBX-glTF-conv": {
          "skeleton": {
            "skeletonType": "LimbNode"
          }
        }
      },
      "name": "Character1_LeftShoulder",
      "translation": [
        0.3861246407032013,
        0.14876067638397217,
        0.14451049268245697
      ]
    },
    {
      "children": [
        17
      ],
      "extras": {
        "FBX-glTF-conv": {
          "skeleton": {
            "skeletonType": "LimbNode"
          }
        }
      },
      "name": "Character1_LeftArm",
      "rotation": [
        9.682392555987462e-05,
        3.767454109038226e-05,
        -0.00011251298565184698,
        1.0
      ],
      "translation": [
        0.052694473415613174,
        -0.06753204017877579,
        9.670368950054353e-10
      ]
    },
    {
      "children": [
        18
      ],
      "extras": {
        "FBX-glTF-conv": {
          "skeleton": {
            "skeletonType": "LimbNode"
          }
        }
      },
      "name": "Character1_LeftForeArm",
      "rotation": [
        -0.00012885892647318542,
        -2.4027556719374843e-05,
        0.00017670869419816881,
        1.0
      ],
      "translation": [
        0.19264625012874603,
        -0.2587129473686218,
        0.08134675770998001
      ]
    },
    {
      "extras": {
        "FBX-glTF-conv": {
          "skeleton": {
            "skeletonType": "LimbNode"
          }
        }
      },
      "name": "Character1_LeftHand",
      "rotation": [
        3.199672937626019e-05,
        -1.3635341929330025e-05,
        -0.00019894012075383216,
        1.0
      ],
      "translation": [
        0.15253998339176178,
        -0.2990383803844452,
        0.2535121738910675
      ]
    },
    {
      "children": [
        20
      ],
      "extras": {
        "FBX-glTF-conv": {
          "skeleton": {
            "skeletonType": "LimbNode"
          }
        }
      },
      "name": "Character1_RightShoulder",
      "translation": [
        -0.3861246407032013,
        0.14876067638397217,
        0.14451049268245697
      ]
    },
    {
      "children": [
        21
      ],
      "extras": {
        "FBX-glTF-conv": {
          "skeleton": {
            "skeletonType": "LimbNode"
          }
        }
      },
      "name": "Character1_RightArm",
      "rotation": [
        0.17711898684501648,
        -0.1502549797296524,
        -0.08668217062950134,
        0.9687819480895996
      ],
      "translation": [
        -0.052694473415613174,
        -0.06753204017877579,
        9.670368950054353e-10
      ]
    },
    {
      "children": [
        22
      ],
      "extras": {
        "FBX-glTF-conv": {
          "skeleton": {
            "skeletonType": "LimbNode"
          }
        }
      },
      "name": "Character1_RightForeArm",
      "rotation": [
        -0.0619378462433815,
        0.22160087525844574,
        -0.020582661032676697,
        0.9729506969451904
      ],
      "translation": [
        -0.19264617562294006,
        -0.2587180733680725,
        0.0813305452466011
      ]
    },
    {
      "extras": {
        "FBX-glTF-conv": {
          "skeleton": {
            "skeletonType": "LimbNode"
          }
        }
      },
      "name": "Character1_RightHand",
      "rotation": [
        -0.04783374443650246,
        -0.09374798834323883,
        0.0800803005695343,
        0.9912165999412537
      ],
      "translation": [
        -0.15248163044452667,
        -0.29906848073005676,
        0.2535119354724884
      ]
    },
    {
      "children": [
        24
      ],
      "extras": {
        "FBX-glTF-conv": {
          "skeleton": {
            "skeletonType": "LimbNode"
          }
        }
      },
      "name": "Character1_Neck",
      "translation": [
        0.0,
        0.13605071604251862,
        -5.013471415793447e-09
      ]
    },
    {
      "extras": {
        "FBX-glTF-conv": {
          "skeleton": {
            "skeletonType": "LimbNode"
          }
        }
      },
      "name": "Character1_Head",
      "translation": [
        0.0,
        0.15999816358089447,
        -3.4623075517714597e-09
      ]
    },
    {
      "mesh": 1,
      "name": "Head",
      "rotation": [
        -1.5605583030264825e-06,
        -0.0,
        0.0,
        1.0
      ],
      "translation": [
        0.0,
        -1.0323758125305176,
        0.18060293793678284
      ]
    }
  ],
  "samplers": [
    {}
  ],
  "scenes": [
    {
      "nodes": [
        0
      ]
    }
  ],
  "skins": [
    {
      "inverseBindMatrices": 8,
      "joints": [
        3,
        4,
        5,
        6,
        7,
        8,
        9,
        10,
        11,
        12,
        13,
        14,
        15,
        16,
        17,
        18,
        19,
        20,
        21,
        22,
        23,
        24
      ]
    }
  ],
  "textures": [
    {
      "name": "file14",
      "sampler": 0,
      "source": 0
    }
  ]
}