{
  "accessors": [
    {
      "bufferView": 0,
      "componentType": 5126,
      "count": 44,
      "max": [
        1.4333332777023315
      ],
      "min": [
        0.0
      ],
      "name": "Root_M/Trs/Input",
      "type": "SCALAR"
    },
    {
      "bufferView": 1,
      "componentType": 5126,
      "count": 44,
      "name": "Root_M/translation/Output",
      "type": "VEC3"
    },
    {
      "bufferView": 2,
      "componentType": 5126,
      "count": 44,
      "name": "Root_M/rotation/Output",
      "type": "VEC4"
    },
    {
      "bufferView": 3,
      "componentType": 5126,
      "count": 44,
      "name": "Root_M/scale/Output",
      "type": "VEC3"
    },
    {
      "bufferView": 4,
      "componentType": 5126,
      "count": 44,
      "max": [
        1.4333332777023315
      ],
      "min": [
        0.0
      ],
      "name": "Tail1_M/Trs/Input",
      "type": "SCALAR"
    },
    {
      "bufferView": 5,
      "componentType": 5126,
      "count": 44,
      "name": "Tail1_M/translation/Output",
      "type": "VEC3"
    },
    {
      "bufferView": 6,
      "componentType": 5126,
      "count": 44,
      "name": "Tail1_M/rotation/Output",
      "type": "VEC4"
    },
    {
      "bufferView": 7,
      "componentType": 5126,
      "count": 44,
      "name": "Tail1_M/scale/Output",
      "type": "VEC3"
    },
    {
      "bufferView": 8,
      "componentType": 5126,
      "count": 44,
      "max": [
        1.4333332777023315
      ],
      "min": [
        0.0
      ],
      "name": "Tail2_M/Trs/Input",
      "type": "SCALAR"
    },
    {
      "bufferView": 9,
      "componentType": 5126,
      "count": 44,
      "name": "Tail2_M/translation/Output",
      "type": "VEC3"
    },
    {
      "bufferView": 10,
      "componentType": 5126,
      "count": 44,
      "name": "Tail2_M/rotation/Output",
      "type": "VEC4"
    },
    {
      "bufferView": 11,
      "componentType": 5126,
      "count": 44,
      "name": "Tail2_M/scale/Output",
      "type": "VEC3"
    },
    {
      "bufferView": 12,
      "componentType": 5126,
      "count": 44,
      "max": [
        1.4333332777023315
      ],
      "min": [
        0.0
      ],
      "name": "Tail3_M/Trs/Input",
      "type": "SCALAR"
    },
    {
      "bufferView": 13,
      "componentType": 5126,
      "count": 44,
      "name": "Tail3_M/translation/Output",
      "type": "VEC3"
    },
    {
      "bufferView": 14,
      "componentType": 5126,
      "count": 44,
      "name": "Tail3_M/rotation/Output",
      "type": "VEC4"
    },
    {
      "bufferView": 15,
      "componentType": 5126,
      "count": 44,
      "name": "Tail3_M/scale/Output",
      "type": "VEC3"
    },
    {
      "bufferView": 16,
      "componentType": 5126,
      "count": 44,
      "max": [
        1.4333332777023315
      ],
      "min": [
        0.0
      ],
      "name": "Tail4_M/Trs/Input",
      "type": "SCALAR"
    },
    {
      "bufferView": 17,
      "componentType": 5126,
      "count": 44,
      "name": "Tail4_M/translation/Output",
      "type": "VEC3"
    },
    {
      "bufferView": 18,
      "componentType": 5126,
      "count": 44,
      "name": "Tail4_M/rotation/Output",
      "type": "VEC4"
    },
    {
      "bufferView": 19,
      "componentType": 5126,
      "count": 44,
      "name": "Tail4_M/scale/Output",
      "type": "VEC3"
    },
    {
      "bufferView": 20,
      "componentType": 5126,
      "count": 44,
      "max": [
        1.4333332777023315
      ],
      "min": [
        0.0
      ],
      "name": "Tail5_M/Trs/Input",
      "type": "SCALAR"
    },
    {
      "bufferView": 21,
      "componentType": 5126,
      "count": 44,
      "name": "Tail5_M/translation/Output",
      "type": "VEC3"
    },
    {
      "bufferView": 22,
      "componentType": 5126,
      "count": 44,
      "name": "Tail5_M/rotation/Output",
      "type": "VEC4"
    },
    {
      "bufferView": 23,
      "componentType": 5126,
      "count": 44,
      "name": "Tail5_M/scale/Output",
      "type": "VEC3"
    },
    {
      "bufferView": 24,
      "componentType": 5126,
      "count": 44,
      "max": [
        1.4333332777023315
      ],
      "min": [
        0.0
      ],
      "name": "Tail6_M/Trs/Input",
      "type": "SCALAR"
    },
    {
      "bufferView": 25,
      "componentType": 5126,
      "count": 44,
      "name": "Tail6_M/translation/Output",
      "type": "VEC3"
    },
    {
      "bufferView": 26,
      "componentType": 5126,
      "count": 44,
      "name": "Tail6_M/rotation/Output",
      "type": "VEC4"
    },
    {
      "bufferView": 27,
      "componentType": 5126,
      "count": 44,
      "name": "Tail6_M/scale/Output",
      "type": "VEC3"
    }
  ],
  "animations": [
    {
      "channels": [
        {
          "sampler": 0,
          "target": {
            "node": 0,
            "path": "translation"
          }
        },
        {
          "sampler": 1,
          "target": {
            "node": 0,
            "path": "rotation"
          }
        },
        {
          "sampler": 2,
          "target": {
            "node": 0,
            "path": "scale"
          }
        },
        {
          "sampler": 3,
          "target": {
            "node": 1,
            "path": "translation"
          }
        },
        {
          "sampler": 4,
          "target": {
            "node": 1,
            "path": "rotation"
          }
        },
        {
          "sampler": 5,
          "target": {
            "node": 1,
            "path": "scale"
          }
        },
        {
          "sampler": 6,
          "target": {
            "node": 2,
            "path": "translation"
          }
        },
        {
          "sampler": 7,
          "target": {
            "node": 2,
            "path": "rotation"
          }
        },
        {
          "sampler": 8,
          "target": {
            "node": 2,
            "path": "scale"
          }
        },
        {
          "sampler": 9,
          "target": {
            "node": 3,
            "path": "translation"
          }
        },
        {
          "sampler": 10,
          "target": {
            "node": 3,
            "path": "rotation"
          }
        },
        {
          "sampler": 11,
          "target": {
            "node": 3,
            "path": "scale"
          }
        },
        {
          "sampler": 12,
          "target": {
            "node": 4,
            "path": "translation"
          }
        },
        {
          "sampler": 13,
          "target": {
            "node": 4,
            "path": "rotation"
          }
        },
        {
          "sampler": 14,
          "target": {
            "node": 4,
            "path": "scale"
          }
        },
        {
          "sampler": 15,
          "target": {
            "node": 5,
            "path": "translation"
          }
        },
        {
          "sampler": 16,
          "target": {
            "node": 5,
            "path": "rotation"
          }
        },
        {
          "sampler": 17,
          "target": {
            "node": 5,
            "path": "scale"
          }
        },
        {
          "sampler": 18,
          "target": {
            "node": 6,
            "path": "translation"
          }
        },
        {
          "sampler": 19,
          "target": {
            "node": 6,
            "path": "rotation"
          }
        },
        {
          "sampler": 20,
          "target": {
            "node": 6,
            "path": "scale"
          }
        }
      ],
      "name": "All",
      "samplers": [
        {
          "input": 0,
          "output": 1
        },
        {
          "input": 0,
          "output": 2
        },
        {
          "input": 0,
          "output": 3
        },
        {
          "input": 4,
          "output": 5
        },
        {
          "input": 4,
          "output": 6
        },
        {
          "input": 4,
          "output": 7
        },
        {
          "input": 8,
          "output": 9
        },
        {
          "input": 8,
          "output": 10
        },
        {
          "input": 8,
          "output": 11
        },
        {
          "input": 12,
          "output": 13
        },
        {
          "input": 12,
          "output": 14
        },
        {
          "input": 12,
          "output": 15
        },
        {
          "input": 16,
          "output": 17
        },
        {
          "input": 16,
          "output": 18
        },
        {
          "input": 16,
          "output": 19
        },
        {
          "input": 20,
          "output": 21
        },
        {
          "input": 20,
          "output": 22
        },
        {
          "input": 20,
          "output": 23
        },
        {
          "input": 24,
          "output": 25
        },
        {
          "input": 24,
          "output": 26
        },
        {
          "input": 24,
          "output": 27
        }
      ]
    }
  ],
  "asset": {
    "copyright": "Copyright (c) 2018-2020 Chukong Technologies Inc.",
    "generator": "FBX-glTF-conv",
    "version": "2.0"
  },
  "bufferViews": [
    {
      "buffer": 0,
      "byteLength": 176
    },
    {
      "buffer": 0,
      "byteLength": 528,
      "byteOffset": 176
    },
    {
      "buffer": 0,
      "byteLength": 704,
      "byteOffset": 704
    },
    {
      "buffer": 0,
      "byteLength": 528,
      "byteOffset": 1408
    },
    {
      "buffer": 0,
      "byteLength": 176,
      "byteOffset": 1936
    },
    {
      "buffer": 0,
      "byteLength": 528,
      "byteOffset": 2112
    },
    {
      "buffer": 0,
      "byteLength": 704,
      "byteOffset": 2640
    },
    {
      "buffer": 0,
      "byteLength": 528,
      "byteOffset": 3344
    },
    {
      "buffer": 0,
      "byteLength": 176,
      "byteOffset": 3872
    },
    {
      "buffer": 0,
      "byteLength": 528,
      "byteOffset": 4048
    },
    {
      "buffer": 0,
      "byteLength": 704,
      "byteOffset": 4576
    },
    {
      "buffer": 0,
      "byteLength": 528,
      "byteOffset": 5280
    },
    {
      "buffer": 0,
      "byteLength": 176,
      "byteOffset": 5808
    },
    {
      "buffer": 0,
      "byteLength": 528,
      "byteOffset": 5984
    },
    {
      "buffer": 0,
      "byteLength": 704,
      "byteOffset": 6512
    },
    {
      "buffer": 0,
      "byteLength": 528,
      "byteOffset": 7216
    },
    {
      "buffer": 0,
      "byteLength": 176,
      "byteOffset": 7744
    },
    {
      "buffer": 0,
      "byteLength": 528,
      "byteOffset": 7920
    },
    {
      "buffer": 0,
      "byteLength": 704,
      "byteOffset": 8448
    },
    {
      "buffer": 0,
      "byteLength": 528,
      "byteOffset": 9152
    },
    {
      "buffer": 0,
      "byteLength": 176,
      "byteOffset": 9680
    },
    {
      "buffer": 0,
      "byteLength": 528,
      "byteOffset": 9856
    },
    {
      "buffer": 0,
      "byteLength": 704,
      "byteOffset": 10384
    },
    {
      "buffer": 0,
      "byteLength": 528,
      "byteOffset": 11088
    },
    {
      "buffer": 0,
      "byteLength": 176,
      "byteOffset": 11616
    },
    {
      "buffer": 0,
      "byteLength": 528,
      "byteOffset": 11792
    },
    {
      "buffer": 0,
      "byteLength": 704,
      "byteOffset": 12320
    },
    {
      "buffer": 0,
      "byteLength": 528,
      "byteOffset": 13024
    }
  ],
  "buffers": [
    {
      "byteLength": 13552,
      "uri": "out.bin"
    }
  ],
  "extras": {
    "FBX-glTF-conv": {
      "animationFrameRate": 30.0
    }
  },
  "nodes": [
    {
      "children": [
        1
      ],
      "extras": {
        "FBX-glTF-conv": {
          "skeleton": {
            "skeletonType": "LimbNode"
          }
        }
      },
      "name": "Root_M",
      "rotation": [
        -0.5001022815704346,
        -0.49989721179008484,
        0.49948790669441223,
        0.5005120635032654
      ],
      "translation": [
        1.3224414385571071e-17,
        0.0,
        -4.3155884053027355e-19
      ]
    },
    {
      "children": [
        2
      ],
      "extras": {
        "FBX-glTF-conv": {
          "skeleton": {
            "skeletonType": "LimbNode"
          }
        }
      },
      "name": "Tail1_M",
      "rotation": [
        1.0403360306554532e-07,
        0.00043545139487832785,
        -0.0002899076498579234,
        0.9999998807907104
      ],
      "scale": [
        1.0021073818206787,
        1.0021073818206787,
        1.0021073818206787
      ],
      "translation": [
        0.0029857626650482416,
        -2.1441151076828646e-09,
        -3.217507815733711e-09
      ]
    },
    {
      "children": [
        3
      ],
      "extras": {
        "FBX-glTF-conv": {
          "skeleton": {
            "skeletonType": "LimbNode"
          }
        }
      },
      "name": "Tail2_M",
      "rotation": [
        -3.180025260007824e-06,
        -8.38449559523724e-05,
        6.374855729518458e-05,
        1.0
      ],
      "scale": [
        1.0010513067245483,
        1.0010513067245483,
        1.0010513067245483
      ],
      "translation": [
        0.00296713225543499,
        -1.6193315577339717e-09,
        8.026881297227423e-14
      ]
    },
    {
      "children": [
        4
      ],
      "extras": {
        "FBX-glTF-conv": {
          "skeleton": {
            "skeletonType": "LimbNode"
          }
        }
      },
      "name": "Tail3_M",
      "rotation": [
        5.075004082755186e-06,
        -4.4141327748548065e-07,
        0.005279521457850933,
        0.9999860525131226
      ],
      "scale": [
        1.001050353050232,
        1.001050353050232,
        1.001050353050232
      ],
      "translation": [
        0.002966386266052723,
        -4.8351900261423e-08,
        -1.4394188098398875e-11
      ]
    },
    {
      "children": [
        5
      ],
      "extras": {
        "FBX-glTF-conv": {
          "skeleton": {
            "skeletonType": "LimbNode"
          }
        }
      },
      "name": "Tail4_M",
      "rotation": [
        -8.497439011989627e-06,
        8.500750845996663e-05,
        -0.005333834793418646,
        0.9999857544898987
      ],
      "scale": [
        0.998950719833374,
        0.998950719833374,
        0.998950719833374
      ],
      "translation": [
        0.0029634118545800447,
        1.0711780618066769e-07,
        -2.587379199781026e-10
      ]
    },
    {
      "children": [
        6
      ],
      "extras": {
        "FBX-glTF-conv": {
          "skeleton": {
            "skeletonType": "LimbNode"
          }
        }
      },
      "name": "Tail5_M",
      "rotation": [
        1.568337779644935e-06,
        -0.00043530017137527466,
        0.0002802459057420492,
        0.9999998807907104
      ],
      "scale": [
        0.9989497661590576,
        0.9989497661590576,
        0.9989497661590576
      ],
      "translation": [
        0.0029639960266649723,
        -6.035585187191828e-08,
        -5.862221125196854e-11
      ]
    },
    {
      "extras": {
        "FBX-glTF-conv": {
          "skeleton": {
            "skeletonType": "LimbNode"
          }
        }
      },
      "name": "Tail6_M",
      "rotation": [
        5.120928108226508e-06,
        -0.0006154653383418918,
        0.00040978603647090495,
        0.9999997019767761
      ],
      "scale": [
        0.9978970289230347,
        0.9978970289230347,
        0.9978970289230347
      ],
      "translation": [
        0.0029794753063470125,
        -2.0086081686798707e-09,
        1.0579136872079786e-10
      ]
    }
  ],
  "scenes": [
    {
      "nodes": [
        0
      ]
    }
  ]
}