{
  "accessors": [
    {
      "bufferView": 0,
      "componentType": 5126,
      "count": 11,
      "max": [
        0.3333333432674408
      ],
      "min": [
        0.0
      ],
      "name": "Root_M/Trs/Input",
      "type": "SCALAR"
    },
    {
      "bufferView": 1,
      "componentType": 5126,
      "count": 11,
      "name": "Root_M/translation/Output",
      "type": "VEC3"
    },
    {
      "bufferView": 2,
      "componentType": 5126,
      "count": 11,
      "name": "Root_M/rotation/Output",
      "type": "VEC4"
    },
    {
      "bufferView": 3,
      "componentType": 5126,
      "count": 11,
      "name": "Root_M/scale/Output",
      "type": "VEC3"
    },
    {
      "bufferView": 4,
      "componentType": 5126,
      "count": 2,
      "max": [
        0.3333333432674408
      ],
      "min": [
        0.0
      ],
      "name": "Body_M/Trs/Input",
      "type": "SCALAR"
    },
    {
      "bufferView": 5,
      "componentType": 5126,
      "count": 2,
      "name": "Body_M/translation/Output",
      "type": "VEC3"
    },
    {
      "bufferView": 6,
      "componentType": 5126,
      "count": 2,
      "name": "Body_M/rotation/Output",
      "type": "VEC4"
    },
    {
      "bufferView": 7,
      "componentType": 5126,
      "count": 2,
      "name": "Body_M/scale/Output",
      "type": "VEC3"
    },
    {
      "bufferView": 8,
      "componentType": 5126,
      "count": 2,
      "max": [
        0.3333333432674408
      ],
      "min": [
        0.0
      ],
      "name": "joint1_M/Trs/Input",
      "type": "SCALAR"
    },
    {
      "bufferView": 9,
      "componentType": 5126,
      "count": 2,
      "name": "joint1_M/translation/Output",
      "type": "VEC3"
    },
    {
      "bufferView": 10,
      "componentType": 5126,
      "count": 2,
      "name": "joint1_M/rotation/Output",
      "type": "VEC4"
    },
    {
      "bufferView": 11,
      "componentType": 5126,
      "count": 2,
      "name": "joint1_M/scale/Output",
      "type": "VEC3"
    },
    {
      "bufferView": 12,
      "componentType": 5126,
      "count": 11,
      "max": [
        0.3333333432674408
      ],
      "min": [
        0.0
      ],
      "name": "joint2_M/Trs/Input",
      "type": "SCALAR"
    },
    {
      "bufferView": 13,
      "componentType": 5126,
      "count": 11,
      "name": "joint2_M/translation/Output",
      "type": "VEC3"
    },
    {
      "bufferView": 14,
      "componentType": 5126,
      "count": 11,
      "name": "joint2_M/rotation/Output",
      "type": "VEC4"
    },
    {
      "bufferView": 15,
      "componentType": 5126,
      "count": 11,
      "name": "joint2_M/scale/Output",
      "type": "VEC3"
    },
    {
      "bufferView": 16,
      "componentType": 5126,
      "count": 2,
      "max": [
        0.3333333432674408
      ],
      "min": [
        0.0
      ],
      "name": "eyes4_M/Trs/Input",
      "type": "SCALAR"
    },
    {
      "bufferView": 17,
      "componentType": 5126,
      "count": 2,
      "name": "eyes4_M/translation/Output",
      "type": "VEC3"
    },
    {
      "bufferView": 18,
      "componentType": 5126,
      "count": 2,
      "name": "eyes4_M/rotation/Output",
      "type": "VEC4"
    },
    {
      "bufferView": 19,
      "componentType": 5126,
      "count": 2,
      "name": "eyes4_M/scale/Output",
      "type": "VEC3"
    },
    {
      "bufferView": 20,
      "componentType": 5126,
      "count": 11,
      "max": [
        0.3333333432674408
      ],
      "min": [
        0.0
      ],
      "name": "eyes3_M/Trs/Input",
      "type": "SCALAR"
    },
    {
      "bufferView": 21,
      "componentType": 5126,
      "count": 11,
      "name": "eyes3_M/translation/Output",
      "type": "VEC3"
    },
    {
      "bufferView": 22,
      "componentType": 5126,
      "count": 11,
      "name": "eyes3_M/rotation/Output",
      "type": "VEC4"
    },
    {
      "bufferView": 23,
      "componentType": 5126,
      "count": 11,
      "name": "eyes3_M/scale/Output",
      "type": "VEC3"
    },
    {
      "bufferView": 24,
      "componentType": 5126,
      "count": 2,
      "max": [
        0.3333333432674408
      ],
      "min": [
        0.0
      ],
      "name": "eyes2_M/Trs/Input",
      "type": "SCALAR"
    },
    {
      "bufferView": 25,
      "componentType": 5126,
      "count": 2,
      "name": "eyes2_M/translation/Output",
      "type": "VEC3"
    },
    {
      "bufferView": 26,
      "componentType": 5126,
      "count": 2,
      "name": "eyes2_M/rotation/Output",
      "type": "VEC4"
    },
    {
      "bufferView": 27,
      "componentType": 5126,
      "count": 2,
      "name": "eyes2_M/scale/Output",
      "type": "VEC3"
    },
    {
      "bufferView": 28,
      "componentType": 5126,
      "count": 2,
      "max": [
        0.3333333432674408
      ],
      "min": [
        0.0
      ],
      "name": "lid_M/Trs/Input",
      "type": "SCALAR"
    },
    {
      "bufferView": 29,
      "componentType": 5126,
      "count": 2,
      "name": "lid_M/translation/Output",
      "type": "VEC3"
    },
    {
      "bufferView": 30,
      "componentType": 5126,
      "count": 2,
      "name": "lid_M/rotation/Output",
      "type": "VEC4"
    },
    {
      "bufferView": 31,
      "componentType": 5126,
      "count": 2,
      "name": "lid_M/scale/Output",
      "type": "VEC3"
    },
    {
      "bufferView": 32,
      "componentType": 5126,
      "count": 11,
      "max": [
        0.3333333432674408
      ],
      "min": [
        0.0
      ],
      "name": "rotator_R/Trs/Input",
      "type": "SCALAR"
    },
    {
      "bufferView": 33,
      "componentType": 5126,
      "count": 11,
      "name": "rotator_R/translation/Output",
      "type": "VEC3"
    },
    {
      "bufferView": 34,
      "componentType": 5126,
      "count": 11,
      "name": "rotator_R/rotation/Output",
      "type": "VEC4"
    },
    {
      "bufferView": 35,
      "componentType": 5126,
      "count": 11,
      "name": "rotator_R/scale/Output",
      "type": "VEC3"
    }
  ],
  "animations": [
    {
      "channels": [
        {
          "sampler": 0,
          "target": {
            "node": 0,
            "path": "translation"
          }
        },
        {
          "sampler": 1,
          "target": {
            "node": 0,
            "path": "rotation"
          }
        },
        {
          "sampler": 2,
          "target": {
            "node": 0,
            "path": "scale"
          }
        },
        {
          "sampler": 3,
          "target": {
            "node": 1,
            "path": "translation"
          }
        },
        {
          "sampler": 4,
          "target": {
            "node": 1,
            "path": "rotation"
          }
        },
        {
          "sampler": 5,
          "target": {
            "node": 1,
            "path": "scale"
          }
        },
        {
          "sampler": 6,
          "target": {
            "node": 3,
            "path": "translation"
          }
        },
        {
          "sampler": 7,
          "target": {
            "node": 3,
            "path": "rotation"
          }
        },
        {
          "sampler": 8,
          "target": {
            "node": 3,
            "path": "scale"
          }
        },
        {
          "sampler": 9,
          "target": {
            "node": 4,
            "path": "translation"
          }
        },
        {
          "sampler": 10,
          "target": {
            "node": 4,
            "path": "rotation"
          }
        },
        {
          "sampler": 11,
          "target": {
            "node": 4,
            "path": "scale"
          }
        },
        {
          "sampler": 12,
          "target": {
            "node": 5,
            "path": "translation"
          }
        },
        {
          "sampler": 13,
          "target": {
            "node": 5,
            "path": "rotation"
          }
        },
        {
          "sampler": 14,
          "target": {
            "node": 5,
            "path": "scale"
          }
        },
        {
          "sampler": 15,
          "target": {
            "node": 6,
            "path": "translation"
          }
        },
        {
          "sampler": 16,
          "target": {
            "node": 6,
            "path": "rotation"
          }
        },
        {
          "sampler": 17,
          "target": {
            "node": 6,
            "path": "scale"
          }
        },
        {
          "sampler": 18,
          "target": {
            "node": 7,
            "path": "translation"
          }
        },
        {
          "sampler": 19,
          "target": {
            "node": 7,
            "path": "rotation"
          }
        },
        {
          "sampler": 20,
          "target": {
            "node": 7,
            "path": "scale"
          }
        },
        {
          "sampler": 21,
          "target": {
            "node": 9,
            "path": "translation"
          }
        },
        {
          "sampler": 22,
          "target": {
            "node": 9,
            "path": "rotation"
          }
        },
        {
          "sampler": 23,
          "target": {
            "node": 9,
            "path": "scale"
          }
        },
        {
          "sampler": 24,
          "target": {
            "node": 10,
            "path": "translation"
          }
        },
        {
          "sampler": 25,
          "target": {
            "node": 10,
            "path": "rotation"
          }
        },
        {
          "sampler": 26,
          "target": {
            "node": 10,
            "path": "scale"
          }
        }
      ],
      "name": "submarine_move",
      "samplers": [
        {
          "input": 0,
          "output": 1
        },
        {
          "input": 0,
          "output": 2
        },
        {
          "input": 0,
          "output": 3
        },
        {
          "input": 4,
          "output": 5
        },
        {
          "input": 4,
          "output": 6
        },
        {
          "input": 4,
          "output": 7
        },
        {
          "input": 8,
          "output": 9
        },
        {
          "input": 8,
          "output": 10
        },
        {
          "input": 8,
          "output": 11
        },
        {
          "input": 12,
          "output": 13
        },
        {
          "input": 12,
          "output": 14
        },
        {
          "input": 12,
          "output": 15
        },
        {
          "input": 16,
          "output": 17
        },
        {
          "input": 16,
          "output": 18
        },
        {
          "input": 16,
          "output": 19
        },
        {
          "input": 20,
          "output": 21
        },
        {
          "input": 20,
          "output": 22
        },
        {
          "input": 20,
          "output": 23
        },
        {
          "input": 24,
          "output": 25
        },
        {
          "input": 24,
          "output": 26
        },
        {
          "input": 24,
          "output": 27
        },
        {
          "input": 28,
          "output": 29
        },
        {
          "input": 28,
          "output": 30
        },
        {
          "input": 28,
          "output": 31
        },
        {
          "input": 32,
          "output": 33
        },
        {
          "input": 32,
          "output": 34
        },
        {
          "input": 32,
          "output": 35
        }
      ]
    }
  ],
  "asset": {
    "copyright": "Copyright (c) 2018-2020 Chukong Technologies Inc.",
    "generator": "FBX-glTF-conv",
    "version": "2.0"
  },
  "bufferViews": [
    {
      "buffer": 0,
      "byteLength": 44
    },
    {
      "buffer": 0,
      "byteLength": 132,
      "byteOffset": 44
    },
    {
      "buffer": 0,
      "byteLength": 176,
      "byteOffset": 176
    },
    {
      "buffer": 0,
      "byteLength": 132,
      "byteOffset": 352
    },
    {
      "buffer": 0,
      "byteLength": 8,
      "byteOffset": 484
    },
    {
      "buffer": 0,
      "byteLength": 24,
      "byteOffset": 492
    },
    {
      "buffer": 0,
      "byteLength": 32,
      "byteOffset": 516
    },
    {
      "buffer": 0,
      "byteLength": 24,
      "byteOffset": 548
    },
    {
      "buffer": 0,
      "byteLength": 8,
      "byteOffset": 572
    },
    {
      "buffer": 0,
      "byteLength": 24,
      "byteOffset": 580
    },
    {
      "buffer": 0,
      "byteLength": 32,
      "byteOffset": 604
    },
    {
      "buffer": 0,
      "byteLength": 24,
      "byteOffset": 636
    },
    {
      "buffer": 0,
      "byteLength": 44,
      "byteOffset": 660
    },
    {
      "buffer": 0,
      "byteLength": 132,
      "byteOffset": 704
    },
    {
      "buffer": 0,
      "byteLength": 176,
      "byteOffset": 836
    },
    {
      "buffer": 0,
      "byteLength": 132,
      "byteOffset": 1012
    },
    {
      "buffer": 0,
      "byteLength": 8,
      "byteOffset": 1144
    },
    {
      "buffer": 0,
      "byteLength": 24,
      "byteOffset": 1152
    },
    {
      "buffer": 0,
      "byteLength": 32,
      "byteOffset": 1176
    },
    {
      "buffer": 0,
      "byteLength": 24,
      "byteOffset": 1208
    },
    {
      "buffer": 0,
      "byteLength": 44,
      "byteOffset": 1232
    },
    {
      "buffer": 0,
      "byteLength": 132,
      "byteOffset": 1276
    },
    {
      "buffer": 0,
      "byteLength": 176,
      "byteOffset": 1408
    },
    {
      "buffer": 0,
      "byteLength": 132,
      "byteOffset": 1584
    },
    {
      "buffer": 0,
      "byteLength": 8,
      "byteOffset": 1716
    },
    {
      "buffer": 0,
      "byteLength": 24,
      "byteOffset": 1724
    },
    {
      "buffer": 0,
      "byteLength": 32,
      "byteOffset": 1748
    },
    {
      "buffer": 0,
      "byteLength": 24,
      "byteOffset": 1780
    },
    {
      "buffer": 0,
      "byteLength": 8,
      "byteOffset": 1804
    },
    {
      "buffer": 0,
      "byteLength": 24,
      "byteOffset": 1812
    },
    {
      "buffer": 0,
      "byteLength": 32,
      "byteOffset": 1836
    },
    {
      "buffer": 0,
      "byteLength": 24,
      "byteOffset": 1868
    },
    {
      "buffer": 0,
      "byteLength": 44,
      "byteOffset": 1892
    },
    {
      "buffer": 0,
      "byteLength": 132,
      "byteOffset": 1936
    },
    {
      "buffer": 0,
      "byteLength": 176,
      "byteOffset": 2068
    },
    {
      "buffer": 0,
      "byteLength": 132,
      "byteOffset": 2244
    }
  ],
  "buffers": [
    {
      "byteLength": 2376,
      "uri": "out.bin"
    }
  ],
  "extras": {
    "FBX-glTF-conv": {
      "animationFrameRate": 30.0
    }
  },
  "nodes": [
    {
      "children": [
        1,
        10
      ],
      "extras": {
        "FBX-glTF-conv": {
          "skeleton": {
            "skeletonType": "LimbNode"
          }
        }
      },
      "name": "Root_M",
      "rotation": [
        0.49796050786972046,
        0.49816828966140747,
        0.5060961842536926,
        0.4977251887321472
      ],
      "translation": [
        -2.7812111511593685e-05,
        0.025870980694890022,
        -2.3474697156394975e-18
      ]
    },
    {
      "children": [
        2,
        3
      ],
      "extras": {
        "FBX-glTF-conv": {
          "skeleton": {
            "skeletonType": "LimbNode"
          }
        }
      },
      "name": "Body_M",
      "rotation": [
        -5.089135710067971e-12,
        8.96958663361147e-05,
        5.6737412990059966e-08,
        1.0
      ],
      "translation": [
        0.039122823625802994,
        9.1246458806847e-18,
        1.491862255514503e-17
      ]
    },
    {
      "extras": {
        "FBX-glTF-conv": {
          "skeleton": {
            "skeletonType": "LimbNode"
          }
        }
      },
      "name": "BodyEnd_M",
      "translation": [
        0.019999999552965164,
        4.600486737699831e-17,
        -6.453171380264559e-18
      ]
    },
    {
      "children": [
        4,
        9
      ],
      "extras": {
        "FBX-glTF-conv": {
          "skeleton": {
            "skeletonType": "LimbNode"
          }
        }
      },
      "name": "joint1_M",
      "rotation": [
        -7.55352218625863e-17,
        -2.6038932239890984e-18,
        0.7020390629768372,
        0.7121384739875793
      ],
      "translation": [
        0.0007492821896448731,
        0.07850650697946548,
        3.0045410074522707e-17
      ]
    },
    {
      "children": [
        5
      ],
      "extras": {
        "FBX-glTF-conv": {
          "skeleton": {
            "skeletonType": "LimbNode"
          }
        }
      },
      "name": "joint2_M",
      "rotation": [
        -0.19389504194259644,
        0.20890358090400696,
        -0.7025441527366638,
        0.6520703434944153
      ],
      "translation": [
        0.02800234779715538,
        1.9539925127523637e-16,
        7.147060522501098e-18
      ]
    },
    {
      "children": [
        6
      ],
      "extras": {
        "FBX-glTF-conv": {
          "skeleton": {
            "skeletonType": "LimbNode"
          }
        }
      },
      "name": "eyes4_M",
      "rotation": [
        -8.433267148889197e-17,
        3.57467888424914e-17,
        0.028838099911808968,
        0.9995840787887573
      ],
      "translation": [
        0.018579505383968353,
        3.552713599391162e-17,
        2.6645351995433716e-17
      ]
    },
    {
      "children": [
        7
      ],
      "extras": {
        "FBX-glTF-conv": {
          "skeleton": {
            "skeletonType": "LimbNode"
          }
        }
      },
      "name": "eyes3_M",
      "rotation": [
        5.797514360504099e-17,
        -1.2397788811209067e-17,
        0.14755640923976898,
        0.9890536665916443
      ],
      "translation": [
        0.08096418529748917,
        0.00022834239643998444,
        0.0024150589015334845
      ]
    },
    {
      "children": [
        8
      ],
      "extras": {
        "FBX-glTF-conv": {
          "skeleton": {
            "skeletonType": "LimbNode"
          }
        }
      },
      "name": "eyes2_M",
      "rotation": [
        3.616700188762426e-16,
        2.3462105895828754e-16,
        0.48908907175064087,
        0.8722338676452637
      ],
      "translation": [
        0.01339292898774147,
        8.881783998477905e-18,
        0.0
      ]
    },
    {
      "extras": {
        "FBX-glTF-conv": {
          "skeleton": {
            "skeletonType": "LimbNode"
          }
        }
      },
      "name": "eyes1_M",
      "translation": [
        0.019861893728375435,
        1.0658140798173486e-16,
        0.0
      ]
    },
    {
      "extras": {
        "FBX-glTF-conv": {
          "skeleton": {
            "skeletonType": "LimbNode"
          }
        }
      },
      "name": "lid_M",
      "rotation": [
        0.7070887684822083,
        0.005049708765000105,
        0.7070887684822083,
        -0.005049708765000105
      ],
      "translation": [
        0.0005385089316405356,
        -0.03243330121040344,
        1.3770234740545658e-15
      ]
    },
    {
      "extras": {
        "FBX-glTF-conv": {
          "skeleton": {
            "skeletonType": "LimbNode"
          }
        }
      },
      "name": "rotator_R",
      "rotation": [
        -0.5000448226928711,
        -0.4999551773071289,
        -0.49995511770248413,
        0.5000448822975159
      ],
      "translation": [
        0.0014175324467942119,
        -0.12453730404376984,
        -0.0002367857814533636
      ]
    }
  ],
  "scenes": [
    {
      "nodes": [
        0
      ]
    }
  ]
}