{
    "asset": {
        "generator": "FBX2glTF v0.9.7",
        "version": "2.0"
    },
    "scene": 0,
    "buffers": [
        {
            "byteLength": 15360,
            "uri": "buffer.bin"
        }
    ],
    "bufferViews": [
        {
            "buffer": 0,
            "byteLength": 4032,
            "byteOffset": 0,
            "target": 34963
        },
        {
            "buffer": 0,
            "byteLength": 4248,
            "byteOffset": 4032,
            "target": 34962
        },
        {
            "buffer": 0,
            "byteLength": 4248,
            "byteOffset": 8280,
            "target": 34962
        },
        {
            "buffer": 0,
            "byteLength": 2832,
            "byteOffset": 12528,
            "target": 34962
        }
    ],
    "scenes": [
        {
            "name": "Root Scene",
            "nodes": [
                0
            ]
        }
    ],
    "accessors": [
        {
            "componentType": 5123,
            "type": "SCALAR",
            "count": 2016,
            "bufferView": 0,
            "byteOffset": 0
        },
        {
            "componentType": 5126,
            "type": "VEC3",
            "count": 354,
            "bufferView": 1,
            "byteOffset": 0,
            "min": [
                -1.1412296295166,
                -0.0308151971548796,
                -0.939483761787415
            ],
            "max": [
                1.86725807189941,
                0.203491315245628,
                1.16918814182281
            ]
        },
        {
            "componentType": 5126,
            "type": "VEC3",
            "count": 354,
            "bufferView": 2,
            "byteOffset": 0
        },
        {
            "componentType": 5126,
            "type": "VEC2",
            "count": 354,
            "bufferView": 3,
            "byteOffset": 0
        }
    ],
    "samplers": [
        {}
    ],
    "materials": [
        {
            "name": "Material.001",
            "alphaMode": "OPAQUE",
            "extras": {
                "fromFBX": {
                    "shadingModel": "Phong",
                    "isTruePBR": false
                }
            },
            "pbrMetallicRoughness": {
                "baseColorFactor": [
                    0.800000071525574,
                    0.633470296859741,
                    0.336698204278946,
                    1.0
                ],
                "metallicFactor": 0.400000005960464,
                "roughnessFactor": 0.426401436328888
            }
        }
    ],
    "meshes": [
        {
            "name": "Arrow",
            "primitives": [
                {
                    "material": 0,
                    "mode": 4,
                    "attributes": {
                        "NORMAL": 2,
                        "POSITION": 1,
                        "TEXCOORD_0": 3
                    },
                    "indices": 0
                }
            ]
        }
    ],
    "nodes": [
        {
            "name": "RootNode",
            "translation": [
                0.0,
                0.0,
                0.0
            ],
            "rotation": [
                0.0,
                0.0,
                0.0,
                1.0
            ],
            "scale": [
                1.0,
                1.0,
                1.0
            ],
            "children": [
                1
            ]
        },
        {
            "name": "Arrow",
            "translation": [
                0.0281968396157026,
                0.201462969183922,
                0.0
            ],
            "rotation": [
                0.0,
                -0.0,
                -0.70710676908493,
                0.70710676908493
            ],
            "scale": [
                1.0,
                1.0,
                1.0
            ],
            "mesh": 0
        }
    ]
}