{
    "asset": {
        "generator": "FBX2glTF v0.9.7",
        "version": "2.0"
    },
    "scene": 0,
    "buffers": [
        {
            "byteLength": 6400,
            "uri": "buffer.bin"
        }
    ],
    "bufferViews": [
        {
            "buffer": 0,
            "byteLength": 100,
            "byteOffset": 0
        },
        {
            "buffer": 0,
            "byteLength": 300,
            "byteOffset": 100
        },
        {
            "buffer": 0,
            "byteLength": 400,
            "byteOffset": 400
        },
        {
            "buffer": 0,
            "byteLength": 400,
            "byteOffset": 800
        },
        {
            "buffer": 0,
            "byteLength": 300,
            "byteOffset": 1200
        },
        {
            "buffer": 0,
            "byteLength": 400,
            "byteOffset": 1500
        },
        {
            "buffer": 0,
            "byteLength": 300,
            "byteOffset": 1900
        },
        {
            "buffer": 0,
            "byteLength": 400,
            "byteOffset": 2200
        },
        {
            "buffer": 0,
            "byteLength": 300,
            "byteOffset": 2600
        },
        {
            "buffer": 0,
            "byteLength": 400,
            "byteOffset": 2900
        },
        {
            "buffer": 0,
            "byteLength": 400,
            "byteOffset": 3300
        },
        {
            "buffer": 0,
            "byteLength": 400,
            "byteOffset": 3700
        },
        {
            "buffer": 0,
            "byteLength": 400,
            "byteOffset": 4100
        },
        {
            "buffer": 0,
            "byteLength": 300,
            "byteOffset": 4500
        },
        {
            "buffer": 0,
            "byteLength": 400,
            "byteOffset": 4800
        },
        {
            "buffer": 0,
            "byteLength": 400,
            "byteOffset": 5200
        },
        {
            "buffer": 0,
            "byteLength": 400,
            "byteOffset": 5600
        },
        {
            "buffer": 0,
            "byteLength": 400,
            "byteOffset": 6000
        }
    ],
    "scenes": [
        {
            "name": "Root Scene",
            "nodes": [
                0
            ]
        }
    ],
    "accessors": [
        {
            "componentType": 5126,
            "type": "SCALAR",
            "count": 25,
            "bufferView": 0,
            "byteOffset": 0,
            "min": [
                0.0
            ],
            "max": [
                1.0
            ]
        },
        {
            "componentType": 5126,
            "type": "VEC3",
            "count": 25,
            "bufferView": 1,
            "byteOffset": 0
        },
        {
            "componentType": 5126,
            "type": "VEC4",
            "count": 25,
            "bufferView": 2,
            "byteOffset": 0
        },
        {
            "componentType": 5126,
            "type": "VEC4",
            "count": 25,
            "bufferView": 3,
            "byteOffset": 0
        },
        {
            "componentType": 5126,
            "type": "VEC3",
            "count": 25,
            "bufferView": 4,
            "byteOffset": 0
        },
        {
            "componentType": 5126,
            "type": "VEC4",
            "count": 25,
            "bufferView": 5,
            "byteOffset": 0
        },
        {
            "componentType": 5126,
            "type": "VEC3",
            "count": 25,
            "bufferView": 6,
            "byteOffset": 0
        },
        {
            "componentType": 5126,
            "type": "VEC4",
            "count": 25,
            "bufferView": 7,
            "byteOffset": 0
        },
        {
            "componentType": 5126,
            "type": "VEC3",
            "count": 25,
            "bufferView": 8,
            "byteOffset": 0
        },
        {
            "componentType": 5126,
            "type": "VEC4",
            "count": 25,
            "bufferView": 9,
            "byteOffset": 0
        },
        {
            "componentType": 5126,
            "type": "VEC4",
            "count": 25,
            "bufferView": 10,
            "byteOffset": 0
        },
        {
            "componentType": 5126,
            "type": "VEC4",
            "count": 25,
            "bufferView": 11,
            "byteOffset": 0
        },
        {
            "componentType": 5126,
            "type": "VEC4",
            "count": 25,
            "bufferView": 12,
            "byteOffset": 0
        },
        {
            "componentType": 5126,
            "type": "VEC3",
            "count": 25,
            "bufferView": 13,
            "byteOffset": 0
        },
        {
            "componentType": 5126,
            "type": "VEC4",
            "count": 25,
            "bufferView": 14,
            "byteOffset": 0
        },
        {
            "componentType": 5126,
            "type": "VEC4",
            "count": 25,
            "bufferView": 15,
            "byteOffset": 0
        },
        {
            "componentType": 5126,
            "type": "VEC4",
            "count": 25,
            "bufferView": 16,
            "byteOffset": 0
        },
        {
            "componentType": 5126,
            "type": "VEC4",
            "count": 25,
            "bufferView": 17,
            "byteOffset": 0
        }
    ],
    "samplers": [
        {}
    ],
    "animations": [
        {
            "name": "Robo_Cat_Catched",
            "channels": [
                {
                    "sampler": 0,
                    "target": {
                        "node": 1,
                        "path": "translation"
                    }
                },
                {
                    "sampler": 1,
                    "target": {
                        "node": 1,
                        "path": "rotation"
                    }
                },
                {
                    "sampler": 2,
                    "target": {
                        "node": 2,
                        "path": "rotation"
                    }
                },
                {
                    "sampler": 3,
                    "target": {
                        "node": 3,
                        "path": "translation"
                    }
                },
                {
                    "sampler": 4,
                    "target": {
                        "node": 3,
                        "path": "rotation"
                    }
                },
                {
                    "sampler": 5,
                    "target": {
                        "node": 5,
                        "path": "translation"
                    }
                },
                {
                    "sampler": 6,
                    "target": {
                        "node": 5,
                        "path": "rotation"
                    }
                },
                {
                    "sampler": 7,
                    "target": {
                        "node": 13,
                        "path": "translation"
                    }
                },
                {
                    "sampler": 8,
                    "target": {
                        "node": 13,
                        "path": "rotation"
                    }
                },
                {
                    "sampler": 9,
                    "target": {
                        "node": 14,
                        "path": "rotation"
                    }
                },
                {
                    "sampler": 10,
                    "target": {
                        "node": 15,
                        "path": "rotation"
                    }
                },
                {
                    "sampler": 11,
                    "target": {
                        "node": 16,
                        "path": "rotation"
                    }
                },
                {
                    "sampler": 12,
                    "target": {
                        "node": 18,
                        "path": "translation"
                    }
                },
                {
                    "sampler": 13,
                    "target": {
                        "node": 18,
                        "path": "rotation"
                    }
                },
                {
                    "sampler": 14,
                    "target": {
                        "node": 19,
                        "path": "rotation"
                    }
                },
                {
                    "sampler": 15,
                    "target": {
                        "node": 20,
                        "path": "rotation"
                    }
                },
                {
                    "sampler": 16,
                    "target": {
                        "node": 21,
                        "path": "rotation"
                    }
                }
            ],
            "samplers": [
                {
                    "input": 0,
                    "interpolation": "LINEAR",
                    "output": 1
                },
                {
                    "input": 0,
                    "interpolation": "LINEAR",
                    "output": 2
                },
                {
                    "input": 0,
                    "interpolation": "LINEAR",
                    "output": 3
                },
                {
                    "input": 0,
                    "interpolation": "LINEAR",
                    "output": 4
                },
                {
                    "input": 0,
                    "interpolation": "LINEAR",
                    "output": 5
                },
                {
                    "input": 0,
                    "interpolation": "LINEAR",
                    "output": 6
                },
                {
                    "input": 0,
                    "interpolation": "LINEAR",
                    "output": 7
                },
                {
                    "input": 0,
                    "interpolation": "LINEAR",
                    "output": 8
                },
                {
                    "input": 0,
                    "interpolation": "LINEAR",
                    "output": 9
                },
                {
                    "input": 0,
                    "interpolation": "LINEAR",
                    "output": 10
                },
                {
                    "input": 0,
                    "interpolation": "LINEAR",
                    "output": 11
                },
                {
                    "input": 0,
                    "interpolation": "LINEAR",
                    "output": 12
                },
                {
                    "input": 0,
                    "interpolation": "LINEAR",
                    "output": 13
                },
                {
                    "input": 0,
                    "interpolation": "LINEAR",
                    "output": 14
                },
                {
                    "input": 0,
                    "interpolation": "LINEAR",
                    "output": 15
                },
                {
                    "input": 0,
                    "interpolation": "LINEAR",
                    "output": 16
                },
                {
                    "input": 0,
                    "interpolation": "LINEAR",
                    "output": 17
                }
            ]
        }
    ],
    "nodes": [
        {
            "name": "RootNode",
            "translation": [
                0.0,
                0.0,
                0.0
            ],
            "rotation": [
                0.0,
                0.0,
                0.0,
                1.0
            ],
            "scale": [
                1.0,
                1.0,
                1.0
            ],
            "children": [
                1
            ]
        },
        {
            "name": "Root_M",
            "translation": [
                4.9151131554905e-17,
                0.522929787635803,
                -0.0270395632833242
            ],
            "rotation": [
                0.448958963155746,
                0.329320400953293,
                0.627256095409393,
                0.544549107551575
            ],
            "scale": [
                1.0,
                1.0,
                1.0
            ],
            "children": [
                2
            ]
        },
        {
            "name": "Spine1_M",
            "translation": [
                0.751231491565704,
                -3.55271346704226e-16,
                -4.44089183380283e-17
            ],
            "rotation": [
                -2.78410895473546e-17,
                6.58740625006966e-18,
                0.0126436892896891,
                0.999920070171356
            ],
            "scale": [
                1.0,
                1.0,
                1.0
            ],
            "children": [
                3
            ]
        },
        {
            "name": "Chest_M",
            "translation": [
                0.760133445262909,
                -1.29674042076438e-15,
                -5.3290702005634e-16
            ],
            "rotation": [
                -0.0803433954715729,
                0.0447366200387478,
                -0.0251804068684578,
                0.995444357395172
            ],
            "scale": [
                1.0,
                1.0,
                1.0
            ],
            "children": [
                4,
                13,
                18
            ]
        },
        {
            "name": "Neck_M",
            "translation": [
                0.916350483894348,
                8.88178419700125e-16,
                7.81597005100945e-16
            ],
            "rotation": [
                0.0,
                -0.0,
                -0.0104428073391318,
                0.999945461750031
            ],
            "scale": [
                1.0,
                1.0,
                1.0
            ],
            "children": [
                5
            ]
        },
        {
            "name": "Head_M",
            "translation": [
                0.447841763496399,
                0.000220686764805578,
                -8.83227912709117e-05
            ],
            "rotation": [
                0.276871800422668,
                -0.036882895976305,
                0.0220732800662518,
                0.959945023059845
            ],
            "scale": [
                1.0,
                1.0,
                1.0
            ],
            "children": [
                6,
                7,
                9,
                11
            ]
        },
        {
            "name": "HeadEnd_M",
            "translation": [
                0.799021065235138,
                0.0,
                4.26325631926939e-16
            ],
            "rotation": [
                1.65436122510606e-24,
                -2.06795153138257e-25,
                0.0,
                1.0
            ],
            "scale": [
                1.0,
                1.0,
                1.0
            ]
        },
        {
            "name": "Eye_R",
            "translation": [
                0.434589862823486,
                0.694486320018768,
                -0.279517292976379
            ],
            "rotation": [
                -0.133379742503166,
                0.144958794116974,
                0.663838148117065,
                0.721467733383179
            ],
            "scale": [
                1.0,
                1.0,
                1.0
            ],
            "children": [
                8
            ]
        },
        {
            "name": "EyeEnd_R",
            "translation": [
                0.103889539837837,
                1.70530252770776e-15,
                -7.10542719878232e-17
            ],
            "rotation": [
                0.0,
                2.77555756156289e-17,
                0.0,
                1.0
            ],
            "scale": [
                1.0,
                1.0,
                1.0
            ]
        },
        {
            "name": "Jaw_M",
            "translation": [
                -0.153860867023468,
                0.0771095901727676,
                -1.77635673352113e-16
            ],
            "rotation": [
                -2.6644521561319e-25,
                -3.16328760999131e-25,
                0.764836013317108,
                0.644225001335144
            ],
            "scale": [
                1.0,
                1.0,
                1.0
            ],
            "children": [
                10
            ]
        },
        {
            "name": "JawEnd_M",
            "translation": [
                0.876297831535339,
                2.27373670361034e-15,
                4.08562054003816e-16
            ],
            "rotation": [
                2.06795153138257e-24,
                -1.65436122510606e-24,
                -5.55111512312578e-17,
                1.0
            ],
            "scale": [
                1.0,
                1.0,
                1.0
            ]
        },
        {
            "name": "Eye_L",
            "translation": [
                0.434589862823486,
                0.694486320018768,
                0.279517292976379
            ],
            "rotation": [
                0.133379742503166,
                -0.144958809018135,
                0.663838148117065,
                0.721467733383179
            ],
            "scale": [
                1.0,
                1.0,
                1.0
            ],
            "children": [
                12
            ]
        },
        {
            "name": "EyeEnd_L",
            "translation": [
                0.103889539837837,
                1.70530252770776e-15,
                -1.42108543975646e-16
            ],
            "rotation": [
                -3.46944695195361e-18,
                -5.55111512312578e-17,
                -6.93889390390723e-18,
                1.0
            ],
            "scale": [
                1.0,
                1.0,
                1.0
            ]
        },
        {
            "name": "Scapula_R",
            "translation": [
                0.21366311609745,
                0.0117677301168442,
                -1.48324906826019
            ],
            "rotation": [
                -0.146495267748833,
                0.918000400066376,
                -0.093560591340065,
                0.35645592212677
            ],
            "scale": [
                1.0,
                1.0,
                1.0
            ],
            "children": [
                14
            ]
        },
        {
            "name": "Shoulder_R",
            "translation": [
                0.596678137779236,
                0.0,
                -5.68434175902586e-16
            ],
            "rotation": [
                -0.10396883636713,
                0.112700916826725,
                0.0814066976308823,
                0.984815657138824
            ],
            "scale": [
                1.0,
                1.0,
                1.0
            ],
            "children": [
                15
            ]
        },
        {
            "name": "Elbow_R",
            "translation": [
                0.763250470161438,
                -7.95807867439444e-15,
                -8.52651263853879e-16
            ],
            "rotation": [
                -8.04063809564314e-18,
                1.13111067512471e-17,
                0.579389035701752,
                0.815051138401031
            ],
            "scale": [
                1.0,
                1.0,
                1.0
            ],
            "children": [
                16
            ]
        },
        {
            "name": "Wrist_R",
            "translation": [
                0.432999551296234,
                3.69482209042725e-15,
                1.13686835180517e-15
            ],
            "rotation": [
                0.665854454040527,
                0.169075921177864,
                0.0782103687524796,
                0.722450256347656
            ],
            "scale": [
                1.0,
                1.0,
                1.0
            ],
            "children": [
                17
            ]
        },
        {
            "name": "MiddleFinger4_R",
            "translation": [
                1.35125017166138,
                0.0,
                1.13686835180517e-15
            ],
            "rotation": [
                -4.16333634234434e-17,
                2.77555756156289e-17,
                2.77555756156289e-17,
                1.0
            ],
            "scale": [
                1.0,
                1.0,
                1.0
            ]
        },
        {
            "name": "Scapula_L",
            "translation": [
                0.397407799959183,
                0.173670366406441,
                1.7145516872406
            ],
            "rotation": [
                0.907218217849731,
                -0.0549781695008278,
                -0.373115837574005,
                0.186325073242188
            ],
            "scale": [
                1.0,
                1.0,
                1.0
            ],
            "children": [
                19
            ]
        },
        {
            "name": "Shoulder_L",
            "translation": [
                -0.596678137779236,
                1.42108543975646e-16,
                0.0
            ],
            "rotation": [
                -0.128357738256454,
                0.38318532705307,
                0.0768436565995216,
                0.911475896835327
            ],
            "scale": [
                1.0,
                1.0,
                1.0
            ],
            "children": [
                20
            ]
        },
        {
            "name": "Elbow_L",
            "translation": [
                -0.763250470161438,
                4.23483473223525e-14,
                1.13686835180517e-15
            ],
            "rotation": [
                2.15880575638039e-08,
                8.78925110470163e-09,
                0.637358963489532,
                0.770566999912262
            ],
            "scale": [
                1.0,
                1.0,
                1.0
            ],
            "children": [
                21
            ]
        },
        {
            "name": "Wrist_L",
            "translation": [
                -0.432999551296234,
                2.27373661890705e-14,
                5.7926086149962e-10
            ],
            "rotation": [
                0.679013788700104,
                -0.217810422182083,
                -0.00805330090224743,
                0.701023519039154
            ],
            "scale": [
                1.0,
                1.0,
                1.0
            ],
            "children": [
                22
            ]
        },
        {
            "name": "MiddleFinger4_L",
            "translation": [
                -1.35125017166138,
                2.3557475414826e-10,
                -5.5223665917925e-11
            ],
            "rotation": [
                1.29047839081409e-08,
                -1.38777878078145e-17,
                -5.55111512312578e-17,
                1.0
            ],
            "scale": [
                1.0,
                1.0,
                1.0
            ]
        }
    ]
}