{
  "accessors": [
    {
      "bufferView": 0,
      "componentType": 5126,
      "count": 344,
      "max": [
        0.0,
        0.007286946754902601,
        0.0011317601893097162
      ],
      "min": [
        -0.007814688608050346,
        -0.007526932284235954,
        -0.0010816886788234115
      ],
      "name": "Mesh.001/POSITION",
      "type": "VEC3"
    },
    {
      "bufferView": 0,
      "byteOffset": 12,
      "componentType": 5126,
      "count": 344,
      "name": "Mesh.001/NORMAL",
      "type": "VEC3"
    },
    {
      "bufferView": 0,
      "byteOffset": 24,
      "componentType": 5126,
      "count": 344,
      "name": "Mesh.001/TEXCOORD_0",
      "type": "VEC2"
    },
    {
      "bufferView": 0,
      "byteOffset": 32,
      "componentType": 5126,
      "count": 344,
      "name": "Mesh.001/TEXCOORD_1",
      "type": "VEC2"
    },
    {
      "bufferView": 1,
      "componentType": 5125,
      "count": 624,
      "name": "Mesh.001/INDICES",
      "type": "SCALAR"
    },
    {
      "bufferView": 2,
      "componentType": 5126,
      "count": 344,
      "max": [
        0.007814688608050346,
        0.007286946754902601,
        0.0011317601893097162
      ],
      "min": [
        0.0,
        -0.007526932284235954,
        -0.0010816886788234115
      ],
      "name": "Mesh.008/POSITION",
      "type": "VEC3"
    },
    {
      "bufferView": 2,
      "byteOffset": 12,
      "componentType": 5126,
      "count": 344,
      "name": "Mesh.008/NORMAL",
      "type": "VEC3"
    },
    {
      "bufferView": 2,
      "byteOffset": 24,
      "componentType": 5126,
      "count": 344,
      "name": "Mesh.008/TEXCOORD_0",
      "type": "VEC2"
    },
    {
      "bufferView": 2,
      "byteOffset": 32,
      "componentType": 5126,
      "count": 344,
      "name": "Mesh.008/TEXCOORD_1",
      "type": "VEC2"
    },
    {
      "bufferView": 3,
      "componentType": 5125,
      "count": 624,
      "name": "Mesh.008/INDICES",
      "type": "SCALAR"
    }
  ],
  "asset": {
    "copyright": "Copyright (c) 2018-2020 Chukong Technologies Inc.",
    "generator": "FBX-glTF-conv",
    "version": "2.0"
  },
  "bufferViews": [
    {
      "buffer": 0,
      "byteLength": 13760,
      "byteStride": 40,
      "name": "Mesh.001",
      "target": 34962
    },
    {
      "buffer": 0,
      "byteLength": 2496,
      "byteOffset": 13760
    },
    {
      "buffer": 0,
      "byteLength": 13760,
      "byteOffset": 16256,
      "byteStride": 40,
      "name": "Mesh.008",
      "target": 34962
    },
    {
      "buffer": 0,
      "byteLength": 2496,
      "byteOffset": 30016
    }
  ],
  "buffers": [
    {
      "byteLength": 32512,
      "uri": "out.bin"
    }
  ],
  "extras": {
    "FBX-glTF-conv": {
      "animationFrameRate": 25.0
    }
  },
  "images": [
    {
      "extras": {
        "FBX-glTF-conv": {
          "fileName": "C:\\Users\\Admin\\Desktop\\Cat Escape\\Texture.jpg",
          "relativeFileName": "C:\\Users\\Admin\\Desktop\\Cat Escape\\Texture.jpg"
        }
      },
      "name": "base_color_texture",
      "uri": "data:image/png;base64,"
    }
  ],
  "materials": [
    {
      "name": "Mat_Environment",
      "pbrMetallicRoughness": {
        "baseColorTexture": {
          "index": 0
        },
        "metallicFactor": 0.4000000059604645
      }
    }
  ],
  "meshes": [
    {
      "name": "Mesh.001",
      "primitives": [
        {
          "attributes": {
            "NORMAL": 1,
            "POSITION": 0,
            "TEXCOORD_0": 2,
            "TEXCOORD_1": 3
          },
          "indices": 4,
          "material": 0
        }
      ]
    },
    {
      "name": "Mesh.008",
      "primitives": [
        {
          "attributes": {
            "NORMAL": 6,
            "POSITION": 5,
            "TEXCOORD_0": 7,
            "TEXCOORD_1": 8
          },
          "indices": 9,
          "material": 0
        }
      ]
    }
  ],
  "nodes": [
    {
      "children": [
        1,
        2
      ],
      "name": "Doors"
    },
    {
      "mesh": 0,
      "name": "Door1",
      "translation": [
        0.007821347564458847,
        0.00755288265645504,
        1.175609470882577e-10
      ]
    },
    {
      "mesh": 1,
      "name": "Door2",
      "translation": [
        -0.007821347564458847,
        0.00755288265645504,
        1.175609470882577e-10
      ]
    }
  ],
  "samplers": [
    {}
  ],
  "scenes": [
    {
      "name": "Scene",
      "nodes": [
        0
      ]
    }
  ],
  "textures": [
    {
      "name": "base_color_texture",
      "sampler": 0,
      "source": 0
    }
  ]
}