{
    "asset": {
        "generator": "FBX2glTF v0.9.7",
        "version": "2.0"
    },
    "scene": 0,
    "buffers": [
        {
            "byteLength": 2288,
            "uri": "buffer.bin"
        }
    ],
    "bufferViews": [
        {
            "buffer": 0,
            "byteLength": 52,
            "byteOffset": 0
        },
        {
            "buffer": 0,
            "byteLength": 156,
            "byteOffset": 52
        },
        {
            "buffer": 0,
            "byteLength": 208,
            "byteOffset": 208
        },
        {
            "buffer": 0,
            "byteLength": 156,
            "byteOffset": 416
        },
        {
            "buffer": 0,
            "byteLength": 208,
            "byteOffset": 572
        },
        {
            "buffer": 0,
            "byteLength": 156,
            "byteOffset": 780
        },
        {
            "buffer": 0,
            "byteLength": 208,
            "byteOffset": 936
        },
        {
            "buffer": 0,
            "byteLength": 208,
            "byteOffset": 1144
        },
        {
            "buffer": 0,
            "byteLength": 208,
            "byteOffset": 1352
        },
        {
            "buffer": 0,
            "byteLength": 156,
            "byteOffset": 1560
        },
        {
            "buffer": 0,
            "byteLength": 208,
            "byteOffset": 1716
        },
        {
            "buffer": 0,
            "byteLength": 156,
            "byteOffset": 1924
        },
        {
            "buffer": 0,
            "byteLength": 208,
            "byteOffset": 2080
        }
    ],
    "scenes": [
        {
            "name": "Root Scene",
            "nodes": [
                0
            ]
        }
    ],
    "accessors": [
        {
            "componentType": 5126,
            "type": "SCALAR",
            "count": 13,
            "bufferView": 0,
            "byteOffset": 0,
            "min": [
                0.0
            ],
            "max": [
                0.5
            ]
        },
        {
            "componentType": 5126,
            "type": "VEC3",
            "count": 13,
            "bufferView": 1,
            "byteOffset": 0
        },
        {
            "componentType": 5126,
            "type": "VEC4",
            "count": 13,
            "bufferView": 2,
            "byteOffset": 0
        },
        {
            "componentType": 5126,
            "type": "VEC3",
            "count": 13,
            "bufferView": 3,
            "byteOffset": 0
        },
        {
            "componentType": 5126,
            "type": "VEC4",
            "count": 13,
            "bufferView": 4,
            "byteOffset": 0
        },
        {
            "componentType": 5126,
            "type": "VEC3",
            "count": 13,
            "bufferView": 5,
            "byteOffset": 0
        },
        {
            "componentType": 5126,
            "type": "VEC4",
            "count": 13,
            "bufferView": 6,
            "byteOffset": 0
        },
        {
            "componentType": 5126,
            "type": "VEC4",
            "count": 13,
            "bufferView": 7,
            "byteOffset": 0
        },
        {
            "componentType": 5126,
            "type": "VEC4",
            "count": 13,
            "bufferView": 8,
            "byteOffset": 0
        },
        {
            "componentType": 5126,
            "type": "VEC3",
            "count": 13,
            "bufferView": 9,
            "byteOffset": 0
        },
        {
            "componentType": 5126,
            "type": "VEC4",
            "count": 13,
            "bufferView": 10,
            "byteOffset": 0
        },
        {
            "componentType": 5126,
            "type": "VEC3",
            "count": 13,
            "bufferView": 11,
            "byteOffset": 0
        },
        {
            "componentType": 5126,
            "type": "VEC4",
            "count": 13,
            "bufferView": 12,
            "byteOffset": 0
        }
    ],
    "samplers": [
        {}
    ],
    "animations": [
        {
            "name": "Car_run",
            "channels": [
                {
                    "sampler": 0,
                    "target": {
                        "node": 2,
                        "path": "translation"
                    }
                },
                {
                    "sampler": 1,
                    "target": {
                        "node": 2,
                        "path": "rotation"
                    }
                },
                {
                    "sampler": 2,
                    "target": {
                        "node": 4,
                        "path": "translation"
                    }
                },
                {
                    "sampler": 3,
                    "target": {
                        "node": 4,
                        "path": "rotation"
                    }
                },
                {
                    "sampler": 4,
                    "target": {
                        "node": 6,
                        "path": "translation"
                    }
                },
                {
                    "sampler": 5,
                    "target": {
                        "node": 6,
                        "path": "rotation"
                    }
                },
                {
                    "sampler": 6,
                    "target": {
                        "node": 8,
                        "path": "rotation"
                    }
                },
                {
                    "sampler": 7,
                    "target": {
                        "node": 9,
                        "path": "rotation"
                    }
                },
                {
                    "sampler": 8,
                    "target": {
                        "node": 10,
                        "path": "translation"
                    }
                },
                {
                    "sampler": 9,
                    "target": {
                        "node": 10,
                        "path": "rotation"
                    }
                },
                {
                    "sampler": 10,
                    "target": {
                        "node": 12,
                        "path": "translation"
                    }
                },
                {
                    "sampler": 11,
                    "target": {
                        "node": 12,
                        "path": "rotation"
                    }
                }
            ],
            "samplers": [
                {
                    "input": 0,
                    "interpolation": "LINEAR",
                    "output": 1
                },
                {
                    "input": 0,
                    "interpolation": "LINEAR",
                    "output": 2
                },
                {
                    "input": 0,
                    "interpolation": "LINEAR",
                    "output": 3
                },
                {
                    "input": 0,
                    "interpolation": "LINEAR",
                    "output": 4
                },
                {
                    "input": 0,
                    "interpolation": "LINEAR",
                    "output": 5
                },
                {
                    "input": 0,
                    "interpolation": "LINEAR",
                    "output": 6
                },
                {
                    "input": 0,
                    "interpolation": "LINEAR",
                    "output": 7
                },
                {
                    "input": 0,
                    "interpolation": "LINEAR",
                    "output": 8
                },
                {
                    "input": 0,
                    "interpolation": "LINEAR",
                    "output": 9
                },
                {
                    "input": 0,
                    "interpolation": "LINEAR",
                    "output": 10
                },
                {
                    "input": 0,
                    "interpolation": "LINEAR",
                    "output": 11
                },
                {
                    "input": 0,
                    "interpolation": "LINEAR",
                    "output": 12
                }
            ]
        }
    ],
    "nodes": [
        {
            "name": "RootNode",
            "translation": [
                0.0,
                0.0,
                0.0
            ],
            "rotation": [
                0.0,
                0.0,
                0.0,
                1.0
            ],
            "scale": [
                1.0,
                1.0,
                1.0
            ],
            "children": [
                1
            ]
        },
        {
            "name": "Root_M",
            "translation": [
                0.0,
                0.0199999995529652,
                0.0
            ],
            "rotation": [
                0.5,
                0.5,
                0.5,
                0.5
            ],
            "scale": [
                1.0,
                1.0,
                1.0
            ],
            "children": [
                2,
                4,
                6,
                10,
                12
            ]
        },
        {
            "name": "frontWheel_R",
            "translation": [
                -0.00811253394931555,
                0.0469069220125675,
                -0.0301142614334822
            ],
            "rotation": [
                0.109638184309006,
                0.698555290699005,
                -0.109638184309006,
                0.698555290699005
            ],
            "scale": [
                1.0,
                1.0,
                1.0
            ],
            "children": [
                3
            ]
        },
        {
            "name": "frontWheelEnd_R",
            "translation": [
                0.00622938573360443,
                8.88178399847791e-18,
                4.44089183380283e-17
            ],
            "rotation": [
                2.77555756156289e-17,
                4.93038065763132e-32,
                1.97215226305253e-31,
                1.0
            ],
            "scale": [
                1.0,
                1.0,
                1.0
            ]
        },
        {
            "name": "backWheel_R",
            "translation": [
                -0.00811253394931555,
                -0.0471587777137756,
                -0.0301142614334822
            ],
            "rotation": [
                0.69876766204834,
                0.108276344835758,
                -0.69876766204834,
                0.108276344835758
            ],
            "scale": [
                1.0,
                1.0,
                1.0
            ],
            "children": [
                5
            ]
        },
        {
            "name": "backWheelEnd_R",
            "translation": [
                0.00622938573360443,
                0.0,
                -3.55271359939116e-17
            ],
            "rotation": [
                -2.77555756156289e-17,
                -2.95822839457879e-31,
                1.97215226305253e-31,
                1.0
            ],
            "scale": [
                1.0,
                1.0,
                1.0
            ]
        },
        {
            "name": "Body_M",
            "translation": [
                0.0199999995529652,
                -1.30922973049293e-18,
                -2.61845946098585e-18
            ],
            "rotation": [
                3.94117441974769e-31,
                7.25945696908222e-32,
                0.0043633091263473,
                0.999990463256836
            ],
            "scale": [
                1.0,
                1.0,
                1.0
            ],
            "children": [
                7,
                8,
                9
            ]
        },
        {
            "name": "BodyEnd_M",
            "translation": [
                0.0404530167579651,
                0.0,
                -1.39239858450255e-17
            ],
            "rotation": [
                1.97215226305253e-31,
                2.69630192214213e-31,
                -0.0,
                1.0
            ],
            "scale": [
                1.0,
                1.0,
                1.0
            ]
        },
        {
            "name": "Door_R",
            "translation": [
                0.00466038612648845,
                -0.0998114123940468,
                -0.0210826359689236
            ],
            "rotation": [
                0.507758677005768,
                0.51731675863266,
                0.492118984460831,
                -0.482061564922333
            ],
            "scale": [
                1.0,
                1.0,
                1.0
            ]
        },
        {
            "name": "Door_L",
            "translation": [
                0.00466038612648845,
                -0.0998114123940468,
                0.0210826359689236
            ],
            "rotation": [
                0.487273216247559,
                -0.477125465869904,
                0.512410759925842,
                0.521872878074646
            ],
            "scale": [
                1.0,
                1.0,
                1.0
            ]
        },
        {
            "name": "frontWheel_L",
            "translation": [
                -0.00811253394931555,
                0.0469069220125675,
                0.0301142614334822
            ],
            "rotation": [
                0.667251884937286,
                0.234040439128876,
                -0.667251825332642,
                0.234040454030037
            ],
            "scale": [
                1.0,
                1.0,
                1.0
            ],
            "children": [
                11
            ]
        },
        {
            "name": "frontWheelEnd_L",
            "translation": [
                -0.00622938573360443,
                -5.44590206263962e-10,
                -3.55271359939116e-17
            ],
            "rotation": [
                -5.55111512312578e-17,
                -1.54996189379491e-24,
                -7.68131809999293e-25,
                1.0
            ],
            "scale": [
                1.0,
                1.0,
                1.0
            ]
        },
        {
            "name": "backWheel_L",
            "translation": [
                -0.00811253394931555,
                -0.0471587777137756,
                0.0301142614334822
            ],
            "rotation": [
                -0.442276567220688,
                0.551716804504395,
                0.442276537418365,
                0.551716864109039
            ],
            "scale": [
                1.0,
                1.0,
                1.0
            ],
            "children": [
                13
            ]
        },
        {
            "name": "backWheelEnd_L",
            "translation": [
                -0.00622938573360443,
                -5.44590206263962e-10,
                5.32907039908674e-17
            ],
            "rotation": [
                1.38777878078145e-17,
                2.2201407465853e-24,
                1.57870315340812e-23,
                1.0
            ],
            "scale": [
                1.0,
                1.0,
                1.0
            ]
        }
    ]
}