{
  "accessors": [
    {
      "bufferView": 0,
      "componentType": 5126,
      "count": 271,
      "max": [
        0.019228938966989517,
        0.06584559381008148,
        0.020718509331345558
      ],
      "min": [
        -0.019279716536402702,
        -6.731392665493274e-10,
        -0.01770552434027195
      ],
      "name": "fir_tree/POSITION",
      "type": "VEC3"
    },
    {
      "bufferView": 0,
      "byteOffset": 12,
      "componentType": 5126,
      "count": 271,
      "name": "fir_tree/NORMAL",
      "type": "VEC3"
    },
    {
      "bufferView": 0,
      "byteOffset": 24,
      "componentType": 5126,
      "count": 271,
      "name": "fir_tree/TEXCOORD_0",
      "type": "VEC2"
    },
    {
      "bufferView": 1,
      "componentType": 5125,
      "count": 714,
      "name": "fir_tree/INDICES",
      "type": "SCALAR"
    }
  ],
  "asset": {
    "copyright": "Copyright (c) 2018-2020 Chukong Technologies Inc.",
    "generator": "FBX-glTF-conv",
    "version": "2.0"
  },
  "bufferViews": [
    {
      "buffer": 0,
      "byteLength": 8672,
      "byteStride": 32,
      "name": "fir_tree",
      "target": 34962
    },
    {
      "buffer": 0,
      "byteLength": 2856,
      "byteOffset": 8672
    }
  ],
  "buffers": [
    {
      "byteLength": 11528,
      "uri": "out.bin"
    }
  ],
  "extras": {
    "FBX-glTF-conv": {
      "animationFrameRate": 25.0
    }
  },
  "images": [
    {
      "extras": {
        "FBX-glTF-conv": {
          "fileName": "C:\\Users\\Admin\\Desktop\\Cat Escape\\Texture.jpg",
          "relativeFileName": "C:\\Users\\Admin\\Desktop\\Cat Escape\\Texture.jpg"
        }
      },
      "name": "base_color_texture",
      "uri": "data:image/png;base64,"
    }
  ],
  "materials": [
    {
      "name": "Mat_Environment",
      "pbrMetallicRoughness": {
        "baseColorTexture": {
          "index": 0
        },
        "metallicFactor": 0.4000000059604645
      }
    }
  ],
  "meshes": [
    {
      "name": "fir_tree",
      "primitives": [
        {
          "attributes": {
            "NORMAL": 1,
            "POSITION": 0,
            "TEXCOORD_0": 2
          },
          "indices": 3,
          "material": 0
        }
      ]
    }
  ],
  "nodes": [
    {
      "mesh": 0,
      "name": "fir_tree"
    }
  ],
  "samplers": [
    {}
  ],
  "scenes": [
    {
      "name": "Scene",
      "nodes": [
        0
      ]
    }
  ],
  "textures": [
    {
      "name": "base_color_texture",
      "sampler": 0,
      "source": 0
    }
  ]
}