{
  "accessors": [
    {
      "bufferView": 0,
      "componentType": 5126,
      "count": 183,
      "max": [
        0.03870820626616478,
        0.05432543903589249,
        0.024792784824967384
      ],
      "min": [
        -0.05938610062003136,
        -0.00022262871789280325,
        -0.02936537005007267
      ],
      "name": "PizzaSlice1/POSITION",
      "type": "VEC3"
    },
    {
      "bufferView": 0,
      "byteOffset": 12,
      "componentType": 5126,
      "count": 183,
      "name": "PizzaSlice1/NORMAL",
      "type": "VEC3"
    },
    {
      "bufferView": 0,
      "byteOffset": 24,
      "componentType": 5126,
      "count": 183,
      "name": "PizzaSlice1/TEXCOORD_0",
      "type": "VEC2"
    },
    {
      "bufferView": 1,
      "componentType": 5125,
      "count": 720,
      "name": "PizzaSlice1/INDICES",
      "type": "SCALAR"
    }
  ],
  "asset": {
    "copyright": "Copyright (c) 2018-2020 Chukong Technologies Inc.",
    "generator": "FBX-glTF-conv",
    "version": "2.0"
  },
  "bufferViews": [
    {
      "buffer": 0,
      "byteLength": 5856,
      "byteStride": 32,
      "name": "PizzaSlice1",
      "target": 34962
    },
    {
      "buffer": 0,
      "byteLength": 2880,
      "byteOffset": 5856
    }
  ],
  "buffers": [
    {
      "byteLength": 8736,
      "uri": "out.bin"
    }
  ],
  "extras": {
    "FBX-glTF-conv": {
      "animationFrameRate": 30.0
    }
  },
  "images": [
    {
      "extras": {
        "FBX-glTF-conv": {
          "fileName": "E:/danie/OneDrive/Documents/maya/projects/Gluttony/sourceimages/Pizza_color_1K.png",
          "relativeFileName": "E:\\danie\\OneDrive\\Documents\\maya\\projects\\Gluttony\\sourceimages\\Pizza_color_1K.png"
        }
      },
      "name": "file14",
      "uri": "data:image/png;base64,"
    }
  ],
  "materials": [
    {
      "name": "mtl_Pizza",
      "pbrMetallicRoughness": {
        "baseColorFactor": [
          0.800000011920929,
          0.800000011920929,
          0.800000011920929,
          1.0
        ],
        "baseColorTexture": {
          "index": 0
        }
      }
    }
  ],
  "meshes": [
    {
      "name": "PizzaSlice1",
      "primitives": [
        {
          "attributes": {
            "NORMAL": 1,
            "POSITION": 0,
            "TEXCOORD_0": 2
          },
          "indices": 3,
          "material": 0
        }
      ]
    }
  ],
  "nodes": [
    {
      "mesh": 0,
      "name": "PizzaSlice1"
    }
  ],
  "samplers": [
    {}
  ],
  "scenes": [
    {
      "nodes": [
        0
      ]
    }
  ],
  "textures": [
    {
      "name": "file14",
      "sampler": 0,
      "source": 0
    }
  ]
}