{
  "accessors": [
    {
      "bufferView": 0,
      "componentType": 5126,
      "count": 1151,
      "max": [
        0.018910525366663933,
        0.03973928466439247,
        0.021855944767594337
      ],
      "min": [
        -0.018887246027588844,
        -0.007551124319434166,
        -0.0011623490136116743
      ],
      "name": "cartoon_toilet/POSITION",
      "type": "VEC3"
    },
    {
      "bufferView": 0,
      "byteOffset": 12,
      "componentType": 5126,
      "count": 1151,
      "name": "cartoon_toilet/NORMAL",
      "type": "VEC3"
    },
    {
      "bufferView": 0,
      "byteOffset": 24,
      "componentType": 5126,
      "count": 1151,
      "name": "cartoon_toilet/TEXCOORD_0",
      "type": "VEC2"
    },
    {
      "bufferView": 0,
      "byteOffset": 32,
      "componentType": 5123,
      "count": 1151,
      "name": "cartoon_toilet/JOINTS_0",
      "type": "VEC4"
    },
    {
      "bufferView": 0,
      "byteOffset": 40,
      "componentType": 5126,
      "count": 1151,
      "name": "cartoon_toilet/WEIGHTS_0",
      "type": "VEC4"
    },
    {
      "bufferView": 1,
      "componentType": 5125,
      "count": 5028,
      "name": "cartoon_toilet/INDICES",
      "type": "SCALAR"
    },
    {
      "bufferView": 2,
      "componentType": 5126,
      "count": 5,
      "name": "/InverseBindMatrices",
      "type": "MAT4"
    }
  ],
  "asset": {
    "copyright": "Copyright (c) 2018-2020 Chukong Technologies Inc.",
    "generator": "FBX-glTF-conv",
    "version": "2.0"
  },
  "bufferViews": [
    {
      "buffer": 0,
      "byteLength": 64456,
      "byteStride": 56,
      "name": "cartoon_toilet",
      "target": 34962
    },
    {
      "buffer": 0,
      "byteLength": 20112,
      "byteOffset": 64456
    },
    {
      "buffer": 0,
      "byteLength": 320,
      "byteOffset": 84568
    }
  ],
  "buffers": [
    {
      "byteLength": 84888,
      "uri": "out.bin"
    }
  ],
  "extras": {
    "FBX-glTF-conv": {
      "animationFrameRate": 30.0
    }
  },
  "images": [
    {
      "extras": {
        "FBX-glTF-conv": {
          "fileName": "D:/Farts Ville/Texture.png",
          "relativeFileName": "..\\..\\..\\..\\Farts Ville\\Texture.png"
        }
      },
      "name": "file1",
      "uri": "data:image/png;base64,"
    }
  ],
  "materials": [
    {
      "name": "Texture1",
      "pbrMetallicRoughness": {
        "baseColorFactor": [
          0.800000011920929,
          0.800000011920929,
          0.800000011920929,
          1.0
        ],
        "baseColorTexture": {
          "index": 0
        }
      }
    }
  ],
  "meshes": [
    {
      "name": "cartoon_toilet",
      "primitives": [
        {
          "attributes": {
            "JOINTS_0": 3,
            "NORMAL": 1,
            "POSITION": 0,
            "TEXCOORD_0": 2,
            "WEIGHTS_0": 4
          },
          "indices": 5,
          "material": 0
        }
      ]
    }
  ],
  "nodes": [
    {
      "mesh": 0,
      "name": "cartoon_toilet",
      "rotation": [
        -0.0,
        -0.7071067690849304,
        0.0,
        0.7071067690849304
      ],
      "scale": [
        1.494585633277893,
        1.494585633277893,
        1.494585633277893
      ],
      "skin": 0,
      "translation": [
        0.01546417735517025,
        0.011285129934549332,
        -2.2204459996194763e-18
      ]
    },
    {
      "children": [
        2,
        4
      ],
      "extras": {
        "FBX-glTF-conv": {
          "skeleton": {
            "skeletonType": "LimbNode"
          }
        }
      },
      "name": "toilet",
      "rotation": [
        0.7046643495559692,
        0.709540843963623,
        4.3446844419902576e-17,
        4.3148245453660734e-17
      ],
      "translation": [
        0.00020903072436340153,
        -0.000331603194354102,
        -0.010578548535704613
      ]
    },
    {
      "children": [
        3
      ],
      "extras": {
        "FBX-glTF-conv": {
          "skeleton": {
            "skeletonType": "LimbNode"
          }
        }
      },
      "name": "toilet1",
      "rotation": [
        0.9999680519104004,
        0.007993465289473534,
        8.422484237824435e-11,
        1.0536375327774294e-08
      ],
      "translation": [
        0.033007536083459854,
        3.9004909922368824e-05,
        0.0
      ]
    },
    {
      "extras": {
        "FBX-glTF-conv": {
          "skeleton": {
            "skeletonType": "LimbNode"
          }
        }
      },
      "name": "toilet2",
      "rotation": [
        9.18058679977923e-27,
        -9.097506033838253e-27,
        -0.7038854360580444,
        0.7103134989738464
      ],
      "translation": [
        0.03807240352034569,
        -3.116040170425549e-05,
        -6.566547436012704e-13
      ]
    },
    {
      "children": [
        5
      ],
      "extras": {
        "FBX-glTF-conv": {
          "skeleton": {
            "skeletonType": "LimbNode"
          }
        }
      },
      "name": "toilet3",
      "rotation": [
        0.9999680519104004,
        0.007993465289473534,
        8.422484237824435e-11,
        1.0536375327774294e-08
      ],
      "translation": [
        0.03277825936675072,
        3.742369153769687e-05,
        -0.0019369757501408458
      ]
    },
    {
      "extras": {
        "FBX-glTF-conv": {
          "skeleton": {
            "skeletonType": "LimbNode"
          }
        }
      },
      "name": "toilet4",
      "translation": [
        -0.000171382213011384,
        -1.5587961570417974e-06,
        0.036829493939876556
      ]
    }
  ],
  "samplers": [
    {}
  ],
  "scenes": [
    {
      "nodes": [
        0,
        1
      ]
    }
  ],
  "skins": [
    {
      "inverseBindMatrices": 6,
      "joints": [
        5,
        4,
        3,
        2,
        1
      ]
    }
  ],
  "textures": [
    {
      "name": "file1",
      "sampler": 0,
      "source": 0
    }
  ]
}