{
  "accessors": [
    {
      "bufferView": 0,
      "componentType": 5126,
      "count": 144,
      "max": [
        0.14568649232387543,
        0.07171721756458282,
        0.14984579384326935
      ],
      "min": [
        -0.12379609793424606,
        5.9604643443123e-10,
        -0.11963684856891632
      ],
      "name": "pCylinder6/POSITION",
      "type": "VEC3"
    },
    {
      "bufferView": 0,
      "byteOffset": 12,
      "componentType": 5126,
      "count": 144,
      "name": "pCylinder6/NORMAL",
      "type": "VEC3"
    },
    {
      "bufferView": 0,
      "byteOffset": 24,
      "componentType": 5126,
      "count": 144,
      "name": "pCylinder6/TEXCOORD_0",
      "type": "VEC2"
    },
    {
      "bufferView": 1,
      "componentType": 5125,
      "count": 300,
      "name": "pCylinder6/INDICES",
      "type": "SCALAR"
    },
    {
      "bufferView": 2,
      "componentType": 5126,
      "count": 1708,
      "max": [
        0.10061557590961456,
        0.0951547920703888,
        0.09638550132513046
      ],
      "min": [
        -0.07844966650009155,
        6.645917665082379e-07,
        -0.19755737483501434
      ],
      "name": "HelicopterResque_night/POSITION",
      "type": "VEC3"
    },
    {
      "bufferView": 2,
      "byteOffset": 12,
      "componentType": 5126,
      "count": 1708,
      "name": "HelicopterResque_night/NORMAL",
      "type": "VEC3"
    },
    {
      "bufferView": 2,
      "byteOffset": 24,
      "componentType": 5126,
      "count": 1708,
      "name": "HelicopterResque_night/TEXCOORD_0",
      "type": "VEC2"
    },
    {
      "bufferView": 3,
      "componentType": 5125,
      "count": 7038,
      "name": "HelicopterResque_night/INDICES",
      "type": "SCALAR"
    },
    {
      "bufferView": 4,
      "componentType": 5126,
      "count": 11896,
      "max": [
        0.08055667579174042,
        0.26953375339508057,
        0.13447998464107513
      ],
      "min": [
        -0.14568647742271423,
        0.08593695610761642,
        0.054969482123851776
      ],
      "name": "polySurface9/POSITION",
      "type": "VEC3"
    },
    {
      "bufferView": 4,
      "byteOffset": 12,
      "componentType": 5126,
      "count": 11896,
      "name": "polySurface9/NORMAL",
      "type": "VEC3"
    },
    {
      "bufferView": 4,
      "byteOffset": 24,
      "componentType": 5126,
      "count": 11896,
      "name": "polySurface9/TEXCOORD_0",
      "type": "VEC2"
    },
    {
      "bufferView": 4,
      "byteOffset": 32,
      "componentType": 5123,
      "count": 11896,
      "name": "polySurface9/JOINTS_0",
      "type": "VEC4"
    },
    {
      "bufferView": 4,
      "byteOffset": 40,
      "componentType": 5126,
      "count": 11896,
      "name": "polySurface9/WEIGHTS_0",
      "type": "VEC4"
    },
    {
      "bufferView": 5,
      "componentType": 5125,
      "count": 28191,
      "name": "polySurface9/INDICES",
      "type": "SCALAR"
    },
    {
      "bufferView": 6,
      "componentType": 5126,
      "count": 8,
      "name": "/InverseBindMatrices",
      "type": "MAT4"
    },
    {
      "bufferView": 7,
      "componentType": 5126,
      "count": 251,
      "max": [
        0.0945715680718422,
        0.27734747529029846,
        0.19755737483501434
      ],
      "min": [
        -0.1102941483259201,
        0.2452472746372223,
        -0.0073083494789898396
      ],
      "name": "Rotator_mesh/POSITION",
      "type": "VEC3"
    },
    {
      "bufferView": 7,
      "byteOffset": 12,
      "componentType": 5126,
      "count": 251,
      "name": "Rotator_mesh/NORMAL",
      "type": "VEC3"
    },
    {
      "bufferView": 7,
      "byteOffset": 24,
      "componentType": 5126,
      "count": 251,
      "name": "Rotator_mesh/TEXCOORD_0",
      "type": "VEC2"
    },
    {
      "bufferView": 7,
      "byteOffset": 32,
      "componentType": 5126,
      "count": 251,
      "name": "Rotator_mesh/TEXCOORD_1",
      "type": "VEC2"
    },
    {
      "bufferView": 7,
      "byteOffset": 40,
      "componentType": 5123,
      "count": 251,
      "name": "Rotator_mesh/JOINTS_0",
      "type": "VEC4"
    },
    {
      "bufferView": 7,
      "byteOffset": 48,
      "componentType": 5126,
      "count": 251,
      "name": "Rotator_mesh/WEIGHTS_0",
      "type": "VEC4"
    },
    {
      "bufferView": 8,
      "componentType": 5125,
      "count": 648,
      "name": "Rotator_mesh/INDICES",
      "type": "SCALAR"
    },
    {
      "bufferView": 9,
      "componentType": 5126,
      "count": 1,
      "name": "/InverseBindMatrices",
      "type": "MAT4"
    }
  ],
  "asset": {
    "copyright": "Copyright (c) 2018-2020 Chukong Technologies Inc.",
    "generator": "FBX-glTF-conv",
    "version": "2.0"
  },
  "bufferViews": [
    {
      "buffer": 0,
      "byteLength": 4608,
      "byteStride": 32,
      "name": "pCylinder6",
      "target": 34962
    },
    {
      "buffer": 0,
      "byteLength": 1200,
      "byteOffset": 4608
    },
    {
      "buffer": 0,
      "byteLength": 54656,
      "byteOffset": 5808,
      "byteStride": 32,
      "name": "HelicopterResque_night",
      "target": 34962
    },
    {
      "buffer": 0,
      "byteLength": 28152,
      "byteOffset": 60464
    },
    {
      "buffer": 0,
      "byteLength": 666176,
      "byteOffset": 88616,
      "byteStride": 56,
      "name": "polySurface9",
      "target": 34962
    },
    {
      "buffer": 0,
      "byteLength": 112764,
      "byteOffset": 754792
    },
    {
      "buffer": 0,
      "byteLength": 512,
      "byteOffset": 867556
    },
    {
      "buffer": 0,
      "byteLength": 16064,
      "byteOffset": 868068,
      "byteStride": 64,
      "name": "Rotator_mesh",
      "target": 34962
    },
    {
      "buffer": 0,
      "byteLength": 2592,
      "byteOffset": 884132
    },
    {
      "buffer": 0,
      "byteLength": 64,
      "byteOffset": 886724
    }
  ],
  "buffers": [
    {
      "byteLength": 886788,
      "uri": "out.bin"
    }
  ],
  "extras": {
    "FBX-glTF-conv": {
      "animationFrameRate": 30.0
    }
  },
  "images": [
    {
      "extras": {
        "FBX-glTF-conv": {
          "fileName": "D:\\PA_2024\\3D\\CatEscape\\CatEscape_OP16\\temp\\asset-db\\assets\\fbx.FBX-glTF-conv\\797e5e10-5ae2-4e2a-865a-8ba50b83a351\\output\\.fbm\\27AE201B\\Helicopter_Base.fbm/Megatexture.png",
          "relativeFileName": "..\\..\\..\\..\\temp\\asset-db\\assets\\fbx.FBX-glTF-conv\\797e5e10-5ae2-4e2a-865a-8ba50b83a351\\output\\.fbm\\27AE201B\\Helicopter_Base.fbm\\Megatexture.png"
        }
      },
      "name": "file4",
      "uri": "Megatexture.png"
    }
  ],
  "materials": [
    {
      "name": "Helicopter_Mat",
      "pbrMetallicRoughness": {
        "baseColorFactor": [
          0.800000011920929,
          0.800000011920929,
          0.800000011920929,
          1.0
        ],
        "baseColorTexture": {
          "index": 0
        }
      }
    }
  ],
  "meshes": [
    {
      "name": "pCylinder6",
      "primitives": [
        {
          "attributes": {
            "NORMAL": 1,
            "POSITION": 0,
            "TEXCOORD_0": 2
          },
          "indices": 3,
          "material": 0
        }
      ]
    },
    {
      "name": "HelicopterResque_night",
      "primitives": [
        {
          "attributes": {
            "NORMAL": 5,
            "POSITION": 4,
            "TEXCOORD_0": 6
          },
          "indices": 7,
          "material": 0
        }
      ]
    },
    {
      "name": "polySurface9",
      "primitives": [
        {
          "attributes": {
            "JOINTS_0": 11,
            "NORMAL": 9,
            "POSITION": 8,
            "TEXCOORD_0": 10,
            "WEIGHTS_0": 12
          },
          "indices": 13,
          "material": 0
        }
      ]
    },
    {
      "name": "Rotator_mesh",
      "primitives": [
        {
          "attributes": {
            "JOINTS_0": 19,
            "NORMAL": 16,
            "POSITION": 15,
            "TEXCOORD_0": 17,
            "TEXCOORD_1": 18,
            "WEIGHTS_0": 20
          },
          "indices": 21,
          "material": 0
        }
      ]
    }
  ],
  "nodes": [
    {
      "children": [
        1,
        2,
        3,
        4
      ],
      "name": "Helicopter"
    },
    {
      "mesh": 0,
      "name": "pCylinder6"
    },
    {
      "mesh": 1,
      "name": "HelicopterResque_night"
    },
    {
      "mesh": 2,
      "name": "polySurface9",
      "rotation": [
        -0.0,
        -0.7071067690849304,
        0.0,
        0.7071067690849304
      ],
      "skin": 0,
      "translation": [
        0.0954173132777214,
        -0.14955289661884308,
        0.0025648975279182196
      ]
    },
    {
      "mesh": 3,
      "name": "Rotator_mesh",
      "rotation": [
        -0.0,
        -0.7071067690849304,
        0.0,
        0.7071067690849304
      ],
      "skin": 1,
      "translation": [
        0.0954173132777214,
        -0.14955289661884308,
        0.0025648975279182196
      ]
    },
    {
      "children": [
        6,
        8
      ],
      "extras": {
        "FBX-glTF-conv": {
          "skeleton": {
            "skeletonType": "LimbNode"
          }
        }
      },
      "name": "Root_M",
      "rotation": [
        0.4685725271701813,
        0.529565691947937,
        0.4685725271701813,
        0.529565691947937
      ],
      "translation": [
        0.0,
        0.019999999552965164,
        0.0
      ]
    },
    {
      "children": [
        7
      ],
      "extras": {
        "FBX-glTF-conv": {
          "skeleton": {
            "skeletonType": "LimbNode"
          }
        }
      },
      "name": "Body_M",
      "rotation": [
        -6.029757506437946e-34,
        -3.734753552901422e-18,
        0.06099315360188484,
        0.9981381893157959
      ],
      "translation": [
        0.04029962792992592,
        -1.94289030136583e-18,
        6.2633247442872075e-18
      ]
    },
    {
      "extras": {
        "FBX-glTF-conv": {
          "skeleton": {
            "skeletonType": "LimbNode"
          }
        }
      },
      "name": "BodyEnd_M",
      "translation": [
        0.059232909232378006,
        -1.7208457014038824e-17,
        1.5862678825168126e-17
      ]
    },
    {
      "children": [
        9
      ],
      "extras": {
        "FBX-glTF-conv": {
          "skeleton": {
            "skeletonType": "LimbNode"
          }
        }
      },
      "name": "joint1_L",
      "rotation": [
        -0.06099315732717514,
        0.9981381893157959,
        6.485309084141531e-17,
        5.738358373561246e-17
      ],
      "translation": [
        0.0004514952015597373,
        0.009132690727710724,
        0.0365610271692276
      ]
    },
    {
      "children": [
        10
      ],
      "extras": {
        "FBX-glTF-conv": {
          "skeleton": {
            "skeletonType": "LimbNode"
          }
        }
      },
      "name": "joint2_L",
      "translation": [
        0.012167684733867645,
        -2.198922467722131e-11,
        -1.3322675997716858e-17
      ]
    },
    {
      "children": [
        11
      ],
      "extras": {
        "FBX-glTF-conv": {
          "skeleton": {
            "skeletonType": "LimbNode"
          }
        }
      },
      "name": "joint3_L",
      "translation": [
        0.01230916939675808,
        -2.2244895162004674e-11,
        7.105427198782324e-17
      ]
    },
    {
      "children": [
        12
      ],
      "extras": {
        "FBX-glTF-conv": {
          "skeleton": {
            "skeletonType": "LimbNode"
          }
        }
      },
      "name": "joint4_L",
      "translation": [
        0.011743230745196342,
        -2.1222142099208696e-11,
        -8.881783998477905e-18
      ]
    },
    {
      "children": [
        13
      ],
      "extras": {
        "FBX-glTF-conv": {
          "skeleton": {
            "skeletonType": "LimbNode"
          }
        }
      },
      "name": "joint5_L",
      "translation": [
        0.012450654059648514,
        -2.2500584728746276e-11,
        3.996803047469241e-17
      ]
    },
    {
      "children": [
        14
      ],
      "extras": {
        "FBX-glTF-conv": {
          "skeleton": {
            "skeletonType": "LimbNode"
          }
        }
      },
      "name": "joint6_L",
      "translation": [
        0.013299562968313694,
        -2.4034709986131553e-11,
        5.329070399086743e-17
      ]
    },
    {
      "extras": {
        "FBX-glTF-conv": {
          "skeleton": {
            "skeletonType": "LimbNode"
          }
        }
      },
      "name": "joint7_L",
      "translation": [
        0.012733623385429382,
        -2.301194651499472e-11,
        8.881783998477905e-18
      ]
    }
  ],
  "samplers": [
    {}
  ],
  "scenes": [
    {
      "nodes": [
        0,
        5
      ]
    }
  ],
  "skins": [
    {
      "inverseBindMatrices": 14,
      "joints": [
        6,
        8,
        9,
        10,
        11,
        12,
        13,
        14
      ]
    },
    {
      "inverseBindMatrices": 22,
      "joints": [
        7
      ]
    }
  ],
  "textures": [
    {
      "name": "file4",
      "sampler": 0,
      "source": 0
    }
  ]
}