{
  "accessors": [
    {
      "bufferView": 0,
      "componentType": 5126,
      "count": 722,
      "max": [
        0.003591079730540514,
        0.007840423844754696,
        0.003570556640625
      ],
      "min": [
        -0.003550033550709486,
        -4.765272024087608e-05,
        -0.003570556640625
      ],
      "name": "Apple1/POSITION",
      "type": "VEC3"
    },
    {
      "bufferView": 0,
      "byteOffset": 12,
      "componentType": 5126,
      "count": 722,
      "name": "Apple1/NORMAL",
      "type": "VEC3"
    },
    {
      "bufferView": 0,
      "byteOffset": 24,
      "componentType": 5126,
      "count": 722,
      "name": "Apple1/TEXCOORD_0",
      "type": "VEC2"
    },
    {
      "bufferView": 1,
      "componentType": 5125,
      "count": 3696,
      "name": "Apple1/INDICES",
      "type": "SCALAR"
    }
  ],
  "asset": {
    "copyright": "Copyright (c) 2018-2020 Chukong Technologies Inc.",
    "generator": "FBX-glTF-conv",
    "version": "2.0"
  },
  "bufferViews": [
    {
      "buffer": 0,
      "byteLength": 23104,
      "byteStride": 32,
      "name": "Apple1",
      "target": 34962
    },
    {
      "buffer": 0,
      "byteLength": 14784,
      "byteOffset": 23104
    }
  ],
  "buffers": [
    {
      "byteLength": 37888,
      "uri": "out.bin"
    }
  ],
  "extras": {
    "FBX-glTF-conv": {
      "animationFrameRate": 30.0
    }
  },
  "images": [
    {
      "extras": {
        "FBX-glTF-conv": {
          "fileName": "D:/Farts Ville/Lv8/textures/Apple_basecol.png",
          "relativeFileName": "textures\\Apple_basecol.png"
        }
      },
      "name": "base_color_texture2",
      "uri": "data:image/png;base64,"
    }
  ],
  "materials": [
    {
      "name": "Apple",
      "pbrMetallicRoughness": {
        "baseColorTexture": {
          "index": 0
        },
        "metallicFactor": 0.4000000059604645,
        "roughnessFactor": 0.30151134729385376
      }
    }
  ],
  "meshes": [
    {
      "name": "Apple1",
      "primitives": [
        {
          "attributes": {
            "NORMAL": 1,
            "POSITION": 0,
            "TEXCOORD_0": 2
          },
          "indices": 3,
          "material": 0
        }
      ]
    }
  ],
  "nodes": [
    {
      "mesh": 0,
      "name": "Apple1"
    }
  ],
  "samplers": [
    {}
  ],
  "scenes": [
    {
      "nodes": [
        0
      ]
    }
  ],
  "textures": [
    {
      "name": "base_color_texture2",
      "sampler": 0,
      "source": 0
    }
  ]
}