{
  "accessors": [
    {
      "bufferView": 0,
      "componentType": 5126,
      "count": 1208,
      "max": [
        0.044424787163734436,
        0.1319030225276947,
        0.04479900375008583
      ],
      "min": [
        -0.044641993939876556,
        7.428884418914095e-05,
        -0.04426778480410576
      ],
      "name": "Soda_Drink_Can_3_Low_Poly_Mandheling/POSITION",
      "type": "VEC3"
    },
    {
      "bufferView": 0,
      "byteOffset": 12,
      "componentType": 5126,
      "count": 1208,
      "name": "Soda_Drink_Can_3_Low_Poly_Mandheling/NORMAL",
      "type": "VEC3"
    },
    {
      "bufferView": 0,
      "byteOffset": 24,
      "componentType": 5126,
      "count": 1208,
      "name": "Soda_Drink_Can_3_Low_Poly_Mandheling/TEXCOORD_0",
      "type": "VEC2"
    },
    {
      "bufferView": 1,
      "componentType": 5125,
      "count": 5736,
      "name": "Soda_Drink_Can_3_Low_Poly_Mandheling/INDICES",
      "type": "SCALAR"
    }
  ],
  "asset": {
    "copyright": "Copyright (c) 2018-2020 Chukong Technologies Inc.",
    "generator": "FBX-glTF-conv",
    "version": "2.0"
  },
  "bufferViews": [
    {
      "buffer": 0,
      "byteLength": 38656,
      "byteStride": 32,
      "name": "Soda_Drink_Can_3_Low_Poly_Mandheling",
      "target": 34962
    },
    {
      "buffer": 0,
      "byteLength": 22944,
      "byteOffset": 38656
    }
  ],
  "buffers": [
    {
      "byteLength": 61600,
      "uri": "out.bin"
    }
  ],
  "extras": {
    "FBX-glTF-conv": {
      "animationFrameRate": 30.0
    }
  },
  "images": [
    {
      "extras": {
        "FBX-glTF-conv": {
          "fileName": "D:/Farts Ville/food/Arcade_Game_Scene_Can_3_Low_Poly_DefaultMaterial_BaseColor_3.png",
          "relativeFileName": "Arcade_Game_Scene_Can_3_Low_Poly_DefaultMaterial_BaseColor_3.png"
        }
      },
      "name": "file16",
      "uri": "data:image/png;base64,"
    }
  ],
  "materials": [
    {
      "name": "lambert8",
      "pbrMetallicRoughness": {
        "baseColorFactor": [
          0.800000011920929,
          0.800000011920929,
          0.800000011920929,
          1.0
        ],
        "baseColorTexture": {
          "index": 0
        }
      }
    }
  ],
  "meshes": [
    {
      "name": "Soda_Drink_Can_3_Low_Poly_Mandheling",
      "primitives": [
        {
          "attributes": {
            "NORMAL": 1,
            "POSITION": 0,
            "TEXCOORD_0": 2
          },
          "indices": 3,
          "material": 0
        }
      ]
    }
  ],
  "nodes": [
    {
      "mesh": 0,
      "name": "Soda_Drink_Can_3_Low_Poly_Mandheling"
    }
  ],
  "samplers": [
    {}
  ],
  "scenes": [
    {
      "nodes": [
        0
      ]
    }
  ],
  "textures": [
    {
      "name": "file16",
      "sampler": 0,
      "source": 0
    }
  ]
}