{
  "accessors": [
    {
      "bufferView": 0,
      "componentType": 5126,
      "count": 4044,
      "max": [
        0.07132144272327423,
        0.06222687289118767,
        0.07166874408721924
      ],
      "min": [
        -0.07132145017385483,
        0.0005161191220395267,
        -0.06854404509067535
      ],
      "name": "Doughnut/POSITION",
      "type": "VEC3"
    },
    {
      "bufferView": 0,
      "byteOffset": 12,
      "componentType": 5126,
      "count": 4044,
      "name": "Doughnut/NORMAL",
      "type": "VEC3"
    },
    {
      "bufferView": 0,
      "byteOffset": 24,
      "componentType": 5126,
      "count": 4044,
      "name": "Doughnut/TEXCOORD_0",
      "type": "VEC2"
    },
    {
      "bufferView": 1,
      "componentType": 5125,
      "count": 13596,
      "name": "Doughnut/INDICES",
      "type": "SCALAR"
    }
  ],
  "asset": {
    "copyright": "Copyright (c) 2018-2020 Chukong Technologies Inc.",
    "generator": "FBX-glTF-conv",
    "version": "2.0"
  },
  "bufferViews": [
    {
      "buffer": 0,
      "byteLength": 129408,
      "byteStride": 32,
      "name": "Doughnut",
      "target": 34962
    },
    {
      "buffer": 0,
      "byteLength": 54384,
      "byteOffset": 129408
    }
  ],
  "buffers": [
    {
      "byteLength": 183792,
      "uri": "out.bin"
    }
  ],
  "extras": {
    "FBX-glTF-conv": {
      "animationFrameRate": 30.0
    }
  },
  "images": [
    {
      "extras": {
        "FBX-glTF-conv": {
          "fileName": "D:/Farts Ville/food/DoughNut_Diffuse.png",
          "relativeFileName": "DoughNut_Diffuse.png"
        }
      },
      "name": "file10",
      "uri": "data:image/png;base64,"
    }
  ],
  "materials": [
    {
      "name": "lambert5",
      "pbrMetallicRoughness": {
        "baseColorFactor": [
          0.800000011920929,
          0.800000011920929,
          0.800000011920929,
          1.0
        ],
        "baseColorTexture": {
          "index": 0
        }
      }
    }
  ],
  "meshes": [
    {
      "name": "Doughnut",
      "primitives": [
        {
          "attributes": {
            "NORMAL": 1,
            "POSITION": 0,
            "TEXCOORD_0": 2
          },
          "indices": 3,
          "material": 0
        }
      ]
    }
  ],
  "nodes": [
    {
      "mesh": 0,
      "name": "Doughnut"
    }
  ],
  "samplers": [
    {}
  ],
  "scenes": [
    {
      "nodes": [
        0
      ]
    }
  ],
  "textures": [
    {
      "name": "file10",
      "sampler": 0,
      "source": 0
    }
  ]
}