{
    "asset": {
        "generator": "FBX2glTF v0.9.7",
        "version": "2.0"
    },
    "scene": 0,
    "buffers": [
        {
            "byteLength": 1089376,
            "uri": "buffer.bin"
        }
    ],
    "bufferViews": [
        {
            "buffer": 0,
            "byteLength": 56382,
            "byteOffset": 0,
            "target": 34963
        },
        {
            "buffer": 0,
            "byteLength": 151608,
            "byteOffset": 56384,
            "target": 34962
        },
        {
            "buffer": 0,
            "byteLength": 151608,
            "byteOffset": 207992,
            "target": 34962
        },
        {
            "buffer": 0,
            "byteLength": 202144,
            "byteOffset": 359600,
            "target": 34962
        },
        {
            "buffer": 0,
            "byteLength": 101072,
            "byteOffset": 561744,
            "target": 34962
        },
        {
            "buffer": 0,
            "byteLength": 101072,
            "byteOffset": 662816,
            "target": 34962
        },
        {
            "buffer": 0,
            "byteLength": 101072,
            "byteOffset": 763888,
            "target": 34962
        },
        {
            "buffer": 0,
            "byteLength": 202144,
            "byteOffset": 864960,
            "target": 34962
        },
        {
            "buffer": 0,
            "byteLength": 1296,
            "byteOffset": 1067104,
            "target": 34963
        },
        {
            "buffer": 0,
            "byteLength": 3060,
            "byteOffset": 1068400,
            "target": 34962
        },
        {
            "buffer": 0,
            "byteLength": 3060,
            "byteOffset": 1071460,
            "target": 34962
        },
        {
            "buffer": 0,
            "byteLength": 4080,
            "byteOffset": 1074520,
            "target": 34962
        },
        {
            "buffer": 0,
            "byteLength": 2040,
            "byteOffset": 1078600,
            "target": 34962
        },
        {
            "buffer": 0,
            "byteLength": 2040,
            "byteOffset": 1080640,
            "target": 34962
        },
        {
            "buffer": 0,
            "byteLength": 2040,
            "byteOffset": 1082680,
            "target": 34962
        },
        {
            "buffer": 0,
            "byteLength": 4080,
            "byteOffset": 1084720,
            "target": 34962
        },
        {
            "buffer": 0,
            "byteLength": 512,
            "byteOffset": 1088800
        },
        {
            "buffer": 0,
            "byteLength": 64,
            "byteOffset": 1089312
        }
    ],
    "scenes": [
        {
            "name": "Root Scene",
            "nodes": [
                0
            ]
        }
    ],
    "accessors": [
        {
            "componentType": 5123,
            "type": "SCALAR",
            "count": 28191,
            "bufferView": 0,
            "byteOffset": 0
        },
        {
            "componentType": 5126,
            "type": "VEC3",
            "count": 12634,
            "bufferView": 1,
            "byteOffset": 0,
            "min": [
                -0.145686477422714,
                0.0859369561076164,
                0.0549694821238518
            ],
            "max": [
                0.0805566757917404,
                0.269533753395081,
                0.134479984641075
            ]
        },
        {
            "componentType": 5126,
            "type": "VEC3",
            "count": 12634,
            "bufferView": 2,
            "byteOffset": 0
        },
        {
            "componentType": 5126,
            "type": "VEC4",
            "count": 12634,
            "bufferView": 3,
            "byteOffset": 0
        },
        {
            "componentType": 5126,
            "type": "VEC2",
            "count": 12634,
            "bufferView": 4,
            "byteOffset": 0
        },
        {
            "componentType": 5126,
            "type": "VEC2",
            "count": 12634,
            "bufferView": 5,
            "byteOffset": 0
        },
        {
            "componentType": 5123,
            "type": "VEC4",
            "count": 12634,
            "bufferView": 6,
            "byteOffset": 0
        },
        {
            "componentType": 5126,
            "type": "VEC4",
            "count": 12634,
            "bufferView": 7,
            "byteOffset": 0
        },
        {
            "componentType": 5123,
            "type": "SCALAR",
            "count": 648,
            "bufferView": 8,
            "byteOffset": 0
        },
        {
            "componentType": 5126,
            "type": "VEC3",
            "count": 255,
            "bufferView": 9,
            "byteOffset": 0,
            "min": [
                -0.11029414832592,
                0.245247259736061,
                -0.00730834947898984
            ],
            "max": [
                0.0945715680718422,
                0.277347475290298,
                0.197557374835014
            ]
        },
        {
            "componentType": 5126,
            "type": "VEC3",
            "count": 255,
            "bufferView": 10,
            "byteOffset": 0
        },
        {
            "componentType": 5126,
            "type": "VEC4",
            "count": 255,
            "bufferView": 11,
            "byteOffset": 0
        },
        {
            "componentType": 5126,
            "type": "VEC2",
            "count": 255,
            "bufferView": 12,
            "byteOffset": 0
        },
        {
            "componentType": 5126,
            "type": "VEC2",
            "count": 255,
            "bufferView": 13,
            "byteOffset": 0
        },
        {
            "componentType": 5123,
            "type": "VEC4",
            "count": 255,
            "bufferView": 14,
            "byteOffset": 0
        },
        {
            "componentType": 5126,
            "type": "VEC4",
            "count": 255,
            "bufferView": 15,
            "byteOffset": 0
        },
        {
            "componentType": 5126,
            "type": "MAT4",
            "count": 8,
            "bufferView": 16,
            "byteOffset": 0
        },
        {
            "componentType": 5126,
            "type": "MAT4",
            "count": 1,
            "bufferView": 17,
            "byteOffset": 0
        }
    ],
    "images": [
        {
            "name": "Megatexture.png",
            "uri": "Megatexture.png"
        }
    ],
    "samplers": [
        {}
    ],
    "textures": [
        {
            "name": "file4",
            "sampler": 0,
            "source": 0
        }
    ],
    "materials": [
        {
            "name": "Helicopter_Mat",
            "alphaMode": "BLEND",
            "extras": {
                "fromFBX": {
                    "shadingModel": "Lambert",
                    "isTruePBR": false
                }
            },
            "pbrMetallicRoughness": {
                "baseColorTexture": {
                    "index": 0,
                    "texCoord": 0
                },
                "baseColorFactor": [
                    0.800000011920929,
                    0.800000011920929,
                    0.800000011920929,
                    1.0
                ],
                "metallicFactor": 0.200000002980232,
                "roughnessFactor": 0.800000011920929
            }
        }
    ],
    "meshes": [
        {
            "name": "polySurface9",
            "primitives": [
                {
                    "material": 0,
                    "mode": 4,
                    "attributes": {
                        "JOINTS_0": 6,
                        "NORMAL": 2,
                        "POSITION": 1,
                        "TANGENT": 3,
                        "TEXCOORD_0": 4,
                        "TEXCOORD_1": 5,
                        "WEIGHTS_0": 7
                    },
                    "indices": 0
                }
            ]
        },
        {
            "name": "Rotator_mesh",
            "primitives": [
                {
                    "material": 0,
                    "mode": 4,
                    "attributes": {
                        "JOINTS_0": 14,
                        "NORMAL": 10,
                        "POSITION": 9,
                        "TANGENT": 11,
                        "TEXCOORD_0": 12,
                        "TEXCOORD_1": 13,
                        "WEIGHTS_0": 15
                    },
                    "indices": 8
                }
            ]
        }
    ],
    "skins": [
        {
            "joints": [
                7,
                9,
                10,
                11,
                12,
                13,
                14,
                15
            ],
            "inverseBindMatrices": 16,
            "skeleton": 7
        },
        {
            "joints": [
                8
            ],
            "inverseBindMatrices": 17,
            "skeleton": 8
        }
    ],
    "nodes": [
        {
            "name": "RootNode",
            "translation": [
                0.0,
                0.0,
                0.0
            ],
            "rotation": [
                0.0,
                0.0,
                0.0,
                1.0
            ],
            "scale": [
                1.0,
                1.0,
                1.0
            ],
            "children": [
                1,
                6
            ]
        },
        {
            "name": "Helicopter",
            "translation": [
                0.0,
                0.0,
                0.0
            ],
            "rotation": [
                0.0,
                0.0,
                0.0,
                1.0
            ],
            "scale": [
                1.0,
                1.0,
                1.0
            ],
            "children": [
                2,
                3,
                4,
                5
            ]
        },
        {
            "name": "pCylinder6",
            "translation": [
                0.0,
                0.0,
                0.0
            ],
            "rotation": [
                0.0,
                0.0,
                0.0,
                1.0
            ],
            "scale": [
                1.0,
                1.0,
                1.0
            ]
        },
        {
            "name": "HelicopterResque_night",
            "translation": [
                0.0,
                0.0,
                0.0
            ],
            "rotation": [
                0.0,
                0.0,
                0.0,
                1.0
            ],
            "scale": [
                1.0,
                1.0,
                1.0
            ]
        },
        {
            "name": "polySurface9",
            "translation": [
                0.0954173058271408,
                -0.149552881717682,
                0.00256489752791822
            ],
            "rotation": [
                -0.0,
                -0.70710676908493,
                0.0,
                0.70710676908493
            ],
            "scale": [
                1.0,
                1.0,
                1.0
            ],
            "mesh": 0,
            "skin": 0
        },
        {
            "name": "Rotator_mesh",
            "translation": [
                0.0954173058271408,
                -0.149552881717682,
                0.00256489752791822
            ],
            "rotation": [
                -0.0,
                -0.70710676908493,
                0.0,
                0.70710676908493
            ],
            "scale": [
                1.0,
                1.0,
                1.0
            ],
            "mesh": 1,
            "skin": 1
        },
        {
            "name": "Root_M",
            "translation": [
                0.0,
                0.0199999995529652,
                0.0
            ],
            "rotation": [
                0.468572527170181,
                0.529565691947937,
                0.468572527170181,
                0.529565691947937
            ],
            "scale": [
                1.0,
                1.0,
                1.0
            ],
            "children": [
                7,
                9
            ]
        },
        {
            "name": "Body_M",
            "translation": [
                0.0402996279299259,
                -1.94289030136583e-18,
                6.26332474428721e-18
            ],
            "rotation": [
                -6.02975750643795e-34,
                -3.73475355290142e-18,
                0.0609931536018848,
                0.998138189315796
            ],
            "scale": [
                1.0,
                1.0,
                1.0
            ],
            "children": [
                8
            ]
        },
        {
            "name": "BodyEnd_M",
            "translation": [
                0.0592329055070877,
                -1.72084570140388e-17,
                1.58626771708069e-17
            ],
            "rotation": [
                -0.0,
                -3.39074467901558e-33,
                -6.93889390390723e-18,
                1.0
            ],
            "scale": [
                1.0,
                1.0,
                1.0
            ]
        },
        {
            "name": "joint1_L",
            "translation": [
                0.000451495201559737,
                0.00913269072771072,
                0.0365610271692276
            ],
            "rotation": [
                -0.0609931573271751,
                0.998138189315796,
                6.48530908414153e-17,
                5.73835837356125e-17
            ],
            "scale": [
                1.0,
                1.0,
                1.0
            ],
            "children": [
                10
            ]
        },
        {
            "name": "joint2_L",
            "translation": [
                0.0121676847338676,
                -2.19892229424978e-11,
                -1.33226759977169e-17
            ],
            "rotation": [
                2.21096757615655e-31,
                1.11022302462516e-16,
                6.93889390390723e-18,
                1.0
            ],
            "scale": [
                1.0,
                1.0,
                1.0
            ],
            "children": [
                11
            ]
        },
        {
            "name": "joint3_L",
            "translation": [
                0.0123091693967581,
                -2.22448951620047e-11,
                7.10542719878232e-17
            ],
            "rotation": [
                2.08770805971576e-31,
                1.11022302462516e-16,
                6.93889390390723e-18,
                1.0
            ],
            "scale": [
                1.0,
                1.0,
                1.0
            ],
            "children": [
                12
            ]
        },
        {
            "name": "joint4_L",
            "translation": [
                0.0117432307451963,
                -2.12221420992087e-11,
                -8.88178399847791e-18
            ],
            "rotation": [
                2.16517751340144e-18,
                3.59237790237981e-17,
                -1.11022302462516e-16,
                1.0
            ],
            "scale": [
                1.0,
                1.0,
                1.0
            ],
            "children": [
                13
            ]
        },
        {
            "name": "joint5_L",
            "translation": [
                0.0124506540596485,
                -2.25005829940228e-11,
                3.996802716597e-17
            ],
            "rotation": [
                1.11022302462516e-16,
                1.11022302462516e-16,
                6.93889390390723e-18,
                1.0
            ],
            "scale": [
                1.0,
                1.0,
                1.0
            ],
            "children": [
                14
            ]
        },
        {
            "name": "joint6_L",
            "translation": [
                0.0132995629683137,
                -2.40347099861316e-11,
                5.32907039908674e-17
            ],
            "rotation": [
                2.16517751340144e-18,
                3.59237790237981e-17,
                -1.11022302462516e-16,
                1.0
            ],
            "scale": [
                1.0,
                1.0,
                1.0
            ],
            "children": [
                15
            ]
        },
        {
            "name": "joint7_L",
            "translation": [
                0.0127336233854294,
                -2.30119447802712e-11,
                8.88178399847791e-18
            ],
            "rotation": [
                1.11022302462516e-16,
                1.11022302462516e-16,
                6.93889390390723e-18,
                1.0
            ],
            "scale": [
                1.0,
                1.0,
                1.0
            ]
        }
    ]
}