{
    "asset": {
        "generator": "FBX2glTF v0.9.7",
        "version": "2.0"
    },
    "scene": 0,
    "buffers": [
        {
            "byteLength": 3348,
            "uri": "buffer.bin"
        }
    ],
    "bufferViews": [
        {
            "buffer": 0,
            "byteLength": 108,
            "byteOffset": 0
        },
        {
            "buffer": 0,
            "byteLength": 324,
            "byteOffset": 108
        },
        {
            "buffer": 0,
            "byteLength": 432,
            "byteOffset": 432
        },
        {
            "buffer": 0,
            "byteLength": 432,
            "byteOffset": 864
        },
        {
            "buffer": 0,
            "byteLength": 324,
            "byteOffset": 1296
        },
        {
            "buffer": 0,
            "byteLength": 432,
            "byteOffset": 1620
        },
        {
            "buffer": 0,
            "byteLength": 432,
            "byteOffset": 2052
        },
        {
            "buffer": 0,
            "byteLength": 432,
            "byteOffset": 2484
        },
        {
            "buffer": 0,
            "byteLength": 432,
            "byteOffset": 2916
        }
    ],
    "scenes": [
        {
            "name": "Root Scene",
            "nodes": [
                0
            ]
        }
    ],
    "accessors": [
        {
            "componentType": 5126,
            "type": "SCALAR",
            "count": 27,
            "bufferView": 0,
            "byteOffset": 0,
            "min": [
                0.0
            ],
            "max": [
                1.08333337306976
            ]
        },
        {
            "componentType": 5126,
            "type": "VEC3",
            "count": 27,
            "bufferView": 1,
            "byteOffset": 0
        },
        {
            "componentType": 5126,
            "type": "VEC4",
            "count": 27,
            "bufferView": 2,
            "byteOffset": 0
        },
        {
            "componentType": 5126,
            "type": "VEC4",
            "count": 27,
            "bufferView": 3,
            "byteOffset": 0
        },
        {
            "componentType": 5126,
            "type": "VEC3",
            "count": 27,
            "bufferView": 4,
            "byteOffset": 0
        },
        {
            "componentType": 5126,
            "type": "VEC4",
            "count": 27,
            "bufferView": 5,
            "byteOffset": 0
        },
        {
            "componentType": 5126,
            "type": "VEC4",
            "count": 27,
            "bufferView": 6,
            "byteOffset": 0
        },
        {
            "componentType": 5126,
            "type": "VEC4",
            "count": 27,
            "bufferView": 7,
            "byteOffset": 0
        },
        {
            "componentType": 5126,
            "type": "VEC4",
            "count": 27,
            "bufferView": 8,
            "byteOffset": 0
        }
    ],
    "samplers": [
        {}
    ],
    "animations": [
        {
            "name": "submarine_takeoff",
            "channels": [
                {
                    "sampler": 0,
                    "target": {
                        "node": 1,
                        "path": "translation"
                    }
                },
                {
                    "sampler": 1,
                    "target": {
                        "node": 1,
                        "path": "rotation"
                    }
                },
                {
                    "sampler": 2,
                    "target": {
                        "node": 5,
                        "path": "rotation"
                    }
                },
                {
                    "sampler": 3,
                    "target": {
                        "node": 7,
                        "path": "translation"
                    }
                },
                {
                    "sampler": 4,
                    "target": {
                        "node": 7,
                        "path": "rotation"
                    }
                },
                {
                    "sampler": 5,
                    "target": {
                        "node": 8,
                        "path": "rotation"
                    }
                },
                {
                    "sampler": 6,
                    "target": {
                        "node": 10,
                        "path": "rotation"
                    }
                },
                {
                    "sampler": 7,
                    "target": {
                        "node": 11,
                        "path": "rotation"
                    }
                }
            ],
            "samplers": [
                {
                    "input": 0,
                    "interpolation": "LINEAR",
                    "output": 1
                },
                {
                    "input": 0,
                    "interpolation": "LINEAR",
                    "output": 2
                },
                {
                    "input": 0,
                    "interpolation": "LINEAR",
                    "output": 3
                },
                {
                    "input": 0,
                    "interpolation": "LINEAR",
                    "output": 4
                },
                {
                    "input": 0,
                    "interpolation": "LINEAR",
                    "output": 5
                },
                {
                    "input": 0,
                    "interpolation": "LINEAR",
                    "output": 6
                },
                {
                    "input": 0,
                    "interpolation": "LINEAR",
                    "output": 7
                },
                {
                    "input": 0,
                    "interpolation": "LINEAR",
                    "output": 8
                }
            ]
        }
    ],
    "nodes": [
        {
            "name": "RootNode",
            "translation": [
                0.0,
                0.0,
                0.0
            ],
            "rotation": [
                0.0,
                0.0,
                0.0,
                1.0
            ],
            "scale": [
                1.0,
                1.0,
                1.0
            ],
            "children": [
                1
            ]
        },
        {
            "name": "Root_M",
            "translation": [
                0.0,
                0.0568453520536423,
                -2.3474697156395e-18
            ],
            "rotation": [
                0.49796050786972,
                0.498168289661407,
                0.506096184253693,
                0.497725188732147
            ],
            "scale": [
                1.0,
                1.0,
                1.0
            ],
            "children": [
                2,
                11
            ]
        },
        {
            "name": "Body_M",
            "translation": [
                0.039122823625803,
                9.1593394899364e-18,
                1.49186209007838e-17
            ],
            "rotation": [
                -5.08913571006797e-12,
                8.96958663361147e-05,
                5.673741299006e-08,
                1.0
            ],
            "scale": [
                1.0,
                1.0,
                1.0
            ],
            "children": [
                3,
                4
            ]
        },
        {
            "name": "BodyEnd_M",
            "translation": [
                0.0199999995529652,
                4.60048640682759e-17,
                -6.31439322094501e-18
            ],
            "rotation": [
                -5.46604873132364e-37,
                6.30192512757199e-19,
                8.67361737988404e-19,
                1.0
            ],
            "scale": [
                1.0,
                1.0,
                1.0
            ]
        },
        {
            "name": "joint1_M",
            "translation": [
                0.000749282131437212,
                0.0785065069794655,
                3.01147972930261e-17
            ],
            "rotation": [
                -7.55352218625863e-17,
                -2.6038932239891e-18,
                0.702039062976837,
                0.712138473987579
            ],
            "scale": [
                1.0,
                1.0,
                1.0
            ],
            "children": [
                5,
                10
            ]
        },
        {
            "name": "joint2_M",
            "translation": [
                0.0280023477971554,
                1.42108543975646e-16,
                7.63278345973407e-18
            ],
            "rotation": [
                3.85232371121379e-17,
                3.2205387103413e-17,
                -0.732945382595062,
                0.680287480354309
            ],
            "scale": [
                1.0,
                1.0,
                1.0
            ],
            "children": [
                6
            ]
        },
        {
            "name": "eyes4_M",
            "translation": [
                0.0185795035213232,
                8.88178366760566e-17,
                2.40085731722168e-17
            ],
            "rotation": [
                -3.82475642837536e-17,
                3.24259002198299e-17,
                0.028838099911809,
                0.999584078788757
            ],
            "scale": [
                1.0,
                1.0,
                1.0
            ],
            "children": [
                7
            ]
        },
        {
            "name": "eyes3_M",
            "translation": [
                0.0339693464338779,
                1.95399251275236e-16,
                -3.19189104690481e-18
            ],
            "rotation": [
                1.46390957268507e-16,
                -1.09534305456567e-17,
                0.0884064584970474,
                0.99608451128006
            ],
            "scale": [
                1.0,
                1.0,
                1.0
            ],
            "children": [
                8
            ]
        },
        {
            "name": "eyes2_M",
            "translation": [
                0.0133929289877415,
                3.55271359939116e-17,
                5.82867069730234e-18
            ],
            "rotation": [
                2.96437814616482e-16,
                3.22551390394079e-16,
                0.277344554662704,
                0.960770547389984
            ],
            "scale": [
                1.0,
                1.0,
                1.0
            ],
            "children": [
                9
            ]
        },
        {
            "name": "eyes1_M",
            "translation": [
                0.0198618937283754,
                8.88178366760566e-17,
                -2.77555749952435e-19
            ],
            "rotation": [
                4.33680868994202e-19,
                -4.33680868994202e-19,
                1.88079096131566e-37,
                1.0
            ],
            "scale": [
                1.0,
                1.0,
                1.0
            ]
        },
        {
            "name": "lid_M",
            "translation": [
                0.000538508931640536,
                -0.0324332974851131,
                1.37730098322391e-15
            ],
            "rotation": [
                -0.474912911653519,
                -0.523887097835541,
                -0.474912911653519,
                0.523887097835541
            ],
            "scale": [
                1.0,
                1.0,
                1.0
            ]
        },
        {
            "name": "rotator_R",
            "translation": [
                0.00141753233037889,
                -0.12453730404377,
                -0.000236785781453364
            ],
            "rotation": [
                -0.500044822692871,
                -0.499955177307129,
                -0.499955117702484,
                0.500044882297516
            ],
            "scale": [
                1.0,
                1.0,
                1.0
            ]
        }
    ]
}