{
    "asset": {
        "generator": "FBX2glTF v0.9.7",
        "version": "2.0"
    },
    "scene": 0,
    "buffers": [
        {
            "byteLength": 10864,
            "uri": "buffer.bin"
        }
    ],
    "bufferViews": [
        {
            "buffer": 0,
            "byteLength": 840,
            "byteOffset": 0,
            "target": 34963
        },
        {
            "buffer": 0,
            "byteLength": 1752,
            "byteOffset": 840,
            "target": 34962
        },
        {
            "buffer": 0,
            "byteLength": 1752,
            "byteOffset": 2592,
            "target": 34962
        },
        {
            "buffer": 0,
            "byteLength": 1168,
            "byteOffset": 4344,
            "target": 34962
        },
        {
            "buffer": 0,
            "byteLength": 840,
            "byteOffset": 5512,
            "target": 34963
        },
        {
            "buffer": 0,
            "byteLength": 1692,
            "byteOffset": 6352,
            "target": 34962
        },
        {
            "buffer": 0,
            "byteLength": 1692,
            "byteOffset": 8044,
            "target": 34962
        },
        {
            "buffer": 0,
            "byteLength": 1128,
            "byteOffset": 9736,
            "target": 34962
        }
    ],
    "scenes": [
        {
            "name": "Root Scene",
            "nodes": [
                0
            ]
        }
    ],
    "accessors": [
        {
            "componentType": 5123,
            "type": "SCALAR",
            "count": 420,
            "bufferView": 0,
            "byteOffset": 0
        },
        {
            "componentType": 5126,
            "type": "VEC3",
            "count": 146,
            "bufferView": 1,
            "byteOffset": 0,
            "min": [
                -0.00469928467646241,
                0.00156508828513324,
                -0.00469922414049506
            ],
            "max": [
                0.00469928467646241,
                0.00400946894660592,
                0.00469922414049506
            ]
        },
        {
            "componentType": 5126,
            "type": "VEC3",
            "count": 146,
            "bufferView": 2,
            "byteOffset": 0
        },
        {
            "componentType": 5126,
            "type": "VEC2",
            "count": 146,
            "bufferView": 3,
            "byteOffset": 0
        },
        {
            "componentType": 5123,
            "type": "SCALAR",
            "count": 420,
            "bufferView": 4,
            "byteOffset": 0
        },
        {
            "componentType": 5126,
            "type": "VEC3",
            "count": 141,
            "bufferView": 5,
            "byteOffset": 0,
            "min": [
                -0.00597713701426983,
                -9.73795377667841e-10,
                -0.00597704341635108
            ],
            "max": [
                0.00597711326554418,
                0.00242108176462352,
                0.00597705272957683
            ]
        },
        {
            "componentType": 5126,
            "type": "VEC3",
            "count": 141,
            "bufferView": 6,
            "byteOffset": 0
        },
        {
            "componentType": 5126,
            "type": "VEC2",
            "count": 141,
            "bufferView": 7,
            "byteOffset": 0
        }
    ],
    "images": [
        {
            "name": "base_color_texture",
            "uri": "data:image/png;base64,"
        }
    ],
    "samplers": [
        {}
    ],
    "textures": [
        {
            "name": "base_color_texture",
            "sampler": 0,
            "source": 0
        }
    ],
    "materials": [
        {
            "name": "Mat_Environment",
            "alphaMode": "OPAQUE",
            "extras": {
                "fromFBX": {
                    "shadingModel": "Phong",
                    "isTruePBR": false
                }
            },
            "pbrMetallicRoughness": {
                "baseColorTexture": {
                    "index": 0,
                    "texCoord": 0
                },
                "baseColorFactor": [
                    1.0,
                    1.0,
                    1.0,
                    1.0
                ],
                "metallicFactor": 0.400000005960464,
                "roughnessFactor": 1.0
            }
        }
    ],
    "meshes": [
        {
            "name": "LaserButtonOnly",
            "primitives": [
                {
                    "material": 0,
                    "mode": 4,
                    "attributes": {
                        "NORMAL": 2,
                        "POSITION": 1,
                        "TEXCOORD_0": 3
                    },
                    "indices": 0
                }
            ]
        },
        {
            "name": "LaserButton_base",
            "primitives": [
                {
                    "material": 0,
                    "mode": 4,
                    "attributes": {
                        "NORMAL": 6,
                        "POSITION": 5,
                        "TEXCOORD_0": 7
                    },
                    "indices": 4
                }
            ]
        }
    ],
    "nodes": [
        {
            "name": "RootNode",
            "translation": [
                0.0,
                0.0,
                0.0
            ],
            "rotation": [
                0.0,
                0.0,
                0.0,
                1.0
            ],
            "scale": [
                1.0,
                1.0,
                1.0
            ],
            "children": [
                1
            ]
        },
        {
            "name": "Laser_Button",
            "translation": [
                0.0,
                0.0,
                0.0
            ],
            "rotation": [
                0.0,
                0.0,
                0.0,
                1.0
            ],
            "scale": [
                1.0,
                1.0,
                1.0
            ],
            "children": [
                2,
                3
            ]
        },
        {
            "name": "LaserButtonOnly",
            "translation": [
                0.0,
                0.0,
                0.0
            ],
            "rotation": [
                0.0,
                0.0,
                0.0,
                1.0
            ],
            "scale": [
                1.0,
                1.0,
                1.0
            ],
            "mesh": 0
        },
        {
            "name": "LaserButton_base",
            "translation": [
                0.0,
                0.0,
                0.0
            ],
            "rotation": [
                0.0,
                0.0,
                0.0,
                1.0
            ],
            "scale": [
                1.0,
                1.0,
                1.0
            ],
            "mesh": 1
        }
    ]
}