{
    "asset": {
        "generator": "FBX2glTF v0.9.7",
        "version": "2.0"
    },
    "scene": 0,
    "buffers": [
        {
            "byteLength": 3300,
            "uri": "buffer.bin"
        }
    ],
    "bufferViews": [
        {
            "buffer": 0,
            "byteLength": 132,
            "byteOffset": 0
        },
        {
            "buffer": 0,
            "byteLength": 528,
            "byteOffset": 132
        },
        {
            "buffer": 0,
            "byteLength": 528,
            "byteOffset": 660
        },
        {
            "buffer": 0,
            "byteLength": 528,
            "byteOffset": 1188
        },
        {
            "buffer": 0,
            "byteLength": 528,
            "byteOffset": 1716
        },
        {
            "buffer": 0,
            "byteLength": 528,
            "byteOffset": 2244
        },
        {
            "buffer": 0,
            "byteLength": 528,
            "byteOffset": 2772
        }
    ],
    "scenes": [
        {
            "name": "Root Scene",
            "nodes": [
                0
            ]
        }
    ],
    "accessors": [
        {
            "componentType": 5126,
            "type": "SCALAR",
            "count": 33,
            "bufferView": 0,
            "byteOffset": 0,
            "min": [
                0.0
            ],
            "max": [
                1.33333337306976
            ]
        },
        {
            "componentType": 5126,
            "type": "VEC4",
            "count": 33,
            "bufferView": 1,
            "byteOffset": 0
        },
        {
            "componentType": 5126,
            "type": "VEC4",
            "count": 33,
            "bufferView": 2,
            "byteOffset": 0
        },
        {
            "componentType": 5126,
            "type": "VEC4",
            "count": 33,
            "bufferView": 3,
            "byteOffset": 0
        },
        {
            "componentType": 5126,
            "type": "VEC4",
            "count": 33,
            "bufferView": 4,
            "byteOffset": 0
        },
        {
            "componentType": 5126,
            "type": "VEC4",
            "count": 33,
            "bufferView": 5,
            "byteOffset": 0
        },
        {
            "componentType": 5126,
            "type": "VEC4",
            "count": 33,
            "bufferView": 6,
            "byteOffset": 0
        }
    ],
    "samplers": [
        {}
    ],
    "animations": [
        {
            "name": "submarine_idle",
            "channels": [
                {
                    "sampler": 0,
                    "target": {
                        "node": 1,
                        "path": "rotation"
                    }
                },
                {
                    "sampler": 1,
                    "target": {
                        "node": 5,
                        "path": "rotation"
                    }
                },
                {
                    "sampler": 2,
                    "target": {
                        "node": 7,
                        "path": "rotation"
                    }
                },
                {
                    "sampler": 3,
                    "target": {
                        "node": 8,
                        "path": "rotation"
                    }
                },
                {
                    "sampler": 4,
                    "target": {
                        "node": 10,
                        "path": "rotation"
                    }
                },
                {
                    "sampler": 5,
                    "target": {
                        "node": 11,
                        "path": "rotation"
                    }
                }
            ],
            "samplers": [
                {
                    "input": 0,
                    "interpolation": "LINEAR",
                    "output": 1
                },
                {
                    "input": 0,
                    "interpolation": "LINEAR",
                    "output": 2
                },
                {
                    "input": 0,
                    "interpolation": "LINEAR",
                    "output": 3
                },
                {
                    "input": 0,
                    "interpolation": "LINEAR",
                    "output": 4
                },
                {
                    "input": 0,
                    "interpolation": "LINEAR",
                    "output": 5
                },
                {
                    "input": 0,
                    "interpolation": "LINEAR",
                    "output": 6
                }
            ]
        }
    ],
    "nodes": [
        {
            "name": "RootNode",
            "translation": [
                0.0,
                0.0,
                0.0
            ],
            "rotation": [
                0.0,
                0.0,
                0.0,
                1.0
            ],
            "scale": [
                1.0,
                1.0,
                1.0
            ],
            "children": [
                1
            ]
        },
        {
            "name": "Root_M",
            "translation": [
                0.0,
                0.0568453520536423,
                -2.3474697156395e-18
            ],
            "rotation": [
                0.49796050786972,
                0.498168289661407,
                0.506096184253693,
                0.497725188732147
            ],
            "scale": [
                1.0,
                1.0,
                1.0
            ],
            "children": [
                2,
                11
            ]
        },
        {
            "name": "Body_M",
            "translation": [
                0.039122823625803,
                -1.11022295845071e-17,
                2.06085150931278e-17
            ],
            "rotation": [
                -5.08913571006797e-12,
                8.96958663361147e-05,
                5.673741299006e-08,
                1.0
            ],
            "scale": [
                1.0,
                1.0,
                1.0
            ],
            "children": [
                3,
                4
            ]
        },
        {
            "name": "BodyEnd_M",
            "translation": [
                0.0199999995529652,
                4.61436418140051e-17,
                -6.45317138026456e-18
            ],
            "rotation": [
                -8.67361737988404e-19,
                -9.82558218814988e-19,
                -8.52233404346158e-37,
                1.0
            ],
            "scale": [
                1.0,
                1.0,
                1.0
            ]
        },
        {
            "name": "joint1_M",
            "translation": [
                0.000749282131437212,
                0.0785065069794655,
                7.00134405492151e-17
            ],
            "rotation": [
                -7.74176665610753e-17,
                -3.85065727315174e-18,
                0.702039062976837,
                0.712138473987579
            ],
            "scale": [
                1.0,
                1.0,
                1.0
            ],
            "children": [
                5,
                10
            ]
        },
        {
            "name": "joint2_M",
            "translation": [
                0.0280023477971554,
                1.06581407981735e-16,
                2.12330149489094e-17
            ],
            "rotation": [
                3.94708883091031e-17,
                3.19015636644223e-17,
                -0.732945382595062,
                0.680287480354309
            ],
            "scale": [
                1.0,
                1.0,
                1.0
            ],
            "children": [
                6
            ]
        },
        {
            "name": "eyes4_M",
            "translation": [
                0.0185795035213232,
                3.55271359939116e-17,
                2.59514632667875e-17
            ],
            "rotation": [
                -3.86626964546919e-17,
                3.17766891704288e-17,
                0.028838099911809,
                0.999584078788757
            ],
            "scale": [
                1.0,
                1.0,
                1.0
            ],
            "children": [
                7
            ]
        },
        {
            "name": "eyes3_M",
            "translation": [
                0.0339693464338779,
                2.30926380651703e-16,
                1.80411234884143e-18
            ],
            "rotation": [
                1.47811510930391e-16,
                -1.22423541294848e-17,
                0.0884064584970474,
                0.99608451128006
            ],
            "scale": [
                1.0,
                1.0,
                1.0
            ],
            "children": [
                8
            ]
        },
        {
            "name": "eyes2_M",
            "translation": [
                0.0133929289877415,
                7.10542719878232e-17,
                8.60422850701941e-18
            ],
            "rotation": [
                2.97872556080233e-16,
                3.20708617277768e-16,
                0.277344554662704,
                0.960770547389984
            ],
            "scale": [
                1.0,
                1.0,
                1.0
            ],
            "children": [
                9
            ]
        },
        {
            "name": "eyes1_M",
            "translation": [
                0.0198618937283754,
                7.10542719878232e-17,
                -1.38777874976217e-19
            ],
            "rotation": [
                -4.33680868994202e-19,
                -8.67361737988404e-19,
                2.77555756156289e-17,
                1.0
            ],
            "scale": [
                1.0,
                1.0,
                1.0
            ]
        },
        {
            "name": "lid_M",
            "translation": [
                0.000538508931640536,
                -0.0324332974851131,
                1.38160316944213e-15
            ],
            "rotation": [
                -0.474912911653519,
                -0.523887097835541,
                -0.474912911653519,
                0.523887097835541
            ],
            "scale": [
                1.0,
                1.0,
                1.0
            ]
        },
        {
            "name": "rotator_R",
            "translation": [
                0.00141753233037889,
                -0.12453730404377,
                -0.000236785781453364
            ],
            "rotation": [
                -0.500044822692871,
                -0.499955177307129,
                -0.499955117702484,
                0.500044882297516
            ],
            "scale": [
                1.0,
                1.0,
                1.0
            ]
        }
    ]
}