{
  "accessors": [
    {
      "bufferView": 0,
      "componentType": 5126,
      "count": 788,
      "max": [
        0.0352625697851181,
        0.029399443417787552,
        0.034136950969696045
      ],
      "min": [
        -0.0352625697851181,
        -2.3659467842662707e-05,
        -0.034136950969696045
      ],
      "name": "Burger1/POSITION",
      "type": "VEC3"
    },
    {
      "bufferView": 0,
      "byteOffset": 12,
      "componentType": 5126,
      "count": 788,
      "name": "Burger1/NORMAL",
      "type": "VEC3"
    },
    {
      "bufferView": 0,
      "byteOffset": 24,
      "componentType": 5126,
      "count": 788,
      "name": "Burger1/TEXCOORD_0",
      "type": "VEC2"
    },
    {
      "bufferView": 1,
      "componentType": 5125,
      "count": 3144,
      "name": "Burger1/INDICES",
      "type": "SCALAR"
    }
  ],
  "asset": {
    "copyright": "Copyright (c) 2018-2020 Chukong Technologies Inc.",
    "generator": "FBX-glTF-conv",
    "version": "2.0"
  },
  "bufferViews": [
    {
      "buffer": 0,
      "byteLength": 25216,
      "byteStride": 32,
      "name": "Burger1",
      "target": 34962
    },
    {
      "buffer": 0,
      "byteLength": 12576,
      "byteOffset": 25216
    }
  ],
  "buffers": [
    {
      "byteLength": 37792,
      "uri": "out.bin"
    }
  ],
  "extras": {
    "FBX-glTF-conv": {
      "animationFrameRate": 30.0
    }
  },
  "images": [
    {
      "extras": {
        "FBX-glTF-conv": {
          "fileName": "E:/danie/OneDrive/Documents/maya/projects/Gluttony/sourceimages/burger_occlusion_1K.png",
          "relativeFileName": "E:\\danie\\OneDrive\\Documents\\maya\\projects\\Gluttony\\sourceimages\\burger_occlusion_1K.png"
        }
      },
      "name": "file15",
      "uri": "data:image/png;base64,"
    }
  ],
  "materials": [
    {
      "name": "mtl_Burger",
      "pbrMetallicRoughness": {
        "baseColorFactor": [
          0.800000011920929,
          0.800000011920929,
          0.800000011920929,
          1.0
        ],
        "baseColorTexture": {
          "index": 0
        }
      }
    }
  ],
  "meshes": [
    {
      "name": "Burger1",
      "primitives": [
        {
          "attributes": {
            "NORMAL": 1,
            "POSITION": 0,
            "TEXCOORD_0": 2
          },
          "indices": 3,
          "material": 0
        }
      ]
    }
  ],
  "nodes": [
    {
      "mesh": 0,
      "name": "Burger1"
    }
  ],
  "samplers": [
    {}
  ],
  "scenes": [
    {
      "nodes": [
        0
      ]
    }
  ],
  "textures": [
    {
      "name": "file15",
      "sampler": 0,
      "source": 0
    }
  ]
}