{
  "accessors": [
    {
      "bufferView": 0,
      "componentType": 5126,
      "count": 11,
      "max": [
        0.3333333432674408
      ],
      "min": [
        0.0
      ],
      "name": "Root_M/Trs/Input",
      "type": "SCALAR"
    },
    {
      "bufferView": 1,
      "componentType": 5126,
      "count": 11,
      "name": "Root_M/translation/Output",
      "type": "VEC3"
    },
    {
      "bufferView": 2,
      "componentType": 5126,
      "count": 11,
      "name": "Root_M/rotation/Output",
      "type": "VEC4"
    },
    {
      "bufferView": 3,
      "componentType": 5126,
      "count": 11,
      "name": "Root_M/scale/Output",
      "type": "VEC3"
    },
    {
      "bufferView": 4,
      "componentType": 5126,
      "count": 2,
      "max": [
        0.3333333432674408
      ],
      "min": [
        0.0
      ],
      "name": "Body_M/Trs/Input",
      "type": "SCALAR"
    },
    {
      "bufferView": 5,
      "componentType": 5126,
      "count": 2,
      "name": "Body_M/translation/Output",
      "type": "VEC3"
    },
    {
      "bufferView": 6,
      "componentType": 5126,
      "count": 2,
      "name": "Body_M/rotation/Output",
      "type": "VEC4"
    },
    {
      "bufferView": 7,
      "componentType": 5126,
      "count": 2,
      "name": "Body_M/scale/Output",
      "type": "VEC3"
    },
    {
      "bufferView": 8,
      "componentType": 5126,
      "count": 11,
      "max": [
        0.3333333432674408
      ],
      "min": [
        0.0
      ],
      "name": "BodyEnd_M/Trs/Input",
      "type": "SCALAR"
    },
    {
      "bufferView": 9,
      "componentType": 5126,
      "count": 11,
      "name": "BodyEnd_M/translation/Output",
      "type": "VEC3"
    },
    {
      "bufferView": 10,
      "componentType": 5126,
      "count": 11,
      "name": "BodyEnd_M/rotation/Output",
      "type": "VEC4"
    },
    {
      "bufferView": 11,
      "componentType": 5126,
      "count": 11,
      "name": "BodyEnd_M/scale/Output",
      "type": "VEC3"
    },
    {
      "bufferView": 12,
      "componentType": 5126,
      "count": 11,
      "max": [
        0.3333333432674408
      ],
      "min": [
        0.0
      ],
      "name": "joint1_L/Trs/Input",
      "type": "SCALAR"
    },
    {
      "bufferView": 13,
      "componentType": 5126,
      "count": 11,
      "name": "joint1_L/translation/Output",
      "type": "VEC3"
    },
    {
      "bufferView": 14,
      "componentType": 5126,
      "count": 11,
      "name": "joint1_L/rotation/Output",
      "type": "VEC4"
    },
    {
      "bufferView": 15,
      "componentType": 5126,
      "count": 11,
      "name": "joint1_L/scale/Output",
      "type": "VEC3"
    },
    {
      "bufferView": 16,
      "componentType": 5126,
      "count": 11,
      "max": [
        0.3333333432674408
      ],
      "min": [
        0.0
      ],
      "name": "joint2_L/Trs/Input",
      "type": "SCALAR"
    },
    {
      "bufferView": 17,
      "componentType": 5126,
      "count": 11,
      "name": "joint2_L/translation/Output",
      "type": "VEC3"
    },
    {
      "bufferView": 18,
      "componentType": 5126,
      "count": 11,
      "name": "joint2_L/rotation/Output",
      "type": "VEC4"
    },
    {
      "bufferView": 19,
      "componentType": 5126,
      "count": 11,
      "name": "joint2_L/scale/Output",
      "type": "VEC3"
    },
    {
      "bufferView": 20,
      "componentType": 5126,
      "count": 11,
      "max": [
        0.3333333432674408
      ],
      "min": [
        0.0
      ],
      "name": "joint3_L/Trs/Input",
      "type": "SCALAR"
    },
    {
      "bufferView": 21,
      "componentType": 5126,
      "count": 11,
      "name": "joint3_L/translation/Output",
      "type": "VEC3"
    },
    {
      "bufferView": 22,
      "componentType": 5126,
      "count": 11,
      "name": "joint3_L/rotation/Output",
      "type": "VEC4"
    },
    {
      "bufferView": 23,
      "componentType": 5126,
      "count": 11,
      "name": "joint3_L/scale/Output",
      "type": "VEC3"
    },
    {
      "bufferView": 24,
      "componentType": 5126,
      "count": 11,
      "max": [
        0.3333333432674408
      ],
      "min": [
        0.0
      ],
      "name": "joint4_L/Trs/Input",
      "type": "SCALAR"
    },
    {
      "bufferView": 25,
      "componentType": 5126,
      "count": 11,
      "name": "joint4_L/translation/Output",
      "type": "VEC3"
    },
    {
      "bufferView": 26,
      "componentType": 5126,
      "count": 11,
      "name": "joint4_L/rotation/Output",
      "type": "VEC4"
    },
    {
      "bufferView": 27,
      "componentType": 5126,
      "count": 11,
      "name": "joint4_L/scale/Output",
      "type": "VEC3"
    },
    {
      "bufferView": 28,
      "componentType": 5126,
      "count": 11,
      "max": [
        0.3333333432674408
      ],
      "min": [
        0.0
      ],
      "name": "joint5_L/Trs/Input",
      "type": "SCALAR"
    },
    {
      "bufferView": 29,
      "componentType": 5126,
      "count": 11,
      "name": "joint5_L/translation/Output",
      "type": "VEC3"
    },
    {
      "bufferView": 30,
      "componentType": 5126,
      "count": 11,
      "name": "joint5_L/rotation/Output",
      "type": "VEC4"
    },
    {
      "bufferView": 31,
      "componentType": 5126,
      "count": 11,
      "name": "joint5_L/scale/Output",
      "type": "VEC3"
    },
    {
      "bufferView": 32,
      "componentType": 5126,
      "count": 11,
      "max": [
        0.3333333432674408
      ],
      "min": [
        0.0
      ],
      "name": "joint6_L/Trs/Input",
      "type": "SCALAR"
    },
    {
      "bufferView": 33,
      "componentType": 5126,
      "count": 11,
      "name": "joint6_L/translation/Output",
      "type": "VEC3"
    },
    {
      "bufferView": 34,
      "componentType": 5126,
      "count": 11,
      "name": "joint6_L/rotation/Output",
      "type": "VEC4"
    },
    {
      "bufferView": 35,
      "componentType": 5126,
      "count": 11,
      "name": "joint6_L/scale/Output",
      "type": "VEC3"
    },
    {
      "bufferView": 36,
      "componentType": 5126,
      "count": 2,
      "max": [
        0.3333333432674408
      ],
      "min": [
        0.0
      ],
      "name": "joint7_L/Trs/Input",
      "type": "SCALAR"
    },
    {
      "bufferView": 37,
      "componentType": 5126,
      "count": 2,
      "name": "joint7_L/translation/Output",
      "type": "VEC3"
    },
    {
      "bufferView": 38,
      "componentType": 5126,
      "count": 2,
      "name": "joint7_L/rotation/Output",
      "type": "VEC4"
    },
    {
      "bufferView": 39,
      "componentType": 5126,
      "count": 2,
      "name": "joint7_L/scale/Output",
      "type": "VEC3"
    }
  ],
  "animations": [
    {
      "channels": [
        {
          "sampler": 0,
          "target": {
            "node": 0,
            "path": "translation"
          }
        },
        {
          "sampler": 1,
          "target": {
            "node": 0,
            "path": "rotation"
          }
        },
        {
          "sampler": 2,
          "target": {
            "node": 0,
            "path": "scale"
          }
        },
        {
          "sampler": 3,
          "target": {
            "node": 1,
            "path": "translation"
          }
        },
        {
          "sampler": 4,
          "target": {
            "node": 1,
            "path": "rotation"
          }
        },
        {
          "sampler": 5,
          "target": {
            "node": 1,
            "path": "scale"
          }
        },
        {
          "sampler": 6,
          "target": {
            "node": 2,
            "path": "translation"
          }
        },
        {
          "sampler": 7,
          "target": {
            "node": 2,
            "path": "rotation"
          }
        },
        {
          "sampler": 8,
          "target": {
            "node": 2,
            "path": "scale"
          }
        },
        {
          "sampler": 9,
          "target": {
            "node": 3,
            "path": "translation"
          }
        },
        {
          "sampler": 10,
          "target": {
            "node": 3,
            "path": "rotation"
          }
        },
        {
          "sampler": 11,
          "target": {
            "node": 3,
            "path": "scale"
          }
        },
        {
          "sampler": 12,
          "target": {
            "node": 4,
            "path": "translation"
          }
        },
        {
          "sampler": 13,
          "target": {
            "node": 4,
            "path": "rotation"
          }
        },
        {
          "sampler": 14,
          "target": {
            "node": 4,
            "path": "scale"
          }
        },
        {
          "sampler": 15,
          "target": {
            "node": 5,
            "path": "translation"
          }
        },
        {
          "sampler": 16,
          "target": {
            "node": 5,
            "path": "rotation"
          }
        },
        {
          "sampler": 17,
          "target": {
            "node": 5,
            "path": "scale"
          }
        },
        {
          "sampler": 18,
          "target": {
            "node": 6,
            "path": "translation"
          }
        },
        {
          "sampler": 19,
          "target": {
            "node": 6,
            "path": "rotation"
          }
        },
        {
          "sampler": 20,
          "target": {
            "node": 6,
            "path": "scale"
          }
        },
        {
          "sampler": 21,
          "target": {
            "node": 7,
            "path": "translation"
          }
        },
        {
          "sampler": 22,
          "target": {
            "node": 7,
            "path": "rotation"
          }
        },
        {
          "sampler": 23,
          "target": {
            "node": 7,
            "path": "scale"
          }
        },
        {
          "sampler": 24,
          "target": {
            "node": 8,
            "path": "translation"
          }
        },
        {
          "sampler": 25,
          "target": {
            "node": 8,
            "path": "rotation"
          }
        },
        {
          "sampler": 26,
          "target": {
            "node": 8,
            "path": "scale"
          }
        },
        {
          "sampler": 27,
          "target": {
            "node": 9,
            "path": "translation"
          }
        },
        {
          "sampler": 28,
          "target": {
            "node": 9,
            "path": "rotation"
          }
        },
        {
          "sampler": 29,
          "target": {
            "node": 9,
            "path": "scale"
          }
        }
      ],
      "name": "Heli_fly_NEW",
      "samplers": [
        {
          "input": 0,
          "output": 1
        },
        {
          "input": 0,
          "output": 2
        },
        {
          "input": 0,
          "output": 3
        },
        {
          "input": 4,
          "output": 5
        },
        {
          "input": 4,
          "output": 6
        },
        {
          "input": 4,
          "output": 7
        },
        {
          "input": 8,
          "output": 9
        },
        {
          "input": 8,
          "output": 10
        },
        {
          "input": 8,
          "output": 11
        },
        {
          "input": 12,
          "output": 13
        },
        {
          "input": 12,
          "output": 14
        },
        {
          "input": 12,
          "output": 15
        },
        {
          "input": 16,
          "output": 17
        },
        {
          "input": 16,
          "output": 18
        },
        {
          "input": 16,
          "output": 19
        },
        {
          "input": 20,
          "output": 21
        },
        {
          "input": 20,
          "output": 22
        },
        {
          "input": 20,
          "output": 23
        },
        {
          "input": 24,
          "output": 25
        },
        {
          "input": 24,
          "output": 26
        },
        {
          "input": 24,
          "output": 27
        },
        {
          "input": 28,
          "output": 29
        },
        {
          "input": 28,
          "output": 30
        },
        {
          "input": 28,
          "output": 31
        },
        {
          "input": 32,
          "output": 33
        },
        {
          "input": 32,
          "output": 34
        },
        {
          "input": 32,
          "output": 35
        },
        {
          "input": 36,
          "output": 37
        },
        {
          "input": 36,
          "output": 38
        },
        {
          "input": 36,
          "output": 39
        }
      ]
    }
  ],
  "asset": {
    "copyright": "Copyright (c) 2018-2020 Chukong Technologies Inc.",
    "generator": "FBX-glTF-conv",
    "version": "2.0"
  },
  "bufferViews": [
    {
      "buffer": 0,
      "byteLength": 44
    },
    {
      "buffer": 0,
      "byteLength": 132,
      "byteOffset": 44
    },
    {
      "buffer": 0,
      "byteLength": 176,
      "byteOffset": 176
    },
    {
      "buffer": 0,
      "byteLength": 132,
      "byteOffset": 352
    },
    {
      "buffer": 0,
      "byteLength": 8,
      "byteOffset": 484
    },
    {
      "buffer": 0,
      "byteLength": 24,
      "byteOffset": 492
    },
    {
      "buffer": 0,
      "byteLength": 32,
      "byteOffset": 516
    },
    {
      "buffer": 0,
      "byteLength": 24,
      "byteOffset": 548
    },
    {
      "buffer": 0,
      "byteLength": 44,
      "byteOffset": 572
    },
    {
      "buffer": 0,
      "byteLength": 132,
      "byteOffset": 616
    },
    {
      "buffer": 0,
      "byteLength": 176,
      "byteOffset": 748
    },
    {
      "buffer": 0,
      "byteLength": 132,
      "byteOffset": 924
    },
    {
      "buffer": 0,
      "byteLength": 44,
      "byteOffset": 1056
    },
    {
      "buffer": 0,
      "byteLength": 132,
      "byteOffset": 1100
    },
    {
      "buffer": 0,
      "byteLength": 176,
      "byteOffset": 1232
    },
    {
      "buffer": 0,
      "byteLength": 132,
      "byteOffset": 1408
    },
    {
      "buffer": 0,
      "byteLength": 44,
      "byteOffset": 1540
    },
    {
      "buffer": 0,
      "byteLength": 132,
      "byteOffset": 1584
    },
    {
      "buffer": 0,
      "byteLength": 176,
      "byteOffset": 1716
    },
    {
      "buffer": 0,
      "byteLength": 132,
      "byteOffset": 1892
    },
    {
      "buffer": 0,
      "byteLength": 44,
      "byteOffset": 2024
    },
    {
      "buffer": 0,
      "byteLength": 132,
      "byteOffset": 2068
    },
    {
      "buffer": 0,
      "byteLength": 176,
      "byteOffset": 2200
    },
    {
      "buffer": 0,
      "byteLength": 132,
      "byteOffset": 2376
    },
    {
      "buffer": 0,
      "byteLength": 44,
      "byteOffset": 2508
    },
    {
      "buffer": 0,
      "byteLength": 132,
      "byteOffset": 2552
    },
    {
      "buffer": 0,
      "byteLength": 176,
      "byteOffset": 2684
    },
    {
      "buffer": 0,
      "byteLength": 132,
      "byteOffset": 2860
    },
    {
      "buffer": 0,
      "byteLength": 44,
      "byteOffset": 2992
    },
    {
      "buffer": 0,
      "byteLength": 132,
      "byteOffset": 3036
    },
    {
      "buffer": 0,
      "byteLength": 176,
      "byteOffset": 3168
    },
    {
      "buffer": 0,
      "byteLength": 132,
      "byteOffset": 3344
    },
    {
      "buffer": 0,
      "byteLength": 44,
      "byteOffset": 3476
    },
    {
      "buffer": 0,
      "byteLength": 132,
      "byteOffset": 3520
    },
    {
      "buffer": 0,
      "byteLength": 176,
      "byteOffset": 3652
    },
    {
      "buffer": 0,
      "byteLength": 132,
      "byteOffset": 3828
    },
    {
      "buffer": 0,
      "byteLength": 8,
      "byteOffset": 3960
    },
    {
      "buffer": 0,
      "byteLength": 24,
      "byteOffset": 3968
    },
    {
      "buffer": 0,
      "byteLength": 32,
      "byteOffset": 3992
    },
    {
      "buffer": 0,
      "byteLength": 24,
      "byteOffset": 4024
    }
  ],
  "buffers": [
    {
      "byteLength": 4048,
      "uri": "out.bin"
    }
  ],
  "extras": {
    "FBX-glTF-conv": {
      "animationFrameRate": 30.0
    }
  },
  "nodes": [
    {
      "children": [
        1,
        3
      ],
      "extras": {
        "FBX-glTF-conv": {
          "skeleton": {
            "skeletonType": "LimbNode"
          }
        }
      },
      "name": "Root_M",
      "rotation": [
        0.4685725271701813,
        0.529565691947937,
        0.4685725271701813,
        0.529565691947937
      ],
      "translation": [
        0.0,
        0.142242893576622,
        0.0
      ]
    },
    {
      "children": [
        2
      ],
      "extras": {
        "FBX-glTF-conv": {
          "skeleton": {
            "skeletonType": "LimbNode"
          }
        }
      },
      "name": "Body_M",
      "rotation": [
        -0.000171079853316769,
        0.0026123952120542526,
        0.06534753739833832,
        0.9978591203689575
      ],
      "translation": [
        0.04029963165521622,
        -4.440891999238953e-18,
        6.2633247442872075e-18
      ]
    },
    {
      "extras": {
        "FBX-glTF-conv": {
          "skeleton": {
            "skeletonType": "LimbNode"
          }
        }
      },
      "name": "BodyEnd_M",
      "rotation": [
        -0.5169320106506348,
        1.6821306708861956e-16,
        1.0157947990485121e-16,
        0.8560264706611633
      ],
      "translation": [
        0.05923290550708771,
        -1.1879386945824326e-16,
        5.537237348552858e-17
      ]
    },
    {
      "children": [
        4
      ],
      "extras": {
        "FBX-glTF-conv": {
          "skeleton": {
            "skeletonType": "LimbNode"
          }
        }
      },
      "name": "joint1_L",
      "rotation": [
        -0.060987330973148346,
        0.9980428218841553,
        0.000842988898511976,
        0.013795307837426662
      ],
      "translation": [
        0.0004514952015597373,
        0.009132690727710724,
        0.0365610271692276
      ]
    },
    {
      "children": [
        5
      ],
      "extras": {
        "FBX-glTF-conv": {
          "skeleton": {
            "skeletonType": "LimbNode"
          }
        }
      },
      "name": "joint2_L",
      "rotation": [
        6.305270039174006e-19,
        -0.013821040280163288,
        -1.110416254016249e-16,
        0.9999045133590698
      ],
      "translation": [
        0.012167684733867645,
        -2.198082514615063e-11,
        -4.440891999238953e-18
      ]
    },
    {
      "children": [
        6
      ],
      "extras": {
        "FBX-glTF-conv": {
          "skeleton": {
            "skeletonType": "LimbNode"
          }
        }
      },
      "name": "joint3_L",
      "rotation": [
        6.305270039174006e-19,
        -0.013821040280163288,
        -1.110416254016249e-16,
        0.9999045133590698
      ],
      "translation": [
        0.01230916939675808,
        -2.2210910194386813e-11,
        6.661338412448735e-17
      ]
    },
    {
      "children": [
        7
      ],
      "extras": {
        "FBX-glTF-conv": {
          "skeleton": {
            "skeletonType": "LimbNode"
          }
        }
      },
      "name": "joint4_L",
      "rotation": [
        6.305269522186123e-19,
        -0.013821040280163288,
        -1.110416254016249e-16,
        0.9999045133590698
      ],
      "translation": [
        0.011743230745196342,
        -2.114921432427863e-11,
        -2.6645351995433716e-17
      ]
    },
    {
      "children": [
        8
      ],
      "extras": {
        "FBX-glTF-conv": {
          "skeleton": {
            "skeletonType": "LimbNode"
          }
        }
      },
      "name": "joint5_L",
      "rotation": [
        6.305269522186123e-19,
        -0.013821040280163288,
        -1.110416254016249e-16,
        0.9999045133590698
      ],
      "translation": [
        0.012450654059648514,
        -2.2363175547490677e-11,
        6.217248964370656e-17
      ]
    },
    {
      "children": [
        9
      ],
      "extras": {
        "FBX-glTF-conv": {
          "skeleton": {
            "skeletonType": "LimbNode"
          }
        }
      },
      "name": "joint6_L",
      "rotation": [
        6.305269522186123e-19,
        -0.013821040280163288,
        -1.110416254016249e-16,
        0.9999045133590698
      ],
      "translation": [
        0.013299562968313694,
        -2.3805500973250737e-11,
        4.6629365578418697e-17
      ]
    },
    {
      "extras": {
        "FBX-glTF-conv": {
          "skeleton": {
            "skeletonType": "LimbNode"
          }
        }
      },
      "name": "joint7_L",
      "translation": [
        0.012733624316751957,
        -2.26961574534279e-11,
        1.3322675997716858e-17
      ]
    }
  ],
  "scenes": [
    {
      "nodes": [
        0
      ]
    }
  ]
}