{
  "accessors": [
    {
      "bufferView": 0,
      "componentType": 5126,
      "count": 1390,
      "max": [
        0.7228379845619202,
        1.4301029443740845,
        0.42258599400520325
      ],
      "min": [
        -0.7228380441665649,
        0.0013514976017177105,
        -0.4125860631465912
      ],
      "name": "Zominion/POSITION",
      "type": "VEC3"
    },
    {
      "bufferView": 0,
      "byteOffset": 12,
      "componentType": 5126,
      "count": 1390,
      "name": "Zominion/NORMAL",
      "type": "VEC3"
    },
    {
      "bufferView": 0,
      "byteOffset": 24,
      "componentType": 5126,
      "count": 1390,
      "name": "Zominion/TEXCOORD_0",
      "type": "VEC2"
    },
    {
      "bufferView": 0,
      "byteOffset": 32,
      "componentType": 5123,
      "count": 1390,
      "name": "Zominion/JOINTS_0",
      "type": "VEC4"
    },
    {
      "bufferView": 0,
      "byteOffset": 40,
      "componentType": 5126,
      "count": 1390,
      "name": "Zominion/WEIGHTS_0",
      "type": "VEC4"
    },
    {
      "bufferView": 0,
      "byteOffset": 56,
      "componentType": 5123,
      "count": 1390,
      "name": "Zominion/JOINTS_1",
      "type": "VEC4"
    },
    {
      "bufferView": 0,
      "byteOffset": 64,
      "componentType": 5126,
      "count": 1390,
      "name": "Zominion/WEIGHTS_1",
      "type": "VEC4"
    },
    {
      "bufferView": 1,
      "componentType": 5125,
      "count": 5070,
      "name": "Zominion/INDICES",
      "type": "SCALAR"
    },
    {
      "bufferView": 2,
      "componentType": 5126,
      "count": 19,
      "name": "/InverseBindMatrices",
      "type": "MAT4"
    }
  ],
  "asset": {
    "copyright": "Copyright (c) 2018-2020 Chukong Technologies Inc.",
    "generator": "FBX-glTF-conv",
    "version": "2.0"
  },
  "bufferViews": [
    {
      "buffer": 0,
      "byteLength": 111200,
      "byteStride": 80,
      "name": "Zominion",
      "target": 34962
    },
    {
      "buffer": 0,
      "byteLength": 20280,
      "byteOffset": 111200
    },
    {
      "buffer": 0,
      "byteLength": 1216,
      "byteOffset": 131480
    }
  ],
  "buffers": [
    {
      "byteLength": 132696,
      "uri": "out.bin"
    }
  ],
  "extras": {
    "FBX-glTF-conv": {
      "animationFrameRate": 24.0
    }
  },
  "images": [
    {
      "extras": {
        "FBX-glTF-conv": {
          "fileName": "C:\\Users\\Artist\\Downloads\\Zominion.fbm\\shared.Imp.Imp_Tex.png",
          "relativeFileName": "..\\..\\Artist\\Downloads\\Zominion.fbm\\shared.Imp.Imp_Tex.png"
        }
      },
      "name": "Imps:shared_Imp_Imp_Tex1F1",
      "uri": "data:image/png;base64,"
    }
  ],
  "materials": [
    {
      "name": "Imps:shared_Imp_Imp_Tex2",
      "pbrMetallicRoughness": {
        "baseColorFactor": [
          0.800000011920929,
          0.800000011920929,
          0.800000011920929,
          1.0
        ],
        "baseColorTexture": {
          "index": 0
        },
        "metallicFactor": 0.4000000059604645,
        "roughnessFactor": 0.7071067690849304
      }
    }
  ],
  "meshes": [
    {
      "name": "Zominion",
      "primitives": [
        {
          "attributes": {
            "JOINTS_0": 3,
            "JOINTS_1": 5,
            "NORMAL": 1,
            "POSITION": 0,
            "TEXCOORD_0": 2,
            "WEIGHTS_0": 4,
            "WEIGHTS_1": 6
          },
          "indices": 7,
          "material": 0
        }
      ]
    }
  ],
  "nodes": [
    {
      "children": [
        1
      ],
      "name": "Character1_Reference"
    },
    {
      "children": [
        2,
        5,
        8
      ],
      "extras": {
        "FBX-glTF-conv": {
          "skeleton": {
            "skeletonType": "LimbNode"
          }
        }
      },
      "name": "Character1_Hips",
      "translation": [
        0.0,
        0.24999982118606567,
        0.0
      ]
    },
    {
      "children": [
        3
      ],
      "extras": {
        "FBX-glTF-conv": {
          "skeleton": {
            "skeletonType": "LimbNode"
          }
        }
      },
      "name": "Character1_LeftUpLeg",
      "rotation": [
        -5.303450052451808e-06,
        -0.0,
        0.0,
        1.0
      ],
      "translation": [
        0.11999991536140442,
        -0.049999963492155075,
        0.0
      ]
    },
    {
      "children": [
        4
      ],
      "extras": {
        "FBX-glTF-conv": {
          "skeleton": {
            "skeletonType": "LimbNode"
          }
        }
      },
      "name": "Character1_LeftLeg",
      "rotation": [
        3.6196199744154e-06,
        0.0,
        0.0,
        1.0
      ],
      "translation": [
        5.7220457705398076e-08,
        -0.06999993324279785,
        -7.42484360216622e-07
      ]
    },
    {
      "extras": {
        "FBX-glTF-conv": {
          "skeleton": {
            "skeletonType": "LimbNode"
          }
        }
      },
      "name": "Character1_LeftFoot",
      "rotation": [
        1.6838299643495702e-06,
        0.0,
        0.0,
        1.0
      ],
      "translation": [
        1.907348590179936e-08,
        -0.10175234079360962,
        -3.4266741977262427e-07
      ]
    },
    {
      "children": [
        6
      ],
      "extras": {
        "FBX-glTF-conv": {
          "skeleton": {
            "skeletonType": "LimbNode"
          }
        }
      },
      "name": "Character1_RightUpLeg",
      "rotation": [
        -5.397149834607262e-06,
        -0.0,
        0.0,
        1.0
      ],
      "translation": [
        -0.11999991536140442,
        -0.049999963492155075,
        0.0
      ]
    },
    {
      "children": [
        7
      ],
      "extras": {
        "FBX-glTF-conv": {
          "skeleton": {
            "skeletonType": "LimbNode"
          }
        }
      },
      "name": "Character1_RightLeg",
      "rotation": [
        3.7133199839445297e-06,
        0.0,
        0.0,
        1.0
      ],
      "translation": [
        -5.7220457705398076e-08,
        -0.06999993324279785,
        -7.555972842965275e-07
      ]
    },
    {
      "extras": {
        "FBX-glTF-conv": {
          "skeleton": {
            "skeletonType": "LimbNode"
          }
        }
      },
      "name": "Character1_RightFoot",
      "rotation": [
        1.6838299643495702e-06,
        0.0,
        0.0,
        1.0
      ],
      "translation": [
        -1.907348590179936e-08,
        -0.10175234079360962,
        -3.4266741977262427e-07
      ]
    },
    {
      "children": [
        9
      ],
      "extras": {
        "FBX-glTF-conv": {
          "skeleton": {
            "skeletonType": "LimbNode"
          }
        }
      },
      "name": "Character1_Spine",
      "translation": [
        0.0,
        0.06999997794628143,
        0.0
      ]
    },
    {
      "children": [
        10,
        14,
        18
      ],
      "extras": {
        "FBX-glTF-conv": {
          "skeleton": {
            "skeletonType": "LimbNode"
          }
        }
      },
      "name": "Character1_Spine1",
      "translation": [
        0.0,
        0.06875000149011612,
        0.0
      ]
    },
    {
      "children": [
        11
      ],
      "extras": {
        "FBX-glTF-conv": {
          "skeleton": {
            "skeletonType": "LimbNode"
          }
        }
      },
      "name": "Character1_LeftShoulder",
      "translation": [
        0.19999998807907104,
        0.05124996230006218,
        0.0
      ]
    },
    {
      "children": [
        12
      ],
      "extras": {
        "FBX-glTF-conv": {
          "skeleton": {
            "skeletonType": "LimbNode"
          }
        }
      },
      "name": "Character1_LeftArm",
      "rotation": [
        4.911225005344022e-06,
        1.0562755051068962e-05,
        9.409131394022552e-07,
        1.0
      ],
      "translation": [
        0.09999990463256836,
        0.009999999776482582,
        0.0
      ]
    },
    {
      "children": [
        13
      ],
      "extras": {
        "FBX-glTF-conv": {
          "skeleton": {
            "skeletonType": "LimbNode"
          }
        }
      },
      "name": "Character1_LeftForeArm",
      "rotation": [
        -4.971578619006323e-06,
        -1.1658247785817366e-05,
        6.322459375951439e-05,
        1.0
      ],
      "translation": [
        0.15999989211559296,
        0.01999969780445099,
        3.1836236757953884e-06
      ]
    },
    {
      "extras": {
        "FBX-glTF-conv": {
          "skeleton": {
            "skeletonType": "LimbNode"
          }
        }
      },
      "name": "Character1_LeftHand",
      "rotation": [
        3.867364206655566e-10,
        1.095849825105688e-06,
        -0.0003529100213199854,
        0.9999999403953552
      ],
      "translation": [
        0.0667428970336914,
        -8.565177267882973e-06,
        -1.4627582345383416e-07
      ]
    },
    {
      "children": [
        15
      ],
      "extras": {
        "FBX-glTF-conv": {
          "skeleton": {
            "skeletonType": "LimbNode"
          }
        }
      },
      "name": "Character1_RightShoulder",
      "translation": [
        -0.19999998807907104,
        0.05124996230006218,
        0.0
      ]
    },
    {
      "children": [
        16
      ],
      "extras": {
        "FBX-glTF-conv": {
          "skeleton": {
            "skeletonType": "LimbNode"
          }
        }
      },
      "name": "Character1_RightArm",
      "rotation": [
        4.790271759702591e-06,
        -1.0704538908612449e-05,
        1.2754851013596635e-05,
        1.0
      ],
      "translation": [
        -0.09999990463256836,
        0.009999999776482582,
        0.0
      ]
    },
    {
      "children": [
        17
      ],
      "extras": {
        "FBX-glTF-conv": {
          "skeleton": {
            "skeletonType": "LimbNode"
          }
        }
      },
      "name": "Character1_RightForeArm",
      "rotation": [
        -4.852251549891662e-06,
        1.1799411367974244e-05,
        -0.0002150699292542413,
        1.0
      ],
      "translation": [
        -0.1599993258714676,
        0.02000408247113228,
        3.2338250548491487e-06
      ]
    },
    {
      "extras": {
        "FBX-glTF-conv": {
          "skeleton": {
            "skeletonType": "LimbNode"
          }
        }
      },
      "name": "Character1_RightHand",
      "rotation": [
        1.2194693033151793e-09,
        -1.0959217888739659e-06,
        0.0011127331526950002,
        0.9999994039535522
      ],
      "translation": [
        -0.06674288958311081,
        -2.7006190066458657e-05,
        -1.4627583766468888e-07
      ]
    },
    {
      "children": [
        19
      ],
      "extras": {
        "FBX-glTF-conv": {
          "skeleton": {
            "skeletonType": "LimbNode"
          }
        }
      },
      "name": "Character1_Neck",
      "translation": [
        0.0,
        0.1612483561038971,
        0.0
      ]
    },
    {
      "extras": {
        "FBX-glTF-conv": {
          "skeleton": {
            "skeletonType": "LimbNode"
          }
        }
      },
      "name": "Character1_Head",
      "translation": [
        0.0,
        0.18249648809432983,
        0.0
      ]
    },
    {
      "mesh": 0,
      "name": "Zominion",
      "skin": 0
    }
  ],
  "samplers": [
    {}
  ],
  "scenes": [
    {
      "nodes": [
        0,
        20
      ]
    }
  ],
  "skins": [
    {
      "inverseBindMatrices": 8,
      "joints": [
        1,
        2,
        3,
        4,
        5,
        6,
        7,
        8,
        9,
        10,
        11,
        12,
        13,
        14,
        15,
        16,
        17,
        18,
        19
      ]
    }
  ],
  "textures": [
    {
      "name": "Imps:shared_Imp_Imp_Tex1F1",
      "sampler": 0,
      "source": 0
    }
  ]
}