{
  "accessors": [
    {
      "bufferView": 0,
      "componentType": 5126,
      "count": 648,
      "max": [
        0.1084536761045456,
        0.08155544102191925,
        0.11863699555397034
      ],
      "min": [
        -0.11092685908079147,
        -0.0021851349156349897,
        -0.06873781234025955
      ],
      "name": "Object003/POSITION",
      "type": "VEC3"
    },
    {
      "bufferView": 0,
      "byteOffset": 12,
      "componentType": 5126,
      "count": 648,
      "name": "Object003/NORMAL",
      "type": "VEC3"
    },
    {
      "bufferView": 0,
      "byteOffset": 24,
      "componentType": 5126,
      "count": 648,
      "name": "Object003/TEXCOORD_0",
      "type": "VEC2"
    },
    {
      "bufferView": 1,
      "componentType": 5125,
      "count": 3102,
      "name": "Object003/INDICES",
      "type": "SCALAR"
    }
  ],
  "asset": {
    "copyright": "Copyright (c) 2018-2020 Chukong Technologies Inc.",
    "generator": "FBX-glTF-conv",
    "version": "2.0"
  },
  "bufferViews": [
    {
      "buffer": 0,
      "byteLength": 20736,
      "byteStride": 32,
      "name": "Object003",
      "target": 34962
    },
    {
      "buffer": 0,
      "byteLength": 12408,
      "byteOffset": 20736
    }
  ],
  "buffers": [
    {
      "byteLength": 33144,
      "uri": "out.bin"
    }
  ],
  "extras": {
    "FBX-glTF-conv": {
      "animationFrameRate": 30.0
    }
  },
  "images": [
    {
      "extras": {
        "FBX-glTF-conv": {
          "fileName": "D:/Farts Ville/food/textures/Hunk_Of_Meat_Hunk_Of_Meat_BaseColor.png",
          "relativeFileName": "textures\\Hunk_Of_Meat_Hunk_Of_Meat_BaseColor.png"
        }
      },
      "name": "file13",
      "uri": "data:image/png;base64,"
    }
  ],
  "materials": [
    {
      "name": "Hunk_Of_Meat",
      "pbrMetallicRoughness": {
        "baseColorTexture": {
          "index": 0
        },
        "metallicFactor": 0.4000000059604645,
        "roughnessFactor": 0.7071067690849304
      }
    }
  ],
  "meshes": [
    {
      "name": "Object003",
      "primitives": [
        {
          "attributes": {
            "NORMAL": 1,
            "POSITION": 0,
            "TEXCOORD_0": 2
          },
          "indices": 3,
          "material": 0
        }
      ]
    }
  ],
  "nodes": [
    {
      "mesh": 0,
      "name": "Object003"
    }
  ],
  "samplers": [
    {}
  ],
  "scenes": [
    {
      "nodes": [
        0
      ]
    }
  ],
  "textures": [
    {
      "name": "file13",
      "sampler": 0,
      "source": 0
    }
  ]
}