{
  "accessors": [
    {
      "bufferView": 0,
      "componentType": 5126,
      "count": 3258,
      "max": [
        0.11869140714406967,
        0.09935058653354645,
        0.1032702624797821
      ],
      "min": [
        -0.11869140714406967,
        -0.010327148251235485,
        -0.10734619200229645
      ],
      "name": "Spaceship/POSITION",
      "type": "VEC3"
    },
    {
      "bufferView": 0,
      "byteOffset": 12,
      "componentType": 5126,
      "count": 3258,
      "name": "Spaceship/NORMAL",
      "type": "VEC3"
    },
    {
      "bufferView": 0,
      "byteOffset": 24,
      "componentType": 5126,
      "count": 3258,
      "name": "Spaceship/TEXCOORD_0",
      "type": "VEC2"
    },
    {
      "bufferView": 0,
      "byteOffset": 32,
      "componentType": 5126,
      "count": 3258,
      "name": "Spaceship/TEXCOORD_1",
      "type": "VEC2"
    },
    {
      "bufferView": 0,
      "byteOffset": 40,
      "componentType": 5126,
      "count": 3258,
      "name": "Spaceship/TEXCOORD_2",
      "type": "VEC2"
    },
    {
      "bufferView": 0,
      "byteOffset": 48,
      "componentType": 5123,
      "count": 3258,
      "name": "Spaceship/JOINTS_0",
      "type": "VEC4"
    },
    {
      "bufferView": 0,
      "byteOffset": 56,
      "componentType": 5126,
      "count": 3258,
      "name": "Spaceship/WEIGHTS_0",
      "type": "VEC4"
    },
    {
      "bufferView": 1,
      "componentType": 5125,
      "count": 5988,
      "name": "Spaceship/INDICES",
      "type": "SCALAR"
    },
    {
      "bufferView": 2,
      "componentType": 5126,
      "count": 14,
      "name": "/InverseBindMatrices",
      "type": "MAT4"
    },
    {
      "bufferView": 3,
      "componentType": 5126,
      "count": 376,
      "max": [
        0.015117187052965164,
        0.0531005859375,
        -0.045830078423023224
      ],
      "min": [
        -0.015166015364229679,
        0.019472656771540642,
        -0.12015625089406967
      ],
      "name": "SM_Ship_Fighter_Heavy_02.001/POSITION",
      "type": "VEC3"
    },
    {
      "bufferView": 3,
      "byteOffset": 12,
      "componentType": 5126,
      "count": 376,
      "name": "SM_Ship_Fighter_Heavy_02.001/NORMAL",
      "type": "VEC3"
    },
    {
      "bufferView": 3,
      "byteOffset": 24,
      "componentType": 5126,
      "count": 376,
      "name": "SM_Ship_Fighter_Heavy_02.001/TEXCOORD_0",
      "type": "VEC2"
    },
    {
      "bufferView": 3,
      "byteOffset": 32,
      "componentType": 5126,
      "count": 376,
      "name": "SM_Ship_Fighter_Heavy_02.001/TEXCOORD_1",
      "type": "VEC2"
    },
    {
      "bufferView": 3,
      "byteOffset": 40,
      "componentType": 5126,
      "count": 376,
      "name": "SM_Ship_Fighter_Heavy_02.001/TEXCOORD_2",
      "type": "VEC2"
    },
    {
      "bufferView": 3,
      "byteOffset": 48,
      "componentType": 5123,
      "count": 376,
      "name": "SM_Ship_Fighter_Heavy_02.001/JOINTS_0",
      "type": "VEC4"
    },
    {
      "bufferView": 3,
      "byteOffset": 56,
      "componentType": 5126,
      "count": 376,
      "name": "SM_Ship_Fighter_Heavy_02.001/WEIGHTS_0",
      "type": "VEC4"
    },
    {
      "bufferView": 4,
      "componentType": 5125,
      "count": 606,
      "name": "SM_Ship_Fighter_Heavy_02.001/INDICES",
      "type": "SCALAR"
    },
    {
      "bufferView": 5,
      "componentType": 5126,
      "count": 14,
      "name": "/InverseBindMatrices",
      "type": "MAT4"
    }
  ],
  "asset": {
    "copyright": "Copyright (c) 2018-2020 Chukong Technologies Inc.",
    "generator": "FBX-glTF-conv",
    "version": "2.0"
  },
  "bufferViews": [
    {
      "buffer": 0,
      "byteLength": 234576,
      "byteStride": 72,
      "name": "Spaceship",
      "target": 34962
    },
    {
      "buffer": 0,
      "byteLength": 23952,
      "byteOffset": 234576
    },
    {
      "buffer": 0,
      "byteLength": 896,
      "byteOffset": 258528
    },
    {
      "buffer": 0,
      "byteLength": 27072,
      "byteOffset": 259424,
      "byteStride": 72,
      "name": "SM_Ship_Fighter_Heavy_02.001",
      "target": 34962
    },
    {
      "buffer": 0,
      "byteLength": 2424,
      "byteOffset": 286496
    },
    {
      "buffer": 0,
      "byteLength": 896,
      "byteOffset": 288920
    }
  ],
  "buffers": [
    {
      "byteLength": 289816,
      "uri": "out.bin"
    }
  ],
  "extras": {
    "FBX-glTF-conv": {
      "animationFrameRate": 30.0
    }
  },
  "images": [
    {
      "extras": {
        "FBX-glTF-conv": {
          "fileName": "D:\\PA_2024\\3D\\CatEscape\\CatEscape_OP15\\temp\\asset-db\\assets\\fbx.FBX-glTF-conv\\27fa5e53-67ae-4325-bdce-c1f4caff7d10\\output\\.fbm\\7271FAB\\SpaceShip_Base.fbm/Scene_Atlas.png",
          "relativeFileName": "..\\..\\..\\..\\temp\\asset-db\\assets\\fbx.FBX-glTF-conv\\27fa5e53-67ae-4325-bdce-c1f4caff7d10\\output\\.fbm\\7271FAB\\SpaceShip_Base.fbm\\Scene_Atlas.png"
        }
      },
      "name": "DiffuseColor_Texture3",
      "uri": "Scene_Atlas.png"
    }
  ],
  "materials": [
    {
      "name": "Spaceship",
      "pbrMetallicRoughness": {
        "baseColorTexture": {
          "index": 0
        }
      }
    }
  ],
  "meshes": [
    {
      "name": "Spaceship",
      "primitives": [
        {
          "attributes": {
            "JOINTS_0": 5,
            "NORMAL": 1,
            "POSITION": 0,
            "TEXCOORD_0": 2,
            "TEXCOORD_1": 3,
            "TEXCOORD_2": 4,
            "WEIGHTS_0": 6
          },
          "indices": 7,
          "material": 0
        }
      ]
    },
    {
      "name": "SM_Ship_Fighter_Heavy_02.001",
      "primitives": [
        {
          "attributes": {
            "JOINTS_0": 14,
            "NORMAL": 10,
            "POSITION": 9,
            "TEXCOORD_0": 11,
            "TEXCOORD_1": 12,
            "TEXCOORD_2": 13,
            "WEIGHTS_0": 15
          },
          "indices": 16,
          "material": 0
        }
      ]
    }
  ],
  "nodes": [
    {
      "children": [
        1
      ],
      "mesh": 0,
      "name": "Spaceship",
      "skin": 0
    },
    {
      "mesh": 1,
      "name": "SM_Ship_Fighter_Heavy_02.001",
      "skin": 1
    },
    {
      "children": [
        3,
        13,
        15
      ],
      "extras": {
        "FBX-glTF-conv": {
          "skeleton": {
            "skeletonType": "LimbNode"
          }
        }
      },
      "name": "Root_M",
      "rotation": [
        0.5,
        0.5,
        0.5,
        0.5
      ],
      "translation": [
        0.0,
        0.014402116648852825,
        0.0
      ]
    },
    {
      "children": [
        4,
        5,
        9
      ],
      "extras": {
        "FBX-glTF-conv": {
          "skeleton": {
            "skeletonType": "LimbNode"
          }
        }
      },
      "name": "Body_M",
      "translation": [
        0.025597883388400078,
        -5.57213345161851e-18,
        -5.1044190635014266e-18
      ]
    },
    {
      "extras": {
        "FBX-glTF-conv": {
          "skeleton": {
            "skeletonType": "LimbNode"
          }
        }
      },
      "name": "BodyEnd_M",
      "translation": [
        0.03146078437566757,
        -5.239273077995028e-18,
        -9.930630817221668e-18
      ]
    },
    {
      "children": [
        6
      ],
      "extras": {
        "FBX-glTF-conv": {
          "skeleton": {
            "skeletonType": "LimbNode"
          }
        }
      },
      "name": "wing1_R",
      "rotation": [
        0.5883115530014038,
        0.3215523362159729,
        -0.3558441996574402,
        0.6510518789291382
      ],
      "translation": [
        0.01981520652770996,
        -0.005862534511834383,
        -0.026387764140963554
      ]
    },
    {
      "children": [
        7
      ],
      "extras": {
        "FBX-glTF-conv": {
          "skeleton": {
            "skeletonType": "LimbNode"
          }
        }
      },
      "name": "wing2_R",
      "rotation": [
        0.015495209954679012,
        0.03688479959964752,
        -0.17168201506137848,
        0.984339714050293
      ],
      "translation": [
        0.04292451962828636,
        6.661338412448735e-17,
        -6.661337998858429e-18
      ]
    },
    {
      "children": [
        8
      ],
      "extras": {
        "FBX-glTF-conv": {
          "skeleton": {
            "skeletonType": "LimbNode"
          }
        }
      },
      "name": "wing3_R",
      "rotation": [
        0.004802953917533159,
        0.0221392922103405,
        -0.011399107053875923,
        0.999678373336792
      ],
      "translation": [
        0.027911294251680374,
        -6.217248964370656e-17,
        0.0
      ]
    },
    {
      "extras": {
        "FBX-glTF-conv": {
          "skeleton": {
            "skeletonType": "LimbNode"
          }
        }
      },
      "name": "wing4_R",
      "translation": [
        0.024254638701677322,
        -4.440892164675075e-17,
        -3.7747583234302016e-17
      ]
    },
    {
      "children": [
        10
      ],
      "extras": {
        "FBX-glTF-conv": {
          "skeleton": {
            "skeletonType": "LimbNode"
          }
        }
      },
      "name": "wing1_L",
      "rotation": [
        -0.3215523362159729,
        0.5883115530014038,
        0.6510518789291382,
        0.3558441996574402
      ],
      "translation": [
        0.01981520652770996,
        -0.005862534511834383,
        0.026387764140963554
      ]
    },
    {
      "children": [
        11
      ],
      "extras": {
        "FBX-glTF-conv": {
          "skeleton": {
            "skeletonType": "LimbNode"
          }
        }
      },
      "name": "wing2_L",
      "rotation": [
        0.015495209954679012,
        0.03688479959964752,
        -0.17168201506137848,
        0.984339714050293
      ],
      "translation": [
        -0.04292451962828636,
        -1.0658140798173486e-16,
        -1.8873791617151008e-17
      ]
    },
    {
      "children": [
        12
      ],
      "extras": {
        "FBX-glTF-conv": {
          "skeleton": {
            "skeletonType": "LimbNode"
          }
        }
      },
      "name": "wing3_L",
      "rotation": [
        0.004802953917533159,
        0.0221392922103405,
        -0.011399107053875923,
        0.999678373336792
      ],
      "translation": [
        -0.027911294251680374,
        8.88178432935015e-17,
        1.1102230411687688e-17
      ]
    },
    {
      "extras": {
        "FBX-glTF-conv": {
          "skeleton": {
            "skeletonType": "LimbNode"
          }
        }
      },
      "name": "wing4_L",
      "translation": [
        -0.024254638701677322,
        0.0,
        3.108624482185328e-17
      ]
    },
    {
      "children": [
        14
      ],
      "extras": {
        "FBX-glTF-conv": {
          "skeleton": {
            "skeletonType": "LimbNode"
          }
        }
      },
      "name": "hehe1_R",
      "rotation": [
        0.10534681379795074,
        0.10802451521158218,
        -0.7077275514602661,
        0.6901843547821045
      ],
      "translation": [
        -0.020470570772886276,
        -0.011823033913969994,
        -0.07158689200878143
      ]
    },
    {
      "extras": {
        "FBX-glTF-conv": {
          "skeleton": {
            "skeletonType": "LimbNode"
          }
        }
      },
      "name": "hehe2_R",
      "rotation": [
        0.010110434144735336,
        -0.8056416511535645,
        0.00743273226544261,
        0.5922703146934509
      ],
      "translation": [
        0.0753801241517067,
        2.6645351995433716e-17,
        8.881783998477905e-18
      ]
    },
    {
      "children": [
        16
      ],
      "extras": {
        "FBX-glTF-conv": {
          "skeleton": {
            "skeletonType": "LimbNode"
          }
        }
      },
      "name": "hehe1_L",
      "rotation": [
        -0.10802452266216278,
        0.10534680634737015,
        0.6901843547821045,
        0.7077275514602661
      ],
      "translation": [
        -0.020470570772886276,
        -0.011823033913969994,
        0.07158689200878143
      ]
    },
    {
      "extras": {
        "FBX-glTF-conv": {
          "skeleton": {
            "skeletonType": "LimbNode"
          }
        }
      },
      "name": "hehe2_L",
      "rotation": [
        0.010110439732670784,
        -0.8056416511535645,
        0.0074327252805233,
        0.5922703146934509
      ],
      "translation": [
        -0.0753801241517067,
        2.7755575615628914e-17,
        -4.440892164675075e-17
      ]
    }
  ],
  "samplers": [
    {}
  ],
  "scenes": [
    {
      "nodes": [
        0,
        2
      ]
    }
  ],
  "skins": [
    {
      "inverseBindMatrices": 8,
      "joints": [
        3,
        4,
        5,
        6,
        7,
        8,
        9,
        10,
        11,
        12,
        13,
        14,
        15,
        16
      ]
    },
    {
      "inverseBindMatrices": 17,
      "joints": [
        3,
        4,
        5,
        6,
        7,
        8,
        9,
        10,
        11,
        12,
        13,
        14,
        15,
        16
      ]
    }
  ],
  "textures": [
    {
      "name": "DiffuseColor_Texture3",
      "sampler": 0,
      "source": 0
    }
  ]
}