{
  "accessors": [
    {
      "bufferView": 0,
      "componentType": 5126,
      "count": 2146,
      "max": [
        0.0036011124029755592,
        0.018805846571922302,
        0.0022199726663529873
      ],
      "min": [
        -0.0035344886127859354,
        5.03405935887713e-05,
        -0.0022766781039536
      ],
      "name": "medic_skeleton/POSITION",
      "type": "VEC3"
    },
    {
      "bufferView": 0,
      "byteOffset": 12,
      "componentType": 5126,
      "count": 2146,
      "name": "medic_skeleton/NORMAL",
      "type": "VEC3"
    },
    {
      "bufferView": 0,
      "byteOffset": 24,
      "componentType": 5126,
      "count": 2146,
      "name": "medic_skeleton/TEXCOORD_0",
      "type": "VEC2"
    },
    {
      "bufferView": 1,
      "componentType": 5125,
      "count": 6573,
      "name": "medic_skeleton/INDICES",
      "type": "SCALAR"
    }
  ],
  "asset": {
    "copyright": "Copyright (c) 2018-2020 Chukong Technologies Inc.",
    "generator": "FBX-glTF-conv",
    "version": "2.0"
  },
  "bufferViews": [
    {
      "buffer": 0,
      "byteLength": 68672,
      "byteStride": 32,
      "name": "medic_skeleton",
      "target": 34962
    },
    {
      "buffer": 0,
      "byteLength": 26292,
      "byteOffset": 68672
    }
  ],
  "buffers": [
    {
      "byteLength": 94964,
      "uri": "out.bin"
    }
  ],
  "extras": {
    "FBX-glTF-conv": {
      "animationFrameRate": 24.0
    }
  },
  "images": [
    {
      "extras": {
        "FBX-glTF-conv": {
          "fileName": "D:/Maya_projects/Cat_escape/sourceimages/Texture.jpg",
          "relativeFileName": "..\\..\\sourceimages\\Texture.jpg"
        }
      },
      "name": "file1",
      "uri": "data:image/png;base64,"
    }
  ],
  "materials": [
    {
      "name": "Megatexture",
      "pbrMetallicRoughness": {
        "baseColorFactor": [
          0.800000011920929,
          0.800000011920929,
          0.800000011920929,
          1.0
        ],
        "baseColorTexture": {
          "index": 0
        },
        "metallicFactor": 0.4000000059604645,
        "roughnessFactor": 0.49053239822387695
      }
    }
  ],
  "meshes": [
    {
      "name": "medic_skeleton",
      "primitives": [
        {
          "attributes": {
            "NORMAL": 1,
            "POSITION": 0,
            "TEXCOORD_0": 2
          },
          "indices": 3,
          "material": 0
        }
      ]
    }
  ],
  "nodes": [
    {
      "mesh": 0,
      "name": "medic_skeleton"
    }
  ],
  "samplers": [
    {}
  ],
  "scenes": [
    {
      "nodes": [
        0
      ]
    }
  ],
  "textures": [
    {
      "name": "file1",
      "sampler": 0,
      "source": 0
    }
  ]
}