{
  "accessors": [
    {
      "bufferView": 0,
      "componentType": 5126,
      "count": 19,
      "max": [
        0.6000000238418579
      ],
      "min": [
        0.0
      ],
      "name": "Character1_Reference/Trs/Input",
      "type": "SCALAR"
    },
    {
      "bufferView": 1,
      "componentType": 5126,
      "count": 19,
      "name": "Character1_Reference/translation/Output",
      "type": "VEC3"
    },
    {
      "bufferView": 2,
      "componentType": 5126,
      "count": 19,
      "name": "Character1_Reference/rotation/Output",
      "type": "VEC4"
    },
    {
      "bufferView": 3,
      "componentType": 5126,
      "count": 2,
      "max": [
        0.6000000238418579
      ],
      "min": [
        0.0
      ],
      "name": "Character1_Hips/Trs/Input",
      "type": "SCALAR"
    },
    {
      "bufferView": 4,
      "componentType": 5126,
      "count": 2,
      "name": "Character1_Hips/rotation/Output",
      "type": "VEC4"
    },
    {
      "bufferView": 5,
      "componentType": 5126,
      "count": 19,
      "max": [
        0.6000000238418579
      ],
      "min": [
        0.0
      ],
      "name": "Character1_LeftUpLeg/Trs/Input",
      "type": "SCALAR"
    },
    {
      "bufferView": 6,
      "componentType": 5126,
      "count": 19,
      "name": "Character1_LeftUpLeg/rotation/Output",
      "type": "VEC4"
    },
    {
      "bufferView": 7,
      "componentType": 5126,
      "count": 19,
      "max": [
        0.6000000238418579
      ],
      "min": [
        0.0
      ],
      "name": "Character1_LeftLeg/Trs/Input",
      "type": "SCALAR"
    },
    {
      "bufferView": 8,
      "componentType": 5126,
      "count": 19,
      "name": "Character1_LeftLeg/rotation/Output",
      "type": "VEC4"
    },
    {
      "bufferView": 9,
      "componentType": 5126,
      "count": 19,
      "max": [
        0.6000000238418579
      ],
      "min": [
        0.0
      ],
      "name": "Character1_RightUpLeg/Trs/Input",
      "type": "SCALAR"
    },
    {
      "bufferView": 10,
      "componentType": 5126,
      "count": 19,
      "name": "Character1_RightUpLeg/rotation/Output",
      "type": "VEC4"
    },
    {
      "bufferView": 11,
      "componentType": 5126,
      "count": 19,
      "max": [
        0.6000000238418579
      ],
      "min": [
        0.0
      ],
      "name": "Character1_RightLeg/Trs/Input",
      "type": "SCALAR"
    },
    {
      "bufferView": 12,
      "componentType": 5126,
      "count": 19,
      "name": "Character1_RightLeg/rotation/Output",
      "type": "VEC4"
    },
    {
      "bufferView": 13,
      "componentType": 5126,
      "count": 19,
      "max": [
        0.6000000238418579
      ],
      "min": [
        0.0
      ],
      "name": "Character1_Spine/Trs/Input",
      "type": "SCALAR"
    },
    {
      "bufferView": 14,
      "componentType": 5126,
      "count": 19,
      "name": "Character1_Spine/rotation/Output",
      "type": "VEC4"
    },
    {
      "bufferView": 15,
      "componentType": 5126,
      "count": 19,
      "max": [
        0.6000000238418579
      ],
      "min": [
        0.0
      ],
      "name": "Character1_Spine1/Trs/Input",
      "type": "SCALAR"
    },
    {
      "bufferView": 16,
      "componentType": 5126,
      "count": 19,
      "name": "Character1_Spine1/rotation/Output",
      "type": "VEC4"
    },
    {
      "bufferView": 17,
      "componentType": 5126,
      "count": 19,
      "max": [
        0.6000000238418579
      ],
      "min": [
        0.0
      ],
      "name": "Character1_LeftShoulder/Trs/Input",
      "type": "SCALAR"
    },
    {
      "bufferView": 18,
      "componentType": 5126,
      "count": 19,
      "name": "Character1_LeftShoulder/rotation/Output",
      "type": "VEC4"
    },
    {
      "bufferView": 19,
      "componentType": 5126,
      "count": 19,
      "max": [
        0.6000000238418579
      ],
      "min": [
        0.0
      ],
      "name": "Character1_LeftArm/Trs/Input",
      "type": "SCALAR"
    },
    {
      "bufferView": 20,
      "componentType": 5126,
      "count": 19,
      "name": "Character1_LeftArm/rotation/Output",
      "type": "VEC4"
    },
    {
      "bufferView": 21,
      "componentType": 5126,
      "count": 19,
      "max": [
        0.6000000238418579
      ],
      "min": [
        0.0
      ],
      "name": "Character1_LeftForeArm/Trs/Input",
      "type": "SCALAR"
    },
    {
      "bufferView": 22,
      "componentType": 5126,
      "count": 19,
      "name": "Character1_LeftForeArm/rotation/Output",
      "type": "VEC4"
    },
    {
      "bufferView": 23,
      "componentType": 5126,
      "count": 19,
      "max": [
        0.6000000238418579
      ],
      "min": [
        0.0
      ],
      "name": "Character1_RightShoulder/Trs/Input",
      "type": "SCALAR"
    },
    {
      "bufferView": 24,
      "componentType": 5126,
      "count": 19,
      "name": "Character1_RightShoulder/rotation/Output",
      "type": "VEC4"
    },
    {
      "bufferView": 25,
      "componentType": 5126,
      "count": 19,
      "max": [
        0.6000000238418579
      ],
      "min": [
        0.0
      ],
      "name": "Character1_RightArm/Trs/Input",
      "type": "SCALAR"
    },
    {
      "bufferView": 26,
      "componentType": 5126,
      "count": 19,
      "name": "Character1_RightArm/rotation/Output",
      "type": "VEC4"
    },
    {
      "bufferView": 27,
      "componentType": 5126,
      "count": 19,
      "max": [
        0.6000000238418579
      ],
      "min": [
        0.0
      ],
      "name": "Character1_RightForeArm/Trs/Input",
      "type": "SCALAR"
    },
    {
      "bufferView": 28,
      "componentType": 5126,
      "count": 19,
      "name": "Character1_RightForeArm/rotation/Output",
      "type": "VEC4"
    },
    {
      "bufferView": 29,
      "componentType": 5126,
      "count": 19,
      "max": [
        0.6000000238418579
      ],
      "min": [
        0.0
      ],
      "name": "Character1_Neck/Trs/Input",
      "type": "SCALAR"
    },
    {
      "bufferView": 30,
      "componentType": 5126,
      "count": 19,
      "name": "Character1_Neck/rotation/Output",
      "type": "VEC4"
    }
  ],
  "animations": [
    {
      "channels": [
        {
          "sampler": 0,
          "target": {
            "node": 0,
            "path": "translation"
          }
        },
        {
          "sampler": 1,
          "target": {
            "node": 0,
            "path": "rotation"
          }
        },
        {
          "sampler": 2,
          "target": {
            "node": 1,
            "path": "rotation"
          }
        },
        {
          "sampler": 3,
          "target": {
            "node": 2,
            "path": "rotation"
          }
        },
        {
          "sampler": 4,
          "target": {
            "node": 3,
            "path": "rotation"
          }
        },
        {
          "sampler": 5,
          "target": {
            "node": 5,
            "path": "rotation"
          }
        },
        {
          "sampler": 6,
          "target": {
            "node": 6,
            "path": "rotation"
          }
        },
        {
          "sampler": 7,
          "target": {
            "node": 8,
            "path": "rotation"
          }
        },
        {
          "sampler": 8,
          "target": {
            "node": 9,
            "path": "rotation"
          }
        },
        {
          "sampler": 9,
          "target": {
            "node": 10,
            "path": "rotation"
          }
        },
        {
          "sampler": 10,
          "target": {
            "node": 11,
            "path": "rotation"
          }
        },
        {
          "sampler": 11,
          "target": {
            "node": 12,
            "path": "rotation"
          }
        },
        {
          "sampler": 12,
          "target": {
            "node": 14,
            "path": "rotation"
          }
        },
        {
          "sampler": 13,
          "target": {
            "node": 15,
            "path": "rotation"
          }
        },
        {
          "sampler": 14,
          "target": {
            "node": 16,
            "path": "rotation"
          }
        },
        {
          "sampler": 15,
          "target": {
            "node": 18,
            "path": "rotation"
          }
        }
      ],
      "name": "mixamo.com",
      "samplers": [
        {
          "input": 0,
          "output": 1
        },
        {
          "input": 0,
          "output": 2
        },
        {
          "input": 3,
          "output": 4
        },
        {
          "input": 5,
          "output": 6
        },
        {
          "input": 7,
          "output": 8
        },
        {
          "input": 9,
          "output": 10
        },
        {
          "input": 11,
          "output": 12
        },
        {
          "input": 13,
          "output": 14
        },
        {
          "input": 15,
          "output": 16
        },
        {
          "input": 17,
          "output": 18
        },
        {
          "input": 19,
          "output": 20
        },
        {
          "input": 21,
          "output": 22
        },
        {
          "input": 23,
          "output": 24
        },
        {
          "input": 25,
          "output": 26
        },
        {
          "input": 27,
          "output": 28
        },
        {
          "input": 29,
          "output": 30
        }
      ]
    }
  ],
  "asset": {
    "copyright": "Copyright (c) 2018-2020 Chukong Technologies Inc.",
    "generator": "FBX-glTF-conv",
    "version": "2.0"
  },
  "bufferViews": [
    {
      "buffer": 0,
      "byteLength": 76
    },
    {
      "buffer": 0,
      "byteLength": 228,
      "byteOffset": 76
    },
    {
      "buffer": 0,
      "byteLength": 304,
      "byteOffset": 304
    },
    {
      "buffer": 0,
      "byteLength": 8,
      "byteOffset": 608
    },
    {
      "buffer": 0,
      "byteLength": 32,
      "byteOffset": 616
    },
    {
      "buffer": 0,
      "byteLength": 76,
      "byteOffset": 648
    },
    {
      "buffer": 0,
      "byteLength": 304,
      "byteOffset": 724
    },
    {
      "buffer": 0,
      "byteLength": 76,
      "byteOffset": 1028
    },
    {
      "buffer": 0,
      "byteLength": 304,
      "byteOffset": 1104
    },
    {
      "buffer": 0,
      "byteLength": 76,
      "byteOffset": 1408
    },
    {
      "buffer": 0,
      "byteLength": 304,
      "byteOffset": 1484
    },
    {
      "buffer": 0,
      "byteLength": 76,
      "byteOffset": 1788
    },
    {
      "buffer": 0,
      "byteLength": 304,
      "byteOffset": 1864
    },
    {
      "buffer": 0,
      "byteLength": 76,
      "byteOffset": 2168
    },
    {
      "buffer": 0,
      "byteLength": 304,
      "byteOffset": 2244
    },
    {
      "buffer": 0,
      "byteLength": 76,
      "byteOffset": 2548
    },
    {
      "buffer": 0,
      "byteLength": 304,
      "byteOffset": 2624
    },
    {
      "buffer": 0,
      "byteLength": 76,
      "byteOffset": 2928
    },
    {
      "buffer": 0,
      "byteLength": 304,
      "byteOffset": 3004
    },
    {
      "buffer": 0,
      "byteLength": 76,
      "byteOffset": 3308
    },
    {
      "buffer": 0,
      "byteLength": 304,
      "byteOffset": 3384
    },
    {
      "buffer": 0,
      "byteLength": 76,
      "byteOffset": 3688
    },
    {
      "buffer": 0,
      "byteLength": 304,
      "byteOffset": 3764
    },
    {
      "buffer": 0,
      "byteLength": 76,
      "byteOffset": 4068
    },
    {
      "buffer": 0,
      "byteLength": 304,
      "byteOffset": 4144
    },
    {
      "buffer": 0,
      "byteLength": 76,
      "byteOffset": 4448
    },
    {
      "buffer": 0,
      "byteLength": 304,
      "byteOffset": 4524
    },
    {
      "buffer": 0,
      "byteLength": 76,
      "byteOffset": 4828
    },
    {
      "buffer": 0,
      "byteLength": 304,
      "byteOffset": 4904
    },
    {
      "buffer": 0,
      "byteLength": 76,
      "byteOffset": 5208
    },
    {
      "buffer": 0,
      "byteLength": 304,
      "byteOffset": 5284
    }
  ],
  "buffers": [
    {
      "byteLength": 5588,
      "uri": "out.bin"
    }
  ],
  "extras": {
    "FBX-glTF-conv": {
      "animationFrameRate": 30.0
    }
  },
  "nodes": [
    {
      "children": [
        1
      ],
      "name": "Character1_Reference"
    },
    {
      "children": [
        2,
        5,
        8
      ],
      "extras": {
        "FBX-glTF-conv": {
          "skeleton": {
            "skeletonType": "LimbNode"
          }
        }
      },
      "name": "Character1_Hips",
      "translation": [
        0.0,
        0.25,
        0.0
      ]
    },
    {
      "children": [
        3
      ],
      "extras": {
        "FBX-glTF-conv": {
          "skeleton": {
            "skeletonType": "LimbNode"
          }
        }
      },
      "name": "Character1_LeftUpLeg",
      "rotation": [
        -5.23598782820045e-06,
        -0.0,
        0.0,
        1.0
      ],
      "translation": [
        0.11999999731779099,
        -0.05000000074505806,
        0.0
      ]
    },
    {
      "children": [
        4
      ],
      "extras": {
        "FBX-glTF-conv": {
          "skeleton": {
            "skeletonType": "LimbNode"
          }
        }
      },
      "name": "Character1_LeftLeg",
      "rotation": [
        3.490658400551183e-06,
        0.0,
        0.0,
        1.0
      ],
      "translation": [
        0.0,
        -0.07000000029802322,
        -9.999999974752427e-07
      ]
    },
    {
      "extras": {
        "FBX-glTF-conv": {
          "skeleton": {
            "skeletonType": "LimbNode"
          }
        }
      },
      "name": "Character1_LeftFoot",
      "rotation": [
        1.7453292002755916e-06,
        0.0,
        0.0,
        1.0
      ],
      "translation": [
        0.0,
        -0.10175199806690216,
        3.3881317132865545e-23
      ]
    },
    {
      "children": [
        6
      ],
      "extras": {
        "FBX-glTF-conv": {
          "skeleton": {
            "skeletonType": "LimbNode"
          }
        }
      },
      "name": "Character1_RightUpLeg",
      "rotation": [
        -5.23598782820045e-06,
        -0.0,
        0.0,
        1.0
      ],
      "translation": [
        -0.11999999731779099,
        -0.05000000074505806,
        0.0
      ]
    },
    {
      "children": [
        7
      ],
      "extras": {
        "FBX-glTF-conv": {
          "skeleton": {
            "skeletonType": "LimbNode"
          }
        }
      },
      "name": "Character1_RightLeg",
      "rotation": [
        3.490658400551183e-06,
        0.0,
        0.0,
        1.0
      ],
      "translation": [
        0.0,
        -0.07000000029802322,
        -9.999999974752427e-07
      ]
    },
    {
      "extras": {
        "FBX-glTF-conv": {
          "skeleton": {
            "skeletonType": "LimbNode"
          }
        }
      },
      "name": "Character1_RightFoot",
      "rotation": [
        1.7453292002755916e-06,
        0.0,
        0.0,
        1.0
      ],
      "translation": [
        0.0,
        -0.10175199806690216,
        3.3881317132865545e-23
      ]
    },
    {
      "children": [
        9
      ],
      "extras": {
        "FBX-glTF-conv": {
          "skeleton": {
            "skeletonType": "LimbNode"
          }
        }
      },
      "name": "Character1_Spine",
      "translation": [
        0.0,
        0.07000000029802322,
        0.0
      ]
    },
    {
      "children": [
        10,
        14,
        18
      ],
      "extras": {
        "FBX-glTF-conv": {
          "skeleton": {
            "skeletonType": "LimbNode"
          }
        }
      },
      "name": "Character1_Spine1",
      "translation": [
        0.0,
        0.06875000149011612,
        0.0
      ]
    },
    {
      "children": [
        11
      ],
      "extras": {
        "FBX-glTF-conv": {
          "skeleton": {
            "skeletonType": "LimbNode"
          }
        }
      },
      "name": "Character1_LeftShoulder",
      "rotation": [
        0.0,
        -0.0,
        -0.008797690272331238,
        0.9999613165855408
      ],
      "translation": [
        0.20000000298023224,
        0.051249999552965164,
        0.0
      ]
    },
    {
      "children": [
        12
      ],
      "extras": {
        "FBX-glTF-conv": {
          "skeleton": {
            "skeletonType": "LimbNode"
          }
        }
      },
      "name": "Character1_LeftArm",
      "rotation": [
        5.810424227092881e-06,
        9.739175766299013e-06,
        -0.05335434898734093,
        0.9985756278038025
      ],
      "translation": [
        0.10000000149011612,
        0.009999999776482582,
        0.0
      ]
    },
    {
      "children": [
        13
      ],
      "extras": {
        "FBX-glTF-conv": {
          "skeleton": {
            "skeletonType": "LimbNode"
          }
        }
      },
      "name": "Character1_LeftForeArm",
      "rotation": [
        -5.930043698754162e-06,
        -9.689367288956419e-06,
        0.06220473349094391,
        0.9980633854866028
      ],
      "translation": [
        0.1599999964237213,
        0.019999999552965164,
        3.000000106112566e-06
      ]
    },
    {
      "extras": {
        "FBX-glTF-conv": {
          "skeleton": {
            "skeletonType": "LimbNode"
          }
        }
      },
      "name": "Character1_LeftHand",
      "rotation": [
        3.07663589049767e-10,
        8.726646001377958e-07,
        -0.00035255649709142745,
        0.9999999403953552
      ],
      "translation": [
        0.06674300134181976,
        -9.000000318337698e-06,
        0.0
      ]
    },
    {
      "children": [
        15
      ],
      "extras": {
        "FBX-glTF-conv": {
          "skeleton": {
            "skeletonType": "LimbNode"
          }
        }
      },
      "name": "Character1_RightShoulder",
      "rotation": [
        0.0,
        0.0,
        0.008797690272331238,
        0.9999613165855408
      ],
      "translation": [
        -0.20000000298023224,
        0.051249999552965164,
        0.0
      ]
    },
    {
      "children": [
        16
      ],
      "extras": {
        "FBX-glTF-conv": {
          "skeleton": {
            "skeletonType": "LimbNode"
          }
        }
      },
      "name": "Character1_RightArm",
      "rotation": [
        4.944842658005655e-06,
        -9.677737580204848e-06,
        0.053367022424936295,
        0.99857497215271
      ],
      "translation": [
        -0.10000000149011612,
        0.009999999776482582,
        0.0
      ]
    },
    {
      "children": [
        17
      ],
      "extras": {
        "FBX-glTF-conv": {
          "skeleton": {
            "skeletonType": "LimbNode"
          }
        }
      },
      "name": "Character1_RightForeArm",
      "rotation": [
        -5.982063612464117e-06,
        9.691826562630013e-06,
        -0.06235198676586151,
        0.9980542063713074
      ],
      "translation": [
        -0.15999899804592133,
        0.020004000514745712,
        3.000000106112566e-06
      ]
    },
    {
      "extras": {
        "FBX-glTF-conv": {
          "skeleton": {
            "skeletonType": "LimbNode"
          }
        }
      },
      "name": "Character1_RightHand",
      "rotation": [
        9.709678616687256e-10,
        -8.72664088547026e-07,
        0.00111264712177217,
        0.9999994039535522
      ],
      "translation": [
        -0.06674300134181976,
        -2.700000004551839e-05,
        0.0
      ]
    },
    {
      "children": [
        19
      ],
      "extras": {
        "FBX-glTF-conv": {
          "skeleton": {
            "skeletonType": "LimbNode"
          }
        }
      },
      "name": "Character1_Neck",
      "translation": [
        0.0,
        0.16124799847602844,
        0.0
      ]
    },
    {
      "extras": {
        "FBX-glTF-conv": {
          "skeleton": {
            "skeletonType": "LimbNode"
          }
        }
      },
      "name": "Character1_Head",
      "translation": [
        0.0,
        0.18249599635601044,
        0.0
      ]
    }
  ],
  "scenes": [
    {
      "nodes": [
        0
      ]
    }
  ]
}