{
  "accessors": [
    {
      "bufferView": 0,
      "componentType": 5126,
      "count": 776,
      "max": [
        0.44299954175949097,
        0.30498841404914856,
        0.0754784420132637
      ],
      "min": [
        -0.44299954175949097,
        -0.3049885630607605,
        -0.0754784420132637
      ],
      "name": "polySurface1/POSITION",
      "type": "VEC3"
    },
    {
      "bufferView": 0,
      "byteOffset": 12,
      "componentType": 5126,
      "count": 776,
      "name": "polySurface1/NORMAL",
      "type": "VEC3"
    },
    {
      "bufferView": 0,
      "byteOffset": 24,
      "componentType": 5126,
      "count": 776,
      "name": "polySurface1/TEXCOORD_0",
      "type": "VEC2"
    },
    {
      "bufferView": 1,
      "componentType": 5125,
      "count": 1884,
      "name": "polySurface1/INDICES",
      "type": "SCALAR"
    }
  ],
  "asset": {
    "copyright": "Copyright (c) 2018-2020 Chukong Technologies Inc.",
    "generator": "FBX-glTF-conv",
    "version": "2.0"
  },
  "bufferViews": [
    {
      "buffer": 0,
      "byteLength": 24832,
      "byteStride": 32,
      "name": "polySurface1",
      "target": 34962
    },
    {
      "buffer": 0,
      "byteLength": 7536,
      "byteOffset": 24832
    }
  ],
  "buffers": [
    {
      "byteLength": 32368,
      "uri": "out.bin"
    }
  ],
  "extras": {
    "FBX-glTF-conv": {
      "animationFrameRate": 24.0
    }
  },
  "materials": [
    {
      "name": "Default_Material",
      "pbrMetallicRoughness": {
        "baseColorFactor": [
          0.5,
          0.5,
          0.5,
          1.0
        ]
      }
    }
  ],
  "meshes": [
    {
      "name": "polySurface1",
      "primitives": [
        {
          "attributes": {
            "NORMAL": 1,
            "POSITION": 0,
            "TEXCOORD_0": 2
          },
          "indices": 3,
          "material": 0
        }
      ]
    }
  ],
  "nodes": [
    {
      "mesh": 0,
      "name": "polySurface1"
    }
  ],
  "scenes": [
    {
      "nodes": [
        0
      ]
    }
  ]
}