{
  "accessors": [
    {
      "bufferView": 0,
      "componentType": 5126,
      "count": 2291,
      "max": [
        0.1680414229631424,
        1.8927911520004272,
        0.3483070135116577
      ],
      "min": [
        -0.1657876968383789,
        1.533814549446106,
        -0.19361278414726257
      ],
      "name": "cameramen_head/POSITION",
      "type": "VEC3"
    },
    {
      "bufferView": 0,
      "byteOffset": 12,
      "componentType": 5126,
      "count": 2291,
      "name": "cameramen_head/NORMAL",
      "type": "VEC3"
    },
    {
      "bufferView": 0,
      "byteOffset": 24,
      "componentType": 5126,
      "count": 2291,
      "name": "cameramen_head/TEXCOORD_0",
      "type": "VEC2"
    },
    {
      "bufferView": 1,
      "componentType": 5125,
      "count": 8622,
      "name": "cameramen_head/INDICES",
      "type": "SCALAR"
    }
  ],
  "asset": {
    "copyright": "Copyright (c) 2018-2020 Chukong Technologies Inc.",
    "generator": "FBX-glTF-conv",
    "version": "2.0"
  },
  "bufferViews": [
    {
      "buffer": 0,
      "byteLength": 73312,
      "byteStride": 32,
      "name": "cameramen_head",
      "target": 34962
    },
    {
      "buffer": 0,
      "byteLength": 34488,
      "byteOffset": 73312
    }
  ],
  "buffers": [
    {
      "byteLength": 107800,
      "uri": "out.bin"
    }
  ],
  "extras": {
    "FBX-glTF-conv": {
      "animationFrameRate": 24.0
    }
  },
  "images": [
    {
      "extras": {
        "FBX-glTF-conv": {
          "fileName": "D:/Unity_projects/StickmanTest/Assets/Textures/lowpoly_texture.png",
          "relativeFileName": "..\\..\\..\\..\\..\\..\\Unity_projects\\StickmanTest\\Assets\\Textures\\lowpoly_texture.png"
        }
      },
      "name": "file41",
      "uri": "data:image/png;base64,"
    }
  ],
  "materials": [
    {
      "name": "cameramen_mat",
      "pbrMetallicRoughness": {
        "baseColorFactor": [
          0.800000011920929,
          0.800000011920929,
          0.800000011920929,
          1.0
        ],
        "baseColorTexture": {
          "index": 0
        },
        "metallicFactor": 0.4000000059604645,
        "roughnessFactor": 0.49053239822387695
      }
    }
  ],
  "meshes": [
    {
      "name": "cameramen_head",
      "primitives": [
        {
          "attributes": {
            "NORMAL": 1,
            "POSITION": 0,
            "TEXCOORD_0": 2
          },
          "indices": 3,
          "material": 0
        }
      ]
    }
  ],
  "nodes": [
    {
      "mesh": 0,
      "name": "cameramen_head"
    }
  ],
  "samplers": [
    {}
  ],
  "scenes": [
    {
      "nodes": [
        0
      ]
    }
  ],
  "textures": [
    {
      "name": "file41",
      "sampler": 0,
      "source": 0
    }
  ]
}