{
  "accessors": [
    {
      "bufferView": 0,
      "componentType": 5126,
      "count": 640,
      "max": [
        0.006655471865087748,
        0.025992613285779953,
        0.006760803516954184
      ],
      "min": [
        -0.006071255076676607,
        -1.19209286886246e-09,
        -0.00747106084600091
      ],
      "name": "Plant_03/POSITION",
      "type": "VEC3"
    },
    {
      "bufferView": 0,
      "byteOffset": 12,
      "componentType": 5126,
      "count": 640,
      "name": "Plant_03/NORMAL",
      "type": "VEC3"
    },
    {
      "bufferView": 0,
      "byteOffset": 24,
      "componentType": 5126,
      "count": 640,
      "name": "Plant_03/TEXCOORD_0",
      "type": "VEC2"
    },
    {
      "bufferView": 1,
      "componentType": 5125,
      "count": 2244,
      "name": "Plant_03/INDICES",
      "type": "SCALAR"
    }
  ],
  "asset": {
    "copyright": "Copyright (c) 2018-2020 Chukong Technologies Inc.",
    "generator": "FBX-glTF-conv",
    "version": "2.0"
  },
  "bufferViews": [
    {
      "buffer": 0,
      "byteLength": 20480,
      "byteStride": 32,
      "name": "Plant_03",
      "target": 34962
    },
    {
      "buffer": 0,
      "byteLength": 8976,
      "byteOffset": 20480
    }
  ],
  "buffers": [
    {
      "byteLength": 29456,
      "uri": "out.bin"
    }
  ],
  "extras": {
    "FBX-glTF-conv": {
      "animationFrameRate": 24.0
    }
  },
  "images": [
    {
      "extras": {
        "FBX-glTF-conv": {
          "fileName": "D:/Cat Escape/Obstacle/Megatexture.png",
          "relativeFileName": "..\\Megatexture.png"
        }
      },
      "name": "Megatexture.png",
      "uri": "data:image/png;base64,"
    }
  ],
  "materials": [
    {
      "name": "Plant_Mat",
      "pbrMetallicRoughness": {
        "baseColorTexture": {
          "index": 0
        },
        "metallicFactor": 0.4000000059604645,
        "roughnessFactor": 0.30151134729385376
      }
    }
  ],
  "meshes": [
    {
      "name": "Plant_03",
      "primitives": [
        {
          "attributes": {
            "NORMAL": 1,
            "POSITION": 0,
            "TEXCOORD_0": 2
          },
          "indices": 3,
          "material": 0
        }
      ]
    }
  ],
  "nodes": [
    {
      "mesh": 0,
      "name": "Plant_03"
    }
  ],
  "samplers": [
    {}
  ],
  "scenes": [
    {
      "nodes": [
        0
      ]
    }
  ],
  "textures": [
    {
      "name": "Megatexture.png",
      "sampler": 0,
      "source": 0
    }
  ]
}