{
  "accessors": [
    {
      "bufferView": 0,
      "componentType": 5126,
      "count": 116,
      "max": [
        0.030840644612908363,
        0.001105780596844852,
        0.048692140728235245
      ],
      "min": [
        -0.030840644612908363,
        -0.03981274738907814,
        -0.048692140728235245
      ],
      "name": "Platform_Material0/POSITION",
      "type": "VEC3"
    },
    {
      "bufferView": 0,
      "byteOffset": 12,
      "componentType": 5126,
      "count": 116,
      "name": "Platform_Material0/NORMAL",
      "type": "VEC3"
    },
    {
      "bufferView": 0,
      "byteOffset": 24,
      "componentType": 5126,
      "count": 116,
      "name": "Platform_Material0/TEXCOORD_0",
      "type": "VEC2"
    },
    {
      "bufferView": 0,
      "byteOffset": 32,
      "componentType": 5126,
      "count": 116,
      "name": "Platform_Material0/TEXCOORD_1",
      "type": "VEC2"
    },
    {
      "bufferView": 1,
      "componentType": 5125,
      "count": 174,
      "name": "Platform_Material0/INDICES",
      "type": "SCALAR"
    },
    {
      "bufferView": 2,
      "componentType": 5126,
      "count": 24,
      "max": [
        0.029845785349607468,
        0.0,
        0.04750451445579529
      ],
      "min": [
        -0.029845785349607468,
        -0.002211562357842922,
        -0.04750452935695648
      ],
      "name": "Platform_Material0/POSITION",
      "type": "VEC3"
    },
    {
      "bufferView": 2,
      "byteOffset": 12,
      "componentType": 5126,
      "count": 24,
      "name": "Platform_Material0/NORMAL",
      "type": "VEC3"
    },
    {
      "bufferView": 2,
      "byteOffset": 24,
      "componentType": 5126,
      "count": 24,
      "name": "Platform_Material0/TEXCOORD_0",
      "type": "VEC2"
    },
    {
      "bufferView": 2,
      "byteOffset": 32,
      "componentType": 5126,
      "count": 24,
      "name": "Platform_Material0/TEXCOORD_1",
      "type": "VEC2"
    },
    {
      "bufferView": 3,
      "componentType": 5125,
      "count": 36,
      "name": "Platform_Material0/INDICES",
      "type": "SCALAR"
    },
    {
      "bufferView": 4,
      "componentType": 5126,
      "count": 121,
      "max": [
        5.0,
        -0.02786662057042122,
        5.0
      ],
      "min": [
        -5.0,
        -0.02786662057042122,
        -5.0
      ],
      "name": "Ground/POSITION",
      "type": "VEC3"
    },
    {
      "bufferView": 4,
      "byteOffset": 12,
      "componentType": 5126,
      "count": 121,
      "name": "Ground/NORMAL",
      "type": "VEC3"
    },
    {
      "bufferView": 4,
      "byteOffset": 24,
      "componentType": 5126,
      "count": 121,
      "name": "Ground/TEXCOORD_0",
      "type": "VEC2"
    },
    {
      "bufferView": 5,
      "componentType": 5125,
      "count": 600,
      "name": "Ground/INDICES",
      "type": "SCALAR"
    },
    {
      "bufferView": 6,
      "componentType": 5126,
      "count": 5288,
      "max": [
        0.1663554608821869,
        0.1812654286623001,
        0.1298266351222992
      ],
      "min": [
        -0.20644201338291168,
        -0.06668666005134583,
        -0.2713869512081146
      ],
      "name": "Building_01/POSITION",
      "type": "VEC3"
    },
    {
      "bufferView": 6,
      "byteOffset": 12,
      "componentType": 5126,
      "count": 5288,
      "name": "Building_01/NORMAL",
      "type": "VEC3"
    },
    {
      "bufferView": 6,
      "byteOffset": 24,
      "componentType": 5126,
      "count": 5288,
      "name": "Building_01/TEXCOORD_0",
      "type": "VEC2"
    },
    {
      "bufferView": 7,
      "componentType": 5125,
      "count": 5832,
      "name": "Building_01/INDICES",
      "type": "SCALAR"
    },
    {
      "bufferView": 8,
      "componentType": 5126,
      "count": 40,
      "max": [
        -0.11790954321622849,
        0.3034059703350067,
        -0.2297029048204422
      ],
      "min": [
        -0.1949826031923294,
        0.011669082567095757,
        -0.29101622104644775
      ],
      "name": "Building_02/POSITION",
      "type": "VEC3"
    },
    {
      "bufferView": 8,
      "byteOffset": 12,
      "componentType": 5126,
      "count": 40,
      "name": "Building_02/NORMAL",
      "type": "VEC3"
    },
    {
      "bufferView": 8,
      "byteOffset": 24,
      "componentType": 5126,
      "count": 40,
      "name": "Building_02/TEXCOORD_0",
      "type": "VEC2"
    },
    {
      "bufferView": 8,
      "byteOffset": 32,
      "componentType": 5126,
      "count": 40,
      "name": "Building_02/TEXCOORD_1",
      "type": "VEC2"
    },
    {
      "bufferView": 9,
      "componentType": 5125,
      "count": 60,
      "name": "Building_02/INDICES",
      "type": "SCALAR"
    },
    {
      "bufferView": 10,
      "componentType": 5126,
      "count": 40,
      "max": [
        -0.015534668229520321,
        0.1458684206008911,
        -0.3066291809082031
      ],
      "min": [
        -0.08348510414361954,
        -0.1458684802055359,
        -0.3513902425765991
      ],
      "name": "Building_02_2/POSITION",
      "type": "VEC3"
    },
    {
      "bufferView": 10,
      "byteOffset": 12,
      "componentType": 5126,
      "count": 40,
      "name": "Building_02_2/NORMAL",
      "type": "VEC3"
    },
    {
      "bufferView": 10,
      "byteOffset": 24,
      "componentType": 5126,
      "count": 40,
      "name": "Building_02_2/TEXCOORD_0",
      "type": "VEC2"
    },
    {
      "bufferView": 10,
      "byteOffset": 32,
      "componentType": 5126,
      "count": 40,
      "name": "Building_02_2/TEXCOORD_1",
      "type": "VEC2"
    },
    {
      "bufferView": 11,
      "componentType": 5125,
      "count": 60,
      "name": "Building_02_2/INDICES",
      "type": "SCALAR"
    },
    {
      "bufferView": 12,
      "componentType": 5126,
      "count": 536,
      "max": [
        -0.09871483594179153,
        0.0702555775642395,
        0.0327688604593277
      ],
      "min": [
        -0.19193916022777557,
        -0.034972015768289566,
        -0.055358849465847015
      ],
      "name": "Building_03/POSITION",
      "type": "VEC3"
    },
    {
      "bufferView": 12,
      "byteOffset": 12,
      "componentType": 5126,
      "count": 536,
      "name": "Building_03/NORMAL",
      "type": "VEC3"
    },
    {
      "bufferView": 12,
      "byteOffset": 24,
      "componentType": 5126,
      "count": 536,
      "name": "Building_03/TEXCOORD_0",
      "type": "VEC2"
    },
    {
      "bufferView": 13,
      "componentType": 5125,
      "count": 1176,
      "name": "Building_03/INDICES",
      "type": "SCALAR"
    },
    {
      "bufferView": 14,
      "componentType": 5126,
      "count": 224,
      "max": [
        0.21783694624900818,
        0.08114822208881378,
        -0.04364708065986633
      ],
      "min": [
        0.11613976210355759,
        -0.051226552575826645,
        -0.13565658032894135
      ],
      "name": "Building_04/POSITION",
      "type": "VEC3"
    },
    {
      "bufferView": 14,
      "byteOffset": 12,
      "componentType": 5126,
      "count": 224,
      "name": "Building_04/NORMAL",
      "type": "VEC3"
    },
    {
      "bufferView": 14,
      "byteOffset": 24,
      "componentType": 5126,
      "count": 224,
      "name": "Building_04/TEXCOORD_0",
      "type": "VEC2"
    },
    {
      "bufferView": 15,
      "componentType": 5125,
      "count": 414,
      "name": "Building_04/INDICES",
      "type": "SCALAR"
    },
    {
      "bufferView": 16,
      "componentType": 5126,
      "count": 526,
      "max": [
        -0.0434480682015419,
        0.24581052362918854,
        -0.17685973644256592
      ],
      "min": [
        -0.09794700890779495,
        -0.05090727657079697,
        -0.26173022389411926
      ],
      "name": "Building_05/POSITION",
      "type": "VEC3"
    },
    {
      "bufferView": 16,
      "byteOffset": 12,
      "componentType": 5126,
      "count": 526,
      "name": "Building_05/NORMAL",
      "type": "VEC3"
    },
    {
      "bufferView": 16,
      "byteOffset": 24,
      "componentType": 5126,
      "count": 526,
      "name": "Building_05/TEXCOORD_0",
      "type": "VEC2"
    },
    {
      "bufferView": 17,
      "componentType": 5125,
      "count": 1296,
      "name": "Building_05/INDICES",
      "type": "SCALAR"
    },
    {
      "bufferView": 18,
      "componentType": 5126,
      "count": 526,
      "max": [
        0.14109264314174652,
        0.24581052362918854,
        -0.23423828184604645
      ],
      "min": [
        0.051249101758003235,
        -0.05090727657079697,
        -0.2932138741016388
      ],
      "name": "Building_05_2/POSITION",
      "type": "VEC3"
    },
    {
      "bufferView": 18,
      "byteOffset": 12,
      "componentType": 5126,
      "count": 526,
      "name": "Building_05_2/NORMAL",
      "type": "VEC3"
    },
    {
      "bufferView": 18,
      "byteOffset": 24,
      "componentType": 5126,
      "count": 526,
      "name": "Building_05_2/TEXCOORD_0",
      "type": "VEC2"
    },
    {
      "bufferView": 19,
      "componentType": 5125,
      "count": 1296,
      "name": "Building_05_2/INDICES",
      "type": "SCALAR"
    }
  ],
  "asset": {
    "copyright": "Copyright (c) 2018-2020 Chukong Technologies Inc.",
    "generator": "FBX-glTF-conv",
    "version": "2.0"
  },
  "bufferViews": [
    {
      "buffer": 0,
      "byteLength": 4640,
      "byteStride": 40,
      "name": "Platform_Material0",
      "target": 34962
    },
    {
      "buffer": 0,
      "byteLength": 696,
      "byteOffset": 4640
    },
    {
      "buffer": 0,
      "byteLength": 960,
      "byteOffset": 5336,
      "byteStride": 40,
      "name": "Platform_Material0",
      "target": 34962
    },
    {
      "buffer": 0,
      "byteLength": 144,
      "byteOffset": 6296
    },
    {
      "buffer": 0,
      "byteLength": 3872,
      "byteOffset": 6440,
      "byteStride": 32,
      "name": "Ground",
      "target": 34962
    },
    {
      "buffer": 0,
      "byteLength": 2400,
      "byteOffset": 10312
    },
    {
      "buffer": 0,
      "byteLength": 169216,
      "byteOffset": 12712,
      "byteStride": 32,
      "name": "Building_01",
      "target": 34962
    },
    {
      "buffer": 0,
      "byteLength": 23328,
      "byteOffset": 181928
    },
    {
      "buffer": 0,
      "byteLength": 1600,
      "byteOffset": 205256,
      "byteStride": 40,
      "name": "Building_02",
      "target": 34962
    },
    {
      "buffer": 0,
      "byteLength": 240,
      "byteOffset": 206856
    },
    {
      "buffer": 0,
      "byteLength": 1600,
      "byteOffset": 207096,
      "byteStride": 40,
      "name": "Building_02_2",
      "target": 34962
    },
    {
      "buffer": 0,
      "byteLength": 240,
      "byteOffset": 208696
    },
    {
      "buffer": 0,
      "byteLength": 17152,
      "byteOffset": 208936,
      "byteStride": 32,
      "name": "Building_03",
      "target": 34962
    },
    {
      "buffer": 0,
      "byteLength": 4704,
      "byteOffset": 226088
    },
    {
      "buffer": 0,
      "byteLength": 7168,
      "byteOffset": 230792,
      "byteStride": 32,
      "name": "Building_04",
      "target": 34962
    },
    {
      "buffer": 0,
      "byteLength": 1656,
      "byteOffset": 237960
    },
    {
      "buffer": 0,
      "byteLength": 16832,
      "byteOffset": 239616,
      "byteStride": 32,
      "name": "Building_05",
      "target": 34962
    },
    {
      "buffer": 0,
      "byteLength": 5184,
      "byteOffset": 256448
    },
    {
      "buffer": 0,
      "byteLength": 16832,
      "byteOffset": 261632,
      "byteStride": 32,
      "name": "Building_05_2",
      "target": 34962
    },
    {
      "buffer": 0,
      "byteLength": 5184,
      "byteOffset": 278464
    }
  ],
  "buffers": [
    {
      "byteLength": 283648,
      "uri": "out.bin"
    }
  ],
  "extras": {
    "FBX-glTF-conv": {
      "animationFrameRate": 24.0
    }
  },
  "images": [
    {
      "extras": {
        "FBX-glTF-conv": {
          "fileName": "D:/Toilet/New folder/Castle/TexturesCom_ConcreteFloorsDamaged0042_1_S.png",
          "relativeFileName": "New folder\\Castle\\TexturesCom_ConcreteFloorsDamaged0042_1_S.png"
        }
      },
      "name": "TexturesCom_ConcreteFloorsDamaged0042_1_S.png",
      "uri": "data:image/png;base64,"
    },
    {
      "extras": {
        "FBX-glTF-conv": {
          "fileName": "D:/Toilet/New folder/EnvironmentManager/TexturesCom_Pavement_AsphaltOld_Old_1K_albedo.png",
          "relativeFileName": "New folder\\EnvironmentManager\\TexturesCom_Pavement_AsphaltOld_Old_1K_albedo.png"
        }
      },
      "name": "TexturesCom_Pavement_AsphaltOld_Old_1K_albedo.png",
      "uri": "data:image/png;base64,"
    },
    {
      "extras": {
        "FBX-glTF-conv": {
          "fileName": "D:/Toilet/Building_136/skyscraper2_DIFF.png",
          "relativeFileName": "Building_136\\skyscraper2_DIFF.png"
        }
      },
      "name": "file32",
      "uri": "data:image/png;base64,"
    },
    {
      "extras": {
        "FBX-glTF-conv": {
          "fileName": "D:/Toilet/Building_132/Big_hauses_Texture.png",
          "relativeFileName": "Building_132\\Big_hauses_Texture.png"
        }
      },
      "name": "file31",
      "uri": "data:image/png;base64,"
    },
    {
      "extras": {
        "FBX-glTF-conv": {
          "fileName": "D:/Toilet/Building_103/v3_02.png",
          "relativeFileName": "Building_103\\v3_02.png"
        }
      },
      "name": "file30",
      "uri": "data:image/png;base64,"
    },
    {
      "extras": {
        "FBX-glTF-conv": {
          "fileName": "D:/Toilet/Building_101/v3_04 (1).png",
          "relativeFileName": "Building_101\\v3_04 (1).png"
        }
      },
      "name": "file28",
      "uri": "data:image/png;base64,"
    },
    {
      "extras": {
        "FBX-glTF-conv": {
          "fileName": "D:/Toilet/Building_80/v5_06.png",
          "relativeFileName": "Building_80\\v5_06.png"
        }
      },
      "name": "file5",
      "uri": "data:image/png;base64,"
    }
  ],
  "materials": [
    {
      "name": "BasePlatform",
      "pbrMetallicRoughness": {
        "baseColorFactor": [
          0.6380000114440918,
          0.6380000114440918,
          0.6380000114440918,
          1.0
        ],
        "metallicFactor": 0.4000000059604645,
        "roughnessFactor": 0.30151134729385376
      }
    },
    {
      "name": "PlatformGround",
      "pbrMetallicRoughness": {
        "baseColorTexture": {
          "extensions": {
            "KHR_texture_transform": {
              "offset": [
                0.0,
                0.0
              ],
              "scale": [
                5.0,
                5.0
              ]
            }
          },
          "index": 0
        },
        "metallicFactor": 0.4000000059604645,
        "roughnessFactor": 0.7071067690849304
      }
    },
    {
      "name": "ground5",
      "pbrMetallicRoughness": {
        "baseColorTexture": {
          "extensions": {
            "KHR_texture_transform": {
              "offset": [
                0.0,
                0.0
              ],
              "scale": [
                10.0,
                10.0
              ]
            }
          },
          "index": 1
        },
        "metallicFactor": 0.4000000059604645,
        "roughnessFactor": 0.30151134729385376
      }
    },
    {
      "name": "building_01",
      "pbrMetallicRoughness": {
        "baseColorFactor": [
          0.800000011920929,
          0.800000011920929,
          0.800000011920929,
          1.0
        ],
        "baseColorTexture": {
          "index": 2
        },
        "metallicFactor": 0.4000000059604645,
        "roughnessFactor": 0.3755338191986084
      }
    },
    {
      "name": "Atlas_big houses_Material",
      "pbrMetallicRoughness": {
        "baseColorTexture": {
          "index": 3
        },
        "metallicFactor": 0.4000000059604645,
        "roughnessFactor": 0.30151134729385376
      }
    },
    {
      "name": "lambert12",
      "pbrMetallicRoughness": {
        "baseColorFactor": [
          0.800000011920929,
          0.800000011920929,
          0.800000011920929,
          1.0
        ],
        "baseColorTexture": {
          "index": 4
        }
      }
    },
    {
      "name": "phong17",
      "pbrMetallicRoughness": {
        "baseColorFactor": [
          0.800000011920929,
          0.800000011920929,
          0.800000011920929,
          1.0
        ],
        "baseColorTexture": {
          "index": 5
        },
        "metallicFactor": 0.4000000059604645,
        "roughnessFactor": 0.30151134729385376
      }
    },
    {
      "name": "phongE1",
      "pbrMetallicRoughness": {
        "baseColorFactor": [
          0.800000011920929,
          0.800000011920929,
          0.800000011920929,
          1.0
        ],
        "baseColorTexture": {
          "index": 6
        },
        "metallicFactor": 0.4000000059604645,
        "roughnessFactor": 0.3457820415496826
      }
    }
  ],
  "meshes": [
    {
      "name": "Platform_Material0",
      "primitives": [
        {
          "attributes": {
            "NORMAL": 1,
            "POSITION": 0,
            "TEXCOORD_0": 2,
            "TEXCOORD_1": 3
          },
          "indices": 4,
          "material": 0
        },
        {
          "attributes": {
            "NORMAL": 6,
            "POSITION": 5,
            "TEXCOORD_0": 7,
            "TEXCOORD_1": 8
          },
          "indices": 9,
          "material": 1
        }
      ]
    },
    {
      "name": "Ground",
      "primitives": [
        {
          "attributes": {
            "NORMAL": 11,
            "POSITION": 10,
            "TEXCOORD_0": 12
          },
          "indices": 13,
          "material": 2
        }
      ]
    },
    {
      "name": "Building_01",
      "primitives": [
        {
          "attributes": {
            "NORMAL": 15,
            "POSITION": 14,
            "TEXCOORD_0": 16
          },
          "indices": 17,
          "material": 3
        }
      ]
    },
    {
      "name": "Building_02",
      "primitives": [
        {
          "attributes": {
            "NORMAL": 19,
            "POSITION": 18,
            "TEXCOORD_0": 20,
            "TEXCOORD_1": 21
          },
          "indices": 22,
          "material": 4
        }
      ]
    },
    {
      "name": "Building_02_2",
      "primitives": [
        {
          "attributes": {
            "NORMAL": 24,
            "POSITION": 23,
            "TEXCOORD_0": 25,
            "TEXCOORD_1": 26
          },
          "indices": 27,
          "material": 4
        }
      ]
    },
    {
      "name": "Building_03",
      "primitives": [
        {
          "attributes": {
            "NORMAL": 29,
            "POSITION": 28,
            "TEXCOORD_0": 30
          },
          "indices": 31,
          "material": 5
        }
      ]
    },
    {
      "name": "Building_04",
      "primitives": [
        {
          "attributes": {
            "NORMAL": 33,
            "POSITION": 32,
            "TEXCOORD_0": 34
          },
          "indices": 35,
          "material": 6
        }
      ]
    },
    {
      "name": "Building_05",
      "primitives": [
        {
          "attributes": {
            "NORMAL": 37,
            "POSITION": 36,
            "TEXCOORD_0": 38
          },
          "indices": 39,
          "material": 7
        }
      ]
    },
    {
      "name": "Building_05_2",
      "primitives": [
        {
          "attributes": {
            "NORMAL": 41,
            "POSITION": 40,
            "TEXCOORD_0": 42
          },
          "indices": 43,
          "material": 7
        }
      ]
    }
  ],
  "nodes": [
    {
      "children": [
        1,
        2,
        3
      ],
      "name": "Background"
    },
    {
      "mesh": 0,
      "name": "Platform"
    },
    {
      "mesh": 1,
      "name": "Ground"
    },
    {
      "children": [
        4,
        5,
        6,
        7,
        8,
        9,
        10
      ],
      "name": "Building"
    },
    {
      "mesh": 2,
      "name": "Building_01"
    },
    {
      "mesh": 3,
      "name": "Building_02"
    },
    {
      "mesh": 4,
      "name": "Building_02_2"
    },
    {
      "mesh": 5,
      "name": "Building_03"
    },
    {
      "mesh": 6,
      "name": "Building_04"
    },
    {
      "mesh": 7,
      "name": "Building_05"
    },
    {
      "mesh": 8,
      "name": "Building_05_2"
    }
  ],
  "samplers": [
    {}
  ],
  "scenes": [
    {
      "nodes": [
        0
      ]
    }
  ],
  "textures": [
    {
      "name": "TexturesCom_ConcreteFloorsDamaged0042_1_S.png",
      "sampler": 0,
      "source": 0
    },
    {
      "name": "TexturesCom_Pavement_AsphaltOld_Old_1K_albedo.png",
      "sampler": 0,
      "source": 1
    },
    {
      "name": "file32",
      "sampler": 0,
      "source": 2
    },
    {
      "name": "file31",
      "sampler": 0,
      "source": 3
    },
    {
      "name": "file30",
      "sampler": 0,
      "source": 4
    },
    {
      "name": "file28",
      "sampler": 0,
      "source": 5
    },
    {
      "name": "file5",
      "sampler": 0,
      "source": 6
    }
  ]
}