{"buffers":[{"uri":"out.bin","byteLength":275640}],"asset":{"version":"2.0","generator":"gltfpack 0.14"},"bufferViews":[{"buffer":0,"byteOffset":0,"byteLength":11288,"byteStride":4,"target":34962},{"buffer":0,"byteOffset":11288,"byteLength":79800,"byteStride":12,"target":34962},{"buffer":0,"byteOffset":91088,"byteLength":79800,"byteStride":12,"target":34962},{"buffer":0,"byteOffset":170888,"byteLength":53200,"byteStride":8,"target":34962},{"buffer":0,"byteOffset":224088,"byteLength":11288,"byteStride":4,"target":34962},{"buffer":0,"byteOffset":235376,"byteLength":36678,"target":34963},{"buffer":0,"byteOffset":272056,"byteLength":3584}],"accessors":[{"bufferView":0,"byteOffset":0,"componentType":5121,"count":1288,"type":"VEC4"},{"bufferView":1,"byteOffset":0,"componentType":5126,"count":1288,"type":"VEC3"},{"bufferView":2,"byteOffset":0,"componentType":5126,"count":1288,"type":"VEC3","min":[-0.253279954,-0.000259518012,-0.0725972801],"max":[0.253279954,0.514817357,0.108464293]},{"bufferView":3,"byteOffset":0,"componentType":5126,"count":1288,"type":"VEC2"},{"bufferView":4,"byteOffset":0,"componentType":5121,"count":1288,"type":"VEC4","normalized":true},{"bufferView":5,"byteOffset":0,"componentType":5123,"count":6558,"type":"SCALAR"},{"bufferView":0,"byteOffset":5152,"componentType":5121,"count":998,"type":"VEC4"},{"bufferView":1,"byteOffset":15456,"componentType":5126,"count":998,"type":"VEC3"},{"bufferView":2,"byteOffset":15456,"componentType":5126,"count":998,"type":"VEC3","min":[-0.123055883,0.439872622,-0.0940800831],"max":[0.085748896,0.564095914,0.122476645]},{"bufferView":3,"byteOffset":10304,"componentType":5126,"count":998,"type":"VEC2"},{"bufferView":4,"byteOffset":5152,"componentType":5121,"count":998,"type":"VEC4","normalized":true},{"bufferView":5,"byteOffset":13116,"componentType":5123,"count":3204,"type":"SCALAR"},{"bufferView":0,"byteOffset":9144,"componentType":5121,"count":536,"type":"VEC4"},{"bufferView":1,"byteOffset":27432,"componentType":5126,"count":536,"type":"VEC3"},{"bufferView":2,"byteOffset":27432,"componentType":5126,"count":536,"type":"VEC3","min":[-0.137839407,0.170077801,-0.0951850042],"max":[0.141182423,0.346615046,0.113611981]},{"bufferView":3,"byteOffset":18288,"componentType":5126,"count":536,"type":"VEC2"},{"bufferView":4,"byteOffset":9144,"componentType":5121,"count":536,"type":"VEC4","normalized":true},{"bufferView":5,"byteOffset":19524,"componentType":5123,"count":2493,"type":"SCALAR"},{"bufferView":1,"byteOffset":33864,"componentType":5126,"count":3828,"type":"VEC3"},{"bufferView":2,"byteOffset":33864,"componentType":5126,"count":3828,"type":"VEC3","min":[-0.475603163,0.210852847,0.000320056453],"max":[-0.29997015,0.38198626,0.339962214]},{"bufferView":3,"byteOffset":22576,"componentType":5126,"count":3828,"type":"VEC2"},{"bufferView":5,"byteOffset":24510,"componentType":5123,"count":6084,"type":"SCALAR"},{"bufferView":6,"byteOffset":0,"componentType":5126,"count":26,"type":"MAT4"},{"bufferView":6,"byteOffset":1664,"componentType":5126,"count":1,"type":"MAT4"},{"bufferView":6,"byteOffset":1728,"componentType":5126,"count":29,"type":"MAT4"}],"images":[{"uri":"Texture.jpg"},{"uri":"Texture.jpg"}],"textures":[{"source":0},{"source":1}],"materials":[{"name":"enemy_police","pbrMetallicRoughness":{"baseColorTexture":{"index":0,"texCoord":0},"metallicFactor":0.400000006,"roughnessFactor":0.301511347}},{"name":"enemy_police1","pbrMetallicRoughness":{"baseColorTexture":{"index":1,"texCoord":0},"metallicFactor":0.400000006,"roughnessFactor":0.301511347}}],"meshes":[{"primitives":[{"attributes":{"JOINTS_0":0,"NORMAL":1,"POSITION":2,"TEXCOORD_0":3,"WEIGHTS_0":4},"mode":4,"indices":5,"material":0}]},{"primitives":[{"attributes":{"JOINTS_0":6,"NORMAL":7,"POSITION":8,"TEXCOORD_0":9,"WEIGHTS_0":10},"mode":4,"indices":11,"material":0}]},{"primitives":[{"attributes":{"JOINTS_0":12,"NORMAL":13,"POSITION":14,"TEXCOORD_0":15,"WEIGHTS_0":16},"mode":4,"indices":17,"material":0}]},{"primitives":[{"attributes":{"NORMAL":18,"POSITION":19,"TEXCOORD_0":20},"mode":4,"indices":21,"material":1}]}],"skins":[{"joints":[9,10,11,12,13,14,16,17,18,19,20,21,22,23,24,25,26,27,28,29,30,31,33,34,35,36],"inverseBindMatrices":22,"skeleton":9},{"joints":[14],"inverseBindMatrices":23,"skeleton":14},{"joints":[9,10,11,12,13,14,15,16,17,18,19,20,21,22,23,24,25,26,27,28,29,30,31,32,33,34,35,36,37],"inverseBindMatrices":24,"skeleton":9}],"nodes":[{"mesh":0,"skin":0},{"mesh":1,"skin":1},{"mesh":2,"skin":2},{"mesh":3},{"name":"RootNode","translation":[0,0,0],"rotation":[0,0,0,1],"scale":[1,1,1],"children":[5,9]},{"name":"lv1_policeman","translation":[0,0,0],"rotation":[0,0,0,1],"scale":[1,1,1],"children":[6,7,8]},{"name":"police_body","translation":[0,0,0],"rotation":[0,0,0,1],"scale":[1,1,1],"children":[0]},{"name":"police_hat","translation":[0,0,0],"rotation":[0,0,0,1],"scale":[1,1,1],"children":[1]},{"name":"police_shirt","translation":[0,0,0],"rotation":[0,0,0,1],"scale":[1,1,1],"children":[2]},{"name":"Root_M","translation":[2.55707459e-18,0.127513409,-0.00229860051],"rotation":[0.490313679,0.509502232,0.490313679,0.509502232],"scale":[1,1,1],"children":[10,25,26,27,28,33]},{"name":"Spine1_M","translation":[0.0472519137,-1.3322676e-17,-2.72065866e-18],"rotation":[3.29751084e-18,-1.15356305e-16,0.00867365021,0.999962389],"scale":[1,1,1],"children":[11,24]},{"name":"Spine2_M","translation":[0.0529840887,1.93178807e-16,7.91365595e-18],"rotation":[1.59653117e-18,-1.14371775e-16,0.00665112725,0.999977887],"scale":[1,1,1],"children":[12]},{"name":"Chest_M","translation":[0.0533306785,2.38142837e-16,3.48154265e-17],"rotation":[-2.79424113e-18,-1.27609484e-16,0.0328946039,0.999458849],"scale":[1,1,1],"children":[13,16,20]},{"name":"Neck_M","translation":[0.0499543957,4.44089183e-17,4.32763724e-17],"rotation":[7.77109252e-17,3.14147116e-17,0.00505647063,0.999987245],"scale":[1,1,1],"children":[14]},{"name":"Head_M","translation":[0.068772912,6.88338254e-16,8.25837007e-17],"rotation":[-1.60698813e-16,-1.44752279e-16,-0.0297265109,0.999558091],"scale":[1,1,1],"children":[15]},{"name":"HeadEnd_M","translation":[0.121032849,-6.30051561e-17,-3.36105949e-17],"rotation":[4.55639086e-16,-3.54914216e-16,1.61712793e-31,1],"scale":[1,1,1]},{"name":"Scapula_R","translation":[0.0192627478,0.0124517307,-0.0370938703],"rotation":[0.00134934904,0.70714581,-0.00147796795,0.707064927],"scale":[1,1,1],"children":[17]},{"name":"Shoulder_R","translation":[0.0244427398,-7.32747159e-17,-1.06581408e-16],"rotation":[-2.15034265e-06,-5.83155561e-05,-0.00941980444,0.999955654],"scale":[1,1,1],"children":[18]},{"name":"Elbow_R","translation":[0.0933845565,3.99680272e-17,7.81597005e-16],"rotation":[-4.44450694e-17,-3.29972769e-17,0.0202082228,0.999795794],"scale":[1,1,1],"children":[19]},{"name":"Wrist_R","translation":[0.0816095918,3.5527136e-17,-3.5527136e-17],"rotation":[3.46944695e-18,1.08420217e-19,-3.46944695e-18,1],"scale":[1,1,1]},{"name":"Scapula_L","translation":[0.0192627478,0.0124517307,0.0370938703],"rotation":[0.70714581,-0.00134934403,-0.707064927,-0.00147797517],"scale":[1,1,1],"children":[21]},{"name":"Shoulder_L","translation":[-0.0244427398,9.99200696e-17,-3.5527136e-17],"rotation":[-2.15034265e-06,-5.83155561e-05,-0.00941980444,0.999955654],"scale":[1,1,1],"children":[22]},{"name":"Elbow_L","translation":[-0.0933845565,-8.881784e-18,-1.03028694e-15],"rotation":[-3.75097854e-17,-3.27486562e-17,0.0202082228,0.999795794],"scale":[1,1,1],"children":[23]},{"name":"Wrist_L","translation":[-0.0816095918,-1.7763568e-17,8.17124108e-16],"rotation":[-6.9388939e-18,-2.16840434e-19,1.73472348e-18,1],"scale":[1,1,1]},{"name":"Belly1_M","translation":[0.00774259306,0.0746905878,5.68302032e-18],"rotation":[-0.494714469,-0.505230248,-0.494714469,0.505230248],"scale":[1,1,1]},{"name":"buttock_L","translation":[0.0248524323,-0.0598395579,0.00032889127],"rotation":[-0.490313649,-0.509502232,-0.490313649,0.509502232],"scale":[1,1,1]},{"name":"joint1_R","translation":[0.0308303498,0.0127053102,-0.0913606137],"rotation":[-0.490313649,-0.509502232,-0.490313649,0.509502232],"scale":[1,1,1]},{"name":"joint2_L","translation":[0.0308307782,0.0127053242,0.0913605988],"rotation":[0.509502232,-0.490313649,0.509502232,0.490313649],"scale":[1,1,1]},{"name":"Hip_R","translation":[-0.0136824679,-0.00122034771,-0.0555467159],"rotation":[0.166186512,0.985884964,-0.000176392597,0.0203181934],"scale":[1,1,1],"children":[29]},{"name":"Knee_R","translation":[0.050220266,-1.33226755e-16,-2.5518254e-13],"rotation":[-9.51897413e-17,5.47386447e-21,-0.369086385,0.92939508],"scale":[1,1,1],"children":[30]},{"name":"Ankle_R","translation":[0.0431536809,-3.22677432e-13,-1.60023104e-13],"rotation":[-0.0114845643,0.0179955326,0.190690905,0.981417954],"scale":[1,1,1],"children":[31]},{"name":"Toes_R","translation":[0.0246848222,0.029893443,7.93816846e-10],"rotation":[0.00265607284,-0.00231992966,0.657832742,0.753155768],"scale":[1,1,1],"children":[32]},{"name":"ToesEnd_R","translation":[0.0081333071,-3.60489387e-15,2.10221245e-08],"rotation":[1.75416403e-07,-1.29234797e-06,2.26685153e-13,1],"scale":[1,1,1]},{"name":"Hip_L","translation":[-0.0136824679,-0.00122034771,0.0555467159],"rotation":[0.985884964,-0.166186512,-0.0203181934,-0.000176392627],"scale":[1,1,1],"children":[34]},{"name":"Knee_L","translation":[-0.050220266,3.98679215e-11,2.5518254e-13],"rotation":[-1.01615538e-16,-6.77521802e-18,-0.369086385,0.92939508],"scale":[1,1,1],"children":[35]},{"name":"Ankle_L","translation":[-0.0431536809,3.4580748e-11,-7.83666426e-13],"rotation":[-0.0114845643,0.0179955326,0.19069089,0.981417954],"scale":[1,1,1],"children":[36]},{"name":"Toes_L","translation":[-0.0246848222,-0.029893443,-7.79654064e-10],"rotation":[0.00265705516,-0.00232078671,0.657832742,0.753155768],"scale":[1,1,1],"children":[37]},{"name":"ToesEnd_L","translation":[-0.0081333071,-5.4400926e-17,-2.83604249e-13],"rotation":[0,0,4.16333634e-17,1],"scale":[1,1,1]}],"scenes":[{"nodes":[3,4]}],"scene":0}