{
  "accessors": [
    {
      "bufferView": 0,
      "componentType": 5126,
      "count": 939,
      "max": [
        0.03530556708574295,
        0.11859066784381866,
        0.018932975828647614
      ],
      "min": [
        -0.035780686885118484,
        0.00011356353934388608,
        -0.020559407770633698
      ],
      "name": "nugget_Material0/POSITION",
      "type": "VEC3"
    },
    {
      "bufferView": 0,
      "byteOffset": 12,
      "componentType": 5126,
      "count": 939,
      "name": "nugget_Material0/NORMAL",
      "type": "VEC3"
    },
    {
      "bufferView": 0,
      "byteOffset": 24,
      "componentType": 5126,
      "count": 939,
      "name": "nugget_Material0/TEXCOORD_0",
      "type": "VEC2"
    },
    {
      "bufferView": 0,
      "byteOffset": 32,
      "componentType": 5126,
      "count": 939,
      "name": "nugget_Material0/TEXCOORD_1",
      "type": "VEC2"
    },
    {
      "bufferView": 0,
      "byteOffset": 40,
      "componentType": 5123,
      "count": 939,
      "name": "nugget_Material0/JOINTS_0",
      "type": "VEC4"
    },
    {
      "bufferView": 0,
      "byteOffset": 48,
      "componentType": 5126,
      "count": 939,
      "name": "nugget_Material0/WEIGHTS_0",
      "type": "VEC4"
    },
    {
      "bufferView": 1,
      "componentType": 5125,
      "count": 2388,
      "name": "nugget_Material0/INDICES",
      "type": "SCALAR"
    },
    {
      "bufferView": 2,
      "componentType": 5126,
      "count": 192,
      "max": [
        0.04491740092635155,
        0.1253380924463272,
        0.0340137742459774
      ],
      "min": [
        -0.046088799834251404,
        0.09583033621311188,
        -0.03424087166786194
      ],
      "name": "nugget_Material0/POSITION",
      "type": "VEC3"
    },
    {
      "bufferView": 2,
      "byteOffset": 12,
      "componentType": 5126,
      "count": 192,
      "name": "nugget_Material0/NORMAL",
      "type": "VEC3"
    },
    {
      "bufferView": 2,
      "byteOffset": 24,
      "componentType": 5126,
      "count": 192,
      "name": "nugget_Material0/TEXCOORD_0",
      "type": "VEC2"
    },
    {
      "bufferView": 2,
      "byteOffset": 32,
      "componentType": 5126,
      "count": 192,
      "name": "nugget_Material0/TEXCOORD_1",
      "type": "VEC2"
    },
    {
      "bufferView": 2,
      "byteOffset": 40,
      "componentType": 5123,
      "count": 192,
      "name": "nugget_Material0/JOINTS_0",
      "type": "VEC4"
    },
    {
      "bufferView": 2,
      "byteOffset": 48,
      "componentType": 5126,
      "count": 192,
      "name": "nugget_Material0/WEIGHTS_0",
      "type": "VEC4"
    },
    {
      "bufferView": 3,
      "componentType": 5125,
      "count": 288,
      "name": "nugget_Material0/INDICES",
      "type": "SCALAR"
    },
    {
      "bufferView": 4,
      "componentType": 5126,
      "count": 4,
      "name": "/InverseBindMatrices",
      "type": "MAT4"
    },
    {
      "bufferView": 5,
      "componentType": 5126,
      "count": 25,
      "max": [
        0.9333333373069763
      ],
      "min": [
        0.0
      ],
      "name": "joint1/Trs/Input",
      "type": "SCALAR"
    },
    {
      "bufferView": 6,
      "componentType": 5126,
      "count": 25,
      "name": "joint1/translation/Output",
      "type": "VEC3"
    },
    {
      "bufferView": 7,
      "componentType": 5126,
      "count": 25,
      "name": "joint1/rotation/Output",
      "type": "VEC4"
    },
    {
      "bufferView": 8,
      "componentType": 5126,
      "count": 25,
      "name": "joint1/scale/Output",
      "type": "VEC3"
    },
    {
      "bufferView": 9,
      "componentType": 5126,
      "count": 25,
      "max": [
        0.9333333373069763
      ],
      "min": [
        0.0
      ],
      "name": "joint2/Trs/Input",
      "type": "SCALAR"
    },
    {
      "bufferView": 10,
      "componentType": 5126,
      "count": 25,
      "name": "joint2/translation/Output",
      "type": "VEC3"
    },
    {
      "bufferView": 11,
      "componentType": 5126,
      "count": 25,
      "name": "joint2/rotation/Output",
      "type": "VEC4"
    },
    {
      "bufferView": 12,
      "componentType": 5126,
      "count": 25,
      "name": "joint2/scale/Output",
      "type": "VEC3"
    },
    {
      "bufferView": 13,
      "componentType": 5126,
      "count": 25,
      "max": [
        0.9333333373069763
      ],
      "min": [
        0.0
      ],
      "name": "joint3/Trs/Input",
      "type": "SCALAR"
    },
    {
      "bufferView": 14,
      "componentType": 5126,
      "count": 25,
      "name": "joint3/translation/Output",
      "type": "VEC3"
    },
    {
      "bufferView": 15,
      "componentType": 5126,
      "count": 25,
      "name": "joint3/rotation/Output",
      "type": "VEC4"
    },
    {
      "bufferView": 16,
      "componentType": 5126,
      "count": 25,
      "name": "joint3/scale/Output",
      "type": "VEC3"
    },
    {
      "bufferView": 17,
      "componentType": 5126,
      "count": 2,
      "max": [
        0.9333333373069763
      ],
      "min": [
        0.0
      ],
      "name": "joint4/Trs/Input",
      "type": "SCALAR"
    },
    {
      "bufferView": 18,
      "componentType": 5126,
      "count": 2,
      "name": "joint4/translation/Output",
      "type": "VEC3"
    },
    {
      "bufferView": 19,
      "componentType": 5126,
      "count": 2,
      "name": "joint4/rotation/Output",
      "type": "VEC4"
    },
    {
      "bufferView": 20,
      "componentType": 5126,
      "count": 2,
      "name": "joint4/scale/Output",
      "type": "VEC3"
    }
  ],
  "animations": [
    {
      "channels": [
        {
          "sampler": 0,
          "target": {
            "node": 1,
            "path": "translation"
          }
        },
        {
          "sampler": 1,
          "target": {
            "node": 1,
            "path": "rotation"
          }
        },
        {
          "sampler": 2,
          "target": {
            "node": 1,
            "path": "scale"
          }
        },
        {
          "sampler": 3,
          "target": {
            "node": 2,
            "path": "translation"
          }
        },
        {
          "sampler": 4,
          "target": {
            "node": 2,
            "path": "rotation"
          }
        },
        {
          "sampler": 5,
          "target": {
            "node": 2,
            "path": "scale"
          }
        },
        {
          "sampler": 6,
          "target": {
            "node": 3,
            "path": "translation"
          }
        },
        {
          "sampler": 7,
          "target": {
            "node": 3,
            "path": "rotation"
          }
        },
        {
          "sampler": 8,
          "target": {
            "node": 3,
            "path": "scale"
          }
        },
        {
          "sampler": 9,
          "target": {
            "node": 4,
            "path": "translation"
          }
        },
        {
          "sampler": 10,
          "target": {
            "node": 4,
            "path": "rotation"
          }
        },
        {
          "sampler": 11,
          "target": {
            "node": 4,
            "path": "scale"
          }
        }
      ],
      "name": "nugget_atk",
      "samplers": [
        {
          "input": 15,
          "output": 16
        },
        {
          "input": 15,
          "output": 17
        },
        {
          "input": 15,
          "output": 18
        },
        {
          "input": 19,
          "output": 20
        },
        {
          "input": 19,
          "output": 21
        },
        {
          "input": 19,
          "output": 22
        },
        {
          "input": 23,
          "output": 24
        },
        {
          "input": 23,
          "output": 25
        },
        {
          "input": 23,
          "output": 26
        },
        {
          "input": 27,
          "output": 28
        },
        {
          "input": 27,
          "output": 29
        },
        {
          "input": 27,
          "output": 30
        }
      ]
    }
  ],
  "asset": {
    "copyright": "Copyright (c) 2018-2020 Chukong Technologies Inc.",
    "generator": "FBX-glTF-conv",
    "version": "2.0"
  },
  "bufferViews": [
    {
      "buffer": 0,
      "byteLength": 60096,
      "byteStride": 64,
      "name": "nugget_Material0",
      "target": 34962
    },
    {
      "buffer": 0,
      "byteLength": 9552,
      "byteOffset": 60096
    },
    {
      "buffer": 0,
      "byteLength": 12288,
      "byteOffset": 69648,
      "byteStride": 64,
      "name": "nugget_Material0",
      "target": 34962
    },
    {
      "buffer": 0,
      "byteLength": 1152,
      "byteOffset": 81936
    },
    {
      "buffer": 0,
      "byteLength": 256,
      "byteOffset": 83088
    },
    {
      "buffer": 0,
      "byteLength": 100,
      "byteOffset": 83344
    },
    {
      "buffer": 0,
      "byteLength": 300,
      "byteOffset": 83444
    },
    {
      "buffer": 0,
      "byteLength": 400,
      "byteOffset": 83744
    },
    {
      "buffer": 0,
      "byteLength": 300,
      "byteOffset": 84144
    },
    {
      "buffer": 0,
      "byteLength": 100,
      "byteOffset": 84444
    },
    {
      "buffer": 0,
      "byteLength": 300,
      "byteOffset": 84544
    },
    {
      "buffer": 0,
      "byteLength": 400,
      "byteOffset": 84844
    },
    {
      "buffer": 0,
      "byteLength": 300,
      "byteOffset": 85244
    },
    {
      "buffer": 0,
      "byteLength": 100,
      "byteOffset": 85544
    },
    {
      "buffer": 0,
      "byteLength": 300,
      "byteOffset": 85644
    },
    {
      "buffer": 0,
      "byteLength": 400,
      "byteOffset": 85944
    },
    {
      "buffer": 0,
      "byteLength": 300,
      "byteOffset": 86344
    },
    {
      "buffer": 0,
      "byteLength": 8,
      "byteOffset": 86644
    },
    {
      "buffer": 0,
      "byteLength": 24,
      "byteOffset": 86652
    },
    {
      "buffer": 0,
      "byteLength": 32,
      "byteOffset": 86676
    },
    {
      "buffer": 0,
      "byteLength": 24,
      "byteOffset": 86708
    }
  ],
  "buffers": [
    {
      "byteLength": 86732,
      "uri": "out.bin"
    }
  ],
  "extras": {
    "FBX-glTF-conv": {
      "animationFrameRate": 30.0
    }
  },
  "images": [
    {
      "extras": {
        "FBX-glTF-conv": {
          "fileName": "D:\\PA_2024\\3D\\MergeCraft\\MergeCraft_Op7\\temp\\asset-db\\assets\\fbx.FBX-glTF-conv\\46327066-603d-4704-8564-da74ece1218a\\output\\.fbm\\E3841BCD\\nugget_atk.fbm/nugget.png",
          "relativeFileName": "..\\..\\..\\..\\temp\\asset-db\\assets\\fbx.FBX-glTF-conv\\46327066-603d-4704-8564-da74ece1218a\\output\\.fbm\\E3841BCD\\nugget_atk.fbm\\nugget.png"
        }
      },
      "name": "base_color_texture7",
      "uri": "nugget.png"
    },
    {
      "extras": {
        "FBX-glTF-conv": {
          "fileName": "D:/Merge Craft/support mkt/cowboy-hat/textures/gltf_embedded_0.png",
          "relativeFileName": "..\\..\\..\\Merge Craft\\support mkt\\cowboy-hat\\textures\\gltf_embedded_0.png"
        }
      },
      "name": "base_color_texture",
      "uri": "data:image/png;base64,"
    }
  ],
  "materials": [
    {
      "name": "nugget4",
      "pbrMetallicRoughness": {
        "baseColorTexture": {
          "index": 0
        }
      }
    },
    {
      "name": "hat2",
      "pbrMetallicRoughness": {
        "baseColorTexture": {
          "index": 1,
          "texCoord": 1
        }
      }
    }
  ],
  "meshes": [
    {
      "name": "nugget_Material0",
      "primitives": [
        {
          "attributes": {
            "JOINTS_0": 4,
            "NORMAL": 1,
            "POSITION": 0,
            "TEXCOORD_0": 2,
            "TEXCOORD_1": 3,
            "WEIGHTS_0": 5
          },
          "indices": 6,
          "material": 0
        },
        {
          "attributes": {
            "JOINTS_0": 11,
            "NORMAL": 8,
            "POSITION": 7,
            "TEXCOORD_0": 9,
            "TEXCOORD_1": 10,
            "WEIGHTS_0": 12
          },
          "indices": 13,
          "material": 1
        }
      ]
    }
  ],
  "nodes": [
    {
      "mesh": 0,
      "name": "nugget",
      "skin": 0
    },
    {
      "children": [
        2
      ],
      "extras": {
        "FBX-glTF-conv": {
          "skeleton": {
            "skeletonType": "LimbNode"
          }
        }
      },
      "name": "joint1",
      "rotation": [
        0.6961484551429749,
        0.7178978323936462,
        4.395856481660748e-17,
        4.2626797412952206e-17
      ],
      "translation": [
        0.0004199999966658652,
        0.0004199999966658652,
        0.0
      ]
    },
    {
      "children": [
        3
      ],
      "extras": {
        "FBX-glTF-conv": {
          "skeleton": {
            "skeletonType": "LimbNode"
          }
        }
      },
      "name": "joint2",
      "rotation": [
        -5.862742809895634e-33,
        -1.883403607614079e-18,
        0.015379156917333603,
        0.9998817443847656
      ],
      "translation": [
        0.031198682263493538,
        2.7755574995243454e-19,
        3.081487842142955e-35
      ]
    },
    {
      "children": [
        4
      ],
      "extras": {
        "FBX-glTF-conv": {
          "skeleton": {
            "skeletonType": "LimbNode"
          }
        }
      },
      "name": "joint3",
      "rotation": [
        0.9999364018440247,
        0.011276043951511383,
        3.953129234615421e-18,
        6.119165196056568e-17
      ],
      "translation": [
        0.03142379969358444,
        6.349087657377318e-17,
        1.1835338978499933e-19
      ]
    },
    {
      "extras": {
        "FBX-glTF-conv": {
          "skeleton": {
            "skeletonType": "LimbNode"
          }
        }
      },
      "name": "joint4",
      "rotation": [
        1.723386096395214e-32,
        1.762697860096176e-32,
        -0.699088454246521,
        0.7150352001190186
      ],
      "translation": [
        0.03191166743636131,
        -2.5535130029599743e-17,
        -2.0824775984208246e-19
      ]
    }
  ],
  "samplers": [
    {}
  ],
  "scenes": [
    {
      "nodes": [
        0,
        1
      ]
    }
  ],
  "skins": [
    {
      "inverseBindMatrices": 14,
      "joints": [
        1,
        2,
        3,
        4
      ]
    }
  ],
  "textures": [
    {
      "name": "base_color_texture7",
      "sampler": 0,
      "source": 0
    },
    {
      "name": "base_color_texture",
      "sampler": 0,
      "source": 1
    }
  ]
}